%TF.GenerationSoftware,KiCad,Pcbnew,8.0.6-1.fc39*%
%TF.CreationDate,2024-10-31T14:54:44-07:00*%
%TF.ProjectId,IIS3DWB_eval,49495333-4457-4425-9f65-76616c2e6b69,rev?*%
%TF.SameCoordinates,Original*%
%TF.FileFunction,Legend,Top*%
%TF.FilePolarity,Positive*%
%FSLAX46Y46*%
G04 Gerber Fmt 4.6, Leading zero omitted, Abs format (unit mm)*
G04 Created by KiCad (PCBNEW 8.0.6-1.fc39) date 2024-10-31 14:54:44*
%MOMM*%
%LPD*%
G01*
G04 APERTURE LIST*
%ADD10C,0.050000*%
%ADD11C,0.150000*%
%ADD12C,0.120000*%
G04 APERTURE END LIST*
G36*
X151845000Y-98973000D02*
G01*
X156845000Y-98973000D01*
X156845000Y-103973000D01*
X151845000Y-103973000D01*
X151845000Y-98973000D01*
G37*
D10*
X160077491Y-98296867D02*
X159677491Y-98296867D01*
X160077491Y-98106391D02*
X159677491Y-98106391D01*
X160058444Y-97934963D02*
X160077491Y-97877820D01*
X160077491Y-97877820D02*
X160077491Y-97782582D01*
X160077491Y-97782582D02*
X160058444Y-97744487D01*
X160058444Y-97744487D02*
X160039396Y-97725439D01*
X160039396Y-97725439D02*
X160001301Y-97706392D01*
X160001301Y-97706392D02*
X159963205Y-97706392D01*
X159963205Y-97706392D02*
X159925110Y-97725439D01*
X159925110Y-97725439D02*
X159906063Y-97744487D01*
X159906063Y-97744487D02*
X159887015Y-97782582D01*
X159887015Y-97782582D02*
X159867967Y-97858773D01*
X159867967Y-97858773D02*
X159848920Y-97896868D01*
X159848920Y-97896868D02*
X159829872Y-97915915D01*
X159829872Y-97915915D02*
X159791777Y-97934963D01*
X159791777Y-97934963D02*
X159753682Y-97934963D01*
X159753682Y-97934963D02*
X159715586Y-97915915D01*
X159715586Y-97915915D02*
X159696539Y-97896868D01*
X159696539Y-97896868D02*
X159677491Y-97858773D01*
X159677491Y-97858773D02*
X159677491Y-97763534D01*
X159677491Y-97763534D02*
X159696539Y-97706392D01*
X159677491Y-97573059D02*
X159677491Y-97325440D01*
X159677491Y-97325440D02*
X159829872Y-97458773D01*
X159829872Y-97458773D02*
X159829872Y-97401630D01*
X159829872Y-97401630D02*
X159848920Y-97363535D01*
X159848920Y-97363535D02*
X159867967Y-97344487D01*
X159867967Y-97344487D02*
X159906063Y-97325440D01*
X159906063Y-97325440D02*
X160001301Y-97325440D01*
X160001301Y-97325440D02*
X160039396Y-97344487D01*
X160039396Y-97344487D02*
X160058444Y-97363535D01*
X160058444Y-97363535D02*
X160077491Y-97401630D01*
X160077491Y-97401630D02*
X160077491Y-97515916D01*
X160077491Y-97515916D02*
X160058444Y-97554011D01*
X160058444Y-97554011D02*
X160039396Y-97573059D01*
X160077491Y-97154011D02*
X159677491Y-97154011D01*
X159677491Y-97154011D02*
X159677491Y-97058773D01*
X159677491Y-97058773D02*
X159696539Y-97001630D01*
X159696539Y-97001630D02*
X159734634Y-96963535D01*
X159734634Y-96963535D02*
X159772729Y-96944488D01*
X159772729Y-96944488D02*
X159848920Y-96925440D01*
X159848920Y-96925440D02*
X159906063Y-96925440D01*
X159906063Y-96925440D02*
X159982253Y-96944488D01*
X159982253Y-96944488D02*
X160020348Y-96963535D01*
X160020348Y-96963535D02*
X160058444Y-97001630D01*
X160058444Y-97001630D02*
X160077491Y-97058773D01*
X160077491Y-97058773D02*
X160077491Y-97154011D01*
X159677491Y-96792107D02*
X160077491Y-96696869D01*
X160077491Y-96696869D02*
X159791777Y-96620678D01*
X159791777Y-96620678D02*
X160077491Y-96544488D01*
X160077491Y-96544488D02*
X159677491Y-96449250D01*
X159867967Y-96163535D02*
X159887015Y-96106392D01*
X159887015Y-96106392D02*
X159906063Y-96087345D01*
X159906063Y-96087345D02*
X159944158Y-96068297D01*
X159944158Y-96068297D02*
X160001301Y-96068297D01*
X160001301Y-96068297D02*
X160039396Y-96087345D01*
X160039396Y-96087345D02*
X160058444Y-96106392D01*
X160058444Y-96106392D02*
X160077491Y-96144487D01*
X160077491Y-96144487D02*
X160077491Y-96296868D01*
X160077491Y-96296868D02*
X159677491Y-96296868D01*
X159677491Y-96296868D02*
X159677491Y-96163535D01*
X159677491Y-96163535D02*
X159696539Y-96125440D01*
X159696539Y-96125440D02*
X159715586Y-96106392D01*
X159715586Y-96106392D02*
X159753682Y-96087345D01*
X159753682Y-96087345D02*
X159791777Y-96087345D01*
X159791777Y-96087345D02*
X159829872Y-96106392D01*
X159829872Y-96106392D02*
X159848920Y-96125440D01*
X159848920Y-96125440D02*
X159867967Y-96163535D01*
X159867967Y-96163535D02*
X159867967Y-96296868D01*
X159677491Y-95649249D02*
X159677491Y-95420678D01*
X160077491Y-95534964D02*
X159677491Y-95534964D01*
X160058444Y-95134963D02*
X160077491Y-95173059D01*
X160077491Y-95173059D02*
X160077491Y-95249249D01*
X160077491Y-95249249D02*
X160058444Y-95287344D01*
X160058444Y-95287344D02*
X160020348Y-95306392D01*
X160020348Y-95306392D02*
X159867967Y-95306392D01*
X159867967Y-95306392D02*
X159829872Y-95287344D01*
X159829872Y-95287344D02*
X159810824Y-95249249D01*
X159810824Y-95249249D02*
X159810824Y-95173059D01*
X159810824Y-95173059D02*
X159829872Y-95134963D01*
X159829872Y-95134963D02*
X159867967Y-95115916D01*
X159867967Y-95115916D02*
X159906063Y-95115916D01*
X159906063Y-95115916D02*
X159944158Y-95306392D01*
X160058444Y-94963535D02*
X160077491Y-94925440D01*
X160077491Y-94925440D02*
X160077491Y-94849249D01*
X160077491Y-94849249D02*
X160058444Y-94811154D01*
X160058444Y-94811154D02*
X160020348Y-94792106D01*
X160020348Y-94792106D02*
X160001301Y-94792106D01*
X160001301Y-94792106D02*
X159963205Y-94811154D01*
X159963205Y-94811154D02*
X159944158Y-94849249D01*
X159944158Y-94849249D02*
X159944158Y-94906392D01*
X159944158Y-94906392D02*
X159925110Y-94944487D01*
X159925110Y-94944487D02*
X159887015Y-94963535D01*
X159887015Y-94963535D02*
X159867967Y-94963535D01*
X159867967Y-94963535D02*
X159829872Y-94944487D01*
X159829872Y-94944487D02*
X159810824Y-94906392D01*
X159810824Y-94906392D02*
X159810824Y-94849249D01*
X159810824Y-94849249D02*
X159829872Y-94811154D01*
X159810824Y-94677820D02*
X159810824Y-94525439D01*
X159677491Y-94620677D02*
X160020348Y-94620677D01*
X160020348Y-94620677D02*
X160058444Y-94601630D01*
X160058444Y-94601630D02*
X160077491Y-94563535D01*
X160077491Y-94563535D02*
X160077491Y-94525439D01*
X159867967Y-93954011D02*
X159887015Y-93896868D01*
X159887015Y-93896868D02*
X159906063Y-93877821D01*
X159906063Y-93877821D02*
X159944158Y-93858773D01*
X159944158Y-93858773D02*
X160001301Y-93858773D01*
X160001301Y-93858773D02*
X160039396Y-93877821D01*
X160039396Y-93877821D02*
X160058444Y-93896868D01*
X160058444Y-93896868D02*
X160077491Y-93934963D01*
X160077491Y-93934963D02*
X160077491Y-94087344D01*
X160077491Y-94087344D02*
X159677491Y-94087344D01*
X159677491Y-94087344D02*
X159677491Y-93954011D01*
X159677491Y-93954011D02*
X159696539Y-93915916D01*
X159696539Y-93915916D02*
X159715586Y-93896868D01*
X159715586Y-93896868D02*
X159753682Y-93877821D01*
X159753682Y-93877821D02*
X159791777Y-93877821D01*
X159791777Y-93877821D02*
X159829872Y-93896868D01*
X159829872Y-93896868D02*
X159848920Y-93915916D01*
X159848920Y-93915916D02*
X159867967Y-93954011D01*
X159867967Y-93954011D02*
X159867967Y-94087344D01*
X160077491Y-93630202D02*
X160058444Y-93668297D01*
X160058444Y-93668297D02*
X160039396Y-93687344D01*
X160039396Y-93687344D02*
X160001301Y-93706392D01*
X160001301Y-93706392D02*
X159887015Y-93706392D01*
X159887015Y-93706392D02*
X159848920Y-93687344D01*
X159848920Y-93687344D02*
X159829872Y-93668297D01*
X159829872Y-93668297D02*
X159810824Y-93630202D01*
X159810824Y-93630202D02*
X159810824Y-93573059D01*
X159810824Y-93573059D02*
X159829872Y-93534963D01*
X159829872Y-93534963D02*
X159848920Y-93515916D01*
X159848920Y-93515916D02*
X159887015Y-93496868D01*
X159887015Y-93496868D02*
X160001301Y-93496868D01*
X160001301Y-93496868D02*
X160039396Y-93515916D01*
X160039396Y-93515916D02*
X160058444Y-93534963D01*
X160058444Y-93534963D02*
X160077491Y-93573059D01*
X160077491Y-93573059D02*
X160077491Y-93630202D01*
X160077491Y-93154011D02*
X159867967Y-93154011D01*
X159867967Y-93154011D02*
X159829872Y-93173058D01*
X159829872Y-93173058D02*
X159810824Y-93211154D01*
X159810824Y-93211154D02*
X159810824Y-93287344D01*
X159810824Y-93287344D02*
X159829872Y-93325439D01*
X160058444Y-93154011D02*
X160077491Y-93192106D01*
X160077491Y-93192106D02*
X160077491Y-93287344D01*
X160077491Y-93287344D02*
X160058444Y-93325439D01*
X160058444Y-93325439D02*
X160020348Y-93344487D01*
X160020348Y-93344487D02*
X159982253Y-93344487D01*
X159982253Y-93344487D02*
X159944158Y-93325439D01*
X159944158Y-93325439D02*
X159925110Y-93287344D01*
X159925110Y-93287344D02*
X159925110Y-93192106D01*
X159925110Y-93192106D02*
X159906063Y-93154011D01*
X160077491Y-92963534D02*
X159810824Y-92963534D01*
X159887015Y-92963534D02*
X159848920Y-92944487D01*
X159848920Y-92944487D02*
X159829872Y-92925439D01*
X159829872Y-92925439D02*
X159810824Y-92887344D01*
X159810824Y-92887344D02*
X159810824Y-92849249D01*
X160077491Y-92544487D02*
X159677491Y-92544487D01*
X160058444Y-92544487D02*
X160077491Y-92582582D01*
X160077491Y-92582582D02*
X160077491Y-92658773D01*
X160077491Y-92658773D02*
X160058444Y-92696868D01*
X160058444Y-92696868D02*
X160039396Y-92715915D01*
X160039396Y-92715915D02*
X160001301Y-92734963D01*
X160001301Y-92734963D02*
X159887015Y-92734963D01*
X159887015Y-92734963D02*
X159848920Y-92715915D01*
X159848920Y-92715915D02*
X159829872Y-92696868D01*
X159829872Y-92696868D02*
X159810824Y-92658773D01*
X159810824Y-92658773D02*
X159810824Y-92582582D01*
X159810824Y-92582582D02*
X159829872Y-92544487D01*
X160721469Y-98068296D02*
X160530993Y-98201629D01*
X160721469Y-98296867D02*
X160321469Y-98296867D01*
X160321469Y-98296867D02*
X160321469Y-98144486D01*
X160321469Y-98144486D02*
X160340517Y-98106391D01*
X160340517Y-98106391D02*
X160359564Y-98087344D01*
X160359564Y-98087344D02*
X160397660Y-98068296D01*
X160397660Y-98068296D02*
X160454802Y-98068296D01*
X160454802Y-98068296D02*
X160492898Y-98087344D01*
X160492898Y-98087344D02*
X160511945Y-98106391D01*
X160511945Y-98106391D02*
X160530993Y-98144486D01*
X160530993Y-98144486D02*
X160530993Y-98296867D01*
X160454802Y-97934963D02*
X160721469Y-97839725D01*
X160454802Y-97744486D02*
X160721469Y-97839725D01*
X160721469Y-97839725D02*
X160816707Y-97877820D01*
X160816707Y-97877820D02*
X160835755Y-97896867D01*
X160835755Y-97896867D02*
X160854802Y-97934963D01*
X160721469Y-97420677D02*
X160511945Y-97420677D01*
X160511945Y-97420677D02*
X160473850Y-97439724D01*
X160473850Y-97439724D02*
X160454802Y-97477820D01*
X160454802Y-97477820D02*
X160454802Y-97554010D01*
X160454802Y-97554010D02*
X160473850Y-97592105D01*
X160702422Y-97420677D02*
X160721469Y-97458772D01*
X160721469Y-97458772D02*
X160721469Y-97554010D01*
X160721469Y-97554010D02*
X160702422Y-97592105D01*
X160702422Y-97592105D02*
X160664326Y-97611153D01*
X160664326Y-97611153D02*
X160626231Y-97611153D01*
X160626231Y-97611153D02*
X160588136Y-97592105D01*
X160588136Y-97592105D02*
X160569088Y-97554010D01*
X160569088Y-97554010D02*
X160569088Y-97458772D01*
X160569088Y-97458772D02*
X160550041Y-97420677D01*
X160454802Y-97230200D02*
X160721469Y-97230200D01*
X160492898Y-97230200D02*
X160473850Y-97211153D01*
X160473850Y-97211153D02*
X160454802Y-97173058D01*
X160454802Y-97173058D02*
X160454802Y-97115915D01*
X160454802Y-97115915D02*
X160473850Y-97077819D01*
X160473850Y-97077819D02*
X160511945Y-97058772D01*
X160511945Y-97058772D02*
X160721469Y-97058772D01*
X160321469Y-96449248D02*
X160607183Y-96449248D01*
X160607183Y-96449248D02*
X160664326Y-96468295D01*
X160664326Y-96468295D02*
X160702422Y-96506391D01*
X160702422Y-96506391D02*
X160721469Y-96563533D01*
X160721469Y-96563533D02*
X160721469Y-96601629D01*
X160721469Y-96087343D02*
X160511945Y-96087343D01*
X160511945Y-96087343D02*
X160473850Y-96106390D01*
X160473850Y-96106390D02*
X160454802Y-96144486D01*
X160454802Y-96144486D02*
X160454802Y-96220676D01*
X160454802Y-96220676D02*
X160473850Y-96258771D01*
X160702422Y-96087343D02*
X160721469Y-96125438D01*
X160721469Y-96125438D02*
X160721469Y-96220676D01*
X160721469Y-96220676D02*
X160702422Y-96258771D01*
X160702422Y-96258771D02*
X160664326Y-96277819D01*
X160664326Y-96277819D02*
X160626231Y-96277819D01*
X160626231Y-96277819D02*
X160588136Y-96258771D01*
X160588136Y-96258771D02*
X160569088Y-96220676D01*
X160569088Y-96220676D02*
X160569088Y-96125438D01*
X160569088Y-96125438D02*
X160550041Y-96087343D01*
X160702422Y-95725438D02*
X160721469Y-95763533D01*
X160721469Y-95763533D02*
X160721469Y-95839724D01*
X160721469Y-95839724D02*
X160702422Y-95877819D01*
X160702422Y-95877819D02*
X160683374Y-95896866D01*
X160683374Y-95896866D02*
X160645279Y-95915914D01*
X160645279Y-95915914D02*
X160530993Y-95915914D01*
X160530993Y-95915914D02*
X160492898Y-95896866D01*
X160492898Y-95896866D02*
X160473850Y-95877819D01*
X160473850Y-95877819D02*
X160454802Y-95839724D01*
X160454802Y-95839724D02*
X160454802Y-95763533D01*
X160454802Y-95763533D02*
X160473850Y-95725438D01*
X160721469Y-95496867D02*
X160702422Y-95534962D01*
X160702422Y-95534962D02*
X160683374Y-95554009D01*
X160683374Y-95554009D02*
X160645279Y-95573057D01*
X160645279Y-95573057D02*
X160530993Y-95573057D01*
X160530993Y-95573057D02*
X160492898Y-95554009D01*
X160492898Y-95554009D02*
X160473850Y-95534962D01*
X160473850Y-95534962D02*
X160454802Y-95496867D01*
X160454802Y-95496867D02*
X160454802Y-95439724D01*
X160454802Y-95439724D02*
X160473850Y-95401628D01*
X160473850Y-95401628D02*
X160492898Y-95382581D01*
X160492898Y-95382581D02*
X160530993Y-95363533D01*
X160530993Y-95363533D02*
X160645279Y-95363533D01*
X160645279Y-95363533D02*
X160683374Y-95382581D01*
X160683374Y-95382581D02*
X160702422Y-95401628D01*
X160702422Y-95401628D02*
X160721469Y-95439724D01*
X160721469Y-95439724D02*
X160721469Y-95496867D01*
X160721469Y-95192104D02*
X160321469Y-95192104D01*
X160473850Y-95192104D02*
X160454802Y-95154009D01*
X160454802Y-95154009D02*
X160454802Y-95077819D01*
X160454802Y-95077819D02*
X160473850Y-95039723D01*
X160473850Y-95039723D02*
X160492898Y-95020676D01*
X160492898Y-95020676D02*
X160530993Y-95001628D01*
X160530993Y-95001628D02*
X160645279Y-95001628D01*
X160645279Y-95001628D02*
X160683374Y-95020676D01*
X160683374Y-95020676D02*
X160702422Y-95039723D01*
X160702422Y-95039723D02*
X160721469Y-95077819D01*
X160721469Y-95077819D02*
X160721469Y-95154009D01*
X160721469Y-95154009D02*
X160702422Y-95192104D01*
X160454802Y-94868295D02*
X160721469Y-94773057D01*
X160454802Y-94677818D02*
X160721469Y-94773057D01*
X160721469Y-94773057D02*
X160816707Y-94811152D01*
X160816707Y-94811152D02*
X160835755Y-94830199D01*
X160835755Y-94830199D02*
X160854802Y-94868295D01*
X161365447Y-98296867D02*
X160965447Y-98296867D01*
X161155923Y-98296867D02*
X161155923Y-98068296D01*
X161365447Y-98068296D02*
X160965447Y-98068296D01*
X161365447Y-97706391D02*
X161155923Y-97706391D01*
X161155923Y-97706391D02*
X161117828Y-97725438D01*
X161117828Y-97725438D02*
X161098780Y-97763534D01*
X161098780Y-97763534D02*
X161098780Y-97839724D01*
X161098780Y-97839724D02*
X161117828Y-97877819D01*
X161346400Y-97706391D02*
X161365447Y-97744486D01*
X161365447Y-97744486D02*
X161365447Y-97839724D01*
X161365447Y-97839724D02*
X161346400Y-97877819D01*
X161346400Y-97877819D02*
X161308304Y-97896867D01*
X161308304Y-97896867D02*
X161270209Y-97896867D01*
X161270209Y-97896867D02*
X161232114Y-97877819D01*
X161232114Y-97877819D02*
X161213066Y-97839724D01*
X161213066Y-97839724D02*
X161213066Y-97744486D01*
X161213066Y-97744486D02*
X161194019Y-97706391D01*
X161365447Y-97344486D02*
X161155923Y-97344486D01*
X161155923Y-97344486D02*
X161117828Y-97363533D01*
X161117828Y-97363533D02*
X161098780Y-97401629D01*
X161098780Y-97401629D02*
X161098780Y-97477819D01*
X161098780Y-97477819D02*
X161117828Y-97515914D01*
X161346400Y-97344486D02*
X161365447Y-97382581D01*
X161365447Y-97382581D02*
X161365447Y-97477819D01*
X161365447Y-97477819D02*
X161346400Y-97515914D01*
X161346400Y-97515914D02*
X161308304Y-97534962D01*
X161308304Y-97534962D02*
X161270209Y-97534962D01*
X161270209Y-97534962D02*
X161232114Y-97515914D01*
X161232114Y-97515914D02*
X161213066Y-97477819D01*
X161213066Y-97477819D02*
X161213066Y-97382581D01*
X161213066Y-97382581D02*
X161194019Y-97344486D01*
X161346400Y-97173057D02*
X161365447Y-97134962D01*
X161365447Y-97134962D02*
X161365447Y-97058771D01*
X161365447Y-97058771D02*
X161346400Y-97020676D01*
X161346400Y-97020676D02*
X161308304Y-97001628D01*
X161308304Y-97001628D02*
X161289257Y-97001628D01*
X161289257Y-97001628D02*
X161251161Y-97020676D01*
X161251161Y-97020676D02*
X161232114Y-97058771D01*
X161232114Y-97058771D02*
X161232114Y-97115914D01*
X161232114Y-97115914D02*
X161213066Y-97154009D01*
X161213066Y-97154009D02*
X161174971Y-97173057D01*
X161174971Y-97173057D02*
X161155923Y-97173057D01*
X161155923Y-97173057D02*
X161117828Y-97154009D01*
X161117828Y-97154009D02*
X161098780Y-97115914D01*
X161098780Y-97115914D02*
X161098780Y-97058771D01*
X161098780Y-97058771D02*
X161117828Y-97020676D01*
X161365447Y-96525437D02*
X160965447Y-96525437D01*
X161155923Y-96525437D02*
X161155923Y-96296866D01*
X161365447Y-96296866D02*
X160965447Y-96296866D01*
X161365447Y-96049247D02*
X161346400Y-96087342D01*
X161346400Y-96087342D02*
X161327352Y-96106389D01*
X161327352Y-96106389D02*
X161289257Y-96125437D01*
X161289257Y-96125437D02*
X161174971Y-96125437D01*
X161174971Y-96125437D02*
X161136876Y-96106389D01*
X161136876Y-96106389D02*
X161117828Y-96087342D01*
X161117828Y-96087342D02*
X161098780Y-96049247D01*
X161098780Y-96049247D02*
X161098780Y-95992104D01*
X161098780Y-95992104D02*
X161117828Y-95954008D01*
X161117828Y-95954008D02*
X161136876Y-95934961D01*
X161136876Y-95934961D02*
X161174971Y-95915913D01*
X161174971Y-95915913D02*
X161289257Y-95915913D01*
X161289257Y-95915913D02*
X161327352Y-95934961D01*
X161327352Y-95934961D02*
X161346400Y-95954008D01*
X161346400Y-95954008D02*
X161365447Y-95992104D01*
X161365447Y-95992104D02*
X161365447Y-96049247D01*
X161365447Y-95687342D02*
X161346400Y-95725437D01*
X161346400Y-95725437D02*
X161327352Y-95744484D01*
X161327352Y-95744484D02*
X161289257Y-95763532D01*
X161289257Y-95763532D02*
X161174971Y-95763532D01*
X161174971Y-95763532D02*
X161136876Y-95744484D01*
X161136876Y-95744484D02*
X161117828Y-95725437D01*
X161117828Y-95725437D02*
X161098780Y-95687342D01*
X161098780Y-95687342D02*
X161098780Y-95630199D01*
X161098780Y-95630199D02*
X161117828Y-95592103D01*
X161117828Y-95592103D02*
X161136876Y-95573056D01*
X161136876Y-95573056D02*
X161174971Y-95554008D01*
X161174971Y-95554008D02*
X161289257Y-95554008D01*
X161289257Y-95554008D02*
X161327352Y-95573056D01*
X161327352Y-95573056D02*
X161346400Y-95592103D01*
X161346400Y-95592103D02*
X161365447Y-95630199D01*
X161365447Y-95630199D02*
X161365447Y-95687342D01*
X161365447Y-95325437D02*
X161346400Y-95363532D01*
X161346400Y-95363532D02*
X161308304Y-95382579D01*
X161308304Y-95382579D02*
X160965447Y-95382579D01*
X161365447Y-95173055D02*
X161098780Y-95173055D01*
X160965447Y-95173055D02*
X160984495Y-95192103D01*
X160984495Y-95192103D02*
X161003542Y-95173055D01*
X161003542Y-95173055D02*
X160984495Y-95154008D01*
X160984495Y-95154008D02*
X160965447Y-95173055D01*
X160965447Y-95173055D02*
X161003542Y-95173055D01*
X161098780Y-94811151D02*
X161422590Y-94811151D01*
X161422590Y-94811151D02*
X161460685Y-94830198D01*
X161460685Y-94830198D02*
X161479733Y-94849246D01*
X161479733Y-94849246D02*
X161498780Y-94887341D01*
X161498780Y-94887341D02*
X161498780Y-94944484D01*
X161498780Y-94944484D02*
X161479733Y-94982579D01*
X161346400Y-94811151D02*
X161365447Y-94849246D01*
X161365447Y-94849246D02*
X161365447Y-94925437D01*
X161365447Y-94925437D02*
X161346400Y-94963532D01*
X161346400Y-94963532D02*
X161327352Y-94982579D01*
X161327352Y-94982579D02*
X161289257Y-95001627D01*
X161289257Y-95001627D02*
X161174971Y-95001627D01*
X161174971Y-95001627D02*
X161136876Y-94982579D01*
X161136876Y-94982579D02*
X161117828Y-94963532D01*
X161117828Y-94963532D02*
X161098780Y-94925437D01*
X161098780Y-94925437D02*
X161098780Y-94849246D01*
X161098780Y-94849246D02*
X161117828Y-94811151D01*
X161365447Y-94449246D02*
X161155923Y-94449246D01*
X161155923Y-94449246D02*
X161117828Y-94468293D01*
X161117828Y-94468293D02*
X161098780Y-94506389D01*
X161098780Y-94506389D02*
X161098780Y-94582579D01*
X161098780Y-94582579D02*
X161117828Y-94620674D01*
X161346400Y-94449246D02*
X161365447Y-94487341D01*
X161365447Y-94487341D02*
X161365447Y-94582579D01*
X161365447Y-94582579D02*
X161346400Y-94620674D01*
X161346400Y-94620674D02*
X161308304Y-94639722D01*
X161308304Y-94639722D02*
X161270209Y-94639722D01*
X161270209Y-94639722D02*
X161232114Y-94620674D01*
X161232114Y-94620674D02*
X161213066Y-94582579D01*
X161213066Y-94582579D02*
X161213066Y-94487341D01*
X161213066Y-94487341D02*
X161194019Y-94449246D01*
X161098780Y-94258769D02*
X161365447Y-94258769D01*
X161136876Y-94258769D02*
X161117828Y-94239722D01*
X161117828Y-94239722D02*
X161098780Y-94201627D01*
X161098780Y-94201627D02*
X161098780Y-94144484D01*
X161098780Y-94144484D02*
X161117828Y-94106388D01*
X161117828Y-94106388D02*
X161155923Y-94087341D01*
X161155923Y-94087341D02*
X161365447Y-94087341D01*
X161346400Y-93915912D02*
X161365447Y-93877817D01*
X161365447Y-93877817D02*
X161365447Y-93801626D01*
X161365447Y-93801626D02*
X161346400Y-93763531D01*
X161346400Y-93763531D02*
X161308304Y-93744483D01*
X161308304Y-93744483D02*
X161289257Y-93744483D01*
X161289257Y-93744483D02*
X161251161Y-93763531D01*
X161251161Y-93763531D02*
X161232114Y-93801626D01*
X161232114Y-93801626D02*
X161232114Y-93858769D01*
X161232114Y-93858769D02*
X161213066Y-93896864D01*
X161213066Y-93896864D02*
X161174971Y-93915912D01*
X161174971Y-93915912D02*
X161155923Y-93915912D01*
X161155923Y-93915912D02*
X161117828Y-93896864D01*
X161117828Y-93896864D02*
X161098780Y-93858769D01*
X161098780Y-93858769D02*
X161098780Y-93801626D01*
X161098780Y-93801626D02*
X161117828Y-93763531D01*
X161003542Y-93287340D02*
X160984495Y-93268292D01*
X160984495Y-93268292D02*
X160965447Y-93230197D01*
X160965447Y-93230197D02*
X160965447Y-93134959D01*
X160965447Y-93134959D02*
X160984495Y-93096864D01*
X160984495Y-93096864D02*
X161003542Y-93077816D01*
X161003542Y-93077816D02*
X161041638Y-93058769D01*
X161041638Y-93058769D02*
X161079733Y-93058769D01*
X161079733Y-93058769D02*
X161136876Y-93077816D01*
X161136876Y-93077816D02*
X161365447Y-93306388D01*
X161365447Y-93306388D02*
X161365447Y-93058769D01*
X160965447Y-92811150D02*
X160965447Y-92773055D01*
X160965447Y-92773055D02*
X160984495Y-92734959D01*
X160984495Y-92734959D02*
X161003542Y-92715912D01*
X161003542Y-92715912D02*
X161041638Y-92696864D01*
X161041638Y-92696864D02*
X161117828Y-92677817D01*
X161117828Y-92677817D02*
X161213066Y-92677817D01*
X161213066Y-92677817D02*
X161289257Y-92696864D01*
X161289257Y-92696864D02*
X161327352Y-92715912D01*
X161327352Y-92715912D02*
X161346400Y-92734959D01*
X161346400Y-92734959D02*
X161365447Y-92773055D01*
X161365447Y-92773055D02*
X161365447Y-92811150D01*
X161365447Y-92811150D02*
X161346400Y-92849245D01*
X161346400Y-92849245D02*
X161327352Y-92868293D01*
X161327352Y-92868293D02*
X161289257Y-92887340D01*
X161289257Y-92887340D02*
X161213066Y-92906388D01*
X161213066Y-92906388D02*
X161117828Y-92906388D01*
X161117828Y-92906388D02*
X161041638Y-92887340D01*
X161041638Y-92887340D02*
X161003542Y-92868293D01*
X161003542Y-92868293D02*
X160984495Y-92849245D01*
X160984495Y-92849245D02*
X160965447Y-92811150D01*
X161003542Y-92525436D02*
X160984495Y-92506388D01*
X160984495Y-92506388D02*
X160965447Y-92468293D01*
X160965447Y-92468293D02*
X160965447Y-92373055D01*
X160965447Y-92373055D02*
X160984495Y-92334960D01*
X160984495Y-92334960D02*
X161003542Y-92315912D01*
X161003542Y-92315912D02*
X161041638Y-92296865D01*
X161041638Y-92296865D02*
X161079733Y-92296865D01*
X161079733Y-92296865D02*
X161136876Y-92315912D01*
X161136876Y-92315912D02*
X161365447Y-92544484D01*
X161365447Y-92544484D02*
X161365447Y-92296865D01*
X161098780Y-91954008D02*
X161365447Y-91954008D01*
X160946400Y-92049246D02*
X161232114Y-92144484D01*
X161232114Y-92144484D02*
X161232114Y-91896865D01*
D11*
X152146095Y-92291819D02*
X152146095Y-93101342D01*
X152146095Y-93101342D02*
X152193714Y-93196580D01*
X152193714Y-93196580D02*
X152241333Y-93244200D01*
X152241333Y-93244200D02*
X152336571Y-93291819D01*
X152336571Y-93291819D02*
X152527047Y-93291819D01*
X152527047Y-93291819D02*
X152622285Y-93244200D01*
X152622285Y-93244200D02*
X152669904Y-93196580D01*
X152669904Y-93196580D02*
X152717523Y-93101342D01*
X152717523Y-93101342D02*
X152717523Y-92291819D01*
X153717523Y-93291819D02*
X153146095Y-93291819D01*
X153431809Y-93291819D02*
X153431809Y-92291819D01*
X153431809Y-92291819D02*
X153336571Y-92434676D01*
X153336571Y-92434676D02*
X153241333Y-92529914D01*
X153241333Y-92529914D02*
X153146095Y-92577533D01*
X158474580Y-95858666D02*
X158522200Y-95906285D01*
X158522200Y-95906285D02*
X158569819Y-96049142D01*
X158569819Y-96049142D02*
X158569819Y-96144380D01*
X158569819Y-96144380D02*
X158522200Y-96287237D01*
X158522200Y-96287237D02*
X158426961Y-96382475D01*
X158426961Y-96382475D02*
X158331723Y-96430094D01*
X158331723Y-96430094D02*
X158141247Y-96477713D01*
X158141247Y-96477713D02*
X157998390Y-96477713D01*
X157998390Y-96477713D02*
X157807914Y-96430094D01*
X157807914Y-96430094D02*
X157712676Y-96382475D01*
X157712676Y-96382475D02*
X157617438Y-96287237D01*
X157617438Y-96287237D02*
X157569819Y-96144380D01*
X157569819Y-96144380D02*
X157569819Y-96049142D01*
X157569819Y-96049142D02*
X157617438Y-95906285D01*
X157617438Y-95906285D02*
X157665057Y-95858666D01*
X157665057Y-95477713D02*
X157617438Y-95430094D01*
X157617438Y-95430094D02*
X157569819Y-95334856D01*
X157569819Y-95334856D02*
X157569819Y-95096761D01*
X157569819Y-95096761D02*
X157617438Y-95001523D01*
X157617438Y-95001523D02*
X157665057Y-94953904D01*
X157665057Y-94953904D02*
X157760295Y-94906285D01*
X157760295Y-94906285D02*
X157855533Y-94906285D01*
X157855533Y-94906285D02*
X157998390Y-94953904D01*
X157998390Y-94953904D02*
X158569819Y-95525332D01*
X158569819Y-95525332D02*
X158569819Y-94906285D01*
X155535333Y-91135580D02*
X155487714Y-91183200D01*
X155487714Y-91183200D02*
X155344857Y-91230819D01*
X155344857Y-91230819D02*
X155249619Y-91230819D01*
X155249619Y-91230819D02*
X155106762Y-91183200D01*
X155106762Y-91183200D02*
X155011524Y-91087961D01*
X155011524Y-91087961D02*
X154963905Y-90992723D01*
X154963905Y-90992723D02*
X154916286Y-90802247D01*
X154916286Y-90802247D02*
X154916286Y-90659390D01*
X154916286Y-90659390D02*
X154963905Y-90468914D01*
X154963905Y-90468914D02*
X155011524Y-90373676D01*
X155011524Y-90373676D02*
X155106762Y-90278438D01*
X155106762Y-90278438D02*
X155249619Y-90230819D01*
X155249619Y-90230819D02*
X155344857Y-90230819D01*
X155344857Y-90230819D02*
X155487714Y-90278438D01*
X155487714Y-90278438D02*
X155535333Y-90326057D01*
X156487714Y-91230819D02*
X155916286Y-91230819D01*
X156202000Y-91230819D02*
X156202000Y-90230819D01*
X156202000Y-90230819D02*
X156106762Y-90373676D01*
X156106762Y-90373676D02*
X156011524Y-90468914D01*
X156011524Y-90468914D02*
X155916286Y-90516533D01*
X151812666Y-87592819D02*
X151812666Y-88307104D01*
X151812666Y-88307104D02*
X151765047Y-88449961D01*
X151765047Y-88449961D02*
X151669809Y-88545200D01*
X151669809Y-88545200D02*
X151526952Y-88592819D01*
X151526952Y-88592819D02*
X151431714Y-88592819D01*
X152812666Y-88592819D02*
X152241238Y-88592819D01*
X152526952Y-88592819D02*
X152526952Y-87592819D01*
X152526952Y-87592819D02*
X152431714Y-87735676D01*
X152431714Y-87735676D02*
X152336476Y-87830914D01*
X152336476Y-87830914D02*
X152241238Y-87878533D01*
D12*
%TO.C,U1*%
X152310000Y-93640000D02*
X152485000Y-93640000D01*
X152310000Y-94315000D02*
X152310000Y-93640000D01*
X152310000Y-96185000D02*
X152310000Y-96560000D01*
X155030000Y-93640000D02*
X154855000Y-93640000D01*
X155030000Y-94315000D02*
X155030000Y-93640000D01*
X155030000Y-96185000D02*
X155030000Y-96860000D01*
X155030000Y-96860000D02*
X154855000Y-96860000D01*
X152310000Y-96860000D02*
X152120000Y-97000000D01*
X152120000Y-96720000D01*
X152310000Y-96860000D01*
G36*
X152310000Y-96860000D02*
G01*
X152120000Y-97000000D01*
X152120000Y-96720000D01*
X152310000Y-96860000D01*
G37*
%TO.C,C2*%
X155729000Y-95953252D02*
X155729000Y-95430748D01*
X157199000Y-95953252D02*
X157199000Y-95430748D01*
%TO.C,C1*%
X155440748Y-91721000D02*
X155963252Y-91721000D01*
X155440748Y-93191000D02*
X155963252Y-93191000D01*
%TO.C,J1*%
X145990000Y-87570000D02*
X147320000Y-87570000D01*
X145990000Y-88900000D02*
X145990000Y-87570000D01*
X145990000Y-90170000D02*
X145990000Y-102930000D01*
X145990000Y-90170000D02*
X148590000Y-90170000D01*
X145990000Y-102930000D02*
X151190000Y-102930000D01*
X148590000Y-87570000D02*
X151190000Y-87570000D01*
X148590000Y-90170000D02*
X148590000Y-87570000D01*
X151190000Y-87570000D02*
X151190000Y-102930000D01*
%TD*%
M02*
