%TF.GenerationSoftware,KiCad,Pcbnew,8.0.6-1.fc39*%
%TF.CreationDate,2024-10-31T14:54:44-07:00*%
%TF.ProjectId,IIS3DWB_eval,49495333-4457-4425-9f65-76616c2e6b69,rev?*%
%TF.SameCoordinates,Original*%
%TF.FileFunction,Copper,L2,Bot*%
%TF.FilePolarity,Positive*%
%FSLAX46Y46*%
G04 Gerber Fmt 4.6, Leading zero omitted, Abs format (unit mm)*
G04 Created by KiCad (PCBNEW 8.0.6-1.fc39) date 2024-10-31 14:54:44*
%MOMM*%
%LPD*%
G01*
G04 APERTURE LIST*
%TA.AperFunction,ComponentPad*%
%ADD10R,1.700000X1.700000*%
%TD*%
%TA.AperFunction,ComponentPad*%
%ADD11O,1.700000X1.700000*%
%TD*%
%TA.AperFunction,ViaPad*%
%ADD12C,0.600000*%
%TD*%
G04 APERTURE END LIST*
D10*
%TO.P,J1,1,Pin_1*%
%TO.N,+3V3*%
X147320000Y-88900000D03*
D11*
%TO.P,J1,2,Pin_2*%
%TO.N,INT1*%
X149860000Y-88900000D03*
%TO.P,J1,3,Pin_3*%
%TO.N,GND*%
X147320000Y-91440000D03*
%TO.P,J1,4,Pin_4*%
%TO.N,INT2*%
X149860000Y-91440000D03*
%TO.P,J1,5,Pin_5*%
%TO.N,GND*%
X147320000Y-93980000D03*
%TO.P,J1,6,Pin_6*%
%TO.N,CS*%
X149860000Y-93980000D03*
%TO.P,J1,7,Pin_7*%
%TO.N,GND*%
X147320000Y-96520000D03*
%TO.P,J1,8,Pin_8*%
%TO.N,SCK*%
X149860000Y-96520000D03*
%TO.P,J1,9,Pin_9*%
%TO.N,GND*%
X147320000Y-99060000D03*
%TO.P,J1,10,Pin_10*%
%TO.N,SDI*%
X149860000Y-99060000D03*
%TO.P,J1,11,Pin_11*%
%TO.N,GND*%
X147320000Y-101600000D03*
%TO.P,J1,12,Pin_12*%
%TO.N,SDO*%
X149860000Y-101600000D03*
%TD*%
D12*
%TO.N,GND*%
X155448000Y-94234000D03*
X153670000Y-97282000D03*
X156210000Y-93599000D03*
X153670000Y-94996000D03*
X156845000Y-93599000D03*
X154305000Y-97282000D03*
X155448000Y-94869000D03*
X153670000Y-95631000D03*
%TD*%
%TA.AperFunction,Conductor*%
%TO.N,GND*%
G36*
X147570000Y-101166988D02*
G01*
X147512993Y-101134075D01*
X147385826Y-101100000D01*
X147254174Y-101100000D01*
X147127007Y-101134075D01*
X147070000Y-101166988D01*
X147070000Y-99493012D01*
X147127007Y-99525925D01*
X147254174Y-99560000D01*
X147385826Y-99560000D01*
X147512993Y-99525925D01*
X147570000Y-99493012D01*
X147570000Y-101166988D01*
G37*
%TD.AperFunction*%
%TA.AperFunction,Conductor*%
G36*
X147570000Y-98626988D02*
G01*
X147512993Y-98594075D01*
X147385826Y-98560000D01*
X147254174Y-98560000D01*
X147127007Y-98594075D01*
X147070000Y-98626988D01*
X147070000Y-96953012D01*
X147127007Y-96985925D01*
X147254174Y-97020000D01*
X147385826Y-97020000D01*
X147512993Y-96985925D01*
X147570000Y-96953012D01*
X147570000Y-98626988D01*
G37*
%TD.AperFunction*%
%TA.AperFunction,Conductor*%
G36*
X147570000Y-96086988D02*
G01*
X147512993Y-96054075D01*
X147385826Y-96020000D01*
X147254174Y-96020000D01*
X147127007Y-96054075D01*
X147070000Y-96086988D01*
X147070000Y-94413012D01*
X147127007Y-94445925D01*
X147254174Y-94480000D01*
X147385826Y-94480000D01*
X147512993Y-94445925D01*
X147570000Y-94413012D01*
X147570000Y-96086988D01*
G37*
%TD.AperFunction*%
%TA.AperFunction,Conductor*%
G36*
X147570000Y-93546988D02*
G01*
X147512993Y-93514075D01*
X147385826Y-93480000D01*
X147254174Y-93480000D01*
X147127007Y-93514075D01*
X147070000Y-93546988D01*
X147070000Y-91873012D01*
X147127007Y-91905925D01*
X147254174Y-91940000D01*
X147385826Y-91940000D01*
X147512993Y-91905925D01*
X147570000Y-91873012D01*
X147570000Y-93546988D01*
G37*
%TD.AperFunction*%
%TA.AperFunction,Conductor*%
G36*
X160023471Y-86352695D02*
G01*
X160057390Y-86354599D01*
X160298286Y-86368128D01*
X160312085Y-86369682D01*
X160580004Y-86415204D01*
X160593561Y-86418298D01*
X160854697Y-86493530D01*
X160867823Y-86498123D01*
X161118891Y-86602119D01*
X161131405Y-86608145D01*
X161317563Y-86711031D01*
X161369256Y-86739601D01*
X161381030Y-86746999D01*
X161602659Y-86904253D01*
X161613531Y-86912923D01*
X161793225Y-87073507D01*
X161816162Y-87094004D01*
X161825995Y-87103837D01*
X162007076Y-87306468D01*
X162015746Y-87317340D01*
X162173000Y-87538969D01*
X162180398Y-87550743D01*
X162311850Y-87788587D01*
X162317883Y-87801115D01*
X162421876Y-88052177D01*
X162426469Y-88065302D01*
X162501701Y-88326438D01*
X162504795Y-88339995D01*
X162550315Y-88607903D01*
X162551872Y-88621721D01*
X162567305Y-88896527D01*
X162567500Y-88903480D01*
X162567500Y-101596519D01*
X162567305Y-101603472D01*
X162551872Y-101878278D01*
X162550315Y-101892096D01*
X162504795Y-102160004D01*
X162501701Y-102173561D01*
X162426469Y-102434697D01*
X162421876Y-102447822D01*
X162317883Y-102698884D01*
X162311850Y-102711412D01*
X162180398Y-102949256D01*
X162173000Y-102961030D01*
X162015746Y-103182659D01*
X162007076Y-103193531D01*
X161825995Y-103396162D01*
X161816162Y-103405995D01*
X161613531Y-103587076D01*
X161602659Y-103595746D01*
X161381030Y-103753000D01*
X161369256Y-103760398D01*
X161131412Y-103891850D01*
X161118884Y-103897883D01*
X160867822Y-104001876D01*
X160854697Y-104006469D01*
X160593561Y-104081701D01*
X160580004Y-104084795D01*
X160312096Y-104130315D01*
X160298278Y-104131872D01*
X160023472Y-104147305D01*
X160016519Y-104147500D01*
X147323481Y-104147500D01*
X147316528Y-104147305D01*
X147041721Y-104131872D01*
X147027903Y-104130315D01*
X146759995Y-104084795D01*
X146746438Y-104081701D01*
X146485302Y-104006469D01*
X146472177Y-104001876D01*
X146221115Y-103897883D01*
X146208587Y-103891850D01*
X145970743Y-103760398D01*
X145958969Y-103753000D01*
X145737340Y-103595746D01*
X145726468Y-103587076D01*
X145625152Y-103496535D01*
X145523835Y-103405993D01*
X145514004Y-103396162D01*
X145332923Y-103193531D01*
X145324253Y-103182659D01*
X145166999Y-102961030D01*
X145159601Y-102949256D01*
X145088605Y-102820798D01*
X145028145Y-102711405D01*
X145022119Y-102698891D01*
X144927758Y-102471082D01*
X144918123Y-102447822D01*
X144913530Y-102434697D01*
X144850059Y-102214383D01*
X144838297Y-102173559D01*
X144835204Y-102160004D01*
X144818835Y-102063663D01*
X144789682Y-101892085D01*
X144788128Y-101878286D01*
X144772695Y-101603471D01*
X144772500Y-101596519D01*
X144772500Y-88903480D01*
X144772695Y-88896528D01*
X144782290Y-88725673D01*
X144788128Y-88621711D01*
X144789682Y-88607916D01*
X144835204Y-88339990D01*
X144838298Y-88326438D01*
X144850058Y-88285621D01*
X144913531Y-88065298D01*
X144918123Y-88052177D01*
X144924515Y-88036745D01*
X144938851Y-88002135D01*
X145969500Y-88002135D01*
X145969500Y-89797870D01*
X145969501Y-89797876D01*
X145975908Y-89857483D01*
X146026202Y-89992328D01*
X146026206Y-89992335D01*
X146112452Y-90107544D01*
X146112455Y-90107547D01*
X146227664Y-90193793D01*
X146227671Y-90193797D01*
X146227674Y-90193798D01*
X146359598Y-90243002D01*
X146415531Y-90284873D01*
X146439949Y-90350337D01*
X146425098Y-90418610D01*
X146403947Y-90446865D01*
X146281886Y-90568926D01*
X146146400Y-90762420D01*
X146146399Y-90762422D01*
X146046570Y-90976507D01*
X146046567Y-90976513D01*
X145989364Y-91189999D01*
X145989364Y-91190000D01*
X146886988Y-91190000D01*
X146854075Y-91247007D01*
X146820000Y-91374174D01*
X146820000Y-91505826D01*
X146854075Y-91632993D01*
X146886988Y-91690000D01*
X145989364Y-91690000D01*
X146046567Y-91903486D01*
X146046570Y-91903492D01*
X146146399Y-92117578D01*
X146281894Y-92311082D01*
X146448917Y-92478105D01*
X146635031Y-92608425D01*
X146678656Y-92663003D01*
X146685848Y-92732501D01*
X146654326Y-92794856D01*
X146635031Y-92811575D01*
X146448922Y-92941890D01*
X146448920Y-92941891D01*
X146281891Y-93108920D01*
X146281886Y-93108926D01*
X146146400Y-93302420D01*
X146146399Y-93302422D01*
X146046570Y-93516507D01*
X146046567Y-93516513D01*
X145989364Y-93729999D01*
X145989364Y-93730000D01*
X146886988Y-93730000D01*
X146854075Y-93787007D01*
X146820000Y-93914174D01*
X146820000Y-94045826D01*
X146854075Y-94172993D01*
X146886988Y-94230000D01*
X145989364Y-94230000D01*
X146046567Y-94443486D01*
X146046570Y-94443492D01*
X146146399Y-94657578D01*
X146281894Y-94851082D01*
X146448917Y-95018105D01*
X146635031Y-95148425D01*
X146678656Y-95203003D01*
X146685848Y-95272501D01*
X146654326Y-95334856D01*
X146635031Y-95351575D01*
X146448922Y-95481890D01*
X146448920Y-95481891D01*
X146281891Y-95648920D01*
X146281886Y-95648926D01*
X146146400Y-95842420D01*
X146146399Y-95842422D01*
X146046570Y-96056507D01*
X146046567Y-96056513D01*
X145989364Y-96269999D01*
X145989364Y-96270000D01*
X146886988Y-96270000D01*
X146854075Y-96327007D01*
X146820000Y-96454174D01*
X146820000Y-96585826D01*
X146854075Y-96712993D01*
X146886988Y-96770000D01*
X145989364Y-96770000D01*
X146046567Y-96983486D01*
X146046570Y-96983492D01*
X146146399Y-97197578D01*
X146281894Y-97391082D01*
X146448917Y-97558105D01*
X146635031Y-97688425D01*
X146678656Y-97743003D01*
X146685848Y-97812501D01*
X146654326Y-97874856D01*
X146635031Y-97891575D01*
X146448922Y-98021890D01*
X146448920Y-98021891D01*
X146281891Y-98188920D01*
X146281886Y-98188926D01*
X146146400Y-98382420D01*
X146146399Y-98382422D01*
X146046570Y-98596507D01*
X146046567Y-98596513D01*
X145989364Y-98809999D01*
X145989364Y-98810000D01*
X146886988Y-98810000D01*
X146854075Y-98867007D01*
X146820000Y-98994174D01*
X146820000Y-99125826D01*
X146854075Y-99252993D01*
X146886988Y-99310000D01*
X145989364Y-99310000D01*
X146046567Y-99523486D01*
X146046570Y-99523492D01*
X146146399Y-99737578D01*
X146281894Y-99931082D01*
X146448917Y-100098105D01*
X146635031Y-100228425D01*
X146678656Y-100283003D01*
X146685848Y-100352501D01*
X146654326Y-100414856D01*
X146635031Y-100431575D01*
X146448922Y-100561890D01*
X146448920Y-100561891D01*
X146281891Y-100728920D01*
X146281886Y-100728926D01*
X146146400Y-100922420D01*
X146146399Y-100922422D01*
X146046570Y-101136507D01*
X146046567Y-101136513D01*
X145989364Y-101349999D01*
X145989364Y-101350000D01*
X146886988Y-101350000D01*
X146854075Y-101407007D01*
X146820000Y-101534174D01*
X146820000Y-101665826D01*
X146854075Y-101792993D01*
X146886988Y-101850000D01*
X145989364Y-101850000D01*
X146046567Y-102063486D01*
X146046570Y-102063492D01*
X146146399Y-102277578D01*
X146281894Y-102471082D01*
X146448917Y-102638105D01*
X146642421Y-102773600D01*
X146856507Y-102873429D01*
X146856516Y-102873433D01*
X147070000Y-102930634D01*
X147070000Y-102033012D01*
X147127007Y-102065925D01*
X147254174Y-102100000D01*
X147385826Y-102100000D01*
X147512993Y-102065925D01*
X147570000Y-102033012D01*
X147570000Y-102930633D01*
X147783483Y-102873433D01*
X147783492Y-102873429D01*
X147997578Y-102773600D01*
X148191082Y-102638105D01*
X148358105Y-102471082D01*
X148488119Y-102285405D01*
X148542696Y-102241781D01*
X148612195Y-102234588D01*
X148674549Y-102266110D01*
X148691269Y-102285405D01*
X148821505Y-102471401D01*
X148988599Y-102638495D01*
X148994532Y-102642649D01*
X149182165Y-102774032D01*
X149182167Y-102774033D01*
X149182170Y-102774035D01*
X149396337Y-102873903D01*
X149624592Y-102935063D01*
X149812918Y-102951539D01*
X149859999Y-102955659D01*
X149860000Y-102955659D01*
X149860001Y-102955659D01*
X149899234Y-102952226D01*
X150095408Y-102935063D01*
X150323663Y-102873903D01*
X150537830Y-102774035D01*
X150731401Y-102638495D01*
X150898495Y-102471401D01*
X151034035Y-102277830D01*
X151133903Y-102063663D01*
X151195063Y-101835408D01*
X151215659Y-101600000D01*
X151215354Y-101596519D01*
X151209894Y-101534108D01*
X151204638Y-101474038D01*
X158419500Y-101474038D01*
X158419500Y-101725962D01*
X158439146Y-101850000D01*
X158458910Y-101974785D01*
X158536760Y-102214383D01*
X158615413Y-102368747D01*
X158649016Y-102434697D01*
X158651132Y-102438848D01*
X158799201Y-102642649D01*
X158799205Y-102642654D01*
X158977345Y-102820794D01*
X158977350Y-102820798D01*
X159154159Y-102949256D01*
X159181155Y-102968870D01*
X159324184Y-103041747D01*
X159405616Y-103083239D01*
X159405618Y-103083239D01*
X159405621Y-103083241D01*
X159645215Y-103161090D01*
X159894038Y-103200500D01*
X159894039Y-103200500D01*
X160145961Y-103200500D01*
X160145962Y-103200500D01*
X160394785Y-103161090D01*
X160634379Y-103083241D01*
X160858845Y-102968870D01*
X161062656Y-102820793D01*
X161240793Y-102642656D01*
X161388870Y-102438845D01*
X161503241Y-102214379D01*
X161581090Y-101974785D01*
X161620500Y-101725962D01*
X161620500Y-101474038D01*
X161581090Y-101225215D01*
X161503241Y-100985621D01*
X161503239Y-100985618D01*
X161503239Y-100985616D01*
X161461747Y-100904184D01*
X161388870Y-100761155D01*
X161243817Y-100561506D01*
X161240798Y-100557350D01*
X161240794Y-100557345D01*
X161062654Y-100379205D01*
X161062649Y-100379201D01*
X160858848Y-100231132D01*
X160858847Y-100231131D01*
X160858845Y-100231130D01*
X160788747Y-100195413D01*
X160634383Y-100116760D01*
X160394785Y-100038910D01*
X160145962Y-99999500D01*
X159894038Y-99999500D01*
X159769626Y-100019205D01*
X159645214Y-100038910D01*
X159405616Y-100116760D01*
X159181151Y-100231132D01*
X158977350Y-100379201D01*
X158977345Y-100379205D01*
X158799205Y-100557345D01*
X158799201Y-100557350D01*
X158651132Y-100761151D01*
X158536760Y-100985616D01*
X158487788Y-101136337D01*
X158458910Y-101225215D01*
X158419500Y-101474038D01*
X151204638Y-101474038D01*
X151195063Y-101364592D01*
X151133903Y-101136337D01*
X151034035Y-100922171D01*
X151028731Y-100914595D01*
X150898494Y-100728597D01*
X150731402Y-100561506D01*
X150731396Y-100561501D01*
X150545842Y-100431575D01*
X150502217Y-100376998D01*
X150495023Y-100307500D01*
X150526546Y-100245145D01*
X150545842Y-100228425D01*
X150568026Y-100212891D01*
X150731401Y-100098495D01*
X150898495Y-99931401D01*
X151034035Y-99737830D01*
X151133903Y-99523663D01*
X151195063Y-99295408D01*
X151215659Y-99060000D01*
X151195063Y-98824592D01*
X151133903Y-98596337D01*
X151034035Y-98382171D01*
X151028731Y-98374595D01*
X150898494Y-98188597D01*
X150731402Y-98021506D01*
X150731396Y-98021501D01*
X150545842Y-97891575D01*
X150502217Y-97836998D01*
X150495023Y-97767500D01*
X150526546Y-97705145D01*
X150545842Y-97688425D01*
X150568026Y-97672891D01*
X150731401Y-97558495D01*
X150898495Y-97391401D01*
X151034035Y-97197830D01*
X151133903Y-96983663D01*
X151195063Y-96755408D01*
X151215659Y-96520000D01*
X151195063Y-96284592D01*
X151133903Y-96056337D01*
X151034035Y-95842171D01*
X151028731Y-95834595D01*
X150898494Y-95648597D01*
X150731402Y-95481506D01*
X150731396Y-95481501D01*
X150545842Y-95351575D01*
X150502217Y-95296998D01*
X150495023Y-95227500D01*
X150526546Y-95165145D01*
X150545842Y-95148425D01*
X150568026Y-95132891D01*
X150731401Y-95018495D01*
X150898495Y-94851401D01*
X151034035Y-94657830D01*
X151133903Y-94443663D01*
X151195063Y-94215408D01*
X151215659Y-93980000D01*
X151195063Y-93744592D01*
X151133903Y-93516337D01*
X151034035Y-93302171D01*
X151028731Y-93294595D01*
X150898494Y-93108597D01*
X150731402Y-92941506D01*
X150731396Y-92941501D01*
X150545842Y-92811575D01*
X150502217Y-92756998D01*
X150495023Y-92687500D01*
X150526546Y-92625145D01*
X150545842Y-92608425D01*
X150568026Y-92592891D01*
X150731401Y-92478495D01*
X150898495Y-92311401D01*
X151034035Y-92117830D01*
X151133903Y-91903663D01*
X151195063Y-91675408D01*
X151215659Y-91440000D01*
X151195063Y-91204592D01*
X151133903Y-90976337D01*
X151034035Y-90762171D01*
X151028731Y-90754595D01*
X150898494Y-90568597D01*
X150731402Y-90401506D01*
X150731396Y-90401501D01*
X150545842Y-90271575D01*
X150502217Y-90216998D01*
X150495023Y-90147500D01*
X150526546Y-90085145D01*
X150545842Y-90068425D01*
X150568026Y-90052891D01*
X150731401Y-89938495D01*
X150898495Y-89771401D01*
X151034035Y-89577830D01*
X151133903Y-89363663D01*
X151195063Y-89135408D01*
X151215659Y-88900000D01*
X151204639Y-88774038D01*
X158419500Y-88774038D01*
X158419500Y-89025962D01*
X158458910Y-89274785D01*
X158536760Y-89514383D01*
X158651132Y-89738848D01*
X158799201Y-89942649D01*
X158799205Y-89942654D01*
X158977345Y-90120794D01*
X158977350Y-90120798D01*
X159077827Y-90193798D01*
X159181155Y-90268870D01*
X159273359Y-90315850D01*
X159405616Y-90383239D01*
X159405618Y-90383239D01*
X159405621Y-90383241D01*
X159645215Y-90461090D01*
X159894038Y-90500500D01*
X159894039Y-90500500D01*
X160145961Y-90500500D01*
X160145962Y-90500500D01*
X160394785Y-90461090D01*
X160634379Y-90383241D01*
X160858845Y-90268870D01*
X161062656Y-90120793D01*
X161240793Y-89942656D01*
X161388870Y-89738845D01*
X161503241Y-89514379D01*
X161581090Y-89274785D01*
X161620500Y-89025962D01*
X161620500Y-88774038D01*
X161581090Y-88525215D01*
X161503241Y-88285621D01*
X161503239Y-88285618D01*
X161503239Y-88285616D01*
X161461747Y-88204184D01*
X161388870Y-88061155D01*
X161345990Y-88002135D01*
X161240798Y-87857350D01*
X161240794Y-87857345D01*
X161062654Y-87679205D01*
X161062649Y-87679201D01*
X160858848Y-87531132D01*
X160858847Y-87531131D01*
X160858845Y-87531130D01*
X160788747Y-87495413D01*
X160634383Y-87416760D01*
X160394785Y-87338910D01*
X160258598Y-87317340D01*
X160145962Y-87299500D01*
X159894038Y-87299500D01*
X159781402Y-87317340D01*
X159645214Y-87338910D01*
X159405616Y-87416760D01*
X159181151Y-87531132D01*
X158977350Y-87679201D01*
X158977345Y-87679205D01*
X158799205Y-87857345D01*
X158799201Y-87857350D01*
X158651132Y-88061151D01*
X158536760Y-88285616D01*
X158487788Y-88436337D01*
X158458910Y-88525215D01*
X158419500Y-88774038D01*
X151204639Y-88774038D01*
X151195063Y-88664592D01*
X151133903Y-88436337D01*
X151034035Y-88222171D01*
X150915005Y-88052177D01*
X150898494Y-88028597D01*
X150731402Y-87861506D01*
X150731395Y-87861501D01*
X150537834Y-87725967D01*
X150537830Y-87725965D01*
X150537828Y-87725964D01*
X150323663Y-87626097D01*
X150323659Y-87626096D01*
X150323655Y-87626094D01*
X150095413Y-87564938D01*
X150095403Y-87564936D01*
X149860001Y-87544341D01*
X149859999Y-87544341D01*
X149624596Y-87564936D01*
X149624586Y-87564938D01*
X149396344Y-87626094D01*
X149396335Y-87626098D01*
X149182171Y-87725964D01*
X149182169Y-87725965D01*
X148988600Y-87861503D01*
X148866673Y-87983430D01*
X148805350Y-88016914D01*
X148735658Y-88011930D01*
X148679725Y-87970058D01*
X148662810Y-87939081D01*
X148613797Y-87807671D01*
X148613793Y-87807664D01*
X148527547Y-87692455D01*
X148527544Y-87692452D01*
X148412335Y-87606206D01*
X148412328Y-87606202D01*
X148277482Y-87555908D01*
X148277483Y-87555908D01*
X148217883Y-87549501D01*
X148217881Y-87549500D01*
X148217873Y-87549500D01*
X148217864Y-87549500D01*
X146422129Y-87549500D01*
X146422123Y-87549501D01*
X146362516Y-87555908D01*
X146227671Y-87606202D01*
X146227664Y-87606206D01*
X146112455Y-87692452D01*
X146112452Y-87692455D01*
X146026206Y-87807664D01*
X146026202Y-87807671D01*
X145975908Y-87942517D01*
X145969501Y-88002116D01*
X145969500Y-88002135D01*
X144938851Y-88002135D01*
X145022122Y-87801101D01*
X145028142Y-87788601D01*
X145159604Y-87550737D01*
X145166999Y-87538969D01*
X145172560Y-87531132D01*
X145324260Y-87317330D01*
X145332916Y-87306476D01*
X145514014Y-87103826D01*
X145523826Y-87094014D01*
X145726476Y-86912916D01*
X145737330Y-86904260D01*
X145958974Y-86746995D01*
X145970737Y-86739604D01*
X146208601Y-86608142D01*
X146221101Y-86602122D01*
X146472181Y-86498121D01*
X146485298Y-86493531D01*
X146746443Y-86418296D01*
X146759990Y-86415204D01*
X147027916Y-86369682D01*
X147041711Y-86368128D01*
X147285481Y-86354438D01*
X147316529Y-86352695D01*
X147323481Y-86352500D01*
X147385892Y-86352500D01*
X159954108Y-86352500D01*
X160016519Y-86352500D01*
X160023471Y-86352695D01*
G37*
%TD.AperFunction*%
%TD*%
M02*
