M48
; DRILL file {KiCad 8.0.6-1.fc39} date 2024-10-31T14:54:47-0700
; FORMAT={-:-/ absolute / inch / decimal}
; #@! TF.CreationDate,2024-10-31T14:54:47-07:00
; #@! TF.GenerationSoftware,Kicad,Pcbnew,8.0.6-1.fc39
; #@! TF.FileFunction,Plated,1,2,PTH
FMAT,2
INCH
; #@! TA.AperFunction,Plated,PTH,ViaDrill
T1C0.0118
; #@! TA.AperFunction,Plated,PTH,ComponentDrill
T2C0.0394
%
G90
G05
T1
X6.05Y-3.74
X6.05Y-3.765
X6.05Y-3.83
X6.075Y-3.83
X6.12Y-3.71
X6.12Y-3.735
X6.15Y-3.685
X6.175Y-3.685
T2
X5.8Y-3.5
X5.8Y-3.6
X5.8Y-3.7
X5.8Y-3.8
X5.8Y-3.9
X5.8Y-4.0
X5.9Y-3.5
X5.9Y-3.6
X5.9Y-3.7
X5.9Y-3.8
X5.9Y-3.9
X5.9Y-4.0
M30
