%TF.GenerationSoftware,KiCad,Pcbnew,8.0.6-1.fc39*%
%TF.CreationDate,2024-10-31T14:54:44-07:00*%
%TF.ProjectId,IIS3DWB_eval,49495333-4457-4425-9f65-76616c2e6b69,rev?*%
%TF.SameCoordinates,Original*%
%TF.FileFunction,Copper,L1,Top*%
%TF.FilePolarity,Positive*%
%FSLAX46Y46*%
G04 Gerber Fmt 4.6, Leading zero omitted, Abs format (unit mm)*
G04 Created by KiCad (PCBNEW 8.0.6-1.fc39) date 2024-10-31 14:54:44*
%MOMM*%
%LPD*%
G01*
G04 APERTURE LIST*
G04 Aperture macros list*
%AMRoundRect*
0 Rectangle with rounded corners*
0 $1 Rounding radius*
0 $2 $3 $4 $5 $6 $7 $8 $9 X,Y pos of 4 corners*
0 Add a 4 corners polygon primitive as box body*
4,1,4,$2,$3,$4,$5,$6,$7,$8,$9,$2,$3,0*
0 Add four circle primitives for the rounded corners*
1,1,$1+$1,$2,$3*
1,1,$1+$1,$4,$5*
1,1,$1+$1,$6,$7*
1,1,$1+$1,$8,$9*
0 Add four rect primitives between the rounded corners*
20,1,$1+$1,$2,$3,$4,$5,0*
20,1,$1+$1,$4,$5,$6,$7,0*
20,1,$1+$1,$6,$7,$8,$9,0*
20,1,$1+$1,$8,$9,$2,$3,0*%
G04 Aperture macros list end*
%TA.AperFunction,Conductor*%
%ADD10C,0.200000*%
%TD*%
%TA.AperFunction,SMDPad,CuDef*%
%ADD11RoundRect,0.087500X0.087500X-0.225000X0.087500X0.225000X-0.087500X0.225000X-0.087500X-0.225000X0*%
%TD*%
%TA.AperFunction,SMDPad,CuDef*%
%ADD12RoundRect,0.087500X0.225000X-0.087500X0.225000X0.087500X-0.225000X0.087500X-0.225000X-0.087500X0*%
%TD*%
%TA.AperFunction,SMDPad,CuDef*%
%ADD13RoundRect,0.250000X0.475000X-0.250000X0.475000X0.250000X-0.475000X0.250000X-0.475000X-0.250000X0*%
%TD*%
%TA.AperFunction,SMDPad,CuDef*%
%ADD14RoundRect,0.250000X-0.250000X-0.475000X0.250000X-0.475000X0.250000X0.475000X-0.250000X0.475000X0*%
%TD*%
%TA.AperFunction,ComponentPad*%
%ADD15R,1.700000X1.700000*%
%TD*%
%TA.AperFunction,ComponentPad*%
%ADD16O,1.700000X1.700000*%
%TD*%
%TA.AperFunction,ViaPad*%
%ADD17C,0.600000*%
%TD*%
%TA.AperFunction,Conductor*%
%ADD18C,0.400000*%
%TD*%
G04 APERTURE END LIST*
D10*
%TO.N,+3V3*%
X155575000Y-93472000D02*
X154559000Y-93853000D01*
X154559000Y-94361000D01*
X154305000Y-94361000D01*
X154305000Y-91440000D01*
X155575000Y-91440000D01*
X155575000Y-93472000D01*
%TA.AperFunction,Conductor*%
G36*
X155575000Y-93472000D02*
G01*
X154559000Y-93853000D01*
X154559000Y-94361000D01*
X154305000Y-94361000D01*
X154305000Y-91440000D01*
X155575000Y-91440000D01*
X155575000Y-93472000D01*
G37*
%TD.AperFunction*%
X157099000Y-97028000D02*
X155829000Y-97028000D01*
X155194000Y-95885000D01*
X154305000Y-95885000D01*
X154305000Y-95631000D01*
X157099000Y-95631000D01*
X157099000Y-97028000D01*
%TA.AperFunction,Conductor*%
G36*
X157099000Y-97028000D02*
G01*
X155829000Y-97028000D01*
X155194000Y-95885000D01*
X154305000Y-95885000D01*
X154305000Y-95631000D01*
X157099000Y-95631000D01*
X157099000Y-97028000D01*
G37*
%TD.AperFunction*%
%TO.N,GND*%
X157099000Y-95250000D02*
X153924000Y-95250000D01*
X153924000Y-97028000D01*
X154559000Y-97028000D01*
X154559000Y-97536000D01*
X153416000Y-97536000D01*
X153416000Y-94742000D01*
X154940000Y-94742000D01*
X154940000Y-94107000D01*
X155956000Y-93726000D01*
X155956000Y-91821000D01*
X157099000Y-91821000D01*
X157099000Y-95250000D01*
%TA.AperFunction,Conductor*%
G36*
X157099000Y-95250000D02*
G01*
X153924000Y-95250000D01*
X153924000Y-97028000D01*
X154559000Y-97028000D01*
X154559000Y-97536000D01*
X153416000Y-97536000D01*
X153416000Y-94742000D01*
X154940000Y-94742000D01*
X154940000Y-94107000D01*
X155956000Y-93726000D01*
X155956000Y-91821000D01*
X157099000Y-91821000D01*
X157099000Y-95250000D01*
G37*
%TD.AperFunction*%
%TD*%
D11*
%TO.P,U1,1,SDO*%
%TO.N,SDO*%
X152920000Y-96412500D03*
%TO.P,U1,2,GND*%
%TO.N,GND*%
X153420000Y-96412500D03*
%TO.P,U1,3,GND*%
X153920000Y-96412500D03*
%TO.P,U1,4,INT1*%
%TO.N,INT1*%
X154420000Y-96412500D03*
D12*
%TO.P,U1,5,VDD_IO*%
%TO.N,+3V3*%
X154582500Y-95750000D03*
%TO.P,U1,6,GND*%
%TO.N,GND*%
X154582500Y-95250000D03*
%TO.P,U1,7,GND*%
X154582500Y-94750000D03*
D11*
%TO.P,U1,8,VDD*%
%TO.N,+3V3*%
X154420000Y-94087500D03*
%TO.P,U1,9,INT2*%
%TO.N,INT2*%
X153920000Y-94087500D03*
%TO.P,U1,10,RES*%
%TO.N,unconnected-(U1-RES-Pad10)*%
X153420000Y-94087500D03*
%TO.P,U1,11,RES*%
%TO.N,unconnected-(U1-RES-Pad11)*%
X152920000Y-94087500D03*
D12*
%TO.P,U1,12,CS*%
%TO.N,CS*%
X152757500Y-94750000D03*
%TO.P,U1,13,SPC*%
%TO.N,SCK*%
X152757500Y-95250000D03*
%TO.P,U1,14,SDI*%
%TO.N,SDI*%
X152757500Y-95750000D03*
%TD*%
D13*
%TO.P,C2,1*%
%TO.N,+3V3*%
X156464000Y-96642000D03*
%TO.P,C2,2*%
%TO.N,GND*%
X156464000Y-94742000D03*
%TD*%
D14*
%TO.P,C1,1*%
%TO.N,+3V3*%
X154752000Y-92456000D03*
%TO.P,C1,2*%
%TO.N,GND*%
X156652000Y-92456000D03*
%TD*%
D15*
%TO.P,J1,1,Pin_1*%
%TO.N,+3V3*%
X147320000Y-88900000D03*
D16*
%TO.P,J1,2,Pin_2*%
%TO.N,INT1*%
X149860000Y-88900000D03*
%TO.P,J1,3,Pin_3*%
%TO.N,GND*%
X147320000Y-91440000D03*
%TO.P,J1,4,Pin_4*%
%TO.N,INT2*%
X149860000Y-91440000D03*
%TO.P,J1,5,Pin_5*%
%TO.N,GND*%
X147320000Y-93980000D03*
%TO.P,J1,6,Pin_6*%
%TO.N,CS*%
X149860000Y-93980000D03*
%TO.P,J1,7,Pin_7*%
%TO.N,GND*%
X147320000Y-96520000D03*
%TO.P,J1,8,Pin_8*%
%TO.N,SCK*%
X149860000Y-96520000D03*
%TO.P,J1,9,Pin_9*%
%TO.N,GND*%
X147320000Y-99060000D03*
%TO.P,J1,10,Pin_10*%
%TO.N,SDI*%
X149860000Y-99060000D03*
%TO.P,J1,11,Pin_11*%
%TO.N,GND*%
X147320000Y-101600000D03*
%TO.P,J1,12,Pin_12*%
%TO.N,SDO*%
X149860000Y-101600000D03*
%TD*%
D17*
%TO.N,GND*%
X155448000Y-94234000D03*
X153670000Y-97282000D03*
X156210000Y-93599000D03*
X153670000Y-94996000D03*
X156845000Y-93599000D03*
X154305000Y-97282000D03*
X155448000Y-94869000D03*
X153670000Y-95631000D03*
%TD*%
D18*
%TO.N,+3V3*%
X153769000Y-90150000D02*
X154940000Y-91321000D01*
X156464000Y-96642000D02*
X157599000Y-95507000D01*
X157599000Y-91613893D02*
X157306107Y-91321000D01*
X157599000Y-95507000D02*
X157599000Y-91613893D01*
X157306107Y-91321000D02*
X154940000Y-91321000D01*
X148570000Y-90150000D02*
X153769000Y-90150000D01*
X147320000Y-88900000D02*
X148570000Y-90150000D01*
D10*
%TO.N,SCK*%
X151146000Y-95250000D02*
X151130000Y-95250000D01*
X151246000Y-95250000D02*
X151146000Y-95250000D01*
X152757500Y-95250000D02*
X152146000Y-95250000D01*
X151746000Y-96630000D02*
X151646000Y-96630000D01*
X151946000Y-95450000D02*
X151946000Y-96430000D01*
X150749000Y-95631000D02*
X149860000Y-96520000D01*
X151446000Y-96430000D02*
X151446000Y-95450000D01*
X151130000Y-95250000D02*
X150749000Y-95631000D01*
X151946000Y-96430000D02*
G75*
G02*
X151746000Y-96630000I-200000J0D01*
G01*
X152146000Y-95250000D02*
G75*
G03*
X151946000Y-95450000I0J-200000D01*
G01*
X151446000Y-95450000D02*
G75*
G03*
X151246000Y-95250000I-200000J0D01*
G01*
X151646000Y-96630000D02*
G75*
G02*
X151446000Y-96430000I0J200000D01*
G01*
%TO.N,SDI*%
X152445000Y-96602000D02*
X151701500Y-97345500D01*
X152719568Y-95750000D02*
X152445000Y-96024568D01*
X151943331Y-98399092D02*
X151411587Y-97867348D01*
X151701500Y-97577432D02*
X152233245Y-98109177D01*
X151121672Y-97925329D02*
X150976383Y-98070617D01*
X149987000Y-99060000D02*
X149860000Y-99060000D01*
X152445000Y-96024568D02*
X152445000Y-96602000D01*
X151179657Y-97867347D02*
X151121672Y-97925329D01*
X152233244Y-98341109D02*
X152175263Y-98399091D01*
X150976383Y-98070617D02*
X149987000Y-99060000D01*
X152757500Y-95750000D02*
X152719568Y-95750000D01*
X151701500Y-97345500D02*
G75*
G03*
X151701466Y-97577466I116000J-116000D01*
G01*
X152175263Y-98399091D02*
G75*
G02*
X151943334Y-98399088I-115963J115991D01*
G01*
X151411587Y-97867348D02*
G75*
G03*
X151179635Y-97867325I-115987J-115952D01*
G01*
X152233245Y-98109177D02*
G75*
G02*
X152233202Y-98341066I-115945J-115923D01*
G01*
%TO.N,INT1*%
X155592214Y-88900000D02*
X149860000Y-88900000D01*
X155449500Y-97442000D02*
X157320000Y-97442000D01*
X154420000Y-96412500D02*
X155449500Y-97442000D01*
X157320000Y-97442000D02*
X158099000Y-96663000D01*
X158099000Y-91406786D02*
X155592214Y-88900000D01*
X158099000Y-96663000D02*
X158099000Y-91406786D01*
%TO.N,SDO*%
X149860000Y-101600000D02*
X152920000Y-98540000D01*
X152920000Y-98540000D02*
X152920000Y-96412500D01*
%TO.N,INT2*%
X153920000Y-94087500D02*
X153920000Y-93724568D01*
X153920000Y-93724568D02*
X151635432Y-91440000D01*
X151635432Y-91440000D02*
X149860000Y-91440000D01*
%TO.N,CS*%
X152757500Y-94750000D02*
X150630000Y-94750000D01*
X150630000Y-94750000D02*
X149860000Y-93980000D01*
%TD*%
M02*
