%TF.GenerationSoftware,KiCad,Pcbnew,9.0.0-1.fc41*%
%TF.CreationDate,2025-03-08T21:09:04-08:00*%
%TF.ProjectId,IIS3DWB_breakout_beta,49495333-4457-4425-9f62-7265616b6f75,Beta*%
%TF.SameCoordinates,Original*%
%TF.FileFunction,Legend,Top*%
%TF.FilePolarity,Positive*%
%FSLAX46Y46*%
G04 Gerber Fmt 4.6, Leading zero omitted, Abs format (unit mm)*
G04 Created by KiCad (PCBNEW 9.0.0-1.fc41) date 2025-03-08 21:09:04*
%MOMM*%
%LPD*%
G01*
G04 APERTURE LIST*
%ADD10C,0.150000*%
%ADD11C,0.000000*%
%ADD12C,0.120000*%
%ADD13C,0.152400*%
%ADD14C,0.200000*%
G04 APERTURE END LIST*
D10*
X79009580Y-109116666D02*
X79057200Y-109164285D01*
X79057200Y-109164285D02*
X79104819Y-109307142D01*
X79104819Y-109307142D02*
X79104819Y-109402380D01*
X79104819Y-109402380D02*
X79057200Y-109545237D01*
X79057200Y-109545237D02*
X78961961Y-109640475D01*
X78961961Y-109640475D02*
X78866723Y-109688094D01*
X78866723Y-109688094D02*
X78676247Y-109735713D01*
X78676247Y-109735713D02*
X78533390Y-109735713D01*
X78533390Y-109735713D02*
X78342914Y-109688094D01*
X78342914Y-109688094D02*
X78247676Y-109640475D01*
X78247676Y-109640475D02*
X78152438Y-109545237D01*
X78152438Y-109545237D02*
X78104819Y-109402380D01*
X78104819Y-109402380D02*
X78104819Y-109307142D01*
X78104819Y-109307142D02*
X78152438Y-109164285D01*
X78152438Y-109164285D02*
X78200057Y-109116666D01*
X79104819Y-108164285D02*
X79104819Y-108735713D01*
X79104819Y-108449999D02*
X78104819Y-108449999D01*
X78104819Y-108449999D02*
X78247676Y-108545237D01*
X78247676Y-108545237D02*
X78342914Y-108640475D01*
X78342914Y-108640475D02*
X78390533Y-108735713D01*
X77883333Y-104104819D02*
X77550000Y-103628628D01*
X77311905Y-104104819D02*
X77311905Y-103104819D01*
X77311905Y-103104819D02*
X77692857Y-103104819D01*
X77692857Y-103104819D02*
X77788095Y-103152438D01*
X77788095Y-103152438D02*
X77835714Y-103200057D01*
X77835714Y-103200057D02*
X77883333Y-103295295D01*
X77883333Y-103295295D02*
X77883333Y-103438152D01*
X77883333Y-103438152D02*
X77835714Y-103533390D01*
X77835714Y-103533390D02*
X77788095Y-103581009D01*
X77788095Y-103581009D02*
X77692857Y-103628628D01*
X77692857Y-103628628D02*
X77311905Y-103628628D01*
X78835714Y-104104819D02*
X78264286Y-104104819D01*
X78550000Y-104104819D02*
X78550000Y-103104819D01*
X78550000Y-103104819D02*
X78454762Y-103247676D01*
X78454762Y-103247676D02*
X78359524Y-103342914D01*
X78359524Y-103342914D02*
X78264286Y-103390533D01*
X77683333Y-114609580D02*
X77635714Y-114657200D01*
X77635714Y-114657200D02*
X77492857Y-114704819D01*
X77492857Y-114704819D02*
X77397619Y-114704819D01*
X77397619Y-114704819D02*
X77254762Y-114657200D01*
X77254762Y-114657200D02*
X77159524Y-114561961D01*
X77159524Y-114561961D02*
X77111905Y-114466723D01*
X77111905Y-114466723D02*
X77064286Y-114276247D01*
X77064286Y-114276247D02*
X77064286Y-114133390D01*
X77064286Y-114133390D02*
X77111905Y-113942914D01*
X77111905Y-113942914D02*
X77159524Y-113847676D01*
X77159524Y-113847676D02*
X77254762Y-113752438D01*
X77254762Y-113752438D02*
X77397619Y-113704819D01*
X77397619Y-113704819D02*
X77492857Y-113704819D01*
X77492857Y-113704819D02*
X77635714Y-113752438D01*
X77635714Y-113752438D02*
X77683333Y-113800057D01*
X78064286Y-113800057D02*
X78111905Y-113752438D01*
X78111905Y-113752438D02*
X78207143Y-113704819D01*
X78207143Y-113704819D02*
X78445238Y-113704819D01*
X78445238Y-113704819D02*
X78540476Y-113752438D01*
X78540476Y-113752438D02*
X78588095Y-113800057D01*
X78588095Y-113800057D02*
X78635714Y-113895295D01*
X78635714Y-113895295D02*
X78635714Y-113990533D01*
X78635714Y-113990533D02*
X78588095Y-114133390D01*
X78588095Y-114133390D02*
X78016667Y-114704819D01*
X78016667Y-114704819D02*
X78635714Y-114704819D01*
X84016666Y-104004819D02*
X84016666Y-104719104D01*
X84016666Y-104719104D02*
X83969047Y-104861961D01*
X83969047Y-104861961D02*
X83873809Y-104957200D01*
X83873809Y-104957200D02*
X83730952Y-105004819D01*
X83730952Y-105004819D02*
X83635714Y-105004819D01*
X85016666Y-105004819D02*
X84445238Y-105004819D01*
X84730952Y-105004819D02*
X84730952Y-104004819D01*
X84730952Y-104004819D02*
X84635714Y-104147676D01*
X84635714Y-104147676D02*
X84540476Y-104242914D01*
X84540476Y-104242914D02*
X84445238Y-104290533D01*
D11*
%TO.C,G\u002A\u002A\u002A*%
G36*
X83142483Y-116255268D02*
G01*
X83151103Y-116257059D01*
X83157866Y-116260869D01*
X83163517Y-116268633D01*
X83168800Y-116282280D01*
X83174463Y-116303744D01*
X83181249Y-116334956D01*
X83189904Y-116377849D01*
X83190044Y-116378552D01*
X83218475Y-116504626D01*
X83251446Y-116620736D01*
X83288702Y-116726335D01*
X83329990Y-116820876D01*
X83375050Y-116903812D01*
X83423628Y-116974596D01*
X83475468Y-117032681D01*
X83510286Y-117062973D01*
X83531280Y-117078032D01*
X83551871Y-117089260D01*
X83576736Y-117098790D01*
X83610550Y-117108757D01*
X83610763Y-117108815D01*
X83641587Y-117116894D01*
X83664227Y-117121263D01*
X83683819Y-117122150D01*
X83705499Y-117119782D01*
X83734406Y-117114385D01*
X83734850Y-117114296D01*
X83762531Y-117107804D01*
X83789217Y-117099117D01*
X83818111Y-117086883D01*
X83852422Y-117069753D01*
X83893039Y-117047668D01*
X83928713Y-117028533D01*
X83962535Y-117011712D01*
X83991642Y-116998534D01*
X84013170Y-116990327D01*
X84020644Y-116988429D01*
X84051705Y-116988004D01*
X84091346Y-116994544D01*
X84100600Y-116996807D01*
X84131903Y-117006481D01*
X84157711Y-117018944D01*
X84180230Y-117036240D01*
X84201669Y-117060416D01*
X84224236Y-117093518D01*
X84247502Y-117132925D01*
X84274382Y-117178689D01*
X84298029Y-117214729D01*
X84320765Y-117244051D01*
X84344916Y-117269660D01*
X84371809Y-117293730D01*
X84390115Y-117308055D01*
X84407557Y-117318461D01*
X84428482Y-117326957D01*
X84457237Y-117335552D01*
X84469175Y-117338751D01*
X84503393Y-117347056D01*
X84529654Y-117351245D01*
X84553104Y-117351809D01*
X84578745Y-117349266D01*
X84649965Y-117333199D01*
X84725064Y-117304309D01*
X84803529Y-117262955D01*
X84884851Y-117209489D01*
X84968517Y-117144273D01*
X85054017Y-117067660D01*
X85140841Y-116980009D01*
X85198292Y-116916660D01*
X85227352Y-116883701D01*
X85248930Y-116859942D01*
X85264637Y-116844082D01*
X85276086Y-116834822D01*
X85284887Y-116830858D01*
X85292653Y-116830892D01*
X85300994Y-116833622D01*
X85301124Y-116833674D01*
X85312713Y-116844704D01*
X85325735Y-116868606D01*
X85339875Y-116904474D01*
X85354819Y-116951400D01*
X85370255Y-117008476D01*
X85385866Y-117074793D01*
X85388208Y-117085498D01*
X85417328Y-117250844D01*
X85432745Y-117415289D01*
X85434510Y-117579847D01*
X85423052Y-117742164D01*
X85414635Y-117799023D01*
X85401450Y-117863974D01*
X85384616Y-117932857D01*
X85365248Y-118001510D01*
X85344464Y-118065771D01*
X85323380Y-118121478D01*
X85317744Y-118134596D01*
X85248261Y-118276692D01*
X85168986Y-118412379D01*
X85080957Y-118540207D01*
X84985211Y-118658723D01*
X84882788Y-118766476D01*
X84832235Y-118813347D01*
X84803011Y-118838366D01*
X84780217Y-118854546D01*
X84762602Y-118861150D01*
X84748917Y-118857444D01*
X84737911Y-118842693D01*
X84728335Y-118816160D01*
X84718936Y-118777111D01*
X84711928Y-118742618D01*
X84685536Y-118622165D01*
X84655746Y-118513426D01*
X84621920Y-118414505D01*
X84583423Y-118323503D01*
X84547815Y-118253265D01*
X84507583Y-118185103D01*
X84467916Y-118129315D01*
X84427519Y-118084508D01*
X84385099Y-118049291D01*
X84339359Y-118022268D01*
X84328244Y-118017072D01*
X84272236Y-117999553D01*
X84212671Y-117995353D01*
X84149827Y-118004441D01*
X84083982Y-118026787D01*
X84037046Y-118049863D01*
X83975067Y-118084023D01*
X83571700Y-119747540D01*
X83524091Y-119943790D01*
X83479657Y-120126747D01*
X83438347Y-120296627D01*
X83400105Y-120453648D01*
X83364878Y-120598027D01*
X83332613Y-120729981D01*
X83303256Y-120849726D01*
X83276754Y-120957480D01*
X83253052Y-121053459D01*
X83232097Y-121137882D01*
X83213835Y-121210965D01*
X83198215Y-121272925D01*
X83185179Y-121323979D01*
X83174676Y-121364343D01*
X83166653Y-121394236D01*
X83161054Y-121413874D01*
X83157827Y-121423475D01*
X83157302Y-121424444D01*
X83139939Y-121435805D01*
X83111407Y-121442751D01*
X83073845Y-121444843D01*
X83059875Y-121444395D01*
X83030672Y-121441107D01*
X82992346Y-121434284D01*
X82948919Y-121424875D01*
X82904417Y-121413831D01*
X82862860Y-121402102D01*
X82828275Y-121390638D01*
X82821820Y-121388174D01*
X82778216Y-121369721D01*
X82746125Y-121353018D01*
X82723496Y-121336828D01*
X82708274Y-121319912D01*
X82708029Y-121319556D01*
X82702737Y-121311235D01*
X82699735Y-121303177D01*
X82699293Y-121292823D01*
X82701688Y-121277620D01*
X82707192Y-121255014D01*
X82716078Y-121222449D01*
X82719891Y-121208752D01*
X82724200Y-121193692D01*
X82732261Y-121165939D01*
X82743889Y-121126124D01*
X82758898Y-121074874D01*
X82777104Y-121012820D01*
X82798321Y-120940591D01*
X82822365Y-120858817D01*
X82849049Y-120768126D01*
X82878187Y-120669148D01*
X82909597Y-120562511D01*
X82943091Y-120448846D01*
X82978485Y-120328782D01*
X83015592Y-120202947D01*
X83054229Y-120071971D01*
X83094209Y-119936484D01*
X83135347Y-119797114D01*
X83177459Y-119654491D01*
X83205529Y-119559450D01*
X83665801Y-118001156D01*
X83629158Y-117940570D01*
X83586979Y-117880601D01*
X83540462Y-117832610D01*
X83490240Y-117797062D01*
X83436947Y-117774419D01*
X83390363Y-117765720D01*
X83336782Y-117765252D01*
X83282733Y-117773170D01*
X83226279Y-117790082D01*
X83165482Y-117816595D01*
X83098406Y-117853314D01*
X83085073Y-117861324D01*
X83000445Y-117917665D01*
X82916944Y-117983299D01*
X82833261Y-118059385D01*
X82748085Y-118147080D01*
X82698095Y-118203013D01*
X82667042Y-118238095D01*
X82643183Y-118262986D01*
X82625050Y-118278355D01*
X82611178Y-118284869D01*
X82600099Y-118283201D01*
X82590346Y-118274019D01*
X82580453Y-118257991D01*
X82579896Y-118256961D01*
X82570800Y-118236276D01*
X82559598Y-118204954D01*
X82547157Y-118165929D01*
X82534340Y-118122131D01*
X82522011Y-118076495D01*
X82511037Y-118031953D01*
X82503714Y-117998597D01*
X82483486Y-117878760D01*
X82470781Y-117755870D01*
X82465490Y-117632058D01*
X82467507Y-117509456D01*
X82476724Y-117390196D01*
X82493033Y-117276408D01*
X82516329Y-117170225D01*
X82546503Y-117073779D01*
X82550788Y-117062425D01*
X82611328Y-116920073D01*
X82680015Y-116787062D01*
X82758316Y-116661015D01*
X82847693Y-116539555D01*
X82940881Y-116429913D01*
X82987400Y-116379894D01*
X83029648Y-116337309D01*
X83066827Y-116302850D01*
X83098136Y-116277210D01*
X83122776Y-116261082D01*
X83139948Y-116255158D01*
X83142483Y-116255268D01*
G37*
D12*
%TO.C,C1*%
X76940000Y-108809420D02*
X76940000Y-109090580D01*
X77960000Y-108809420D02*
X77960000Y-109090580D01*
%TO.C,R1*%
X76927500Y-106087258D02*
X76927500Y-105612742D01*
X77972500Y-106087258D02*
X77972500Y-105612742D01*
%TO.C,C2*%
X76940000Y-111809420D02*
X76940000Y-112090580D01*
X77960000Y-111809420D02*
X77960000Y-112090580D01*
D13*
%TO.C,J1*%
X79550000Y-105600009D02*
X79550000Y-108129961D01*
X79550000Y-112570039D02*
X79550000Y-115099991D01*
X79550000Y-115099991D02*
X81479960Y-115099991D01*
X81479960Y-105600009D02*
X79550000Y-105600009D01*
X83420039Y-115099991D02*
X84850000Y-115099991D01*
X84850000Y-105600009D02*
X83420039Y-105600009D01*
X84850000Y-115099991D02*
X84850000Y-105600009D01*
D14*
X78800000Y-112650000D02*
G75*
G02*
X78600000Y-112650000I-100000J0D01*
G01*
X78600000Y-112650000D02*
G75*
G02*
X78800000Y-112650000I100000J0D01*
G01*
%TD*%
M02*
