M48
; DRILL file {KiCad 9.0.0-1.fc41} date 2025-03-08T21:08:59-0800
; FORMAT={-:-/ absolute / metric / decimal}
; #@! TF.CreationDate,2025-03-08T21:08:59-08:00
; #@! TF.GenerationSoftware,Kicad,Pcbnew,9.0.0-1.fc41
; #@! TF.FileFunction,Plated,1,2,PTH
FMAT,2
METRIC
; #@! TA.AperFunction,Plated,PTH,ViaDrill
T1C0.300
%
G90
G05
T1
X77.55Y-113.85
X77.95Y-117.45
X78.05Y-115.35
X78.32Y-109.23
X78.4Y-108.4
X78.45Y-110.55
X78.5Y-112.25
X78.55Y-103.15
X78.75Y-107.25
X78.85Y-113.75
X78.95Y-105.95
X79.05Y-112.8
X79.3Y-107.85
X79.55Y-115.75
X79.95Y-112.95
X80.0Y-106.7
X80.05Y-107.65
X80.45Y-117.25
X80.55Y-114.25
X80.65Y-113.4
X80.75Y-103.85
X80.95Y-112.75
X81.95Y-108.15
X82.15Y-111.65
X82.45Y-104.45
X82.45Y-116.05
X82.65Y-98.55
X82.65Y-108.6
X82.65Y-118.05
X82.75Y-102.75
X82.75Y-109.45
X82.753Y-111.124
X83.15Y-112.55
X83.45Y-121.15
X83.75Y-110.65
X83.85Y-106.35
X84.05Y-99.35
X84.05Y-107.65
X84.35Y-101.85
X84.35Y-111.85
X84.35Y-113.55
X84.45Y-103.95
X84.45Y-116.55
X84.55Y-118.85
M30
