%TF.GenerationSoftware,KiCad,Pcbnew,9.0.0-1.fc41*%
%TF.CreationDate,2025-03-08T21:09:04-08:00*%
%TF.ProjectId,IIS3DWB_breakout_beta,49495333-4457-4425-9f62-7265616b6f75,Beta*%
%TF.SameCoordinates,Original*%
%TF.FileFunction,Legend,Bot*%
%TF.FilePolarity,Positive*%
%FSLAX46Y46*%
G04 Gerber Fmt 4.6, Leading zero omitted, Abs format (unit mm)*
G04 Created by KiCad (PCBNEW 9.0.0-1.fc41) date 2025-03-08 21:09:04*
%MOMM*%
%LPD*%
G01*
G04 APERTURE LIST*
%ADD10C,0.100000*%
%ADD11C,0.150000*%
%ADD12C,0.000000*%
%ADD13C,0.120000*%
G04 APERTURE END LIST*
D10*
X84017544Y-105632172D02*
X84250877Y-105298839D01*
X84417544Y-105632172D02*
X84417544Y-104932172D01*
X84417544Y-104932172D02*
X84150877Y-104932172D01*
X84150877Y-104932172D02*
X84084211Y-104965505D01*
X84084211Y-104965505D02*
X84050877Y-104998839D01*
X84050877Y-104998839D02*
X84017544Y-105065505D01*
X84017544Y-105065505D02*
X84017544Y-105165505D01*
X84017544Y-105165505D02*
X84050877Y-105232172D01*
X84050877Y-105232172D02*
X84084211Y-105265505D01*
X84084211Y-105265505D02*
X84150877Y-105298839D01*
X84150877Y-105298839D02*
X84417544Y-105298839D01*
X83784211Y-105165505D02*
X83617544Y-105632172D01*
X83450877Y-105165505D02*
X83617544Y-105632172D01*
X83617544Y-105632172D02*
X83684211Y-105798839D01*
X83684211Y-105798839D02*
X83717544Y-105832172D01*
X83717544Y-105832172D02*
X83784211Y-105865505D01*
X82884211Y-105632172D02*
X82884211Y-105265505D01*
X82884211Y-105265505D02*
X82917544Y-105198839D01*
X82917544Y-105198839D02*
X82984211Y-105165505D01*
X82984211Y-105165505D02*
X83117544Y-105165505D01*
X83117544Y-105165505D02*
X83184211Y-105198839D01*
X82884211Y-105598839D02*
X82950878Y-105632172D01*
X82950878Y-105632172D02*
X83117544Y-105632172D01*
X83117544Y-105632172D02*
X83184211Y-105598839D01*
X83184211Y-105598839D02*
X83217544Y-105532172D01*
X83217544Y-105532172D02*
X83217544Y-105465505D01*
X83217544Y-105465505D02*
X83184211Y-105398839D01*
X83184211Y-105398839D02*
X83117544Y-105365505D01*
X83117544Y-105365505D02*
X82950878Y-105365505D01*
X82950878Y-105365505D02*
X82884211Y-105332172D01*
X82550878Y-105165505D02*
X82550878Y-105632172D01*
X82550878Y-105232172D02*
X82517545Y-105198839D01*
X82517545Y-105198839D02*
X82450878Y-105165505D01*
X82450878Y-105165505D02*
X82350878Y-105165505D01*
X82350878Y-105165505D02*
X82284211Y-105198839D01*
X82284211Y-105198839D02*
X82250878Y-105265505D01*
X82250878Y-105265505D02*
X82250878Y-105632172D01*
X81184212Y-104932172D02*
X81184212Y-105432172D01*
X81184212Y-105432172D02*
X81217545Y-105532172D01*
X81217545Y-105532172D02*
X81284212Y-105598839D01*
X81284212Y-105598839D02*
X81384212Y-105632172D01*
X81384212Y-105632172D02*
X81450879Y-105632172D01*
X80550879Y-105632172D02*
X80550879Y-105265505D01*
X80550879Y-105265505D02*
X80584212Y-105198839D01*
X80584212Y-105198839D02*
X80650879Y-105165505D01*
X80650879Y-105165505D02*
X80784212Y-105165505D01*
X80784212Y-105165505D02*
X80850879Y-105198839D01*
X80550879Y-105598839D02*
X80617546Y-105632172D01*
X80617546Y-105632172D02*
X80784212Y-105632172D01*
X80784212Y-105632172D02*
X80850879Y-105598839D01*
X80850879Y-105598839D02*
X80884212Y-105532172D01*
X80884212Y-105532172D02*
X80884212Y-105465505D01*
X80884212Y-105465505D02*
X80850879Y-105398839D01*
X80850879Y-105398839D02*
X80784212Y-105365505D01*
X80784212Y-105365505D02*
X80617546Y-105365505D01*
X80617546Y-105365505D02*
X80550879Y-105332172D01*
X79917546Y-105598839D02*
X79984213Y-105632172D01*
X79984213Y-105632172D02*
X80117546Y-105632172D01*
X80117546Y-105632172D02*
X80184213Y-105598839D01*
X80184213Y-105598839D02*
X80217546Y-105565505D01*
X80217546Y-105565505D02*
X80250879Y-105498839D01*
X80250879Y-105498839D02*
X80250879Y-105298839D01*
X80250879Y-105298839D02*
X80217546Y-105232172D01*
X80217546Y-105232172D02*
X80184213Y-105198839D01*
X80184213Y-105198839D02*
X80117546Y-105165505D01*
X80117546Y-105165505D02*
X79984213Y-105165505D01*
X79984213Y-105165505D02*
X79917546Y-105198839D01*
X79517546Y-105632172D02*
X79584213Y-105598839D01*
X79584213Y-105598839D02*
X79617546Y-105565505D01*
X79617546Y-105565505D02*
X79650879Y-105498839D01*
X79650879Y-105498839D02*
X79650879Y-105298839D01*
X79650879Y-105298839D02*
X79617546Y-105232172D01*
X79617546Y-105232172D02*
X79584213Y-105198839D01*
X79584213Y-105198839D02*
X79517546Y-105165505D01*
X79517546Y-105165505D02*
X79417546Y-105165505D01*
X79417546Y-105165505D02*
X79350879Y-105198839D01*
X79350879Y-105198839D02*
X79317546Y-105232172D01*
X79317546Y-105232172D02*
X79284213Y-105298839D01*
X79284213Y-105298839D02*
X79284213Y-105498839D01*
X79284213Y-105498839D02*
X79317546Y-105565505D01*
X79317546Y-105565505D02*
X79350879Y-105598839D01*
X79350879Y-105598839D02*
X79417546Y-105632172D01*
X79417546Y-105632172D02*
X79517546Y-105632172D01*
X78984213Y-105632172D02*
X78984213Y-104932172D01*
X78984213Y-105198839D02*
X78917546Y-105165505D01*
X78917546Y-105165505D02*
X78784213Y-105165505D01*
X78784213Y-105165505D02*
X78717546Y-105198839D01*
X78717546Y-105198839D02*
X78684213Y-105232172D01*
X78684213Y-105232172D02*
X78650880Y-105298839D01*
X78650880Y-105298839D02*
X78650880Y-105498839D01*
X78650880Y-105498839D02*
X78684213Y-105565505D01*
X78684213Y-105565505D02*
X78717546Y-105598839D01*
X78717546Y-105598839D02*
X78784213Y-105632172D01*
X78784213Y-105632172D02*
X78917546Y-105632172D01*
X78917546Y-105632172D02*
X78984213Y-105598839D01*
X78417547Y-105165505D02*
X78250880Y-105632172D01*
X78084213Y-105165505D02*
X78250880Y-105632172D01*
X78250880Y-105632172D02*
X78317547Y-105798839D01*
X78317547Y-105798839D02*
X78350880Y-105832172D01*
X78350880Y-105832172D02*
X78417547Y-105865505D01*
X84417544Y-106759133D02*
X84417544Y-106059133D01*
X84417544Y-106059133D02*
X84184211Y-106559133D01*
X84184211Y-106559133D02*
X83950877Y-106059133D01*
X83950877Y-106059133D02*
X83950877Y-106759133D01*
X83317544Y-106759133D02*
X83317544Y-106392466D01*
X83317544Y-106392466D02*
X83350877Y-106325800D01*
X83350877Y-106325800D02*
X83417544Y-106292466D01*
X83417544Y-106292466D02*
X83550877Y-106292466D01*
X83550877Y-106292466D02*
X83617544Y-106325800D01*
X83317544Y-106725800D02*
X83384211Y-106759133D01*
X83384211Y-106759133D02*
X83550877Y-106759133D01*
X83550877Y-106759133D02*
X83617544Y-106725800D01*
X83617544Y-106725800D02*
X83650877Y-106659133D01*
X83650877Y-106659133D02*
X83650877Y-106592466D01*
X83650877Y-106592466D02*
X83617544Y-106525800D01*
X83617544Y-106525800D02*
X83550877Y-106492466D01*
X83550877Y-106492466D02*
X83384211Y-106492466D01*
X83384211Y-106492466D02*
X83317544Y-106459133D01*
X82984211Y-106759133D02*
X82984211Y-106292466D01*
X82984211Y-106425800D02*
X82950878Y-106359133D01*
X82950878Y-106359133D02*
X82917544Y-106325800D01*
X82917544Y-106325800D02*
X82850878Y-106292466D01*
X82850878Y-106292466D02*
X82784211Y-106292466D01*
X82050878Y-106125800D02*
X82017545Y-106092466D01*
X82017545Y-106092466D02*
X81950878Y-106059133D01*
X81950878Y-106059133D02*
X81784212Y-106059133D01*
X81784212Y-106059133D02*
X81717545Y-106092466D01*
X81717545Y-106092466D02*
X81684212Y-106125800D01*
X81684212Y-106125800D02*
X81650878Y-106192466D01*
X81650878Y-106192466D02*
X81650878Y-106259133D01*
X81650878Y-106259133D02*
X81684212Y-106359133D01*
X81684212Y-106359133D02*
X82084212Y-106759133D01*
X82084212Y-106759133D02*
X81650878Y-106759133D01*
X81217545Y-106059133D02*
X81150878Y-106059133D01*
X81150878Y-106059133D02*
X81084211Y-106092466D01*
X81084211Y-106092466D02*
X81050878Y-106125800D01*
X81050878Y-106125800D02*
X81017545Y-106192466D01*
X81017545Y-106192466D02*
X80984211Y-106325800D01*
X80984211Y-106325800D02*
X80984211Y-106492466D01*
X80984211Y-106492466D02*
X81017545Y-106625800D01*
X81017545Y-106625800D02*
X81050878Y-106692466D01*
X81050878Y-106692466D02*
X81084211Y-106725800D01*
X81084211Y-106725800D02*
X81150878Y-106759133D01*
X81150878Y-106759133D02*
X81217545Y-106759133D01*
X81217545Y-106759133D02*
X81284211Y-106725800D01*
X81284211Y-106725800D02*
X81317545Y-106692466D01*
X81317545Y-106692466D02*
X81350878Y-106625800D01*
X81350878Y-106625800D02*
X81384211Y-106492466D01*
X81384211Y-106492466D02*
X81384211Y-106325800D01*
X81384211Y-106325800D02*
X81350878Y-106192466D01*
X81350878Y-106192466D02*
X81317545Y-106125800D01*
X81317545Y-106125800D02*
X81284211Y-106092466D01*
X81284211Y-106092466D02*
X81217545Y-106059133D01*
X80717544Y-106125800D02*
X80684211Y-106092466D01*
X80684211Y-106092466D02*
X80617544Y-106059133D01*
X80617544Y-106059133D02*
X80450878Y-106059133D01*
X80450878Y-106059133D02*
X80384211Y-106092466D01*
X80384211Y-106092466D02*
X80350878Y-106125800D01*
X80350878Y-106125800D02*
X80317544Y-106192466D01*
X80317544Y-106192466D02*
X80317544Y-106259133D01*
X80317544Y-106259133D02*
X80350878Y-106359133D01*
X80350878Y-106359133D02*
X80750878Y-106759133D01*
X80750878Y-106759133D02*
X80317544Y-106759133D01*
X79684211Y-106059133D02*
X80017544Y-106059133D01*
X80017544Y-106059133D02*
X80050877Y-106392466D01*
X80050877Y-106392466D02*
X80017544Y-106359133D01*
X80017544Y-106359133D02*
X79950877Y-106325800D01*
X79950877Y-106325800D02*
X79784211Y-106325800D01*
X79784211Y-106325800D02*
X79717544Y-106359133D01*
X79717544Y-106359133D02*
X79684211Y-106392466D01*
X79684211Y-106392466D02*
X79650877Y-106459133D01*
X79650877Y-106459133D02*
X79650877Y-106625800D01*
X79650877Y-106625800D02*
X79684211Y-106692466D01*
X79684211Y-106692466D02*
X79717544Y-106725800D01*
X79717544Y-106725800D02*
X79784211Y-106759133D01*
X79784211Y-106759133D02*
X79950877Y-106759133D01*
X79950877Y-106759133D02*
X80017544Y-106725800D01*
X80017544Y-106725800D02*
X80050877Y-106692466D01*
D11*
X82504819Y-109588095D02*
X83314342Y-109588095D01*
X83314342Y-109588095D02*
X83409580Y-109635714D01*
X83409580Y-109635714D02*
X83457200Y-109683333D01*
X83457200Y-109683333D02*
X83504819Y-109778571D01*
X83504819Y-109778571D02*
X83504819Y-109969047D01*
X83504819Y-109969047D02*
X83457200Y-110064285D01*
X83457200Y-110064285D02*
X83409580Y-110111904D01*
X83409580Y-110111904D02*
X83314342Y-110159523D01*
X83314342Y-110159523D02*
X82504819Y-110159523D01*
X83504819Y-111159523D02*
X83504819Y-110588095D01*
X83504819Y-110873809D02*
X82504819Y-110873809D01*
X82504819Y-110873809D02*
X82647676Y-110778571D01*
X82647676Y-110778571D02*
X82742914Y-110683333D01*
X82742914Y-110683333D02*
X82790533Y-110588095D01*
D12*
%TO.C,G\u002A\u002A\u002A*%
G36*
X84568905Y-113101277D02*
G01*
X84585922Y-113112957D01*
X84594666Y-113124148D01*
X84599696Y-113139509D01*
X84599065Y-113159019D01*
X84592975Y-113184717D01*
X84591851Y-113189156D01*
X84588870Y-113205977D01*
X84585854Y-113229111D01*
X84583100Y-113256103D01*
X84580905Y-113284498D01*
X84580800Y-113286131D01*
X84576192Y-113355743D01*
X84571817Y-113417404D01*
X84567539Y-113472887D01*
X84563222Y-113523961D01*
X84558729Y-113572398D01*
X84554427Y-113624092D01*
X84551697Y-113685601D01*
X84552272Y-113744081D01*
X84556289Y-113802531D01*
X84563884Y-113863953D01*
X84575197Y-113931348D01*
X84575220Y-113931476D01*
X84577421Y-113946013D01*
X84580066Y-113967394D01*
X84582823Y-113992760D01*
X84585363Y-114019254D01*
X84587763Y-114045951D01*
X84590488Y-114071805D01*
X84593568Y-114090516D01*
X84597723Y-114103519D01*
X84603671Y-114112248D01*
X84612134Y-114118139D01*
X84623830Y-114122627D01*
X84639479Y-114127146D01*
X84657650Y-114133992D01*
X84676781Y-114146120D01*
X84690322Y-114160670D01*
X84697372Y-114176215D01*
X84697028Y-114191326D01*
X84688389Y-114204576D01*
X84687077Y-114205721D01*
X84679060Y-114210625D01*
X84668583Y-114212771D01*
X84653290Y-114212364D01*
X84630824Y-114209611D01*
X84625264Y-114208849D01*
X84612287Y-114207862D01*
X84605435Y-114209530D01*
X84602088Y-114214278D01*
X84601497Y-114218600D01*
X84601305Y-114231817D01*
X84601830Y-114251680D01*
X84603018Y-114276371D01*
X84604814Y-114304073D01*
X84605951Y-114321747D01*
X84607559Y-114352404D01*
X84609219Y-114389664D01*
X84610862Y-114431723D01*
X84612419Y-114476779D01*
X84613819Y-114523028D01*
X84614994Y-114568668D01*
X84616057Y-114610221D01*
X84617307Y-114651557D01*
X84618655Y-114689877D01*
X84620047Y-114723830D01*
X84621426Y-114752066D01*
X84622737Y-114773237D01*
X84623924Y-114785992D01*
X84624162Y-114787723D01*
X84626824Y-114806690D01*
X84630429Y-114831867D01*
X84634534Y-114860179D01*
X84638695Y-114888549D01*
X84643837Y-114927637D01*
X84648413Y-114971122D01*
X84652239Y-115016673D01*
X84655259Y-115062820D01*
X84657417Y-115108092D01*
X84658657Y-115151021D01*
X84658921Y-115190136D01*
X84658155Y-115223966D01*
X84656300Y-115251044D01*
X84653302Y-115269897D01*
X84650023Y-115280361D01*
X84639623Y-115299706D01*
X84626121Y-115313174D01*
X84611040Y-115319910D01*
X84595906Y-115319059D01*
X84582242Y-115309766D01*
X84576762Y-115303228D01*
X84571313Y-115293849D01*
X84568758Y-115282649D01*
X84568627Y-115267017D01*
X84570448Y-115244341D01*
X84571082Y-115236883D01*
X84572432Y-115205120D01*
X84572500Y-115166121D01*
X84571384Y-115121779D01*
X84569184Y-115073985D01*
X84566000Y-115024629D01*
X84561932Y-114975604D01*
X84557080Y-114928799D01*
X84551543Y-114886107D01*
X84546896Y-114852316D01*
X84535760Y-114745311D01*
X84529143Y-114631556D01*
X84526980Y-114510064D01*
X84526829Y-114484481D01*
X84526159Y-114447531D01*
X84525048Y-114410933D01*
X84523595Y-114377825D01*
X84521901Y-114351344D01*
X84519827Y-114325415D01*
X84517593Y-114297172D01*
X84515616Y-114271854D01*
X84514163Y-114252867D01*
X84513246Y-114239275D01*
X84512075Y-114227016D01*
X84509725Y-114217667D01*
X84505124Y-114210847D01*
X84497198Y-114206173D01*
X84484874Y-114203265D01*
X84467077Y-114201740D01*
X84442735Y-114201216D01*
X84410773Y-114201313D01*
X84370119Y-114201647D01*
X84355353Y-114201719D01*
X84310271Y-114201606D01*
X84261798Y-114201080D01*
X84213223Y-114200195D01*
X84167835Y-114199007D01*
X84128923Y-114197572D01*
X84087245Y-114195716D01*
X84037801Y-114193531D01*
X83996477Y-114191757D01*
X83962324Y-114190384D01*
X83934394Y-114189405D01*
X83911740Y-114188809D01*
X83893414Y-114188588D01*
X83878467Y-114188733D01*
X83865952Y-114189234D01*
X83854921Y-114190083D01*
X83844426Y-114191270D01*
X83833519Y-114192786D01*
X83821251Y-114194622D01*
X83799334Y-114198212D01*
X83779023Y-114202604D01*
X83765684Y-114207214D01*
X83757763Y-114212480D01*
X83756227Y-114214119D01*
X83754377Y-114216816D01*
X83752837Y-114220708D01*
X83751585Y-114226575D01*
X83750597Y-114235195D01*
X83749851Y-114247348D01*
X83749324Y-114263813D01*
X83748994Y-114285370D01*
X83748839Y-114312798D01*
X83748834Y-114346876D01*
X83748959Y-114388383D01*
X83749190Y-114438099D01*
X83749504Y-114496803D01*
X83749696Y-114526899D01*
X83750146Y-114578230D01*
X83750723Y-114627111D01*
X83751408Y-114672497D01*
X83752179Y-114713342D01*
X83753016Y-114748602D01*
X83753899Y-114777230D01*
X83754805Y-114798181D01*
X83755716Y-114810410D01*
X83757052Y-114823218D01*
X83759060Y-114846919D01*
X83761170Y-114875941D01*
X83763201Y-114907754D01*
X83764972Y-114939827D01*
X83767481Y-114985796D01*
X83771755Y-115050524D01*
X83776525Y-115108398D01*
X83781728Y-115158836D01*
X83787300Y-115201255D01*
X83793181Y-115235073D01*
X83799307Y-115259708D01*
X83803334Y-115273241D01*
X83809063Y-115299054D01*
X83809819Y-115318822D01*
X83805540Y-115334226D01*
X83796167Y-115346948D01*
X83784293Y-115355065D01*
X83766712Y-115359246D01*
X83748788Y-115357232D01*
X83733450Y-115349452D01*
X83723627Y-115336333D01*
X83722027Y-115331493D01*
X83717907Y-115313905D01*
X83713379Y-115288711D01*
X83708612Y-115257407D01*
X83703773Y-115221491D01*
X83699032Y-115182459D01*
X83694557Y-115141810D01*
X83690516Y-115101039D01*
X83687077Y-115061644D01*
X83684408Y-115025123D01*
X83682679Y-114992971D01*
X83682058Y-114966688D01*
X83682018Y-114961763D01*
X83681003Y-114934888D01*
X83678823Y-114902776D01*
X83675757Y-114869034D01*
X83672082Y-114837270D01*
X83670404Y-114824091D01*
X83667092Y-114793775D01*
X83664879Y-114764584D01*
X83663638Y-114733799D01*
X83663238Y-114698702D01*
X83663554Y-114656574D01*
X83663600Y-114652992D01*
X83663909Y-114619179D01*
X83664099Y-114578311D01*
X83664170Y-114532804D01*
X83664120Y-114485071D01*
X83663949Y-114437526D01*
X83663655Y-114392583D01*
X83663287Y-114346755D01*
X83662850Y-114308691D01*
X83662109Y-114278562D01*
X83660817Y-114255443D01*
X83658729Y-114238408D01*
X83655598Y-114226533D01*
X83651179Y-114218891D01*
X83645226Y-114214558D01*
X83637493Y-114212609D01*
X83627734Y-114212118D01*
X83615703Y-114212160D01*
X83608833Y-114212039D01*
X83581755Y-114208749D01*
X83560916Y-114201407D01*
X83547165Y-114190621D01*
X83541350Y-114176997D01*
X83544317Y-114161139D01*
X83549306Y-114152782D01*
X83562032Y-114141766D01*
X83581510Y-114133782D01*
X83609185Y-114128092D01*
X83611737Y-114127714D01*
X83629225Y-114124899D01*
X83642269Y-114121482D01*
X83651463Y-114116154D01*
X83657399Y-114107608D01*
X83660672Y-114094533D01*
X83661875Y-114075621D01*
X83661602Y-114049563D01*
X83660445Y-114015052D01*
X83659852Y-113998381D01*
X83658542Y-113961008D01*
X83657205Y-113922296D01*
X83655969Y-113885943D01*
X83654961Y-113855651D01*
X83653775Y-113824901D01*
X83651992Y-113787069D01*
X83649932Y-113749308D01*
X83647845Y-113716467D01*
X83647131Y-113705990D01*
X83645687Y-113682069D01*
X83644528Y-113657769D01*
X83643646Y-113632048D01*
X83643031Y-113603864D01*
X83642673Y-113572172D01*
X83642565Y-113535931D01*
X83642697Y-113494096D01*
X83643059Y-113445625D01*
X83643644Y-113389475D01*
X83644441Y-113324603D01*
X83645066Y-113278228D01*
X83645695Y-113237946D01*
X83646348Y-113205531D01*
X83647079Y-113180009D01*
X83647944Y-113160405D01*
X83649000Y-113145745D01*
X83650299Y-113135054D01*
X83651899Y-113127357D01*
X83653855Y-113121679D01*
X83656221Y-113117047D01*
X83656792Y-113116077D01*
X83663958Y-113106328D01*
X83672547Y-113102064D01*
X83686697Y-113101123D01*
X83698773Y-113101803D01*
X83709411Y-113105753D01*
X83718167Y-113114940D01*
X83719529Y-113116816D01*
X83721558Y-113120157D01*
X83723254Y-113124390D01*
X83724648Y-113130323D01*
X83725770Y-113138762D01*
X83726650Y-113150514D01*
X83727319Y-113166385D01*
X83727805Y-113187183D01*
X83728141Y-113213715D01*
X83728355Y-113246786D01*
X83728478Y-113287205D01*
X83728540Y-113335777D01*
X83728571Y-113393310D01*
X83728744Y-113461414D01*
X83729195Y-113525576D01*
X83729905Y-113584807D01*
X83730858Y-113638142D01*
X83732036Y-113684613D01*
X83733422Y-113723253D01*
X83734999Y-113753094D01*
X83735734Y-113764665D01*
X83737778Y-113801172D01*
X83739824Y-113843340D01*
X83741741Y-113888180D01*
X83743399Y-113932702D01*
X83744667Y-113973917D01*
X83744851Y-113980719D01*
X83745974Y-114018651D01*
X83747087Y-114048106D01*
X83748285Y-114070199D01*
X83749659Y-114086046D01*
X83751303Y-114096762D01*
X83753308Y-114103461D01*
X83755769Y-114107260D01*
X83756012Y-114107500D01*
X83759829Y-114110338D01*
X83765341Y-114112013D01*
X83774148Y-114112516D01*
X83787851Y-114111844D01*
X83808048Y-114109987D01*
X83836339Y-114106942D01*
X83865294Y-114104142D01*
X83896551Y-114102040D01*
X83923448Y-114101218D01*
X83943343Y-114101800D01*
X83945043Y-114101943D01*
X83969846Y-114103649D01*
X84002554Y-114105386D01*
X84041560Y-114107110D01*
X84085259Y-114108776D01*
X84132045Y-114110339D01*
X84180314Y-114111757D01*
X84228459Y-114112984D01*
X84274876Y-114113975D01*
X84317957Y-114114688D01*
X84356099Y-114115077D01*
X84387695Y-114115098D01*
X84411140Y-114114707D01*
X84425898Y-114114199D01*
X84453557Y-114112976D01*
X84473288Y-114111564D01*
X84486375Y-114109817D01*
X84494101Y-114107584D01*
X84497751Y-114104719D01*
X84499567Y-114100854D01*
X84502120Y-114087683D01*
X84502734Y-114067615D01*
X84501370Y-114040212D01*
X84497991Y-114005036D01*
X84492557Y-113961650D01*
X84485032Y-113909615D01*
X84475376Y-113848495D01*
X84472774Y-113832107D01*
X84468665Y-113802798D01*
X84465893Y-113775879D01*
X84464419Y-113749335D01*
X84464204Y-113721149D01*
X84465209Y-113689305D01*
X84467396Y-113651789D01*
X84470726Y-113606584D01*
X84471561Y-113595891D01*
X84477544Y-113518376D01*
X84483304Y-113442209D01*
X84488687Y-113369485D01*
X84493537Y-113302300D01*
X84497698Y-113242750D01*
X84498295Y-113234122D01*
X84500951Y-113199128D01*
X84503592Y-113172232D01*
X84506527Y-113152062D01*
X84510067Y-113137250D01*
X84514521Y-113126423D01*
X84520199Y-113118212D01*
X84527409Y-113111247D01*
X84532863Y-113107080D01*
X84551121Y-113099315D01*
X84568905Y-113101277D01*
G37*
G36*
X82918754Y-113824619D02*
G01*
X82935705Y-113836206D01*
X82938304Y-113838851D01*
X82946063Y-113848677D01*
X82948868Y-113858877D01*
X82948246Y-113874055D01*
X82947414Y-113880539D01*
X82944073Y-113898920D01*
X82939121Y-113921486D01*
X82933293Y-113944759D01*
X82930466Y-113955771D01*
X82923893Y-113985538D01*
X82917868Y-114019482D01*
X82912304Y-114058401D01*
X82907114Y-114103094D01*
X82902210Y-114154360D01*
X82897504Y-114212996D01*
X82892910Y-114279802D01*
X82888340Y-114355577D01*
X82886064Y-114399585D01*
X82883508Y-114465415D01*
X82882011Y-114529320D01*
X82881551Y-114590325D01*
X82882106Y-114647455D01*
X82883653Y-114699734D01*
X82886170Y-114746187D01*
X82889636Y-114785838D01*
X82894028Y-114817713D01*
X82899324Y-114840836D01*
X82903905Y-114858659D01*
X82904584Y-114873628D01*
X82901539Y-114891266D01*
X82901505Y-114891419D01*
X82899868Y-114903931D01*
X82898525Y-114924466D01*
X82897480Y-114951320D01*
X82896740Y-114982786D01*
X82896309Y-115017158D01*
X82896195Y-115052730D01*
X82896402Y-115087798D01*
X82896935Y-115120653D01*
X82897801Y-115149592D01*
X82899006Y-115172908D01*
X82900554Y-115188895D01*
X82903726Y-115211084D01*
X82907846Y-115242651D01*
X82911162Y-115272741D01*
X82913863Y-115303604D01*
X82916135Y-115337488D01*
X82918168Y-115376641D01*
X82920148Y-115423311D01*
X82921647Y-115459322D01*
X82923398Y-115495283D01*
X82925381Y-115528351D01*
X82927766Y-115560620D01*
X82930726Y-115594190D01*
X82934433Y-115631154D01*
X82939058Y-115673611D01*
X82944774Y-115723657D01*
X82945273Y-115728538D01*
X82946697Y-115748788D01*
X82948016Y-115776540D01*
X82949179Y-115810105D01*
X82950131Y-115847791D01*
X82950821Y-115887910D01*
X82951194Y-115928772D01*
X82951300Y-115955227D01*
X82951292Y-115998160D01*
X82950916Y-116032857D01*
X82950061Y-116060315D01*
X82948613Y-116081533D01*
X82946459Y-116097511D01*
X82943486Y-116109247D01*
X82939580Y-116117739D01*
X82934629Y-116123986D01*
X82928520Y-116128987D01*
X82927617Y-116129602D01*
X82909931Y-116136026D01*
X82891623Y-116133970D01*
X82875917Y-116123754D01*
X82870868Y-116117598D01*
X82865703Y-116105440D01*
X82864609Y-116088347D01*
X82865592Y-116036899D01*
X82866331Y-115963305D01*
X82866060Y-115897444D01*
X82864746Y-115838100D01*
X82862359Y-115784059D01*
X82858866Y-115734107D01*
X82854238Y-115687030D01*
X82851976Y-115666854D01*
X82845561Y-115606867D01*
X82840464Y-115553981D01*
X82836538Y-115506248D01*
X82833633Y-115461718D01*
X82831600Y-115418443D01*
X82830289Y-115374475D01*
X82829813Y-115356580D01*
X82828246Y-115318224D01*
X82826098Y-115283964D01*
X82823502Y-115255689D01*
X82820588Y-115235290D01*
X82817875Y-115217371D01*
X82815652Y-115192993D01*
X82814067Y-115162126D01*
X82813068Y-115123681D01*
X82812599Y-115076570D01*
X82812425Y-115052729D01*
X82811959Y-115020938D01*
X82811279Y-114993067D01*
X82810433Y-114970578D01*
X82809467Y-114954933D01*
X82808429Y-114947594D01*
X82807763Y-114946176D01*
X82805897Y-114944110D01*
X82802329Y-114942419D01*
X82796162Y-114941055D01*
X82786499Y-114939968D01*
X82772446Y-114939112D01*
X82753105Y-114938436D01*
X82727581Y-114937893D01*
X82694978Y-114937434D01*
X82654400Y-114937011D01*
X82604951Y-114936574D01*
X82560146Y-114936089D01*
X82499661Y-114935058D01*
X82445473Y-114933666D01*
X82398449Y-114931940D01*
X82359456Y-114929910D01*
X82329360Y-114927603D01*
X82326262Y-114927311D01*
X82291699Y-114924586D01*
X82253581Y-114922363D01*
X82216324Y-114920863D01*
X82184348Y-114920310D01*
X82173541Y-114920324D01*
X82148320Y-114920615D01*
X82130669Y-114921409D01*
X82118959Y-114922881D01*
X82111562Y-114925203D01*
X82106849Y-114928548D01*
X82106700Y-114928699D01*
X82104676Y-114931456D01*
X82103050Y-114935741D01*
X82101797Y-114942470D01*
X82100895Y-114952559D01*
X82100319Y-114966921D01*
X82100047Y-114986474D01*
X82100053Y-115012131D01*
X82100315Y-115044808D01*
X82100809Y-115085421D01*
X82101512Y-115134883D01*
X82102154Y-115175272D01*
X82103117Y-115228342D01*
X82104219Y-115282782D01*
X82105411Y-115336367D01*
X82106641Y-115386867D01*
X82107861Y-115432056D01*
X82109021Y-115469706D01*
X82109495Y-115483836D01*
X82111678Y-115548833D01*
X82113546Y-115604902D01*
X82115101Y-115652736D01*
X82116345Y-115693030D01*
X82117279Y-115726478D01*
X82117905Y-115753775D01*
X82118225Y-115775614D01*
X82118242Y-115792691D01*
X82117957Y-115805700D01*
X82117371Y-115815334D01*
X82116487Y-115822290D01*
X82115306Y-115827260D01*
X82113831Y-115830939D01*
X82112063Y-115834022D01*
X82110004Y-115837203D01*
X82100581Y-115847863D01*
X82088313Y-115852177D01*
X82075592Y-115847771D01*
X82063089Y-115835137D01*
X82051477Y-115814765D01*
X82041428Y-115787145D01*
X82039426Y-115776366D01*
X82037173Y-115755788D01*
X82034872Y-115726599D01*
X82032547Y-115689401D01*
X82030220Y-115644797D01*
X82027917Y-115593389D01*
X82025659Y-115535780D01*
X82023471Y-115472573D01*
X82021375Y-115404370D01*
X82019397Y-115331776D01*
X82017558Y-115255391D01*
X82015883Y-115175819D01*
X82014395Y-115093663D01*
X82014316Y-115088986D01*
X82013544Y-115045408D01*
X82012790Y-115010314D01*
X82011974Y-114982532D01*
X82011013Y-114960892D01*
X82009827Y-114944223D01*
X82008334Y-114931353D01*
X82006452Y-114921114D01*
X82004101Y-114912332D01*
X82001199Y-114903838D01*
X81999432Y-114899004D01*
X81994675Y-114884628D01*
X81993199Y-114874228D01*
X81994886Y-114863691D01*
X81999617Y-114848904D01*
X81999766Y-114848465D01*
X82003690Y-114835797D01*
X82005770Y-114824671D01*
X82006083Y-114812288D01*
X82004706Y-114795853D01*
X82001715Y-114772569D01*
X82000436Y-114761826D01*
X81999010Y-114744976D01*
X81997873Y-114724333D01*
X81997009Y-114699043D01*
X81996402Y-114668253D01*
X81996036Y-114631110D01*
X81995896Y-114586761D01*
X81995967Y-114534352D01*
X81996232Y-114473030D01*
X81996367Y-114437898D01*
X81996387Y-114379092D01*
X81996185Y-114318043D01*
X81995779Y-114256751D01*
X81995186Y-114197220D01*
X81994426Y-114141450D01*
X81993514Y-114091443D01*
X81992469Y-114049201D01*
X81991181Y-114003940D01*
X81990213Y-113965805D01*
X81989627Y-113935452D01*
X81989433Y-113911875D01*
X81989646Y-113894069D01*
X81990278Y-113881027D01*
X81991340Y-113871745D01*
X81992846Y-113865216D01*
X81994808Y-113860435D01*
X82004541Y-113848250D01*
X82018977Y-113841668D01*
X82034840Y-113842758D01*
X82049958Y-113851303D01*
X82062158Y-113867090D01*
X82063163Y-113869208D01*
X82066434Y-113879087D01*
X82069317Y-113893155D01*
X82071832Y-113911919D01*
X82073996Y-113935885D01*
X82075829Y-113965562D01*
X82077350Y-114001456D01*
X82078577Y-114044073D01*
X82079528Y-114093922D01*
X82080223Y-114151508D01*
X82080681Y-114217339D01*
X82080920Y-114291921D01*
X82080958Y-114375763D01*
X82080960Y-114426429D01*
X82081119Y-114498361D01*
X82081501Y-114561436D01*
X82082143Y-114616209D01*
X82083082Y-114663237D01*
X82084353Y-114703074D01*
X82085994Y-114736277D01*
X82088042Y-114763401D01*
X82090533Y-114785000D01*
X82093504Y-114801632D01*
X82096991Y-114813850D01*
X82101032Y-114822212D01*
X82105662Y-114827271D01*
X82110919Y-114829585D01*
X82115171Y-114830124D01*
X82128726Y-114831158D01*
X82148919Y-114832310D01*
X82173827Y-114833477D01*
X82201530Y-114834551D01*
X82211224Y-114834910D01*
X82245069Y-114836403D01*
X82279919Y-114838251D01*
X82312183Y-114840253D01*
X82338273Y-114842208D01*
X82338459Y-114842224D01*
X82356613Y-114843367D01*
X82383006Y-114844478D01*
X82416132Y-114845522D01*
X82454484Y-114846461D01*
X82496556Y-114847258D01*
X82540841Y-114847876D01*
X82585833Y-114848279D01*
X82592283Y-114848319D01*
X82639516Y-114848586D01*
X82678070Y-114848717D01*
X82708916Y-114848674D01*
X82733023Y-114848419D01*
X82751361Y-114847915D01*
X82764900Y-114847124D01*
X82774609Y-114846009D01*
X82781458Y-114844533D01*
X82786417Y-114842656D01*
X82790455Y-114840343D01*
X82804462Y-114831206D01*
X82800071Y-114764646D01*
X82798350Y-114731941D01*
X82796858Y-114679168D01*
X82796377Y-114619300D01*
X82796865Y-114553855D01*
X82798280Y-114484352D01*
X82800579Y-114412310D01*
X82803720Y-114339249D01*
X82807661Y-114266687D01*
X82812359Y-114196143D01*
X82817771Y-114129137D01*
X82819370Y-114112079D01*
X82825019Y-114061641D01*
X82831727Y-114013440D01*
X82839123Y-113969987D01*
X82846833Y-113933790D01*
X82851760Y-113912197D01*
X82856189Y-113890340D01*
X82859107Y-113873171D01*
X82862069Y-113859651D01*
X82871577Y-113840132D01*
X82885192Y-113827305D01*
X82901417Y-113821893D01*
X82918754Y-113824619D01*
G37*
G36*
X85014160Y-114903759D02*
G01*
X85014093Y-114956379D01*
X85013531Y-114999529D01*
X85012472Y-115033112D01*
X85010918Y-115057036D01*
X85009369Y-115076523D01*
X85007604Y-115104240D01*
X85005757Y-115137875D01*
X85003929Y-115175481D01*
X85002219Y-115215113D01*
X85000728Y-115254825D01*
X84999377Y-115292027D01*
X84997513Y-115335557D01*
X84995516Y-115371290D01*
X84993249Y-115400366D01*
X84990578Y-115423927D01*
X84987365Y-115443113D01*
X84983474Y-115459065D01*
X84978769Y-115472923D01*
X84973113Y-115485827D01*
X84958080Y-115509637D01*
X84937897Y-115527026D01*
X84912833Y-115536511D01*
X84882361Y-115538285D01*
X84845953Y-115532541D01*
X84843843Y-115532045D01*
X84828666Y-115528954D01*
X84812491Y-115526693D01*
X84793566Y-115525153D01*
X84770136Y-115524229D01*
X84740450Y-115523812D01*
X84702755Y-115523796D01*
X84695605Y-115523823D01*
X84660873Y-115524088D01*
X84633089Y-115524694D01*
X84609863Y-115525848D01*
X84588804Y-115527757D01*
X84567523Y-115530629D01*
X84543629Y-115534669D01*
X84514733Y-115540086D01*
X84505263Y-115541918D01*
X84439718Y-115555520D01*
X84380866Y-115569412D01*
X84329727Y-115583339D01*
X84287323Y-115597045D01*
X84263119Y-115606453D01*
X84231362Y-115620021D01*
X84195141Y-115636391D01*
X84156541Y-115654562D01*
X84117646Y-115673535D01*
X84080539Y-115692311D01*
X84047305Y-115709890D01*
X84020026Y-115725271D01*
X83996107Y-115739135D01*
X83967930Y-115754953D01*
X83941024Y-115769593D01*
X83918925Y-115781102D01*
X83876571Y-115804553D01*
X83833195Y-115833706D01*
X83789354Y-115868749D01*
X83743112Y-115911113D01*
X83738002Y-115916031D01*
X83715388Y-115937321D01*
X83692437Y-115958285D01*
X83671569Y-115976736D01*
X83655206Y-115990486D01*
X83649747Y-115994910D01*
X83632829Y-116009142D01*
X83618295Y-116022085D01*
X83608811Y-116031389D01*
X83606838Y-116033432D01*
X83596444Y-116043090D01*
X83580014Y-116057542D01*
X83558725Y-116075813D01*
X83533757Y-116096924D01*
X83506286Y-116119899D01*
X83477490Y-116143759D01*
X83448547Y-116167527D01*
X83420634Y-116190226D01*
X83394931Y-116210879D01*
X83372613Y-116228508D01*
X83354860Y-116242135D01*
X83341692Y-116251676D01*
X83313655Y-116270633D01*
X83283965Y-116289360D01*
X83257187Y-116304925D01*
X83243376Y-116312603D01*
X83217498Y-116327392D01*
X83187787Y-116344723D01*
X83156920Y-116363031D01*
X83127574Y-116380749D01*
X83124249Y-116382775D01*
X83086175Y-116405180D01*
X83053833Y-116422377D01*
X83025394Y-116435098D01*
X82999026Y-116444074D01*
X82972899Y-116450039D01*
X82945184Y-116453723D01*
X82911583Y-116456379D01*
X82881043Y-116456934D01*
X82854835Y-116454537D01*
X82830218Y-116448726D01*
X82804454Y-116439040D01*
X82774803Y-116425018D01*
X82768363Y-116421846D01*
X82741525Y-116409991D01*
X82711451Y-116398938D01*
X82676528Y-116388179D01*
X82635143Y-116377207D01*
X82585681Y-116365514D01*
X82585113Y-116365386D01*
X82528274Y-116352228D01*
X82474321Y-116339162D01*
X82424212Y-116326451D01*
X82378900Y-116314358D01*
X82339342Y-116303144D01*
X82306492Y-116293071D01*
X82281307Y-116284403D01*
X82264741Y-116277401D01*
X82257948Y-116273606D01*
X82242532Y-116264063D01*
X82223563Y-116251606D01*
X82203695Y-116237951D01*
X82183862Y-116224020D01*
X82146615Y-116198187D01*
X82115026Y-116177001D01*
X82087595Y-116159679D01*
X82062824Y-116145437D01*
X82039213Y-116133490D01*
X82015263Y-116123055D01*
X81989475Y-116113349D01*
X81960348Y-116103588D01*
X81926385Y-116092987D01*
X81910956Y-116088246D01*
X81878379Y-116077969D01*
X81853453Y-116069501D01*
X81834920Y-116062256D01*
X81821527Y-116055646D01*
X81812016Y-116049087D01*
X81805134Y-116041991D01*
X81799624Y-116033771D01*
X81798697Y-116032089D01*
X81792487Y-116011868D01*
X81790469Y-115983553D01*
X81792647Y-115947803D01*
X81799022Y-115905278D01*
X81802161Y-115885668D01*
X81805683Y-115858762D01*
X81808979Y-115829096D01*
X81811618Y-115800270D01*
X81814239Y-115773171D01*
X81817973Y-115743451D01*
X81822189Y-115716285D01*
X81826382Y-115695271D01*
X81826788Y-115693569D01*
X81832140Y-115667956D01*
X81834987Y-115644973D01*
X81835388Y-115621586D01*
X81833408Y-115594763D01*
X81829106Y-115561471D01*
X81826710Y-115544224D01*
X81821898Y-115504975D01*
X81817751Y-115464956D01*
X81814499Y-115426767D01*
X81812377Y-115393010D01*
X81811618Y-115366288D01*
X81811607Y-115364543D01*
X81811007Y-115347877D01*
X81809595Y-115323915D01*
X81807521Y-115294763D01*
X81804932Y-115262525D01*
X81801977Y-115229309D01*
X81798920Y-115195788D01*
X81795504Y-115156587D01*
X81792267Y-115117786D01*
X81789467Y-115082493D01*
X81787364Y-115053813D01*
X81787060Y-115049486D01*
X81784537Y-115018459D01*
X81781449Y-114986695D01*
X81778159Y-114957691D01*
X81775029Y-114934944D01*
X81773047Y-114922128D01*
X81769234Y-114896465D01*
X81764801Y-114865756D01*
X81760148Y-114832793D01*
X81755679Y-114800370D01*
X81752930Y-114780864D01*
X81747640Y-114746107D01*
X81741976Y-114711680D01*
X81736460Y-114680704D01*
X81731612Y-114656301D01*
X81728518Y-114641128D01*
X81722756Y-114608832D01*
X81717682Y-114575620D01*
X81714125Y-114546691D01*
X81712573Y-114531704D01*
X81709566Y-114504387D01*
X81706547Y-114478738D01*
X81703981Y-114458785D01*
X81701976Y-114442808D01*
X81698207Y-114403372D01*
X81695042Y-114357125D01*
X81692570Y-114306056D01*
X81690878Y-114252152D01*
X81690051Y-114197400D01*
X81690178Y-114143788D01*
X81690191Y-114142722D01*
X81690404Y-114101235D01*
X81690190Y-114054991D01*
X81689593Y-114007621D01*
X81688660Y-113962755D01*
X81687435Y-113924023D01*
X81686188Y-113884302D01*
X81686112Y-113871544D01*
X81768830Y-113871544D01*
X81768986Y-113893648D01*
X81769878Y-113918446D01*
X81771552Y-113947695D01*
X81774056Y-113983154D01*
X81777437Y-114026580D01*
X81778825Y-114047218D01*
X81779730Y-114098901D01*
X81776792Y-114153556D01*
X81776756Y-114153994D01*
X81774512Y-114195958D01*
X81774436Y-114242866D01*
X81776573Y-114295853D01*
X81780968Y-114356053D01*
X81787667Y-114424600D01*
X81790043Y-114446914D01*
X81793208Y-114477053D01*
X81796551Y-114509212D01*
X81799651Y-114539366D01*
X81799660Y-114539455D01*
X81803019Y-114567927D01*
X81807188Y-114596734D01*
X81811637Y-114622518D01*
X81815836Y-114641923D01*
X81818850Y-114654673D01*
X81823926Y-114679586D01*
X81828928Y-114707595D01*
X81833112Y-114734713D01*
X81839483Y-114780432D01*
X81845458Y-114823193D01*
X81850365Y-114858151D01*
X81854347Y-114886294D01*
X81857545Y-114908610D01*
X81860101Y-114926086D01*
X81862157Y-114939712D01*
X81863854Y-114950475D01*
X81865334Y-114959362D01*
X81866566Y-114968094D01*
X81868650Y-114987443D01*
X81870913Y-115012681D01*
X81873154Y-115041524D01*
X81875173Y-115071687D01*
X81876392Y-115090733D01*
X81878625Y-115122394D01*
X81880965Y-115152308D01*
X81883199Y-115177807D01*
X81885113Y-115196220D01*
X81886458Y-115209034D01*
X81888498Y-115232734D01*
X81890659Y-115261755D01*
X81892757Y-115293566D01*
X81894604Y-115325638D01*
X81897660Y-115378731D01*
X81901852Y-115438357D01*
X81906463Y-115489932D01*
X81911582Y-115534416D01*
X81917296Y-115572768D01*
X81920300Y-115592354D01*
X81922266Y-115614687D01*
X81921894Y-115636618D01*
X81919295Y-115663116D01*
X81918242Y-115671320D01*
X81914596Y-115695149D01*
X81910494Y-115717035D01*
X81906638Y-115733090D01*
X81904964Y-115739451D01*
X81901062Y-115761275D01*
X81899484Y-115781927D01*
X81899146Y-115791429D01*
X81897590Y-115811442D01*
X81895061Y-115835541D01*
X81891882Y-115860400D01*
X81888135Y-115887593D01*
X81884143Y-115919158D01*
X81881731Y-115943041D01*
X81880855Y-115960389D01*
X81881470Y-115972345D01*
X81883530Y-115980055D01*
X81886991Y-115984665D01*
X81892890Y-115987785D01*
X81906875Y-115993570D01*
X81927032Y-116001154D01*
X81951701Y-116009916D01*
X81979221Y-116019234D01*
X81986569Y-116021683D01*
X82039070Y-116040693D01*
X82085508Y-116060754D01*
X82128979Y-116083465D01*
X82172579Y-116110424D01*
X82219405Y-116143230D01*
X82226359Y-116148292D01*
X82249147Y-116164447D01*
X82270537Y-116179013D01*
X82288395Y-116190558D01*
X82300588Y-116197653D01*
X82318854Y-116205588D01*
X82348296Y-116215865D01*
X82386984Y-116227531D01*
X82434704Y-116240525D01*
X82491240Y-116254787D01*
X82556379Y-116270255D01*
X82591726Y-116278486D01*
X82636152Y-116289070D01*
X82673116Y-116298271D01*
X82703862Y-116306461D01*
X82729634Y-116314011D01*
X82751679Y-116321291D01*
X82771240Y-116328673D01*
X82789561Y-116336528D01*
X82807888Y-116345227D01*
X82808969Y-116345759D01*
X82830474Y-116356050D01*
X82846700Y-116362668D01*
X82860857Y-116366491D01*
X82876152Y-116368397D01*
X82895794Y-116369261D01*
X82917766Y-116369342D01*
X82946084Y-116367240D01*
X82972869Y-116361969D01*
X82999911Y-116352893D01*
X83029002Y-116339375D01*
X83061931Y-116320778D01*
X83100489Y-116296466D01*
X83103138Y-116294755D01*
X83122516Y-116282815D01*
X83147152Y-116268321D01*
X83174161Y-116252948D01*
X83200652Y-116238370D01*
X83224448Y-116224797D01*
X83269197Y-116196082D01*
X83319615Y-116160185D01*
X83375383Y-116117344D01*
X83436182Y-116067801D01*
X83501693Y-116011794D01*
X83515247Y-115999955D01*
X83551894Y-115967862D01*
X83582773Y-115940659D01*
X83609119Y-115917237D01*
X83632166Y-115896486D01*
X83653148Y-115877299D01*
X83673301Y-115858566D01*
X83693858Y-115839178D01*
X83720646Y-115814332D01*
X83749282Y-115789605D01*
X83777132Y-115768076D01*
X83806637Y-115747989D01*
X83840241Y-115727587D01*
X83880389Y-115705115D01*
X83903730Y-115692274D01*
X83936318Y-115674065D01*
X83969239Y-115655420D01*
X83998056Y-115638839D01*
X83999984Y-115637719D01*
X84024785Y-115623727D01*
X84049550Y-115610406D01*
X84071504Y-115599216D01*
X84087871Y-115591616D01*
X84104886Y-115584189D01*
X84129185Y-115573008D01*
X84151224Y-115562321D01*
X84187970Y-115545091D01*
X84250753Y-115520211D01*
X84318998Y-115497886D01*
X84390985Y-115478438D01*
X84464990Y-115462188D01*
X84539293Y-115449458D01*
X84612171Y-115440569D01*
X84681902Y-115435844D01*
X84746764Y-115435604D01*
X84805036Y-115440171D01*
X84808267Y-115440591D01*
X84838494Y-115444407D01*
X84860620Y-115446745D01*
X84876087Y-115447479D01*
X84886338Y-115446484D01*
X84892815Y-115443632D01*
X84896959Y-115438799D01*
X84900214Y-115431858D01*
X84901572Y-115427613D01*
X84904606Y-115411077D01*
X84907410Y-115385859D01*
X84909932Y-115352715D01*
X84912121Y-115312404D01*
X84913924Y-115265684D01*
X84915289Y-115213313D01*
X84915310Y-115212318D01*
X84916314Y-115180723D01*
X84917936Y-115146946D01*
X84919954Y-115114971D01*
X84922150Y-115088780D01*
X84924111Y-115064234D01*
X84925996Y-115026690D01*
X84927376Y-114981637D01*
X84928269Y-114930302D01*
X84928697Y-114873912D01*
X84928681Y-114813692D01*
X84928239Y-114750870D01*
X84927394Y-114686672D01*
X84926165Y-114622325D01*
X84924573Y-114559056D01*
X84922637Y-114498091D01*
X84920380Y-114440657D01*
X84917820Y-114387980D01*
X84914979Y-114341288D01*
X84911877Y-114301807D01*
X84908533Y-114270764D01*
X84907520Y-114263095D01*
X84893878Y-114171149D01*
X84876887Y-114075099D01*
X84856313Y-113973778D01*
X84831917Y-113866018D01*
X84803466Y-113750652D01*
X84801142Y-113741454D01*
X84789365Y-113691497D01*
X84778454Y-113639839D01*
X84768804Y-113588687D01*
X84760813Y-113540252D01*
X84754877Y-113496742D01*
X84751392Y-113460366D01*
X84749337Y-113431999D01*
X84746843Y-113401807D01*
X84744278Y-113374148D01*
X84741957Y-113352633D01*
X84738194Y-113321460D01*
X84733031Y-113277701D01*
X84728951Y-113241461D01*
X84725828Y-113211400D01*
X84723534Y-113186177D01*
X84721939Y-113164453D01*
X84720918Y-113144887D01*
X84720341Y-113126139D01*
X84720156Y-113118011D01*
X84719159Y-113096498D01*
X84716627Y-113080490D01*
X84711399Y-113069394D01*
X84702311Y-113062618D01*
X84688201Y-113059568D01*
X84667906Y-113059651D01*
X84640263Y-113062274D01*
X84604110Y-113066843D01*
X84597367Y-113067726D01*
X84584228Y-113069407D01*
X84572000Y-113070836D01*
X84559860Y-113072027D01*
X84546988Y-113072990D01*
X84532562Y-113073737D01*
X84515761Y-113074281D01*
X84495764Y-113074632D01*
X84471749Y-113074804D01*
X84442895Y-113074807D01*
X84408381Y-113074655D01*
X84367385Y-113074357D01*
X84319086Y-113073927D01*
X84262663Y-113073377D01*
X84197294Y-113072718D01*
X84154074Y-113072264D01*
X84088638Y-113071481D01*
X84031654Y-113070625D01*
X83982297Y-113069637D01*
X83939743Y-113068459D01*
X83903166Y-113067035D01*
X83871741Y-113065307D01*
X83844643Y-113063216D01*
X83821047Y-113060705D01*
X83800128Y-113057717D01*
X83781062Y-113054194D01*
X83763023Y-113050079D01*
X83745186Y-113045313D01*
X83726726Y-113039839D01*
X83713143Y-113036363D01*
X83687028Y-113032250D01*
X83659070Y-113030289D01*
X83632100Y-113030524D01*
X83608951Y-113032998D01*
X83592456Y-113037756D01*
X83590703Y-113038672D01*
X83579518Y-113045593D01*
X83562993Y-113056773D01*
X83543062Y-113070881D01*
X83521657Y-113086583D01*
X83518501Y-113088926D01*
X83495260Y-113105429D01*
X83472111Y-113120737D01*
X83451580Y-113133231D01*
X83436193Y-113141296D01*
X83423655Y-113147037D01*
X83396274Y-113160258D01*
X83361123Y-113177874D01*
X83318674Y-113199647D01*
X83269396Y-113225340D01*
X83263474Y-113228476D01*
X83221755Y-113252190D01*
X83184632Y-113276142D01*
X83154484Y-113298810D01*
X83154466Y-113298826D01*
X83130876Y-113316930D01*
X83100394Y-113337977D01*
X83064950Y-113360729D01*
X83026474Y-113383946D01*
X82986897Y-113406388D01*
X82963253Y-113419879D01*
X82935767Y-113436595D01*
X82910129Y-113453152D01*
X82889759Y-113467399D01*
X82867915Y-113483590D01*
X82839907Y-113503879D01*
X82817131Y-113519616D01*
X82798145Y-113531750D01*
X82781512Y-113541227D01*
X82765790Y-113548995D01*
X82741464Y-113560152D01*
X82695183Y-113581267D01*
X82656242Y-113598806D01*
X82623620Y-113613168D01*
X82596296Y-113624754D01*
X82573248Y-113633962D01*
X82553456Y-113641194D01*
X82535898Y-113646847D01*
X82519554Y-113651322D01*
X82503401Y-113655019D01*
X82486420Y-113658338D01*
X82480729Y-113659392D01*
X82457846Y-113663708D01*
X82429442Y-113669149D01*
X82398589Y-113675123D01*
X82368357Y-113681041D01*
X82292660Y-113695953D01*
X82163243Y-113691686D01*
X82134436Y-113690751D01*
X82092002Y-113689479D01*
X82057335Y-113688661D01*
X82029175Y-113688333D01*
X82006265Y-113688533D01*
X81987344Y-113689299D01*
X81971155Y-113690670D01*
X81956438Y-113692681D01*
X81941934Y-113695373D01*
X81926385Y-113698781D01*
X81922845Y-113699579D01*
X81895691Y-113705152D01*
X81866541Y-113710389D01*
X81841125Y-113714252D01*
X81824276Y-113716619D01*
X81804735Y-113720282D01*
X81792035Y-113724472D01*
X81784400Y-113729852D01*
X81780053Y-113737086D01*
X81779757Y-113738016D01*
X81778038Y-113747727D01*
X81775967Y-113764643D01*
X81773780Y-113786667D01*
X81771711Y-113811698D01*
X81770540Y-113828393D01*
X81769364Y-113850379D01*
X81768830Y-113871544D01*
X81686112Y-113871544D01*
X81685840Y-113825760D01*
X81687702Y-113776050D01*
X81691846Y-113734727D01*
X81698343Y-113701350D01*
X81707266Y-113675476D01*
X81718685Y-113656662D01*
X81732672Y-113644465D01*
X81732820Y-113644379D01*
X81747112Y-113639204D01*
X81770716Y-113634750D01*
X81803202Y-113631098D01*
X81820154Y-113629339D01*
X81853021Y-113624930D01*
X81887130Y-113619371D01*
X81917336Y-113613456D01*
X81927369Y-113611267D01*
X81945607Y-113607508D01*
X81961271Y-113604887D01*
X81976414Y-113603291D01*
X81993093Y-113602606D01*
X82013362Y-113602719D01*
X82039278Y-113603516D01*
X82072895Y-113604885D01*
X82085773Y-113605423D01*
X82137687Y-113607342D01*
X82181628Y-113608448D01*
X82219038Y-113608692D01*
X82251359Y-113608025D01*
X82280033Y-113606398D01*
X82306501Y-113603764D01*
X82332206Y-113600073D01*
X82358590Y-113595278D01*
X82360597Y-113594882D01*
X82388265Y-113589551D01*
X82415454Y-113584497D01*
X82439134Y-113580275D01*
X82456273Y-113577438D01*
X82462893Y-113576328D01*
X82496228Y-113568546D01*
X82533433Y-113556980D01*
X82570949Y-113542829D01*
X82605216Y-113527292D01*
X82610476Y-113524684D01*
X82633166Y-113513972D01*
X82659001Y-113502377D01*
X82683355Y-113491990D01*
X82692616Y-113488129D01*
X82728725Y-113471748D01*
X82759587Y-113454943D01*
X82788703Y-113435654D01*
X82819574Y-113411822D01*
X82827771Y-113405454D01*
X82849320Y-113390177D01*
X82875624Y-113372876D01*
X82904091Y-113355231D01*
X82932130Y-113338920D01*
X82959984Y-113323195D01*
X82993603Y-113303602D01*
X83023212Y-113285359D01*
X83051569Y-113266693D01*
X83081432Y-113245832D01*
X83115560Y-113221003D01*
X83130144Y-113210543D01*
X83155030Y-113193648D01*
X83179522Y-113177986D01*
X83199963Y-113165941D01*
X83201694Y-113164991D01*
X83225360Y-113151969D01*
X83250950Y-113137849D01*
X83273219Y-113125525D01*
X83288909Y-113117148D01*
X83312823Y-113104993D01*
X83339389Y-113091970D01*
X83365218Y-113079762D01*
X83398186Y-113063256D01*
X83439439Y-113038666D01*
X83483168Y-113008117D01*
X83485161Y-113006638D01*
X83512453Y-112986473D01*
X83533747Y-112971318D01*
X83550788Y-112960424D01*
X83565319Y-112953040D01*
X83579084Y-112948416D01*
X83593829Y-112945804D01*
X83611296Y-112944453D01*
X83633230Y-112943615D01*
X83654028Y-112943066D01*
X83673156Y-112943231D01*
X83690230Y-112944585D01*
X83708112Y-112947492D01*
X83729669Y-112952314D01*
X83757763Y-112959416D01*
X83772116Y-112963092D01*
X83792660Y-112968057D01*
X83810935Y-112971842D01*
X83828947Y-112974694D01*
X83848699Y-112976862D01*
X83872199Y-112978594D01*
X83901451Y-112980135D01*
X83938459Y-112981735D01*
X83968798Y-112982804D01*
X84011062Y-112983912D01*
X84058022Y-112984826D01*
X84106944Y-112985500D01*
X84155093Y-112985891D01*
X84199736Y-112985954D01*
X84241684Y-112985964D01*
X84286254Y-112986203D01*
X84330354Y-112986644D01*
X84371660Y-112987258D01*
X84407849Y-112988017D01*
X84436594Y-112988892D01*
X84440695Y-112989046D01*
X84476495Y-112990098D01*
X84505167Y-112990240D01*
X84529075Y-112989392D01*
X84550586Y-112987476D01*
X84572064Y-112984414D01*
X84581351Y-112982971D01*
X84606858Y-112979688D01*
X84631216Y-112977386D01*
X84650203Y-112976491D01*
X84664316Y-112976072D01*
X84689426Y-112974214D01*
X84712522Y-112971392D01*
X84728124Y-112968934D01*
X84747364Y-112965901D01*
X84761697Y-112963640D01*
X84768469Y-112962872D01*
X84781005Y-112964783D01*
X84793441Y-112973204D01*
X84807754Y-112985518D01*
X84807980Y-113092158D01*
X84808192Y-113123022D01*
X84809206Y-113166346D01*
X84811202Y-113204834D01*
X84814354Y-113241505D01*
X84818839Y-113279377D01*
X84819977Y-113288160D01*
X84824246Y-113323676D01*
X84828377Y-113361548D01*
X84831946Y-113397768D01*
X84834532Y-113428330D01*
X84834799Y-113431903D01*
X84837341Y-113462085D01*
X84840409Y-113491220D01*
X84844226Y-113520472D01*
X84849012Y-113551006D01*
X84854993Y-113583986D01*
X84862389Y-113620578D01*
X84871423Y-113661945D01*
X84882318Y-113709253D01*
X84895297Y-113763666D01*
X84910581Y-113826349D01*
X84910973Y-113827947D01*
X84919081Y-113862309D01*
X84928068Y-113902475D01*
X84937546Y-113946529D01*
X84947130Y-113992556D01*
X84956432Y-114038644D01*
X84965067Y-114082876D01*
X84972646Y-114123339D01*
X84978783Y-114158119D01*
X84983092Y-114185299D01*
X84985121Y-114199506D01*
X84991952Y-114248932D01*
X84997318Y-114291200D01*
X85001399Y-114328268D01*
X85004372Y-114362092D01*
X85006416Y-114394629D01*
X85007708Y-114427836D01*
X85008427Y-114463669D01*
X85008551Y-114473138D01*
X85008956Y-114502970D01*
X85009475Y-114540265D01*
X85010085Y-114583378D01*
X85010762Y-114630665D01*
X85011483Y-114680478D01*
X85012223Y-114731175D01*
X85012961Y-114781108D01*
X85013729Y-114841762D01*
X85013953Y-114873912D01*
X85014160Y-114903759D01*
G37*
D13*
%TO.C,U1*%
X82200000Y-112100000D02*
X82010000Y-111960000D01*
X82200000Y-111820000D01*
X82200000Y-112100000D01*
G36*
X82200000Y-112100000D02*
G01*
X82010000Y-111960000D01*
X82200000Y-111820000D01*
X82200000Y-112100000D01*
G37*
X82010000Y-111285000D02*
X82010000Y-111660000D01*
X82010000Y-109415000D02*
X82010000Y-108740000D01*
X82010000Y-108740000D02*
X81835000Y-108740000D01*
X79290000Y-111960000D02*
X79465000Y-111960000D01*
X79290000Y-111285000D02*
X79290000Y-111960000D01*
X79290000Y-109415000D02*
X79290000Y-108740000D01*
X79290000Y-108740000D02*
X79465000Y-108740000D01*
%TD*%
M02*
