%TF.GenerationSoftware,KiCad,Pcbnew,9.0.0-1.fc41*%
%TF.CreationDate,2025-03-05T15:22:43-08:00*%
%TF.ProjectId,hw_alpha,68775f61-6c70-4686-912e-6b696361645f,rev?*%
%TF.SameCoordinates,Original*%
%TF.FileFunction,Soldermask,Top*%
%TF.FilePolarity,Negative*%
%FSLAX46Y46*%
G04 Gerber Fmt 4.6, Leading zero omitted, Abs format (unit mm)*
G04 Created by KiCad (PCBNEW 9.0.0-1.fc41) date 2025-03-05 15:22:43*
%MOMM*%
%LPD*%
G01*
G04 APERTURE LIST*
G04 Aperture macros list*
%AMRoundRect*
0 Rectangle with rounded corners*
0 $1 Rounding radius*
0 $2 $3 $4 $5 $6 $7 $8 $9 X,Y pos of 4 corners*
0 Add a 4 corners polygon primitive as box body*
4,1,4,$2,$3,$4,$5,$6,$7,$8,$9,$2,$3,0*
0 Add four circle primitives for the rounded corners*
1,1,$1+$1,$2,$3*
1,1,$1+$1,$4,$5*
1,1,$1+$1,$6,$7*
1,1,$1+$1,$8,$9*
0 Add four rect primitives between the rounded corners*
20,1,$1+$1,$2,$3,$4,$5,0*
20,1,$1+$1,$4,$5,$6,$7,0*
20,1,$1+$1,$6,$7,$8,$9,0*
20,1,$1+$1,$8,$9,$2,$3,0*%
%AMFreePoly0*
4,1,23,0.500000,-0.750000,0.000000,-0.750000,0.000000,-0.745722,-0.065263,-0.745722,-0.191342,-0.711940,-0.304381,-0.646677,-0.396677,-0.554381,-0.461940,-0.441342,-0.495722,-0.315263,-0.495722,-0.250000,-0.500000,-0.250000,-0.500000,0.250000,-0.495722,0.250000,-0.495722,0.315263,-0.461940,0.441342,-0.396677,0.554381,-0.304381,0.646677,-0.191342,0.711940,-0.065263,0.745722,0.000000,0.745722,
0.000000,0.750000,0.500000,0.750000,0.500000,-0.750000,0.500000,-0.750000,$1*%
%AMFreePoly1*
4,1,23,0.000000,0.745722,0.065263,0.745722,0.191342,0.711940,0.304381,0.646677,0.396677,0.554381,0.461940,0.441342,0.495722,0.315263,0.495722,0.250000,0.500000,0.250000,0.500000,-0.250000,0.495722,-0.250000,0.495722,-0.315263,0.461940,-0.441342,0.396677,-0.554381,0.304381,-0.646677,0.191342,-0.711940,0.065263,-0.745722,0.000000,-0.745722,0.000000,-0.750000,-0.500000,-0.750000,
-0.500000,0.750000,0.000000,0.750000,0.000000,0.745722,0.000000,0.745722,$1*%
G04 Aperture macros list end*
%ADD10C,0.010000*%
%ADD11RoundRect,0.225000X0.225000X0.250000X-0.225000X0.250000X-0.225000X-0.250000X0.225000X-0.250000X0*%
%ADD12R,1.700000X1.700000*%
%ADD13O,1.700000X1.700000*%
%ADD14RoundRect,0.200000X-0.200000X-0.275000X0.200000X-0.275000X0.200000X0.275000X-0.200000X0.275000X0*%
%ADD15RoundRect,0.225000X-0.250000X0.225000X-0.250000X-0.225000X0.250000X-0.225000X0.250000X0.225000X0*%
%ADD16RoundRect,0.050000X-0.350000X-0.050000X0.350000X-0.050000X0.350000X0.050000X-0.350000X0.050000X0*%
%ADD17RoundRect,0.050000X-0.050000X-0.350000X0.050000X-0.350000X0.050000X0.350000X-0.050000X0.350000X0*%
%ADD18R,4.600000X4.600000*%
%ADD19RoundRect,0.200000X0.275000X-0.200000X0.275000X0.200000X-0.275000X0.200000X-0.275000X-0.200000X0*%
%ADD20RoundRect,0.200000X-0.275000X0.200000X-0.275000X-0.200000X0.275000X-0.200000X0.275000X0.200000X0*%
%ADD21C,3.250000*%
%ADD22RoundRect,0.102000X-0.739000X0.739000X-0.739000X-0.739000X0.739000X-0.739000X0.739000X0.739000X0*%
%ADD23C,1.682000*%
%ADD24C,1.854000*%
%ADD25C,2.679000*%
%ADD26R,1.830000X5.000000*%
%ADD27R,5.000000X1.830000*%
%ADD28RoundRect,0.225000X0.250000X-0.225000X0.250000X0.225000X-0.250000X0.225000X-0.250000X-0.225000X0*%
%ADD29RoundRect,0.250000X0.250000X0.475000X-0.250000X0.475000X-0.250000X-0.475000X0.250000X-0.475000X0*%
%ADD30RoundRect,0.225000X-0.225000X-0.250000X0.225000X-0.250000X0.225000X0.250000X-0.225000X0.250000X0*%
%ADD31RoundRect,0.218750X0.381250X-0.218750X0.381250X0.218750X-0.381250X0.218750X-0.381250X-0.218750X0*%
%ADD32RoundRect,0.075000X0.070711X-0.176777X0.176777X-0.070711X-0.070711X0.176777X-0.176777X0.070711X0*%
%ADD33C,0.900000*%
%ADD34C,8.600000*%
%ADD35C,2.250000*%
%ADD36RoundRect,0.250000X-0.250000X-0.475000X0.250000X-0.475000X0.250000X0.475000X-0.250000X0.475000X0*%
%ADD37R,0.812800X1.435100*%
%ADD38RoundRect,0.250000X0.550000X-1.250000X0.550000X1.250000X-0.550000X1.250000X-0.550000X-1.250000X0*%
%ADD39RoundRect,0.147500X-0.172500X0.147500X-0.172500X-0.147500X0.172500X-0.147500X0.172500X0.147500X0*%
%ADD40R,0.800000X0.900000*%
%ADD41RoundRect,0.150000X0.150000X-0.587500X0.150000X0.587500X-0.150000X0.587500X-0.150000X-0.587500X0*%
%ADD42RoundRect,0.100000X-0.225000X-0.100000X0.225000X-0.100000X0.225000X0.100000X-0.225000X0.100000X0*%
%ADD43RoundRect,0.250000X-0.375000X-0.625000X0.375000X-0.625000X0.375000X0.625000X-0.375000X0.625000X0*%
%ADD44RoundRect,0.218750X-0.381250X0.218750X-0.381250X-0.218750X0.381250X-0.218750X0.381250X0.218750X0*%
%ADD45RoundRect,0.250000X-0.250000X-1.500000X0.250000X-1.500000X0.250000X1.500000X-0.250000X1.500000X0*%
%ADD46RoundRect,0.250001X-0.499999X-1.449999X0.499999X-1.449999X0.499999X1.449999X-0.499999X1.449999X0*%
%ADD47RoundRect,0.150000X-0.825000X-0.150000X0.825000X-0.150000X0.825000X0.150000X-0.825000X0.150000X0*%
%ADD48RoundRect,0.102000X1.385000X-0.325000X1.385000X0.325000X-1.385000X0.325000X-1.385000X-0.325000X0*%
%ADD49RoundRect,0.075000X-0.075000X0.725000X-0.075000X-0.725000X0.075000X-0.725000X0.075000X0.725000X0*%
%ADD50RoundRect,0.075000X-0.725000X0.075000X-0.725000X-0.075000X0.725000X-0.075000X0.725000X0.075000X0*%
%ADD51RoundRect,0.218750X0.218750X0.256250X-0.218750X0.256250X-0.218750X-0.256250X0.218750X-0.256250X0*%
%ADD52RoundRect,0.200000X0.200000X0.275000X-0.200000X0.275000X-0.200000X-0.275000X0.200000X-0.275000X0*%
%ADD53RoundRect,0.140000X0.140000X0.170000X-0.140000X0.170000X-0.140000X-0.170000X0.140000X-0.170000X0*%
%ADD54RoundRect,0.218750X-0.218750X-0.381250X0.218750X-0.381250X0.218750X0.381250X-0.218750X0.381250X0*%
%ADD55C,1.100000*%
%ADD56C,1.600000*%
%ADD57R,1.000000X1.500000*%
%ADD58R,0.700000X1.500000*%
%ADD59R,1.500000X2.799990*%
%ADD60RoundRect,0.250000X1.500000X-0.250000X1.500000X0.250000X-1.500000X0.250000X-1.500000X-0.250000X0*%
%ADD61RoundRect,0.250001X1.449999X-0.499999X1.449999X0.499999X-1.449999X0.499999X-1.449999X-0.499999X0*%
%ADD62RoundRect,0.250000X-0.650000X1.000000X-0.650000X-1.000000X0.650000X-1.000000X0.650000X1.000000X0*%
%ADD63RoundRect,0.250000X1.250000X0.550000X-1.250000X0.550000X-1.250000X-0.550000X1.250000X-0.550000X0*%
%ADD64RoundRect,0.250000X0.475000X-0.250000X0.475000X0.250000X-0.475000X0.250000X-0.475000X-0.250000X0*%
%ADD65RoundRect,0.375000X-0.375000X0.625000X-0.375000X-0.625000X0.375000X-0.625000X0.375000X0.625000X0*%
%ADD66RoundRect,0.500000X-1.400000X0.500000X-1.400000X-0.500000X1.400000X-0.500000X1.400000X0.500000X0*%
%ADD67FreePoly0,90.000000*%
%ADD68FreePoly1,90.000000*%
%ADD69RoundRect,0.140000X-0.170000X0.140000X-0.170000X-0.140000X0.170000X-0.140000X0.170000X0.140000X0*%
%ADD70RoundRect,0.062500X-0.375000X-0.062500X0.375000X-0.062500X0.375000X0.062500X-0.375000X0.062500X0*%
%ADD71RoundRect,0.062500X-0.062500X-0.375000X0.062500X-0.375000X0.062500X0.375000X-0.062500X0.375000X0*%
%ADD72R,2.500000X2.500000*%
%ADD73RoundRect,0.075000X-0.070711X0.176777X-0.176777X0.070711X0.070711X-0.176777X0.176777X-0.070711X0*%
%ADD74C,0.650000*%
%ADD75O,2.304000X1.204000*%
%ADD76O,2.004000X1.204000*%
%ADD77RoundRect,0.250000X-0.475000X0.250000X-0.475000X-0.250000X0.475000X-0.250000X0.475000X0.250000X0*%
%ADD78RoundRect,0.152500X0.342500X0.152500X-0.342500X0.152500X-0.342500X-0.152500X0.342500X-0.152500X0*%
%ADD79C,0.630000*%
%ADD80RoundRect,0.247500X0.627500X0.247500X-0.627500X0.247500X-0.627500X-0.247500X0.627500X-0.247500X0*%
%ADD81C,4.000000*%
%ADD82R,1.600000X1.600000*%
G04 APERTURE END LIST*
%TO.C,SW2*%
G36*
X100550000Y-70000000D02*
G01*
X102050000Y-70000000D01*
X102050000Y-69700000D01*
X100550000Y-69700000D01*
X100550000Y-70000000D01*
G37*
%TO.C,SW1*%
G36*
X97850000Y-59050000D02*
G01*
X99350000Y-59050000D01*
X99350000Y-58750000D01*
X97850000Y-58750000D01*
X97850000Y-59050000D01*
G37*
D10*
%TO.C,J7*%
X47880000Y-63150000D02*
X46630000Y-63150000D01*
X46630000Y-62450000D01*
X47880000Y-62450000D01*
X47880000Y-63150000D01*
G36*
X47880000Y-63150000D02*
G01*
X46630000Y-63150000D01*
X46630000Y-62450000D01*
X47880000Y-62450000D01*
X47880000Y-63150000D01*
G37*
X47880000Y-63950000D02*
X46630000Y-63950000D01*
X46630000Y-63250000D01*
X47880000Y-63250000D01*
X47880000Y-63950000D01*
G36*
X47880000Y-63950000D02*
G01*
X46630000Y-63950000D01*
X46630000Y-63250000D01*
X47880000Y-63250000D01*
X47880000Y-63950000D01*
G37*
X47880000Y-64450000D02*
X46630000Y-64450000D01*
X46630000Y-64050000D01*
X47880000Y-64050000D01*
X47880000Y-64450000D01*
G36*
X47880000Y-64450000D02*
G01*
X46630000Y-64450000D01*
X46630000Y-64050000D01*
X47880000Y-64050000D01*
X47880000Y-64450000D01*
G37*
X47880000Y-64950000D02*
X46630000Y-64950000D01*
X46630000Y-64550000D01*
X47880000Y-64550000D01*
X47880000Y-64950000D01*
G36*
X47880000Y-64950000D02*
G01*
X46630000Y-64950000D01*
X46630000Y-64550000D01*
X47880000Y-64550000D01*
X47880000Y-64950000D01*
G37*
X47880000Y-65450000D02*
X46630000Y-65450000D01*
X46630000Y-65050000D01*
X47880000Y-65050000D01*
X47880000Y-65450000D01*
G36*
X47880000Y-65450000D02*
G01*
X46630000Y-65450000D01*
X46630000Y-65050000D01*
X47880000Y-65050000D01*
X47880000Y-65450000D01*
G37*
X47880000Y-65950000D02*
X46630000Y-65950000D01*
X46630000Y-65550000D01*
X47880000Y-65550000D01*
X47880000Y-65950000D01*
G36*
X47880000Y-65950000D02*
G01*
X46630000Y-65950000D01*
X46630000Y-65550000D01*
X47880000Y-65550000D01*
X47880000Y-65950000D01*
G37*
X47880000Y-66450000D02*
X46630000Y-66450000D01*
X46630000Y-66050000D01*
X47880000Y-66050000D01*
X47880000Y-66450000D01*
G36*
X47880000Y-66450000D02*
G01*
X46630000Y-66450000D01*
X46630000Y-66050000D01*
X47880000Y-66050000D01*
X47880000Y-66450000D01*
G37*
X47880000Y-66950000D02*
X46630000Y-66950000D01*
X46630000Y-66550000D01*
X47880000Y-66550000D01*
X47880000Y-66950000D01*
G36*
X47880000Y-66950000D02*
G01*
X46630000Y-66950000D01*
X46630000Y-66550000D01*
X47880000Y-66550000D01*
X47880000Y-66950000D01*
G37*
X47880000Y-67450000D02*
X46630000Y-67450000D01*
X46630000Y-67050000D01*
X47880000Y-67050000D01*
X47880000Y-67450000D01*
G36*
X47880000Y-67450000D02*
G01*
X46630000Y-67450000D01*
X46630000Y-67050000D01*
X47880000Y-67050000D01*
X47880000Y-67450000D01*
G37*
X47880000Y-67950000D02*
X46630000Y-67950000D01*
X46630000Y-67550000D01*
X47880000Y-67550000D01*
X47880000Y-67950000D01*
G36*
X47880000Y-67950000D02*
G01*
X46630000Y-67950000D01*
X46630000Y-67550000D01*
X47880000Y-67550000D01*
X47880000Y-67950000D01*
G37*
X47880000Y-68750000D02*
X46630000Y-68750000D01*
X46630000Y-68050000D01*
X47880000Y-68050000D01*
X47880000Y-68750000D01*
G36*
X47880000Y-68750000D02*
G01*
X46630000Y-68750000D01*
X46630000Y-68050000D01*
X47880000Y-68050000D01*
X47880000Y-68750000D01*
G37*
X47880000Y-69550000D02*
X46630000Y-69550000D01*
X46630000Y-68850000D01*
X47880000Y-68850000D01*
X47880000Y-69550000D01*
G36*
X47880000Y-69550000D02*
G01*
X46630000Y-69550000D01*
X46630000Y-68850000D01*
X47880000Y-68850000D01*
X47880000Y-69550000D01*
G37*
%TD*%
D11*
%TO.C,C26*%
X121775000Y-52994792D03*
X120225000Y-52994792D03*
%TD*%
D12*
%TO.C,J13*%
X118785000Y-36975000D03*
D13*
X121325000Y-36975000D03*
%TD*%
D14*
%TO.C,R4*%
X84350000Y-63600000D03*
X86000000Y-63600000D03*
%TD*%
D15*
%TO.C,C41*%
X58800000Y-112675000D03*
X58800000Y-114225000D03*
%TD*%
D16*
%TO.C,U3*%
X62300000Y-105400000D03*
X62300000Y-105800000D03*
X62300000Y-106200000D03*
X62300000Y-106600000D03*
X62300000Y-107000000D03*
X62300000Y-107400000D03*
X62300000Y-107800000D03*
X62300000Y-108200000D03*
X62300000Y-108600000D03*
X62300000Y-109000000D03*
X62300000Y-109400000D03*
X62300000Y-109800000D03*
D17*
X63050000Y-110550000D03*
X63450000Y-110550000D03*
X63850000Y-110550000D03*
X64250000Y-110550000D03*
X64650000Y-110550000D03*
X65050000Y-110550000D03*
X65450000Y-110550000D03*
X65850000Y-110550000D03*
X66250000Y-110550000D03*
X66650000Y-110550000D03*
X67050000Y-110550000D03*
X67450000Y-110550000D03*
D16*
X68200000Y-109800000D03*
X68200000Y-109400000D03*
X68200000Y-109000000D03*
X68200000Y-108600000D03*
X68200000Y-108200000D03*
X68200000Y-107800000D03*
X68200000Y-107400000D03*
X68200000Y-107000000D03*
X68200000Y-106600000D03*
X68200000Y-106200000D03*
X68200000Y-105800000D03*
X68200000Y-105400000D03*
D17*
X67450000Y-104650000D03*
X67050000Y-104650000D03*
X66650000Y-104650000D03*
X66250000Y-104650000D03*
X65850000Y-104650000D03*
X65450000Y-104650000D03*
X65050000Y-104650000D03*
X64650000Y-104650000D03*
X64250000Y-104650000D03*
X63850000Y-104650000D03*
X63450000Y-104650000D03*
X63050000Y-104650000D03*
D18*
X65250000Y-107600000D03*
%TD*%
D19*
%TO.C,R34*%
X60200000Y-71050000D03*
X60200000Y-69400000D03*
%TD*%
D20*
%TO.C,R9*%
X98550000Y-94150000D03*
X98550000Y-95800000D03*
%TD*%
D21*
%TO.C,J1*%
X47000000Y-40000000D03*
X47000000Y-51430000D03*
D22*
X53350000Y-51430000D03*
D23*
X55890000Y-50160000D03*
X53350000Y-48890000D03*
X55890000Y-47620000D03*
X53350000Y-46350000D03*
X55890000Y-42540000D03*
X53350000Y-41270000D03*
X55890000Y-40000000D03*
X58430000Y-41270000D03*
D24*
X60720000Y-40250000D03*
X60720000Y-48640000D03*
X60720000Y-42790000D03*
X60720000Y-51180000D03*
D25*
X50050000Y-37970000D03*
X50050000Y-53460000D03*
%TD*%
D15*
%TO.C,C43*%
X66000000Y-112625000D03*
X66000000Y-114175000D03*
%TD*%
D26*
%TO.C,U2*%
X95142500Y-48255000D03*
D27*
X94822500Y-32405000D03*
X94822500Y-30065000D03*
D26*
X83562500Y-30375000D03*
X83562500Y-48255000D03*
%TD*%
D28*
%TO.C,C63*%
X119900000Y-79225000D03*
X119900000Y-77675000D03*
%TD*%
D15*
%TO.C,C14*%
X95500000Y-81725000D03*
X95500000Y-83275000D03*
%TD*%
D20*
%TO.C,R31*%
X62500000Y-59250000D03*
X62500000Y-60900000D03*
%TD*%
D29*
%TO.C,C47*%
X114675000Y-41375000D03*
X112775000Y-41375000D03*
%TD*%
D15*
%TO.C,C8*%
X93600000Y-83425000D03*
X93600000Y-84975000D03*
%TD*%
D30*
%TO.C,C16*%
X78625000Y-66400000D03*
X80175000Y-66400000D03*
%TD*%
D31*
%TO.C,FB5*%
X79000000Y-32562500D03*
X79000000Y-30437500D03*
%TD*%
D32*
%TO.C,U5*%
X51352513Y-68247487D03*
X51847487Y-67752513D03*
%TD*%
D11*
%TO.C,C30*%
X74925000Y-108900000D03*
X73375000Y-108900000D03*
%TD*%
D33*
%TO.C,H2*%
X41775000Y-120000000D03*
X42719581Y-117719581D03*
X42719581Y-122280419D03*
X45000000Y-116775000D03*
D34*
X45000000Y-120000000D03*
D33*
X45000000Y-123225000D03*
X47280419Y-117719581D03*
X47280419Y-122280419D03*
X48225000Y-120000000D03*
%TD*%
D35*
%TO.C,J9*%
X45100000Y-108600000D03*
X42560000Y-111140000D03*
X47640000Y-111140000D03*
X42560000Y-106060000D03*
X47640000Y-106060000D03*
%TD*%
D20*
%TO.C,R6*%
X86375000Y-58975000D03*
X86375000Y-60625000D03*
%TD*%
D19*
%TO.C,R15*%
X98600000Y-81700000D03*
X98600000Y-80050000D03*
%TD*%
D33*
%TO.C,H1*%
X41775000Y-30000000D03*
X42719581Y-27719581D03*
X42719581Y-32280419D03*
X45000000Y-26775000D03*
D34*
X45000000Y-30000000D03*
D33*
X45000000Y-33225000D03*
X47280419Y-27719581D03*
X47280419Y-32280419D03*
X48225000Y-30000000D03*
%TD*%
D36*
%TO.C,C12*%
X82925000Y-59300000D03*
X84825000Y-59300000D03*
%TD*%
D37*
%TO.C,D1*%
X58270000Y-29458350D03*
X58270000Y-35541650D03*
X55730000Y-29458350D03*
X55730000Y-35541650D03*
%TD*%
D15*
%TO.C,C37*%
X73450000Y-105775000D03*
X73450000Y-107325000D03*
%TD*%
D38*
%TO.C,C1*%
X103525000Y-41175000D03*
X103525000Y-36775000D03*
%TD*%
D39*
%TO.C,D7*%
X50100000Y-62630000D03*
X50100000Y-63600000D03*
%TD*%
D40*
%TO.C,Y2*%
X64450000Y-115700000D03*
X64450000Y-114300000D03*
X63350000Y-114300000D03*
X63350000Y-115700000D03*
%TD*%
D41*
%TO.C,Q1*%
X61200000Y-100700000D03*
X63100000Y-100700000D03*
X62150000Y-98825000D03*
%TD*%
D11*
%TO.C,C56*%
X57800000Y-62600000D03*
X56250000Y-62600000D03*
%TD*%
D42*
%TO.C,U7*%
X108275000Y-42625000D03*
X108275000Y-43275000D03*
X108275000Y-43925000D03*
X110175000Y-43925000D03*
X110175000Y-43275000D03*
X110175000Y-42625000D03*
%TD*%
D20*
%TO.C,R11*%
X81850000Y-94150000D03*
X81850000Y-95800000D03*
%TD*%
D19*
%TO.C,R37*%
X68500000Y-60125000D03*
X68500000Y-58475000D03*
%TD*%
D11*
%TO.C,C39*%
X59725000Y-111150000D03*
X58175000Y-111150000D03*
%TD*%
D43*
%TO.C,F1*%
X111925000Y-39175000D03*
X114725000Y-39175000D03*
%TD*%
D20*
%TO.C,R36*%
X65000000Y-69375000D03*
X65000000Y-71025000D03*
%TD*%
D44*
%TO.C,FB2*%
X75000000Y-34375000D03*
X75000000Y-36500000D03*
%TD*%
D30*
%TO.C,C34*%
X70325000Y-106475000D03*
X71875000Y-106475000D03*
%TD*%
D19*
%TO.C,R41*%
X99300000Y-70825000D03*
X99300000Y-69175000D03*
%TD*%
D45*
%TO.C,J11*%
X113800000Y-116950000D03*
X115800000Y-116950000D03*
X117800000Y-116950000D03*
X119800000Y-116950000D03*
X121800000Y-116950000D03*
X123800000Y-116950000D03*
D46*
X111450000Y-122700000D03*
X126150000Y-122700000D03*
%TD*%
D20*
%TO.C,R5*%
X88250000Y-61475000D03*
X88250000Y-63125000D03*
%TD*%
D47*
%TO.C,U1*%
X117225000Y-54649792D03*
X117225000Y-55919792D03*
X117225000Y-57189792D03*
X117225000Y-58459792D03*
X117225000Y-59729792D03*
X117225000Y-60999792D03*
X117225000Y-62269792D03*
X117225000Y-63539792D03*
X122175000Y-63539792D03*
X122175000Y-62269792D03*
X122175000Y-60999792D03*
X122175000Y-59729792D03*
X122175000Y-58459792D03*
X122175000Y-57189792D03*
X122175000Y-55919792D03*
X122175000Y-54649792D03*
%TD*%
D48*
%TO.C,J4*%
X116600000Y-79350000D03*
X112570000Y-79350000D03*
X116600000Y-78080000D03*
X112570000Y-78080000D03*
X116600000Y-76810000D03*
X112570000Y-76810000D03*
X116600000Y-75540000D03*
X112570000Y-75540000D03*
X116600000Y-74270000D03*
X112570000Y-74270000D03*
%TD*%
D20*
%TO.C,L1*%
X81375000Y-58975000D03*
X81375000Y-60625000D03*
%TD*%
D49*
%TO.C,U4*%
X94225000Y-65925000D03*
X93725000Y-65925000D03*
X93225000Y-65925000D03*
X92725000Y-65925000D03*
X92225000Y-65925000D03*
X91725000Y-65925000D03*
X91225000Y-65925000D03*
X90725000Y-65925000D03*
X90225000Y-65925000D03*
X89725000Y-65925000D03*
X89225000Y-65925000D03*
X88725000Y-65925000D03*
X88225000Y-65925000D03*
X87725000Y-65925000D03*
X87225000Y-65925000D03*
X86725000Y-65925000D03*
X86225000Y-65925000D03*
X85725000Y-65925000D03*
X85225000Y-65925000D03*
X84725000Y-65925000D03*
X84225000Y-65925000D03*
X83725000Y-65925000D03*
X83225000Y-65925000D03*
X82725000Y-65925000D03*
X82225000Y-65925000D03*
D50*
X80550000Y-67600000D03*
X80550000Y-68100000D03*
X80550000Y-68600000D03*
X80550000Y-69100000D03*
X80550000Y-69600000D03*
X80550000Y-70100000D03*
X80550000Y-70600000D03*
X80550000Y-71100000D03*
X80550000Y-71600000D03*
X80550000Y-72100000D03*
X80550000Y-72600000D03*
X80550000Y-73100000D03*
X80550000Y-73600000D03*
X80550000Y-74100000D03*
X80550000Y-74600000D03*
X80550000Y-75100000D03*
X80550000Y-75600000D03*
X80550000Y-76100000D03*
X80550000Y-76600000D03*
X80550000Y-77100000D03*
X80550000Y-77600000D03*
X80550000Y-78100000D03*
X80550000Y-78600000D03*
X80550000Y-79100000D03*
X80550000Y-79600000D03*
D49*
X82225000Y-81275000D03*
X82725000Y-81275000D03*
X83225000Y-81275000D03*
X83725000Y-81275000D03*
X84225000Y-81275000D03*
X84725000Y-81275000D03*
X85225000Y-81275000D03*
X85725000Y-81275000D03*
X86225000Y-81275000D03*
X86725000Y-81275000D03*
X87225000Y-81275000D03*
X87725000Y-81275000D03*
X88225000Y-81275000D03*
X88725000Y-81275000D03*
X89225000Y-81275000D03*
X89725000Y-81275000D03*
X90225000Y-81275000D03*
X90725000Y-81275000D03*
X91225000Y-81275000D03*
X91725000Y-81275000D03*
X92225000Y-81275000D03*
X92725000Y-81275000D03*
X93225000Y-81275000D03*
X93725000Y-81275000D03*
X94225000Y-81275000D03*
D50*
X95900000Y-79600000D03*
X95900000Y-79100000D03*
X95900000Y-78600000D03*
X95900000Y-78100000D03*
X95900000Y-77600000D03*
X95900000Y-77100000D03*
X95900000Y-76600000D03*
X95900000Y-76100000D03*
X95900000Y-75600000D03*
X95900000Y-75100000D03*
X95900000Y-74600000D03*
X95900000Y-74100000D03*
X95900000Y-73600000D03*
X95900000Y-73100000D03*
X95900000Y-72600000D03*
X95900000Y-72100000D03*
X95900000Y-71600000D03*
X95900000Y-71100000D03*
X95900000Y-70600000D03*
X95900000Y-70100000D03*
X95900000Y-69600000D03*
X95900000Y-69100000D03*
X95900000Y-68600000D03*
X95900000Y-68100000D03*
X95900000Y-67600000D03*
%TD*%
D11*
%TO.C,C50*%
X56075000Y-56400000D03*
X54525000Y-56400000D03*
%TD*%
D20*
%TO.C,R30*%
X61000000Y-59250000D03*
X61000000Y-60900000D03*
%TD*%
D15*
%TO.C,C19*%
X97100000Y-81725000D03*
X97100000Y-83275000D03*
%TD*%
D40*
%TO.C,Y1*%
X89800000Y-61500000D03*
X89800000Y-62900000D03*
X90900000Y-62900000D03*
X90900000Y-61500000D03*
%TD*%
D30*
%TO.C,C51*%
X66325000Y-62700000D03*
X67875000Y-62700000D03*
%TD*%
D20*
%TO.C,R17*%
X45700000Y-83375000D03*
X45700000Y-85025000D03*
%TD*%
D51*
%TO.C,D5*%
X42575000Y-79350000D03*
X41000000Y-79350000D03*
%TD*%
D14*
%TO.C,R24*%
X100700000Y-45575000D03*
X102350000Y-45575000D03*
%TD*%
D51*
%TO.C,D4*%
X42575000Y-77850000D03*
X41000000Y-77850000D03*
%TD*%
D52*
%TO.C,R32*%
X58700000Y-64200000D03*
X57050000Y-64200000D03*
%TD*%
%TO.C,R13*%
X81850000Y-92700000D03*
X80200000Y-92700000D03*
%TD*%
D53*
%TO.C,C57*%
X58600000Y-70162500D03*
X57640000Y-70162500D03*
%TD*%
D30*
%TO.C,C4*%
X81400000Y-62100000D03*
X82950000Y-62100000D03*
%TD*%
D20*
%TO.C,R12*%
X83500000Y-94150000D03*
X83500000Y-95800000D03*
%TD*%
D54*
%TO.C,L2*%
X69837500Y-110500000D03*
X71962500Y-110500000D03*
%TD*%
D28*
%TO.C,C52*%
X59300000Y-62575000D03*
X59300000Y-61025000D03*
%TD*%
D20*
%TO.C,R10*%
X101050000Y-94150000D03*
X101050000Y-95800000D03*
%TD*%
D55*
%TO.C,J2*%
X80150000Y-101299840D03*
D56*
X101150000Y-101299840D03*
D57*
X98530000Y-98550000D03*
X96030000Y-98550000D03*
X93530000Y-98550000D03*
X91030000Y-98550000D03*
X88530000Y-98550000D03*
X86030000Y-98550000D03*
X83530000Y-98550000D03*
X81899990Y-98550000D03*
X101030000Y-98550000D03*
D58*
X80600000Y-98550000D03*
X79400000Y-98550000D03*
D59*
X78000000Y-100299840D03*
X103100000Y-100299840D03*
X78000000Y-122300000D03*
X105300000Y-122300000D03*
%TD*%
D28*
%TO.C,C61*%
X127700000Y-85175000D03*
X127700000Y-83625000D03*
%TD*%
D30*
%TO.C,C42*%
X62775000Y-112800000D03*
X64325000Y-112800000D03*
%TD*%
D28*
%TO.C,C44*%
X60750000Y-104975000D03*
X60750000Y-103425000D03*
%TD*%
D33*
%TO.C,H4*%
X131775000Y-120000000D03*
X132719581Y-117719581D03*
X132719581Y-122280419D03*
X135000000Y-116775000D03*
D34*
X135000000Y-120000000D03*
D33*
X135000000Y-123225000D03*
X137280419Y-117719581D03*
X137280419Y-122280419D03*
X138225000Y-120000000D03*
%TD*%
D20*
%TO.C,R28*%
X64000000Y-59250000D03*
X64000000Y-60900000D03*
%TD*%
D60*
%TO.C,J6*%
X131950000Y-102400000D03*
X131950000Y-100400000D03*
X131950000Y-98400000D03*
X131950000Y-96400000D03*
X131950000Y-94400000D03*
X131950000Y-92400000D03*
D61*
X137700000Y-104750000D03*
X137700000Y-90050000D03*
%TD*%
D11*
%TO.C,C9*%
X78575000Y-78800000D03*
X77025000Y-78800000D03*
%TD*%
D19*
%TO.C,R35*%
X66600000Y-71025000D03*
X66600000Y-69375000D03*
%TD*%
%TO.C,R19*%
X43700000Y-59925000D03*
X43700000Y-58275000D03*
%TD*%
D15*
%TO.C,C23*%
X115100000Y-58144792D03*
X115100000Y-59694792D03*
%TD*%
D19*
%TO.C,R33*%
X61800000Y-71050000D03*
X61800000Y-69400000D03*
%TD*%
D62*
%TO.C,D3*%
X72000000Y-31500000D03*
X72000000Y-35500000D03*
%TD*%
D30*
%TO.C,C36*%
X70375000Y-104850000D03*
X71925000Y-104850000D03*
%TD*%
D11*
%TO.C,C29*%
X72075000Y-112300000D03*
X70525000Y-112300000D03*
%TD*%
D31*
%TO.C,FB4*%
X77000000Y-36500000D03*
X77000000Y-34375000D03*
%TD*%
D40*
%TO.C,Y3*%
X57520000Y-67362500D03*
X57520000Y-68762500D03*
X58620000Y-68762500D03*
X58620000Y-67362500D03*
%TD*%
D63*
%TO.C,C46*%
X114125000Y-34275000D03*
X109725000Y-34275000D03*
%TD*%
D30*
%TO.C,C45*%
X63150000Y-102450000D03*
X64700000Y-102450000D03*
%TD*%
%TO.C,C21*%
X91100000Y-95900000D03*
X92650000Y-95900000D03*
%TD*%
D14*
%TO.C,R3*%
X84375000Y-62100000D03*
X86025000Y-62100000D03*
%TD*%
%TO.C,R40*%
X57725000Y-65762500D03*
X59375000Y-65762500D03*
%TD*%
D64*
%TO.C,C2*%
X99500000Y-41950000D03*
X99500000Y-40050000D03*
%TD*%
D28*
%TO.C,C20*%
X97800000Y-63100000D03*
X97800000Y-61550000D03*
%TD*%
D65*
%TO.C,U9*%
X121325000Y-41725000D03*
X119025000Y-41725000D03*
D66*
X119025000Y-48025000D03*
D65*
X116725000Y-41725000D03*
%TD*%
D11*
%TO.C,C48*%
X114575000Y-43175000D03*
X113025000Y-43175000D03*
%TD*%
D15*
%TO.C,C22*%
X113500000Y-55344792D03*
X113500000Y-56894792D03*
%TD*%
D11*
%TO.C,C18*%
X80175000Y-82400000D03*
X78625000Y-82400000D03*
%TD*%
D54*
%TO.C,FB7*%
X55725000Y-60900000D03*
X57850000Y-60900000D03*
%TD*%
D29*
%TO.C,C7*%
X90850000Y-59700000D03*
X88950000Y-59700000D03*
%TD*%
D44*
%TO.C,FB3*%
X77000000Y-30437500D03*
X77000000Y-32562500D03*
%TD*%
D67*
%TO.C,SW2*%
X101300000Y-70500000D03*
D68*
X101300000Y-69200000D03*
%TD*%
D69*
%TO.C,C58*%
X56120000Y-67602500D03*
X56120000Y-68562500D03*
%TD*%
D20*
%TO.C,R16*%
X44150000Y-83375000D03*
X44150000Y-85025000D03*
%TD*%
D14*
%TO.C,R26*%
X108200000Y-45475000D03*
X109850000Y-45475000D03*
%TD*%
D70*
%TO.C,U10*%
X61012500Y-64212500D03*
X61012500Y-64712500D03*
X61012500Y-65212500D03*
X61012500Y-65712500D03*
X61012500Y-66212500D03*
X61012500Y-66712500D03*
D71*
X61700000Y-67400000D03*
X62200000Y-67400000D03*
X62700000Y-67400000D03*
X63200000Y-67400000D03*
X63700000Y-67400000D03*
X64200000Y-67400000D03*
D70*
X64887500Y-66712500D03*
X64887500Y-66212500D03*
X64887500Y-65712500D03*
X64887500Y-65212500D03*
X64887500Y-64712500D03*
X64887500Y-64212500D03*
D71*
X64200000Y-63525000D03*
X63700000Y-63525000D03*
X63200000Y-63525000D03*
X62700000Y-63525000D03*
X62200000Y-63525000D03*
X61700000Y-63525000D03*
D72*
X62950000Y-65462500D03*
%TD*%
D28*
%TO.C,C25*%
X115200000Y-55469792D03*
X115200000Y-53919792D03*
%TD*%
D67*
%TO.C,SW1*%
X98600000Y-59550000D03*
D68*
X98600000Y-58250000D03*
%TD*%
D31*
%TO.C,FB1*%
X75000000Y-32562500D03*
X75000000Y-30437500D03*
%TD*%
D19*
%TO.C,R39*%
X68200000Y-71025000D03*
X68200000Y-69375000D03*
%TD*%
D73*
%TO.C,U6*%
X50847487Y-68752513D03*
X50352513Y-69247487D03*
%TD*%
D74*
%TO.C,J7*%
X46180000Y-63110000D03*
X46180000Y-68890000D03*
D75*
X46680000Y-61680000D03*
D76*
X42500000Y-61680000D03*
D75*
X46680000Y-70320000D03*
D76*
X42500000Y-70320000D03*
%TD*%
D11*
%TO.C,C62*%
X112575000Y-113600000D03*
X111025000Y-113600000D03*
%TD*%
D20*
%TO.C,R2*%
X71500000Y-58475000D03*
X71500000Y-60125000D03*
%TD*%
%TO.C,R8*%
X88550000Y-94150000D03*
X88550000Y-95800000D03*
%TD*%
%TO.C,R29*%
X65500000Y-59250000D03*
X65500000Y-60900000D03*
%TD*%
D28*
%TO.C,C60*%
X127700000Y-102375000D03*
X127700000Y-100825000D03*
%TD*%
D77*
%TO.C,C3*%
X105725000Y-42825000D03*
X105725000Y-44725000D03*
%TD*%
D30*
%TO.C,C35*%
X70375000Y-108000000D03*
X71925000Y-108000000D03*
%TD*%
D51*
%TO.C,D6*%
X42575000Y-80850000D03*
X41000000Y-80850000D03*
%TD*%
D42*
%TO.C,U8*%
X108275000Y-38625000D03*
X108275000Y-39275000D03*
X108275000Y-39925000D03*
X110175000Y-39925000D03*
X110175000Y-39275000D03*
X110175000Y-38625000D03*
%TD*%
D30*
%TO.C,C49*%
X119375000Y-39575000D03*
X120925000Y-39575000D03*
%TD*%
D15*
%TO.C,C38*%
X60300000Y-112675000D03*
X60300000Y-114225000D03*
%TD*%
D11*
%TO.C,C24*%
X115275000Y-61294792D03*
X113725000Y-61294792D03*
%TD*%
D19*
%TO.C,R38*%
X73000000Y-60125000D03*
X73000000Y-58475000D03*
%TD*%
D14*
%TO.C,R22*%
X57900000Y-98900000D03*
X59550000Y-98900000D03*
%TD*%
D12*
%TO.C,J3*%
X118785000Y-33275000D03*
D13*
X121325000Y-33275000D03*
%TD*%
D20*
%TO.C,R18*%
X47250000Y-83375000D03*
X47250000Y-85025000D03*
%TD*%
%TO.C,R7*%
X96100000Y-94150000D03*
X96100000Y-95800000D03*
%TD*%
D15*
%TO.C,C17*%
X97800000Y-67550000D03*
X97800000Y-69100000D03*
%TD*%
D14*
%TO.C,R23*%
X57900000Y-100600000D03*
X59550000Y-100600000D03*
%TD*%
D37*
%TO.C,D2*%
X66270000Y-29458350D03*
X66270000Y-35541650D03*
X63730000Y-29458350D03*
X63730000Y-35541650D03*
%TD*%
D64*
%TO.C,C27*%
X96100000Y-60050000D03*
X96100000Y-58150000D03*
%TD*%
D78*
%TO.C,FL1*%
X60800000Y-108600000D03*
D79*
X59545000Y-107405000D03*
D80*
X58985000Y-107585000D03*
D79*
X58425000Y-107405000D03*
D78*
X57170000Y-108600000D03*
D79*
X59545000Y-109795000D03*
D80*
X58985000Y-109615000D03*
D79*
X58425000Y-109795000D03*
%TD*%
D11*
%TO.C,C13*%
X80200000Y-80800000D03*
X78650000Y-80800000D03*
%TD*%
D52*
%TO.C,R27*%
X109850000Y-47075000D03*
X108200000Y-47075000D03*
%TD*%
D77*
%TO.C,C6*%
X92800000Y-60950000D03*
X92800000Y-62850000D03*
%TD*%
D15*
%TO.C,C28*%
X69000000Y-112125000D03*
X69000000Y-113675000D03*
%TD*%
D12*
%TO.C,J12*%
X112060000Y-85500000D03*
D13*
X114600000Y-85500000D03*
X117140000Y-85500000D03*
%TD*%
D19*
%TO.C,R20*%
X45300000Y-59925000D03*
X45300000Y-58275000D03*
%TD*%
D33*
%TO.C,H3*%
X131775000Y-30000000D03*
X132719581Y-27719581D03*
X132719581Y-32280419D03*
X135000000Y-26775000D03*
D34*
X135000000Y-30000000D03*
D33*
X135000000Y-33225000D03*
X137280419Y-27719581D03*
X137280419Y-32280419D03*
X138225000Y-30000000D03*
%TD*%
D44*
%TO.C,FB6*%
X79000000Y-34375000D03*
X79000000Y-36500000D03*
%TD*%
D81*
%TO.C,J8*%
X128394669Y-63294792D03*
X128394669Y-38294792D03*
D82*
X126974669Y-56334792D03*
D56*
X126974669Y-53564792D03*
X126974669Y-50794792D03*
X126974669Y-48024792D03*
X126974669Y-45254792D03*
X129814669Y-54949792D03*
X129814669Y-52179792D03*
X129814669Y-49409792D03*
X129814669Y-46639792D03*
%TD*%
D14*
%TO.C,R25*%
X103800000Y-46275000D03*
X105450000Y-46275000D03*
%TD*%
D15*
%TO.C,C32*%
X67500000Y-111925000D03*
X67500000Y-113475000D03*
%TD*%
D60*
%TO.C,J5*%
X131950000Y-85200000D03*
X131950000Y-83200000D03*
X131950000Y-81200000D03*
X131950000Y-79200000D03*
X131950000Y-77200000D03*
X131950000Y-75200000D03*
D61*
X137700000Y-87550000D03*
X137700000Y-72850000D03*
%TD*%
D20*
%TO.C,R1*%
X70000000Y-58475000D03*
X70000000Y-60125000D03*
%TD*%
D30*
%TO.C,C5*%
X81400000Y-63600000D03*
X82950000Y-63600000D03*
%TD*%
D69*
%TO.C,C31*%
X61600000Y-112920000D03*
X61600000Y-113880000D03*
%TD*%
D19*
%TO.C,R21*%
X96200000Y-63125000D03*
X96200000Y-61475000D03*
%TD*%
D52*
%TO.C,R14*%
X81850000Y-91150000D03*
X80200000Y-91150000D03*
%TD*%
D15*
%TO.C,C53*%
X63400000Y-69450000D03*
X63400000Y-71000000D03*
%TD*%
M02*
