M48
; DRILL file {KiCad 9.0.0-1.fc41} date 2025-03-05T15:18:07-0800
; FORMAT={-:-/ absolute / metric / decimal}
; #@! TF.CreationDate,2025-03-05T15:18:07-08:00
; #@! TF.GenerationSoftware,Kicad,Pcbnew,9.0.0-1.fc41
; #@! TF.FileFunction,Plated,1,4,PTH
FMAT,2
METRIC
; #@! TA.AperFunction,Plated,PTH,ViaDrill
T1C0.254
; #@! TA.AperFunction,Plated,PTH,ComponentDrill
T2C0.254
; #@! TA.AperFunction,Plated,PTH,ViaDrill
T3C0.300
; #@! TA.AperFunction,Plated,PTH,ComponentDrill
T4C0.300
; #@! TA.AperFunction,Plated,PTH,ViaDrill
T5C0.400
; #@! TA.AperFunction,Plated,PTH,ComponentDrill
T6C0.600
; #@! TA.AperFunction,Plated,PTH,ComponentDrill
T7C0.970
; #@! TA.AperFunction,Plated,PTH,ComponentDrill
T8C1.000
; #@! TA.AperFunction,Plated,PTH,ComponentDrill
T9C1.100
; #@! TA.AperFunction,Plated,PTH,ComponentDrill
T10C1.500
; #@! TA.AperFunction,Plated,PTH,ComponentDrill
T11C1.650
; #@! TA.AperFunction,Plated,PTH,ComponentDrill
T12C3.200
; #@! TA.AperFunction,Plated,PTH,ComponentDrill
T13C4.300
%
G90
G05
T1
X46.4Y-59.7
X46.5Y-60.35
X47.1Y-60.35
X50.05Y-65.2
X50.6Y-65.6
X51.0Y-64.55
X51.2Y-66.15
X51.5Y-63.55
X51.5Y-66.9
X52.0Y-62.5
X52.05Y-65.15
X52.2Y-66.25
X52.35Y-67.2
X52.5Y-61.3
X52.6Y-64.2
X52.75Y-68.0
X52.9Y-66.8
X52.9Y-68.65
X53.1Y-65.9
X53.3Y-63.3
X53.3Y-68.15
X53.35Y-67.5
X53.4Y-69.1
X53.75Y-60.7
X53.75Y-61.85
X53.85Y-64.7
X53.85Y-65.9
X53.85Y-66.7
X53.85Y-68.2
X53.9Y-67.45
X53.9Y-68.75
X53.9Y-69.4
X54.1Y-69.9
X54.3Y-64.05
X54.6Y-70.35
X54.75Y-60.55
X54.8Y-61.35
X54.8Y-62.0
X54.8Y-63.5
X54.95Y-70.75
X55.1Y-62.6
X55.35Y-71.15
X55.75Y-71.55
X55.9Y-69.3
X56.15Y-71.9
X56.3Y-69.65
X56.6Y-72.4
X56.775Y-110.9
X56.8Y-70.15
X56.8Y-109.5
X56.8Y-111.65
X56.85Y-110.35
X56.875Y-105.7
X56.875Y-107.45
X56.9Y-102.4
X56.925Y-106.275
X56.925Y-106.85
X57.0Y-103.1
X57.0Y-103.7
X57.0Y-104.3
X57.0Y-105.0
X57.1Y-72.8
X57.125Y-112.35
X57.2Y-101.8
X57.275Y-111.175
X57.375Y-107.1
X57.45Y-106.125
X57.5Y-110.0
X57.55Y-73.4
X57.6Y-104.5
X57.6Y-105.4
X57.625Y-107.575
X57.65Y-70.8
X57.675Y-106.675
X57.7Y-102.2
X57.7Y-103.1
X57.7Y-112.35
X57.775Y-113.125
X57.8Y-103.9
X57.9Y-63.6
X58.0Y-71.25
X58.0Y-72.9
X58.0Y-73.8
X58.1Y-104.9
X58.15Y-106.375
X58.2Y-105.7
X58.3Y-103.6
X58.35Y-74.2
X58.4Y-102.7
X58.4Y-104.2
X58.425Y-108.6
X58.6Y-73.6
X58.65Y-72.95
X58.675Y-106.1
X58.7Y-105.5
X58.8Y-104.7
X58.9Y-103.2
X58.975Y-106.675
X59.0Y-103.9
X59.0Y-108.575
X59.2Y-102.7
X59.3Y-106.125
X59.4Y-105.1
X59.5Y-104.4
X59.55Y-108.575
X59.575Y-106.625
X59.6Y-103.5
X59.8Y-102.2
X59.825Y-105.975
X60.15Y-106.45
X60.3Y-101.7
X60.3Y-115.175
X60.375Y-107.525
X60.475Y-106.925
X60.625Y-106.2
X60.8Y-102.3
X60.825Y-115.375
X60.825Y-115.925
X61.0Y-106.875
X61.025Y-107.45
X61.325Y-115.05
X61.325Y-115.6
X61.33Y-111.48
X61.4Y-68.2
X61.4Y-105.4
X61.45Y-116.65
X61.625Y-114.6
X61.675Y-112.35
X61.7Y-61.9
X61.8Y-102.0
X61.825Y-115.175
X61.9Y-103.3
X62.0Y-111.125
X62.1Y-101.4
X62.1Y-104.3
X62.198Y-68.498
X62.225Y-114.775
X62.225Y-115.975
X62.225Y-117.375
X62.3Y-115.425
X62.45Y-61.85
X63.2Y-62.3
X63.3Y-116.575
X63.9Y-89.4
X63.975Y-116.85
X64.1Y-101.1
X64.184Y-103.8
X64.259Y-62.149
X64.5Y-88.9
X64.587Y-113.5
X64.65Y-89.65
X64.7Y-101.3
X65.0Y-90.4
X65.225Y-103.65
X65.4Y-101.3
X65.5Y-90.0
X65.8Y-99.9
X65.925Y-103.5
X65.975Y-115.05
X66.0Y-100.7
X66.575Y-102.925
X66.6Y-115.3
X67.31Y-103.0
X67.375Y-115.525
X67.475Y-114.4
X67.95Y-102.225
X68.05Y-111.15
X68.075Y-114.55
X68.1Y-110.3
X68.167Y-104.158
X68.475Y-101.75
X68.475Y-102.3
X68.65Y-110.6
X68.736Y-103.749
X68.775Y-114.825
X68.85Y-111.3
X68.925Y-101.25
X69.0Y-101.8
X69.425Y-106.701
X69.45Y-107.9
X69.475Y-101.25
X69.625Y-113.1
X69.7Y-113.7
X69.8Y-69.6
X70.15Y-113.25
X70.984Y-106.114
X71.05Y-103.05
X71.3Y-75.3
X71.4Y-74.5
X71.5Y-102.525
X71.775Y-101.85
X71.8Y-74.0
X71.8Y-75.0
X71.9Y-103.7
X72.4Y-72.2
X72.6Y-74.6
X72.7Y-77.7
X72.8Y-76.6
X73.1Y-80.1
X73.1Y-104.6
X73.2Y-72.3
X73.2Y-74.2
X73.4Y-77.7
X73.5Y-76.0
X73.5Y-79.7
X73.7Y-75.4
X73.9Y-76.4
X74.098Y-72.254
X74.2Y-80.5
X74.2Y-104.8
X74.3Y-74.5
X74.3Y-75.6
X74.3Y-81.3
X74.5Y-107.5
X74.8Y-79.8
X74.8Y-81.7
X74.873Y-71.479
X74.9Y-81.0
X75.0Y-106.6
X75.1Y-80.4
X75.2Y-74.0
X75.3Y-74.8
X75.7Y-80.3
X81.4Y-81.1
X81.7Y-80.2
X81.9Y-74.7
X82.0Y-73.3
X82.0Y-75.5
X82.2Y-89.9
X82.4Y-77.4
X82.4Y-79.5
X82.6Y-89.5
X82.8Y-91.5
X82.9Y-92.2
X82.9Y-92.9
X83.0Y-89.0
X83.032Y-78.774
X83.685Y-79.026
X83.81Y-78.338
X83.9Y-79.7
X84.101Y-77.701
X84.3Y-76.5
X84.3Y-90.55
X84.35Y-91.15
X84.35Y-91.7
X84.4Y-92.4
X84.4Y-93.1
X84.78Y-79.9
X84.8Y-90.05
X84.836Y-75.962
X84.9Y-87.1
X85.05Y-93.1
X85.15Y-92.25
X85.3Y-90.9
X85.35Y-89.6
X85.4Y-86.6
X85.7Y-89.1
X85.7Y-90.25
X85.7Y-93.1
X85.95Y-89.8
X85.95Y-91.3
X86.0Y-76.1
X86.1Y-92.25
X86.18Y-78.226
X86.339Y-79.1
X86.35Y-93.15
X86.4Y-75.4
X86.5Y-89.1
X86.6Y-90.0
X86.75Y-91.5
X86.8Y-90.6
X86.9Y-92.35
X87.05Y-93.1
X87.25Y-68.95
X87.3Y-90.5
X87.5Y-68.2
X87.5Y-91.9
X87.7Y-93.2
X87.8Y-90.8
X87.8Y-92.5
X87.9Y-69.35
X87.999Y-82.896
X88.0Y-91.5
X88.1Y-68.7
X88.3Y-80.0
X88.464Y-82.652
X88.5Y-89.0
X88.65Y-69.95
X88.7Y-69.2
X88.7Y-86.301
X88.7Y-90.9
X88.7Y-92.1
X88.8Y-79.2
X88.9Y-80.0
X89.0Y-93.0
X89.2Y-90.3
X89.2Y-91.5
X89.3Y-68.6
X89.6Y-92.8
X89.8Y-86.9
X89.84Y-85.751
X89.9Y-84.4
X90.0Y-93.4
X90.2Y-76.2
X90.22Y-86.34
X90.237Y-85.175
X90.45Y-67.4
X90.5Y-83.5
X90.5Y-89.1
X90.5Y-92.7
X90.5Y-93.9
X90.7Y-84.0
X90.8Y-76.3
X90.9Y-85.4
X90.9Y-86.1
X91.0Y-75.5
X91.0Y-93.3
X91.2Y-69.15
X91.3Y-89.1
X91.4Y-75.1
X91.4Y-76.3
X91.4Y-78.9
X91.45Y-70.95
X91.5Y-92.8
X91.6Y-80.0
X91.8Y-79.4
X91.85Y-70.25
X91.856Y-88.55
X91.856Y-87.742
X91.9Y-74.8
X91.9Y-75.7
X91.9Y-78.3
X92.0Y-76.3
X92.0Y-89.7
X92.05Y-68.95
X92.3Y-69.7
X92.3Y-75.2
X92.6Y-76.3
X92.7Y-75.7
X92.7Y-89.7
X92.9Y-70.5
X92.9Y-75.1
X92.9Y-88.45
X92.95Y-86.4
X93.2Y-76.0
X93.2Y-78.0
X93.275Y-79.675
X93.4Y-78.924
X93.5Y-74.9
X93.6Y-70.5
X93.8Y-75.6
X93.917Y-77.715
X93.936Y-79.443
X94.4Y-74.8
X94.412Y-77.22
X94.5Y-75.3
X94.5Y-79.9
X95.1Y-80.4
X95.45Y-85.25
X95.5Y-84.2
X95.7Y-80.5
X95.7Y-89.5
X95.8Y-88.9
X95.95Y-84.8
X96.25Y-92.85
X96.3Y-84.3
X96.3Y-85.4
X96.4Y-80.5
X96.45Y-89.55
X96.5Y-88.75
X96.9Y-84.9
X97.05Y-92.9
X97.1Y-84.2
X97.2Y-80.5
X97.25Y-89.5
X97.35Y-88.75
X97.8Y-84.4
X97.8Y-92.95
X97.9Y-83.3
X98.0Y-89.45
X98.15Y-88.85
X98.2Y-83.9
X98.3Y-82.9
X98.5Y-69.175
X98.6Y-68.5
X98.65Y-92.95
X98.75Y-89.45
X98.8Y-82.8
X98.9Y-88.7
X99.0Y-87.4
X99.2Y-68.3
X99.3Y-85.5
X99.5Y-89.45
X99.65Y-93.2
X99.7Y-84.9
X99.7Y-88.75
X99.8Y-87.4
X100.1Y-85.5
X100.2Y-89.45
X100.2Y-93.15
X100.3Y-84.3
X100.3Y-84.9
X100.4Y-87.4
X100.45Y-88.75
X100.65Y-92.75
X100.95Y-89.45
X101.0Y-76.5
X101.0Y-87.4
X101.3Y-88.75
X101.3Y-92.8
X101.4Y-76.9
X101.8Y-84.0
X101.8Y-87.45
X101.9Y-76.5
X101.9Y-77.2
X101.9Y-83.2
X101.95Y-88.7
X101.95Y-89.4
X102.0Y-77.9
X102.0Y-79.0
X102.1Y-84.7
X103.2Y-68.0
X103.25Y-81.2
X103.7Y-68.5
X103.9Y-67.4
X104.4Y-67.9
X104.5Y-75.5
X104.5Y-76.3
X104.5Y-77.1
X104.6Y-71.8
X104.8Y-74.8
X104.9Y-67.2
X104.9Y-69.5
X105.3Y-68.1
X105.3Y-69.1
X105.3Y-74.3
X105.6Y-70.7
X105.7Y-67.1
X105.7Y-73.8
X106.1Y-70.2
X106.2Y-73.4
X106.4Y-67.6
X106.8Y-66.8
X106.9Y-68.6
X107.4Y-67.4
X107.8Y-68.1
X109.4Y-72.7
X109.4Y-74.5
X109.647Y-41.251
X110.25Y-41.7
X110.3Y-41.0
X110.3Y-75.0
X110.6Y-72.7
X118.3Y-79.35
T2
X61.95Y-64.462
X61.95Y-65.462
X61.95Y-66.462
X62.95Y-64.462
X62.95Y-65.462
X62.95Y-66.462
X63.45Y-105.8
X63.45Y-107.0
X63.45Y-108.2
X63.45Y-109.4
X63.95Y-64.462
X63.95Y-65.462
X63.95Y-66.462
X64.65Y-105.8
X64.65Y-107.0
X64.65Y-108.2
X64.65Y-109.4
X65.85Y-105.8
X65.85Y-107.0
X65.85Y-108.2
X65.85Y-109.4
X67.05Y-105.8
X67.05Y-107.0
X67.05Y-108.2
X67.05Y-109.4
T3
X41.1Y-37.3
X41.1Y-39.6
X41.1Y-42.1
X41.1Y-44.6
X41.1Y-47.2
X41.1Y-49.8
X41.2Y-52.0
X41.2Y-54.3
X41.2Y-59.8
X41.3Y-56.0
X41.7Y-58.1
X41.7Y-58.8
X41.7Y-107.6
X41.7Y-108.6
X41.7Y-109.6
X41.8Y-35.0
X41.8Y-56.6
X41.8Y-57.3
X41.8Y-77.1
X41.8Y-78.6
X41.8Y-80.1
X42.0Y-55.9
X42.4Y-57.0
X42.4Y-57.6
X42.4Y-58.3
X42.4Y-59.0
X42.6Y-56.3
X43.0Y-57.4
X43.1Y-56.8
X43.7Y-57.1
X43.8Y-80.4
X43.9Y-103.4
X44.1Y-60.9
X44.2Y-105.3
X44.3Y-111.9
X44.4Y-40.0
X44.6Y-50.9
X44.7Y-44.5
X44.8Y-48.6
X44.9Y-46.3
X44.9Y-53.2
X44.9Y-60.9
X45.0Y-41.9
X45.1Y-105.3
X45.1Y-111.9
X45.3Y-38.0
X45.9Y-54.8
X45.9Y-111.9
X46.0Y-65.0
X46.0Y-105.3
X46.3Y-43.8
X46.5Y-103.6
X46.6Y-53.9
X46.7Y-45.8
X46.7Y-71.4
X46.709Y-107.6
X46.709Y-109.6
X46.8Y-113.6
X46.9Y-47.6
X46.9Y-55.6
X47.1Y-42.5
X47.2Y-77.9
X47.5Y-56.6
X47.9Y-44.4
X47.9Y-54.7
X47.9Y-71.5
X48.2Y-63.6
X48.3Y-70.3
X48.4Y-62.8
X48.4Y-77.9
X48.5Y-64.2
X48.5Y-70.9
X48.6Y-69.5
X48.7Y-56.3
X48.7Y-65.0
X48.7Y-68.4
X48.8Y-46.4
X48.8Y-48.1
X48.8Y-57.7
X48.8Y-63.6
X48.8Y-103.7
X48.9Y-49.7
X48.943Y-66.757
X49.0Y-70.1
X49.1Y-42.8
X49.1Y-64.2
X49.1Y-105.0
X49.123Y-107.6
X49.123Y-109.6
X49.3Y-41.3
X49.3Y-69.3
X49.4Y-63.6
X49.4Y-105.9
X49.4Y-106.8
X49.4Y-111.8
X49.5Y-44.9
X49.6Y-55.6
X49.6Y-77.9
X49.6Y-110.6
X49.7Y-64.2
X49.7Y-69.9
X49.7Y-70.6
X49.8Y-58.9
X49.8Y-113.0
X49.928Y-107.6
X49.928Y-109.6
X50.0Y-104.9
X50.1Y-111.1
X50.2Y-106.1
X50.2Y-106.9
X50.3Y-57.1
X50.3Y-70.3
X50.4Y-110.3
X50.5Y-43.8
X50.6Y-55.6
X50.6Y-61.0
X50.7Y-40.7
X50.7Y-42.3
X50.7Y-104.1
X50.733Y-107.6
X50.733Y-109.6
X50.8Y-70.9
X50.8Y-77.9
X50.9Y-59.8
X50.9Y-62.6
X50.9Y-105.2
X50.9Y-110.9
X51.0Y-61.8
X51.0Y-70.2
X51.0Y-106.9
X51.2Y-110.2
X51.4Y-55.8
X51.4Y-106.1
X51.5Y-58.1
X51.537Y-107.6
X51.537Y-109.6
X51.6Y-111.0
X51.8Y-60.7
X51.9Y-104.3
X51.9Y-106.9
X51.9Y-111.9
X52.0Y-77.9
X52.0Y-110.3
X52.1Y-54.7
X52.2Y-43.3
X52.342Y-107.6
X52.342Y-109.6
X52.4Y-55.5
X52.4Y-56.6
X52.5Y-106.0
X52.5Y-111.2
X52.7Y-106.9
X52.8Y-58.7
X52.8Y-110.4
X52.9Y-105.1
X53.0Y-60.0
X53.1Y-113.4
X53.147Y-107.6
X53.147Y-109.6
X53.2Y-77.9
X53.3Y-55.5
X53.4Y-56.4
X53.4Y-103.6
X53.4Y-106.6
X53.5Y-57.2
X53.5Y-110.9
X53.6Y-110.2
X53.6Y-112.1
X53.7Y-58.7
X53.8Y-57.9
X53.9Y-59.5
X53.951Y-107.6
X53.951Y-109.6
X54.1Y-104.7
X54.1Y-106.0
X54.1Y-106.8
X54.3Y-110.2
X54.3Y-111.2
X54.4Y-77.9
X54.6Y-57.7
X54.756Y-107.6
X54.756Y-109.6
X54.8Y-58.9
X54.9Y-103.6
X54.9Y-110.6
X54.9Y-113.0
X55.0Y-105.1
X55.0Y-106.1
X55.0Y-106.9
X55.0Y-111.7
X55.3Y-59.4
X55.4Y-57.7
X55.6Y-77.9
X55.7Y-65.8
X55.7Y-66.4
X55.75Y-59.95
X55.8Y-58.4
X56.0Y-65.2
X56.2Y-57.8
X56.4Y-59.0
X56.4Y-65.7
X56.4Y-66.4
X56.7Y-58.3
X56.8Y-77.9
X57.0Y-59.5
X57.2Y-58.8
X58.1Y-77.6
X58.7Y-97.85
X58.7Y-101.65
X59.0Y-71.1
X59.3Y-59.8
X59.5Y-67.0
X59.5Y-67.7
X59.5Y-70.2
X59.579Y-64.651
X60.0Y-75.3
X60.2Y-73.1
X60.2Y-73.7
X60.2Y-74.4
X60.316Y-63.584
X60.4Y-76.1
X60.5Y-62.0
X60.814Y-67.2
X61.0Y-70.2
X62.1Y-100.25
X62.2Y-116.65
X62.9Y-117.25
X63.1Y-72.55
X63.45Y-118.1
X63.65Y-117.35
X63.7Y-72.3
X64.0Y-118.6
X64.15Y-117.7
X64.295Y-54.755
X64.4Y-72.3
X64.6Y-116.95
X64.7Y-118.25
X64.77Y-55.23
X64.9Y-117.5
X65.0Y-67.5
X65.0Y-72.4
X65.295Y-55.755
X65.3Y-116.7
X65.45Y-118.55
X65.7Y-117.8
X65.8Y-115.8
X66.0Y-67.6
X66.15Y-116.6
X66.45Y-118.35
X66.75Y-115.9
X66.8Y-58.7
X66.85Y-117.1
X66.866Y-67.434
X67.2Y-114.95
X67.25Y-117.85
X67.3Y-60.0
X67.3Y-60.8
X67.65Y-118.65
X67.9Y-61.3
X67.9Y-116.0
X67.95Y-115.15
X68.05Y-117.05
X68.2Y-117.9
X68.5Y-54.7
X68.5Y-68.3
X68.55Y-55.35
X68.6Y-64.3
X68.7Y-61.4
X68.8Y-116.35
X68.95Y-115.4
X68.95Y-117.4
X69.05Y-118.6
X69.2Y-55.25
X69.2Y-65.0
X69.2Y-72.33
X69.325Y-104.275
X69.423Y-105.087
X69.6Y-64.1
X69.6Y-114.95
X69.65Y-109.2
X69.7Y-115.8
X69.7Y-116.75
X69.75Y-117.7
X69.8Y-65.6
X69.8Y-68.5
X70.0Y-64.8
X70.05Y-118.4
X70.1Y-57.4
X70.1Y-61.2
X70.2Y-114.45
X70.225Y-109.15
X70.4Y-63.5
X70.45Y-115.65
X70.5Y-116.25
X70.55Y-115.05
X70.6Y-65.9
X70.6Y-68.5
X70.7Y-116.8
X70.75Y-111.175
X70.775Y-109.95
X70.8Y-114.5
X70.85Y-109.35
X70.85Y-110.55
X70.9Y-55.2
X70.9Y-63.0
X71.05Y-117.3
X71.1Y-56.1
X71.15Y-113.45
X71.2Y-108.825
X71.2Y-114.05
X71.4Y-57.4
X71.4Y-61.2
X71.4Y-68.5
X71.425Y-109.35
X71.5Y-62.3
X71.5Y-117.7
X71.6Y-118.7
X71.7Y-113.7
X71.8Y-56.2
X71.975Y-111.5
X72.025Y-109.275
X72.05Y-117.95
X72.2Y-62.1
X72.3Y-68.3
X72.3Y-113.5
X72.4Y-56.8
X72.5Y-61.3
X72.65Y-118.05
X72.7Y-108.125
X72.9Y-113.45
X73.0Y-57.3
X73.2Y-110.65
X73.25Y-118.0
X73.3Y-61.4
X73.3Y-112.8
X73.4Y-111.9
X73.45Y-113.55
X73.75Y-110.1
X73.8Y-117.8
X74.0Y-113.8
X74.1Y-57.6
X74.1Y-58.5
X74.2Y-59.3
X74.2Y-111.1
X74.225Y-109.625
X74.3Y-117.45
X74.4Y-118.6
X74.45Y-114.2
X74.6Y-58.0
X74.6Y-112.3
X74.7Y-58.8
X74.7Y-117.0
X74.8Y-68.3
X74.8Y-114.65
X74.95Y-116.45
X75.0Y-115.25
X75.05Y-115.85
X75.2Y-110.2
X75.4Y-113.5
X75.5Y-111.3
X75.7Y-68.3
X75.7Y-79.6
X75.8Y-73.3
X75.9Y-74.2
X76.0Y-79.0
X76.1Y-109.5
X76.2Y-112.3
X76.3Y-115.0
X76.4Y-117.2
X76.45Y-101.7
X76.5Y-80.05
X76.5Y-118.6
X76.7Y-72.35
X76.8Y-73.3
X76.8Y-102.4
X76.9Y-110.3
X77.0Y-68.4
X77.0Y-77.8
X77.15Y-80.2
X77.2Y-113.3
X77.3Y-111.4
X77.4Y-71.6
X77.4Y-80.9
X77.5Y-82.4
X77.5Y-102.75
X77.5Y-103.85
X77.55Y-105.25
X77.6Y-72.5
X77.6Y-117.1
X77.7Y-76.5
X77.75Y-75.4
X77.95Y-77.35
X78.1Y-102.25
X78.1Y-115.0
X78.2Y-71.9
X78.227Y-71.099
X78.3Y-102.85
X78.3Y-104.05
X78.3Y-110.5
X78.4Y-118.7
X78.45Y-74.35
X78.7Y-111.9
X78.8Y-77.5
X78.95Y-73.7
X78.95Y-74.8
X79.0Y-70.714
X79.0Y-104.75
X79.0Y-113.9
X79.05Y-102.9
X79.05Y-103.7
X79.2Y-102.05
X79.2Y-117.0
X79.6Y-62.7
X79.6Y-115.3
X79.65Y-100.0
X79.7Y-61.9
X79.7Y-63.4
X79.7Y-64.1
X79.7Y-64.8
X79.8Y-54.8
X79.9Y-110.5
X79.95Y-102.4
X80.0Y-104.95
X80.033Y-65.455
X80.2Y-103.35
X80.5Y-111.8
X80.6Y-113.2
X80.8Y-117.1
X80.85Y-103.9
X80.9Y-102.3
X81.0Y-104.8
X81.05Y-103.05
X81.2Y-54.8
X81.2Y-66.622
X81.3Y-82.5
X81.3Y-110.5
X81.65Y-103.8
X81.663Y-64.732
X81.7Y-102.95
X81.75Y-104.6
X81.8Y-102.1
X81.8Y-114.9
X81.826Y-78.042
X81.85Y-97.15
X81.923Y-67.654
X82.0Y-55.5
X82.1Y-70.8
X82.2Y-116.5
X82.45Y-105.05
X82.6Y-112.8
X82.65Y-96.6
X82.7Y-68.269
X82.8Y-54.7
X82.8Y-71.5
X83.2Y-69.75
X83.25Y-105.15
X83.4Y-55.3
X83.4Y-72.1
X83.5Y-97.2
X83.699Y-75.997
X83.8Y-114.9
X83.925Y-64.6
X83.946Y-67.189
X84.0Y-70.1
X84.1Y-54.7
X84.25Y-74.5
X84.25Y-100.15
X84.25Y-105.15
X84.3Y-100.95
X84.343Y-67.911
X84.365Y-69.386
X84.6Y-55.4
X84.6Y-96.5
X84.6Y-97.15
X84.65Y-70.75
X84.65Y-95.15
X84.7Y-99.4
X84.75Y-95.8
X84.75Y-97.85
X84.754Y-67.225
X84.8Y-98.6
X84.95Y-101.65
X85.0Y-100.5
X85.05Y-69.8
X85.2Y-95.2
X85.25Y-97.15
X85.25Y-105.05
X85.275Y-60.8
X85.3Y-57.9
X85.3Y-102.15
X85.35Y-103.15
X85.35Y-104.2
X85.45Y-70.75
X85.5Y-73.475
X85.6Y-72.85
X85.6Y-96.0
X85.75Y-101.4
X85.8Y-54.6
X85.8Y-95.2
X86.0Y-57.5
X86.0Y-97.4
X86.0Y-99.8
X86.05Y-100.5
X86.1Y-102.65
X86.15Y-104.0
X86.2Y-104.95
X86.25Y-96.5
X86.35Y-95.15
X86.4Y-54.6
X86.45Y-68.15
X86.5Y-101.7
X86.6Y-72.3
X86.6Y-103.05
X86.8Y-100.75
X86.9Y-57.1
X86.9Y-98.5
X86.95Y-95.45
X86.95Y-97.1
X86.95Y-100.0
X86.969Y-56.303
X87.0Y-54.6
X87.2Y-97.95
X87.25Y-103.8
X87.25Y-104.85
X87.35Y-102.2
X87.4Y-58.0
X87.4Y-96.05
X87.5Y-95.15
X87.55Y-96.7
X87.55Y-97.35
X87.6Y-54.6
X87.6Y-58.6
X87.7Y-102.9
X88.2Y-54.6
X88.2Y-57.4
X88.2Y-103.55
X88.25Y-104.35
X88.4Y-102.3
X88.44Y-83.502
X88.55Y-97.1
X88.75Y-102.8
X88.8Y-54.6
X89.0Y-57.4
X89.064Y-63.864
X89.1Y-67.3
X89.1Y-83.05
X89.3Y-103.75
X89.4Y-54.6
X89.55Y-102.15
X89.7Y-97.15
X89.75Y-98.65
X89.9Y-97.8
X89.9Y-67.3
X89.95Y-102.85
X90.0Y-54.6
X90.0Y-96.6
X90.1Y-57.3
X90.15Y-103.8
X90.2Y-101.45
X90.25Y-100.05
X90.3Y-100.8
X90.339Y-82.7
X90.6Y-54.6
X90.7Y-102.15
X90.7Y-104.95
X91.0Y-103.3
X91.05Y-100.9
X91.1Y-83.0
X91.15Y-100.15
X91.4Y-57.4
X91.6Y-102.2
X91.65Y-101.3
X91.8Y-103.15
X91.9Y-103.95
X92.0Y-58.9
X92.0Y-59.6
X92.1Y-100.3
X92.2Y-68.1
X92.25Y-97.2
X92.25Y-98.1
X92.3Y-99.05
X92.5Y-57.4
X92.5Y-67.5
X92.55Y-99.85
X92.55Y-101.95
X92.6Y-101.15
X92.65Y-103.1
X92.7Y-58.9
X92.7Y-59.6
X92.9Y-68.3
X93.15Y-97.05
X93.15Y-100.4
X93.3Y-67.5
X93.3Y-69.5
X93.3Y-99.75
X93.4Y-58.9
X93.4Y-59.6
X93.5Y-57.4
X93.5Y-102.0
X93.5Y-102.85
X93.6Y-101.1
X93.65Y-103.8
X93.8Y-68.3
X93.8Y-95.35
X93.95Y-96.7
X94.1Y-67.5
X94.2Y-69.0
X94.3Y-100.15
X94.3Y-102.1
X94.3Y-103.3
X94.3Y-104.35
X94.4Y-68.1
X94.4Y-97.3
X94.55Y-104.9
X94.65Y-96.0
X94.65Y-101.05
X94.7Y-57.3
X94.75Y-95.15
X94.75Y-98.5
X94.75Y-99.35
X94.95Y-96.9
X95.15Y-100.4
X95.2Y-101.65
X95.325Y-64.0
X95.35Y-105.15
X96.1Y-97.1
X96.55Y-105.15
X97.1Y-97.25
X97.25Y-95.3
X97.3Y-98.4
X97.4Y-58.1
X97.6Y-60.0
X97.6Y-96.65
X97.7Y-103.0
X97.7Y-104.85
X97.8Y-57.4
X97.85Y-103.9
X98.1Y-102.05
X98.55Y-97.35
X98.75Y-103.5
X98.8Y-61.5
X98.8Y-102.35
X98.9Y-63.6
X99.1Y-62.4
X99.4Y-60.8
X99.4Y-96.8
X99.5Y-63.1
X99.5Y-101.95
X99.55Y-103.15
X99.6Y-57.4
X99.8Y-95.75
X99.8Y-97.5
X99.8Y-98.6
X99.85Y-95.2
X99.9Y-61.7
X100.0Y-58.4
X100.1Y-60.5
X100.1Y-62.6
X100.1Y-99.6
X100.15Y-96.8
X100.3Y-102.6
X100.5Y-100.1
X100.7Y-61.1
X100.8Y-60.5
X100.8Y-62.0
X101.05Y-97.35
X101.35Y-102.8
X101.6Y-60.0
X101.6Y-61.1
X102.05Y-93.3
X102.15Y-96.95
X102.25Y-95.45
X102.25Y-96.1
X102.4Y-59.3
X102.55Y-102.7
X102.6Y-60.2
X102.95Y-97.0
X103.1Y-102.15
X103.4Y-59.2
X103.95Y-97.1
X104.1Y-102.4
X104.3Y-100.2
X104.6Y-99.35
X104.6Y-101.55
X104.65Y-97.75
X104.7Y-98.6
X104.7Y-100.9
X104.9Y-100.15
X110.0Y-73.6
X110.95Y-61.176
X111.0Y-64.195
X111.05Y-62.25
X111.05Y-63.25
X111.1Y-60.2
X111.123Y-67.318
X111.2Y-68.35
X111.25Y-66.4
X111.3Y-65.1
X112.95Y-62.15
X125.1Y-78.4
X125.5Y-80.1
X126.1Y-79.3
X126.3Y-80.8
X126.3Y-95.3
X126.5Y-98.5
X126.5Y-100.8
X126.9Y-80.3
X126.9Y-103.2
X127.0Y-81.7
X127.5Y-78.1
X127.8Y-81.2
X127.8Y-82.4
X127.9Y-103.7
X128.4Y-93.4
X128.4Y-96.1
X128.5Y-92.4
X128.5Y-95.3
X128.5Y-97.1
X128.5Y-99.3
X128.6Y-78.3
X128.6Y-82.3
X128.7Y-79.1
X128.8Y-83.6
X128.8Y-100.6
X128.8Y-103.5
X128.9Y-85.2
X129.0Y-102.4
X129.2Y-77.2
X129.3Y-81.2
X129.4Y-78.5
X129.4Y-80.0
X129.4Y-82.3
X129.5Y-99.4
X129.5Y-100.3
X129.6Y-95.4
X129.6Y-96.3
X129.6Y-97.4
X129.6Y-101.3
X129.6Y-103.4
X129.7Y-79.2
X129.7Y-83.2
X129.7Y-84.1
X129.7Y-92.4
X129.7Y-93.4
X132.4Y-103.8
X134.1Y-92.4
X134.1Y-96.3
X134.1Y-100.4
T4
X58.425Y-107.405
X58.425Y-109.795
X59.545Y-107.405
X59.545Y-109.795
T5
X41.2Y-71.9
X41.2Y-73.4
X41.2Y-75.5
X41.4Y-63.2
X41.4Y-64.6
X41.4Y-66.3
X41.4Y-68.0
X41.6Y-83.8
X41.6Y-86.2
X41.6Y-88.3
X41.6Y-90.7
X41.6Y-93.2
X41.6Y-95.9
X41.6Y-98.5
X41.6Y-101.4
X41.7Y-82.2
X42.0Y-114.2
X42.4Y-72.7
X42.4Y-74.4
X42.6Y-82.9
X42.9Y-63.9
X42.9Y-65.5
X42.9Y-76.0
X42.9Y-85.1
X43.0Y-67.1
X43.7Y-72.2
X43.7Y-88.15
X43.85Y-93.6
X44.1Y-90.85
X44.2Y-68.3
X44.2Y-74.7
X44.2Y-86.3
X44.45Y-97.6
X44.5Y-70.3
X44.5Y-73.4
X44.6Y-114.2
X44.8Y-100.65
X45.05Y-86.8
X45.1Y-76.0
X45.4Y-71.9
X45.7Y-86.3
X46.2Y-73.9
X46.2Y-80.1
X46.25Y-88.2
X46.45Y-86.75
X47.0Y-72.6
X47.1Y-91.4
X47.15Y-94.1
X47.15Y-100.4
X47.3Y-76.0
X47.3Y-86.3
X48.3Y-86.05
X48.4Y-80.1
X48.45Y-96.8
X48.5Y-114.5
X48.6Y-73.2
X48.6Y-85.1
X49.35Y-83.3
X49.35Y-87.9
X49.4Y-81.15
X49.55Y-90.55
X49.6Y-76.0
X49.7Y-71.7
X50.0Y-74.3
X50.1Y-94.3
X50.55Y-27.1
X50.85Y-85.1
X50.9Y-72.9
X50.9Y-117.0
X51.1Y-112.8
X51.2Y-122.6
X51.3Y-80.55
X51.45Y-97.65
X51.65Y-101.1
X51.7Y-71.5
X51.7Y-94.05
X51.8Y-76.0
X51.85Y-83.1
X51.9Y-119.9
X52.0Y-89.05
X52.3Y-74.3
X52.35Y-86.85
X53.0Y-72.6
X53.55Y-80.2
X54.0Y-96.95
X54.05Y-84.5
X54.1Y-76.0
X54.1Y-122.7
X54.25Y-101.1
X54.3Y-88.25
X54.3Y-91.2
X54.3Y-115.8
X54.3Y-118.6
X54.6Y-74.3
X55.15Y-91.35
X55.45Y-94.7
X55.6Y-80.4
X55.85Y-98.7
X56.2Y-75.8
X56.5Y-122.7
X56.85Y-84.5
X56.9Y-119.7
X57.2Y-116.6
X57.4Y-97.6
X57.6Y-92.5
X57.65Y-80.5
X57.9Y-49.05
X57.95Y-52.0
X58.1Y-96.7
X58.6Y-122.7
X59.05Y-94.7
X59.3Y-96.7
X59.5Y-118.5
X59.9Y-97.5
X60.0Y-84.25
X60.05Y-80.45
X60.1Y-54.95
X61.0Y-122.7
X61.05Y-96.9
X61.5Y-81.95
X61.5Y-120.3
X61.55Y-56.3
X61.65Y-95.4
X61.8Y-73.3
X61.9Y-74.9
X62.05Y-55.0
X62.2Y-85.5
X62.5Y-77.3
X63.05Y-88.2
X63.1Y-83.35
X63.5Y-56.25
X63.5Y-57.7
X63.5Y-122.7
X63.6Y-74.9
X64.55Y-87.4
X64.55Y-91.75
X64.6Y-77.3
X64.6Y-97.2
X64.7Y-84.9
X64.8Y-94.3
X65.0Y-121.2
X65.1Y-57.2
X65.2Y-80.2
X65.5Y-75.4
X66.2Y-95.95
X66.2Y-122.7
X66.4Y-73.5
X66.45Y-91.85
X66.5Y-56.5
X66.8Y-77.3
X66.95Y-57.55
X67.0Y-89.6
X67.2Y-121.2
X67.55Y-94.1
X67.6Y-81.7
X67.8Y-75.6
X67.9Y-72.5
X68.1Y-73.4
X68.1Y-97.0
X68.3Y-80.2
X68.45Y-88.15
X68.5Y-91.1
X68.6Y-83.7
X68.8Y-122.7
X69.0Y-73.5
X69.5Y-77.3
X69.75Y-89.55
X69.9Y-75.8
X70.0Y-74.0
X70.0Y-82.6
X70.05Y-94.85
X70.1Y-73.1
X70.1Y-80.2
X70.1Y-121.3
X70.2Y-92.05
X71.2Y-84.85
X71.2Y-86.6
X71.7Y-122.7
X71.9Y-93.25
X72.0Y-65.5
X72.0Y-89.8
X72.35Y-54.95
X72.8Y-83.3
X72.9Y-63.45
X72.9Y-101.3
X73.3Y-121.4
X73.4Y-85.8
X73.4Y-102.9
X73.75Y-91.6
X73.8Y-84.2
X74.0Y-98.7
X74.5Y-55.05
X74.6Y-122.8
X74.8Y-89.8
X75.1Y-61.4
X75.35Y-59.8
X75.5Y-97.2
X75.5Y-98.8
X75.6Y-86.7
X75.65Y-56.6
X75.8Y-65.45
X76.0Y-100.3
X76.2Y-103.6
X76.35Y-55.0
X76.4Y-105.6
X76.45Y-58.05
X76.6Y-96.1
X76.9Y-97.7
X76.95Y-59.55
X77.1Y-64.25
X77.3Y-85.7
X77.6Y-56.5
X78.0Y-96.1
X78.1Y-97.9
X78.1Y-107.4
X78.2Y-94.6
X78.25Y-54.95
X78.7Y-57.8
X78.7Y-86.6
X79.5Y-106.1
X79.9Y-85.7
X80.05Y-56.05
X80.4Y-107.6
X81.1Y-122.9
X82.0Y-118.6
X82.0Y-121.4
X82.6Y-57.8
X83.3Y-110.7
X83.5Y-122.9
X83.8Y-60.8
X84.2Y-121.3
X84.5Y-118.6
X84.8Y-107.4
X84.8Y-116.4
X84.9Y-112.6
X85.5Y-42.5
X85.5Y-43.5
X85.5Y-44.5
X85.5Y-45.5
X85.5Y-46.5
X85.5Y-47.5
X85.6Y-122.9
X85.7Y-110.7
X86.3Y-114.4
X86.5Y-42.5
X86.5Y-43.5
X86.5Y-44.5
X86.5Y-45.5
X86.5Y-46.5
X86.5Y-47.5
X86.5Y-121.3
X86.9Y-118.6
X87.3Y-107.5
X87.5Y-42.5
X87.5Y-43.5
X87.5Y-44.5
X87.5Y-45.5
X87.5Y-46.5
X87.5Y-47.5
X87.9Y-112.7
X88.0Y-116.4
X88.0Y-122.9
X88.5Y-42.5
X88.5Y-43.5
X88.5Y-44.5
X88.5Y-45.5
X88.5Y-46.5
X88.5Y-47.5
X88.9Y-121.5
X89.5Y-42.5
X89.5Y-43.5
X89.5Y-44.5
X89.5Y-45.5
X89.5Y-46.5
X89.5Y-47.5
X89.5Y-105.2
X89.7Y-118.6
X90.1Y-114.3
X90.3Y-110.7
X90.5Y-42.5
X90.5Y-43.5
X90.5Y-44.5
X90.5Y-45.5
X90.5Y-46.5
X90.5Y-47.5
X90.5Y-122.9
X91.05Y-32.45
X91.4Y-106.0
X91.4Y-121.5
X91.6Y-116.9
X91.95Y-26.95
X92.3Y-112.5
X92.6Y-114.7
X92.7Y-105.2
X93.2Y-122.9
X93.3Y-118.6
X94.3Y-106.1
X94.3Y-111.5
X94.35Y-26.95
X94.35Y-60.0
X94.5Y-115.6
X94.5Y-121.4
X94.7Y-53.8
X94.75Y-52.05
X94.95Y-62.25
X95.4Y-113.3
X95.5Y-117.4
X95.8Y-122.9
X96.0Y-52.9
X96.8Y-66.0
X96.85Y-26.95
X97.1Y-48.55
X97.1Y-50.75
X97.1Y-121.5
X97.2Y-116.1
X97.3Y-110.8
X97.5Y-118.6
X97.623Y-33.477
X97.75Y-39.25
X97.8Y-35.2
X97.8Y-37.25
X97.8Y-38.25
X97.8Y-40.25
X97.8Y-41.3
X97.8Y-42.35
X97.85Y-36.3
X97.9Y-52.15
X98.2Y-77.55
X98.348Y-34.202
X98.6Y-32.1
X98.7Y-122.9
X98.75Y-48.95
X98.8Y-104.6
X99.0Y-33.35
X99.0Y-73.3
X99.2Y-50.8
X99.273Y-35.127
X99.3Y-54.4
X99.4Y-46.1
X99.5Y-36.15
X99.5Y-36.9
X99.5Y-37.85
X99.55Y-26.95
X99.8Y-111.6
X99.8Y-114.1
X99.85Y-78.9
X99.9Y-118.6
X99.95Y-32.7
X100.15Y-47.2
X100.2Y-121.5
X100.35Y-34.15
X100.4Y-106.6
X100.45Y-35.4
X100.5Y-37.65
X100.55Y-36.7
X100.6Y-49.2
X100.7Y-104.0
X100.8Y-57.6
X101.05Y-33.4
X101.1Y-39.75
X101.1Y-40.95
X101.175Y-38.375
X101.25Y-73.3
X101.4Y-34.85
X101.45Y-46.8
X101.5Y-36.15
X101.6Y-53.95
X101.7Y-122.9
X101.95Y-40.25
X101.95Y-51.85
X102.05Y-37.5
X102.05Y-39.15
X102.15Y-26.95
X102.3Y-65.3
X102.35Y-34.75
X102.45Y-47.7
X102.8Y-94.5
X102.9Y-105.7
X102.9Y-110.8
X102.9Y-118.7
X103.1Y-115.8
X103.4Y-113.2
X103.75Y-29.0
X104.0Y-104.3
X104.1Y-51.7
X104.3Y-47.6
X104.3Y-49.3
X104.3Y-57.0
X104.3Y-63.25
X104.45Y-66.1
X104.9Y-84.2
X104.9Y-93.7
X104.95Y-38.25
X104.95Y-39.3
X104.95Y-82.2
X105.0Y-89.2
X105.05Y-26.95
X105.15Y-40.25
X105.2Y-41.45
X105.35Y-30.85
X105.45Y-47.55
X105.95Y-49.4
X106.0Y-111.3
X106.05Y-40.35
X106.05Y-48.3
X106.1Y-108.4
X106.1Y-114.6
X106.15Y-56.3
X106.2Y-61.85
X106.225Y-36.275
X106.225Y-37.275
X106.225Y-39.275
X106.25Y-63.9
X106.25Y-76.15
X106.3Y-41.3
X106.35Y-47.075
X106.35Y-80.85
X106.35Y-83.5
X106.5Y-89.2
X106.6Y-85.0
X106.65Y-29.0
X106.8Y-54.3
X106.85Y-46.0
X106.9Y-32.15
X106.9Y-74.75
X106.9Y-118.6
X106.95Y-47.85
X106.95Y-65.75
X107.05Y-40.05
X107.05Y-48.9
X107.2Y-41.1
X107.225Y-36.275
X107.225Y-37.275
X107.225Y-38.275
X107.3Y-82.25
X107.3Y-95.3
X107.5Y-105.9
X107.7Y-26.9
X107.85Y-60.0
X107.9Y-76.7
X108.2Y-48.25
X108.2Y-72.2
X108.2Y-80.65
X108.2Y-89.2
X108.2Y-100.8
X108.225Y-36.275
X108.225Y-37.275
X108.3Y-61.65
X108.4Y-85.05
X108.5Y-122.7
X108.6Y-66.4
X108.65Y-63.65
X108.65Y-75.5
X108.7Y-30.2
X108.7Y-110.9
X108.75Y-83.55
X108.8Y-53.8
X108.8Y-114.9
X109.1Y-93.3
X109.1Y-97.8
X109.15Y-51.95
X109.2Y-103.65
X109.3Y-48.4
X109.3Y-82.15
X109.45Y-70.7
X109.55Y-60.05
X110.05Y-36.5
X110.05Y-85.1
X110.1Y-26.9
X110.2Y-76.85
X110.2Y-89.2
X110.3Y-80.65
X110.4Y-95.2
X110.55Y-28.75
X110.6Y-118.5
X110.65Y-56.9
X110.65Y-83.65
X110.75Y-31.3
X111.1Y-106.1
X111.25Y-51.15
X111.3Y-99.5
X111.3Y-111.9
X111.45Y-36.8
X111.5Y-45.8
X111.5Y-46.7
X111.6Y-47.8
X111.6Y-48.9
X111.6Y-90.7
X111.7Y-43.5
X111.7Y-55.85
X111.75Y-70.7
X112.0Y-109.3
X112.05Y-44.4
X112.05Y-62.75
X112.1Y-89.3
X112.1Y-97.1
X112.15Y-80.85
X112.2Y-26.9
X112.3Y-82.7
X112.35Y-45.3
X112.4Y-59.75
X112.45Y-65.85
X112.55Y-72.25
X112.7Y-28.65
X112.85Y-49.3
X112.925Y-39.175
X113.0Y-44.55
X113.0Y-47.1
X113.1Y-92.2
X113.3Y-111.9
X113.5Y-45.5
X113.6Y-70.75
X113.7Y-83.8
X113.743Y-101.6
X113.8Y-114.2
X113.85Y-106.1
X113.95Y-65.25
X114.0Y-30.45
X114.05Y-48.4
X114.1Y-89.3
X114.1Y-112.7
X114.2Y-46.6
X114.2Y-54.195
X114.2Y-62.495
X114.25Y-44.85
X114.3Y-93.3
X114.3Y-122.8
X114.325Y-39.175
X114.4Y-108.9
X114.4Y-111.6
X114.5Y-91.0
X114.55Y-80.5
X114.6Y-26.9
X114.65Y-72.75
X114.7Y-103.45
X115.5Y-120.9
X115.6Y-70.7
X115.8Y-94.8
X115.85Y-83.95
X116.0Y-28.85
X116.0Y-89.4
X116.05Y-82.05
X116.1Y-42.9
X116.15Y-51.45
X116.6Y-32.75
X116.7Y-122.8
X116.75Y-72.85
X116.8Y-114.5
X116.9Y-64.795
X117.1Y-26.9
X117.1Y-70.7
X117.15Y-83.75
X117.2Y-68.0
X117.3Y-92.2
X117.4Y-96.3
X117.6Y-44.3
X117.6Y-45.3
X117.6Y-46.3
X118.0Y-72.15
X118.0Y-90.3
X118.0Y-120.7
X118.2Y-103.5
X118.2Y-106.9
X118.3Y-80.6
X118.3Y-100.8
X118.35Y-50.9
X118.4Y-98.3
X118.5Y-29.25
X118.6Y-43.3
X118.6Y-44.3
X118.6Y-45.3
X118.6Y-46.3
X118.75Y-77.65
X118.8Y-114.5
X118.8Y-122.8
X118.85Y-85.55
X118.9Y-75.1
X118.9Y-82.75
X118.95Y-53.0
X118.95Y-76.5
X119.0Y-109.4
X119.1Y-54.5
X119.1Y-59.595
X119.3Y-96.5
X119.5Y-66.2
X119.5Y-87.05
X119.6Y-43.3
X119.6Y-44.3
X119.6Y-45.3
X119.6Y-46.3
X119.7Y-68.5
X119.8Y-26.9
X119.85Y-57.25
X119.95Y-76.5
X120.0Y-92.3
X120.1Y-94.2
X120.2Y-51.65
X120.225Y-54.095
X120.238Y-54.957
X120.3Y-80.55
X120.4Y-59.695
X120.4Y-60.995
X120.4Y-62.095
X120.4Y-63.095
X120.5Y-98.7
X120.6Y-44.3
X120.6Y-45.3
X120.6Y-46.3
X120.6Y-120.6
X120.7Y-101.8
X120.8Y-111.3
X120.9Y-76.75
X121.0Y-104.8
X121.0Y-107.7
X121.1Y-77.65
X121.15Y-29.25
X121.15Y-85.15
X121.2Y-74.8
X121.2Y-122.8
X121.3Y-70.0
X121.35Y-82.45
X121.4Y-66.4
X121.45Y-89.25
X121.55Y-50.7
X121.85Y-78.15
X122.0Y-94.2
X122.1Y-68.1
X122.4Y-26.9
X122.55Y-80.65
X122.6Y-71.4
X122.7Y-76.25
X122.7Y-87.35
X122.8Y-109.6
X122.85Y-39.75
X123.2Y-90.9
X123.3Y-38.45
X123.3Y-53.1
X123.3Y-97.4
X123.3Y-114.3
X123.3Y-120.6
X123.35Y-36.85
X123.35Y-41.1
X123.5Y-66.7
X123.55Y-42.65
X123.6Y-106.0
X123.7Y-55.4
X123.7Y-68.7
X123.7Y-85.0
X123.7Y-95.8
X123.7Y-122.8
X123.8Y-47.5
X123.8Y-61.55
X123.8Y-77.9
X123.9Y-52.15
X123.9Y-60.3
X123.9Y-103.5
X123.95Y-29.4
X123.95Y-82.25
X124.0Y-70.9
X124.0Y-99.9
X124.05Y-34.6
X124.2Y-58.495
X124.2Y-72.9
X124.25Y-88.75
X124.3Y-112.7
X124.4Y-43.6
X124.45Y-41.75
X124.6Y-107.8
X124.6Y-120.1
X124.8Y-68.0
X124.85Y-32.15
X124.9Y-39.15
X125.0Y-114.1
X125.05Y-44.8
X125.1Y-49.4
X125.15Y-42.6
X125.3Y-26.9
X125.3Y-74.3
X125.3Y-93.05
X125.45Y-36.2
X125.45Y-83.55
X125.5Y-97.5
X125.6Y-43.8
X125.6Y-116.4
X125.6Y-118.5
X125.8Y-70.6
X125.9Y-87.35
X125.9Y-89.25
X125.9Y-91.2
X125.9Y-111.4
X125.9Y-119.8
X126.0Y-40.8
X126.0Y-99.4
X126.05Y-58.5
X126.05Y-84.45
X126.05Y-85.45
X126.1Y-69.2
X126.1Y-72.8
X126.1Y-101.8
X126.3Y-43.05
X126.3Y-104.2
X126.3Y-106.1
X126.5Y-34.45
X126.6Y-75.7
X127.0Y-58.35
X127.1Y-29.1
X127.1Y-119.2
X127.5Y-70.6
X127.6Y-43.35
X127.8Y-113.2
X127.9Y-109.1
X127.9Y-120.3
X128.0Y-46.6
X128.1Y-49.4
X128.1Y-52.2
X128.1Y-66.5
X128.1Y-73.5
X128.15Y-26.95
X128.2Y-122.0
X128.5Y-76.2
X128.55Y-32.2
X128.65Y-41.95
X128.7Y-43.5
X128.7Y-48.0
X128.7Y-50.8
X128.7Y-53.6
X128.7Y-117.0
X128.8Y-44.55
X128.8Y-56.7
X128.9Y-71.9
X129.0Y-122.8
X129.1Y-89.35
X129.2Y-67.5
X129.5Y-75.2
X129.7Y-86.85
X129.9Y-107.3
X130.0Y-44.7
X130.2Y-90.65
X130.4Y-73.2
X130.5Y-68.7
X130.55Y-34.9
X130.55Y-88.55
X130.6Y-114.8
X130.7Y-109.9
X130.8Y-112.2
X131.2Y-105.8
X131.4Y-47.9
X131.5Y-66.0
X131.6Y-41.75
X131.6Y-45.5
X131.9Y-69.9
X132.1Y-37.2
X132.1Y-59.25
X132.2Y-49.6
X132.35Y-39.3
X132.5Y-104.8
X132.7Y-43.75
X132.7Y-111.3
X132.9Y-108.6
X133.15Y-71.75
X133.2Y-105.9
X133.3Y-63.85
X133.3Y-73.5
X133.35Y-61.45
X133.6Y-47.2
X133.8Y-67.45
X133.8Y-114.0
X133.9Y-103.9
X134.2Y-105.2
X134.3Y-40.5
X134.35Y-36.55
X134.4Y-69.55
X134.5Y-87.6
X134.6Y-79.25
X134.6Y-90.4
X134.65Y-75.1
X134.7Y-83.3
X134.7Y-89.2
X134.85Y-54.5
X134.9Y-57.15
X135.0Y-80.7
X135.0Y-84.5
X135.1Y-44.9
X135.1Y-50.8
X135.1Y-72.85
X135.1Y-104.7
X135.2Y-76.15
X135.2Y-86.2
X135.3Y-91.7
X135.3Y-112.3
X135.4Y-106.6
X135.4Y-109.7
X135.85Y-38.45
X135.95Y-48.1
X136.0Y-93.0
X136.05Y-62.85
X136.1Y-95.4
X136.1Y-98.1
X136.2Y-59.5
X136.3Y-42.1
X136.3Y-100.6
X136.5Y-106.6
X136.55Y-65.75
X136.55Y-68.15
X136.55Y-70.25
X136.55Y-75.15
X136.55Y-77.85
X136.55Y-80.45
X136.55Y-83.35
X136.6Y-85.6
X137.7Y-91.9
X137.7Y-103.1
X137.7Y-106.4
X137.8Y-85.8
X138.25Y-35.7
X138.25Y-38.1
X138.25Y-40.6
X138.25Y-43.3
X138.25Y-45.9
X138.25Y-48.8
X138.3Y-51.45
X138.3Y-53.85
X138.3Y-55.95
X138.3Y-58.35
X138.3Y-60.85
X138.3Y-63.55
X138.3Y-66.15
X138.3Y-69.05
X138.3Y-76.0
X138.3Y-78.7
X138.3Y-81.3
X138.3Y-84.2
X138.3Y-93.9
X138.3Y-96.6
X138.3Y-99.2
X138.3Y-102.1
X138.3Y-108.2
X138.3Y-110.8
X138.3Y-113.7
T6
X41.775Y-30.0
X41.775Y-120.0
X42.72Y-27.72
X42.72Y-32.28
X42.72Y-117.72
X42.72Y-122.28
X45.0Y-26.775
X45.0Y-33.225
X45.0Y-116.775
X45.0Y-123.225
X47.28Y-27.72
X47.28Y-32.28
X47.28Y-117.72
X47.28Y-122.28
X48.225Y-30.0
X48.225Y-120.0
X131.775Y-30.0
X131.775Y-120.0
X132.72Y-27.72
X132.72Y-32.28
X132.72Y-117.72
X132.72Y-122.28
X135.0Y-26.775
X135.0Y-33.225
X135.0Y-116.775
X135.0Y-123.225
X137.28Y-27.72
X137.28Y-32.28
X137.28Y-117.72
X137.28Y-122.28
X138.225Y-30.0
X138.225Y-120.0
T7
X53.35Y-41.27
X53.35Y-46.35
X53.35Y-48.89
X53.35Y-51.43
X55.89Y-40.0
X55.89Y-42.54
X55.89Y-47.62
X55.89Y-50.16
X58.43Y-41.27
T8
X112.06Y-85.5
X114.6Y-85.5
X117.14Y-85.5
X118.785Y-33.275
X118.785Y-36.975
X121.325Y-33.275
X121.325Y-36.975
X126.975Y-45.255
X126.975Y-48.025
X126.975Y-50.795
X126.975Y-53.565
X126.975Y-56.335
X129.815Y-46.64
X129.815Y-49.41
X129.815Y-52.18
X129.815Y-54.95
T9
X60.72Y-40.25
X60.72Y-42.79
X60.72Y-48.64
X60.72Y-51.18
T10
X42.56Y-106.06
X42.56Y-111.14
X45.1Y-108.6
X47.64Y-106.06
X47.64Y-111.14
T11
X50.05Y-37.97
X50.05Y-53.46
T12
X128.395Y-38.295
X128.395Y-63.295
T13
X45.0Y-30.0
X45.0Y-120.0
X135.0Y-30.0
X135.0Y-120.0
T6
G00X42.9Y-61.68
M15
G01X42.1Y-61.68
M16
G05
G00X42.9Y-70.32
M15
G01X42.1Y-70.32
M16
G05
G00X47.23Y-61.68
M15
G01X46.13Y-61.68
M16
G05
G00X47.23Y-70.32
M15
G01X46.13Y-70.32
M16
G05
M30
