%TF.GenerationSoftware,KiCad,Pcbnew,9.0.0-1.fc41*%
%TF.CreationDate,2025-03-05T15:22:43-08:00*%
%TF.ProjectId,hw_alpha,68775f61-6c70-4686-912e-6b696361645f,rev?*%
%TF.SameCoordinates,Original*%
%TF.FileFunction,Legend,Bot*%
%TF.FilePolarity,Positive*%
%FSLAX46Y46*%
G04 Gerber Fmt 4.6, Leading zero omitted, Abs format (unit mm)*
G04 Created by KiCad (PCBNEW 9.0.0-1.fc41) date 2025-03-05 15:22:43*
%MOMM*%
%LPD*%
G01*
G04 APERTURE LIST*
%ADD10C,0.150000*%
%ADD11C,0.120000*%
%ADD12C,0.152400*%
G04 APERTURE END LIST*
D10*
X117229887Y-41346009D02*
X117563220Y-41346009D01*
X117563220Y-41869819D02*
X117563220Y-40869819D01*
X117563220Y-40869819D02*
X117087030Y-40869819D01*
X116277506Y-41203152D02*
X116277506Y-41869819D01*
X116706077Y-41203152D02*
X116706077Y-41726961D01*
X116706077Y-41726961D02*
X116658458Y-41822200D01*
X116658458Y-41822200D02*
X116563220Y-41869819D01*
X116563220Y-41869819D02*
X116420363Y-41869819D01*
X116420363Y-41869819D02*
X116325125Y-41822200D01*
X116325125Y-41822200D02*
X116277506Y-41774580D01*
X115848934Y-41822200D02*
X115753696Y-41869819D01*
X115753696Y-41869819D02*
X115563220Y-41869819D01*
X115563220Y-41869819D02*
X115467982Y-41822200D01*
X115467982Y-41822200D02*
X115420363Y-41726961D01*
X115420363Y-41726961D02*
X115420363Y-41679342D01*
X115420363Y-41679342D02*
X115467982Y-41584104D01*
X115467982Y-41584104D02*
X115563220Y-41536485D01*
X115563220Y-41536485D02*
X115706077Y-41536485D01*
X115706077Y-41536485D02*
X115801315Y-41488866D01*
X115801315Y-41488866D02*
X115848934Y-41393628D01*
X115848934Y-41393628D02*
X115848934Y-41346009D01*
X115848934Y-41346009D02*
X115801315Y-41250771D01*
X115801315Y-41250771D02*
X115706077Y-41203152D01*
X115706077Y-41203152D02*
X115563220Y-41203152D01*
X115563220Y-41203152D02*
X115467982Y-41250771D01*
X114610839Y-41822200D02*
X114706077Y-41869819D01*
X114706077Y-41869819D02*
X114896553Y-41869819D01*
X114896553Y-41869819D02*
X114991791Y-41822200D01*
X114991791Y-41822200D02*
X115039410Y-41726961D01*
X115039410Y-41726961D02*
X115039410Y-41346009D01*
X115039410Y-41346009D02*
X114991791Y-41250771D01*
X114991791Y-41250771D02*
X114896553Y-41203152D01*
X114896553Y-41203152D02*
X114706077Y-41203152D01*
X114706077Y-41203152D02*
X114610839Y-41250771D01*
X114610839Y-41250771D02*
X114563220Y-41346009D01*
X114563220Y-41346009D02*
X114563220Y-41441247D01*
X114563220Y-41441247D02*
X115039410Y-41536485D01*
X113039410Y-41346009D02*
X112896553Y-41393628D01*
X112896553Y-41393628D02*
X112848934Y-41441247D01*
X112848934Y-41441247D02*
X112801315Y-41536485D01*
X112801315Y-41536485D02*
X112801315Y-41679342D01*
X112801315Y-41679342D02*
X112848934Y-41774580D01*
X112848934Y-41774580D02*
X112896553Y-41822200D01*
X112896553Y-41822200D02*
X112991791Y-41869819D01*
X112991791Y-41869819D02*
X113372743Y-41869819D01*
X113372743Y-41869819D02*
X113372743Y-40869819D01*
X113372743Y-40869819D02*
X113039410Y-40869819D01*
X113039410Y-40869819D02*
X112944172Y-40917438D01*
X112944172Y-40917438D02*
X112896553Y-40965057D01*
X112896553Y-40965057D02*
X112848934Y-41060295D01*
X112848934Y-41060295D02*
X112848934Y-41155533D01*
X112848934Y-41155533D02*
X112896553Y-41250771D01*
X112896553Y-41250771D02*
X112944172Y-41298390D01*
X112944172Y-41298390D02*
X113039410Y-41346009D01*
X113039410Y-41346009D02*
X113372743Y-41346009D01*
X112467981Y-41203152D02*
X112229886Y-41869819D01*
X111991791Y-41203152D02*
X112229886Y-41869819D01*
X112229886Y-41869819D02*
X112325124Y-42107914D01*
X112325124Y-42107914D02*
X112372743Y-42155533D01*
X112372743Y-42155533D02*
X112467981Y-42203152D01*
X111610838Y-41203152D02*
X111610838Y-42203152D01*
X111610838Y-41250771D02*
X111515600Y-41203152D01*
X111515600Y-41203152D02*
X111325124Y-41203152D01*
X111325124Y-41203152D02*
X111229886Y-41250771D01*
X111229886Y-41250771D02*
X111182267Y-41298390D01*
X111182267Y-41298390D02*
X111134648Y-41393628D01*
X111134648Y-41393628D02*
X111134648Y-41679342D01*
X111134648Y-41679342D02*
X111182267Y-41774580D01*
X111182267Y-41774580D02*
X111229886Y-41822200D01*
X111229886Y-41822200D02*
X111325124Y-41869819D01*
X111325124Y-41869819D02*
X111515600Y-41869819D01*
X111515600Y-41869819D02*
X111610838Y-41822200D01*
X110277505Y-41869819D02*
X110277505Y-41346009D01*
X110277505Y-41346009D02*
X110325124Y-41250771D01*
X110325124Y-41250771D02*
X110420362Y-41203152D01*
X110420362Y-41203152D02*
X110610838Y-41203152D01*
X110610838Y-41203152D02*
X110706076Y-41250771D01*
X110277505Y-41822200D02*
X110372743Y-41869819D01*
X110372743Y-41869819D02*
X110610838Y-41869819D01*
X110610838Y-41869819D02*
X110706076Y-41822200D01*
X110706076Y-41822200D02*
X110753695Y-41726961D01*
X110753695Y-41726961D02*
X110753695Y-41631723D01*
X110753695Y-41631723D02*
X110706076Y-41536485D01*
X110706076Y-41536485D02*
X110610838Y-41488866D01*
X110610838Y-41488866D02*
X110372743Y-41488866D01*
X110372743Y-41488866D02*
X110277505Y-41441247D01*
X109848933Y-41822200D02*
X109753695Y-41869819D01*
X109753695Y-41869819D02*
X109563219Y-41869819D01*
X109563219Y-41869819D02*
X109467981Y-41822200D01*
X109467981Y-41822200D02*
X109420362Y-41726961D01*
X109420362Y-41726961D02*
X109420362Y-41679342D01*
X109420362Y-41679342D02*
X109467981Y-41584104D01*
X109467981Y-41584104D02*
X109563219Y-41536485D01*
X109563219Y-41536485D02*
X109706076Y-41536485D01*
X109706076Y-41536485D02*
X109801314Y-41488866D01*
X109801314Y-41488866D02*
X109848933Y-41393628D01*
X109848933Y-41393628D02*
X109848933Y-41346009D01*
X109848933Y-41346009D02*
X109801314Y-41250771D01*
X109801314Y-41250771D02*
X109706076Y-41203152D01*
X109706076Y-41203152D02*
X109563219Y-41203152D01*
X109563219Y-41203152D02*
X109467981Y-41250771D01*
X109039409Y-41822200D02*
X108944171Y-41869819D01*
X108944171Y-41869819D02*
X108753695Y-41869819D01*
X108753695Y-41869819D02*
X108658457Y-41822200D01*
X108658457Y-41822200D02*
X108610838Y-41726961D01*
X108610838Y-41726961D02*
X108610838Y-41679342D01*
X108610838Y-41679342D02*
X108658457Y-41584104D01*
X108658457Y-41584104D02*
X108753695Y-41536485D01*
X108753695Y-41536485D02*
X108896552Y-41536485D01*
X108896552Y-41536485D02*
X108991790Y-41488866D01*
X108991790Y-41488866D02*
X109039409Y-41393628D01*
X109039409Y-41393628D02*
X109039409Y-41346009D01*
X109039409Y-41346009D02*
X108991790Y-41250771D01*
X108991790Y-41250771D02*
X108896552Y-41203152D01*
X108896552Y-41203152D02*
X108753695Y-41203152D01*
X108753695Y-41203152D02*
X108658457Y-41250771D01*
X115850068Y-114787030D02*
X115850068Y-115263220D01*
X115850068Y-115263220D02*
X115373878Y-115310839D01*
X115373878Y-115310839D02*
X115421497Y-115263220D01*
X115421497Y-115263220D02*
X115469116Y-115167982D01*
X115469116Y-115167982D02*
X115469116Y-114929887D01*
X115469116Y-114929887D02*
X115421497Y-114834649D01*
X115421497Y-114834649D02*
X115373878Y-114787030D01*
X115373878Y-114787030D02*
X115278640Y-114739411D01*
X115278640Y-114739411D02*
X115040545Y-114739411D01*
X115040545Y-114739411D02*
X114945307Y-114787030D01*
X114945307Y-114787030D02*
X114897688Y-114834649D01*
X114897688Y-114834649D02*
X114850068Y-114929887D01*
X114850068Y-114929887D02*
X114850068Y-115167982D01*
X114850068Y-115167982D02*
X114897688Y-115263220D01*
X114897688Y-115263220D02*
X114945307Y-115310839D01*
X115850068Y-114453696D02*
X114850068Y-114120363D01*
X114850068Y-114120363D02*
X115850068Y-113787030D01*
X114850068Y-113453696D02*
X115850068Y-113453696D01*
X115850068Y-113453696D02*
X115850068Y-113072744D01*
X115850068Y-113072744D02*
X115802449Y-112977506D01*
X115802449Y-112977506D02*
X115754830Y-112929887D01*
X115754830Y-112929887D02*
X115659592Y-112882268D01*
X115659592Y-112882268D02*
X115516735Y-112882268D01*
X115516735Y-112882268D02*
X115421497Y-112929887D01*
X115421497Y-112929887D02*
X115373878Y-112977506D01*
X115373878Y-112977506D02*
X115326259Y-113072744D01*
X115326259Y-113072744D02*
X115326259Y-113453696D01*
X114240124Y-115406077D02*
X113240124Y-115072744D01*
X113240124Y-115072744D02*
X114240124Y-114739411D01*
X114240124Y-113358458D02*
X113525839Y-113358458D01*
X113525839Y-113358458D02*
X113382982Y-113406077D01*
X113382982Y-113406077D02*
X113287744Y-113501315D01*
X113287744Y-113501315D02*
X113240124Y-113644172D01*
X113240124Y-113644172D02*
X113240124Y-113739410D01*
X113240124Y-112358458D02*
X113240124Y-112929886D01*
X113240124Y-112644172D02*
X114240124Y-112644172D01*
X114240124Y-112644172D02*
X114097267Y-112739410D01*
X114097267Y-112739410D02*
X114002029Y-112834648D01*
X114002029Y-112834648D02*
X113954410Y-112929886D01*
X113240124Y-111406077D02*
X113240124Y-111977505D01*
X113240124Y-111691791D02*
X114240124Y-111691791D01*
X114240124Y-111691791D02*
X114097267Y-111787029D01*
X114097267Y-111787029D02*
X114002029Y-111882267D01*
X114002029Y-111882267D02*
X113954410Y-111977505D01*
X112630180Y-115358458D02*
X112630180Y-114739411D01*
X112630180Y-114739411D02*
X112249228Y-115072744D01*
X112249228Y-115072744D02*
X112249228Y-114929887D01*
X112249228Y-114929887D02*
X112201609Y-114834649D01*
X112201609Y-114834649D02*
X112153990Y-114787030D01*
X112153990Y-114787030D02*
X112058752Y-114739411D01*
X112058752Y-114739411D02*
X111820657Y-114739411D01*
X111820657Y-114739411D02*
X111725419Y-114787030D01*
X111725419Y-114787030D02*
X111677800Y-114834649D01*
X111677800Y-114834649D02*
X111630180Y-114929887D01*
X111630180Y-114929887D02*
X111630180Y-115215601D01*
X111630180Y-115215601D02*
X111677800Y-115310839D01*
X111677800Y-115310839D02*
X111725419Y-115358458D01*
X112630180Y-114453696D02*
X111630180Y-114120363D01*
X111630180Y-114120363D02*
X112630180Y-113787030D01*
X112630180Y-113548934D02*
X112630180Y-112929887D01*
X112630180Y-112929887D02*
X112249228Y-113263220D01*
X112249228Y-113263220D02*
X112249228Y-113120363D01*
X112249228Y-113120363D02*
X112201609Y-113025125D01*
X112201609Y-113025125D02*
X112153990Y-112977506D01*
X112153990Y-112977506D02*
X112058752Y-112929887D01*
X112058752Y-112929887D02*
X111820657Y-112929887D01*
X111820657Y-112929887D02*
X111725419Y-112977506D01*
X111725419Y-112977506D02*
X111677800Y-113025125D01*
X111677800Y-113025125D02*
X111630180Y-113120363D01*
X111630180Y-113120363D02*
X111630180Y-113406077D01*
X111630180Y-113406077D02*
X111677800Y-113501315D01*
X111677800Y-113501315D02*
X111725419Y-113548934D01*
X111630180Y-112501315D02*
X112630180Y-112501315D01*
X112630180Y-112501315D02*
X112630180Y-112120363D01*
X112630180Y-112120363D02*
X112582561Y-112025125D01*
X112582561Y-112025125D02*
X112534942Y-111977506D01*
X112534942Y-111977506D02*
X112439704Y-111929887D01*
X112439704Y-111929887D02*
X112296847Y-111929887D01*
X112296847Y-111929887D02*
X112201609Y-111977506D01*
X112201609Y-111977506D02*
X112153990Y-112025125D01*
X112153990Y-112025125D02*
X112106371Y-112120363D01*
X112106371Y-112120363D02*
X112106371Y-112501315D01*
X131041792Y-69464636D02*
X131089411Y-69512256D01*
X131089411Y-69512256D02*
X131232268Y-69559875D01*
X131232268Y-69559875D02*
X131327506Y-69559875D01*
X131327506Y-69559875D02*
X131470363Y-69512256D01*
X131470363Y-69512256D02*
X131565601Y-69417017D01*
X131565601Y-69417017D02*
X131613220Y-69321779D01*
X131613220Y-69321779D02*
X131660839Y-69131303D01*
X131660839Y-69131303D02*
X131660839Y-68988446D01*
X131660839Y-68988446D02*
X131613220Y-68797970D01*
X131613220Y-68797970D02*
X131565601Y-68702732D01*
X131565601Y-68702732D02*
X131470363Y-68607494D01*
X131470363Y-68607494D02*
X131327506Y-68559875D01*
X131327506Y-68559875D02*
X131232268Y-68559875D01*
X131232268Y-68559875D02*
X131089411Y-68607494D01*
X131089411Y-68607494D02*
X131041792Y-68655113D01*
X130184649Y-68893208D02*
X130184649Y-69559875D01*
X130613220Y-68893208D02*
X130613220Y-69417017D01*
X130613220Y-69417017D02*
X130565601Y-69512256D01*
X130565601Y-69512256D02*
X130470363Y-69559875D01*
X130470363Y-69559875D02*
X130327506Y-69559875D01*
X130327506Y-69559875D02*
X130232268Y-69512256D01*
X130232268Y-69512256D02*
X130184649Y-69464636D01*
X129851315Y-68893208D02*
X129470363Y-68893208D01*
X129708458Y-68559875D02*
X129708458Y-69417017D01*
X129708458Y-69417017D02*
X129660839Y-69512256D01*
X129660839Y-69512256D02*
X129565601Y-69559875D01*
X129565601Y-69559875D02*
X129470363Y-69559875D01*
X128375124Y-68893208D02*
X128375124Y-69750351D01*
X128375124Y-69750351D02*
X128422743Y-69845589D01*
X128422743Y-69845589D02*
X128517981Y-69893208D01*
X128517981Y-69893208D02*
X128565600Y-69893208D01*
X128375124Y-68559875D02*
X128422743Y-68607494D01*
X128422743Y-68607494D02*
X128375124Y-68655113D01*
X128375124Y-68655113D02*
X128327505Y-68607494D01*
X128327505Y-68607494D02*
X128375124Y-68559875D01*
X128375124Y-68559875D02*
X128375124Y-68655113D01*
X127470363Y-68893208D02*
X127470363Y-69559875D01*
X127898934Y-68893208D02*
X127898934Y-69417017D01*
X127898934Y-69417017D02*
X127851315Y-69512256D01*
X127851315Y-69512256D02*
X127756077Y-69559875D01*
X127756077Y-69559875D02*
X127613220Y-69559875D01*
X127613220Y-69559875D02*
X127517982Y-69512256D01*
X127517982Y-69512256D02*
X127470363Y-69464636D01*
X126994172Y-69559875D02*
X126994172Y-68893208D01*
X126994172Y-68988446D02*
X126946553Y-68940827D01*
X126946553Y-68940827D02*
X126851315Y-68893208D01*
X126851315Y-68893208D02*
X126708458Y-68893208D01*
X126708458Y-68893208D02*
X126613220Y-68940827D01*
X126613220Y-68940827D02*
X126565601Y-69036065D01*
X126565601Y-69036065D02*
X126565601Y-69559875D01*
X126565601Y-69036065D02*
X126517982Y-68940827D01*
X126517982Y-68940827D02*
X126422744Y-68893208D01*
X126422744Y-68893208D02*
X126279887Y-68893208D01*
X126279887Y-68893208D02*
X126184648Y-68940827D01*
X126184648Y-68940827D02*
X126137029Y-69036065D01*
X126137029Y-69036065D02*
X126137029Y-69559875D01*
X125660839Y-68893208D02*
X125660839Y-69893208D01*
X125660839Y-68940827D02*
X125565601Y-68893208D01*
X125565601Y-68893208D02*
X125375125Y-68893208D01*
X125375125Y-68893208D02*
X125279887Y-68940827D01*
X125279887Y-68940827D02*
X125232268Y-68988446D01*
X125232268Y-68988446D02*
X125184649Y-69083684D01*
X125184649Y-69083684D02*
X125184649Y-69369398D01*
X125184649Y-69369398D02*
X125232268Y-69464636D01*
X125232268Y-69464636D02*
X125279887Y-69512256D01*
X125279887Y-69512256D02*
X125375125Y-69559875D01*
X125375125Y-69559875D02*
X125565601Y-69559875D01*
X125565601Y-69559875D02*
X125660839Y-69512256D01*
X124375125Y-69512256D02*
X124470363Y-69559875D01*
X124470363Y-69559875D02*
X124660839Y-69559875D01*
X124660839Y-69559875D02*
X124756077Y-69512256D01*
X124756077Y-69512256D02*
X124803696Y-69417017D01*
X124803696Y-69417017D02*
X124803696Y-69036065D01*
X124803696Y-69036065D02*
X124756077Y-68940827D01*
X124756077Y-68940827D02*
X124660839Y-68893208D01*
X124660839Y-68893208D02*
X124470363Y-68893208D01*
X124470363Y-68893208D02*
X124375125Y-68940827D01*
X124375125Y-68940827D02*
X124327506Y-69036065D01*
X124327506Y-69036065D02*
X124327506Y-69131303D01*
X124327506Y-69131303D02*
X124803696Y-69226541D01*
X123898934Y-69559875D02*
X123898934Y-68893208D01*
X123898934Y-69083684D02*
X123851315Y-68988446D01*
X123851315Y-68988446D02*
X123803696Y-68940827D01*
X123803696Y-68940827D02*
X123708458Y-68893208D01*
X123708458Y-68893208D02*
X123613220Y-68893208D01*
X123327505Y-69512256D02*
X123232267Y-69559875D01*
X123232267Y-69559875D02*
X123041791Y-69559875D01*
X123041791Y-69559875D02*
X122946553Y-69512256D01*
X122946553Y-69512256D02*
X122898934Y-69417017D01*
X122898934Y-69417017D02*
X122898934Y-69369398D01*
X122898934Y-69369398D02*
X122946553Y-69274160D01*
X122946553Y-69274160D02*
X123041791Y-69226541D01*
X123041791Y-69226541D02*
X123184648Y-69226541D01*
X123184648Y-69226541D02*
X123279886Y-69178922D01*
X123279886Y-69178922D02*
X123327505Y-69083684D01*
X123327505Y-69083684D02*
X123327505Y-69036065D01*
X123327505Y-69036065D02*
X123279886Y-68940827D01*
X123279886Y-68940827D02*
X123184648Y-68893208D01*
X123184648Y-68893208D02*
X123041791Y-68893208D01*
X123041791Y-68893208D02*
X122946553Y-68940827D01*
X122422743Y-69512256D02*
X122422743Y-69559875D01*
X122422743Y-69559875D02*
X122470362Y-69655113D01*
X122470362Y-69655113D02*
X122517981Y-69702732D01*
X121279886Y-69512256D02*
X121184648Y-69559875D01*
X121184648Y-69559875D02*
X120994172Y-69559875D01*
X120994172Y-69559875D02*
X120898934Y-69512256D01*
X120898934Y-69512256D02*
X120851315Y-69417017D01*
X120851315Y-69417017D02*
X120851315Y-69369398D01*
X120851315Y-69369398D02*
X120898934Y-69274160D01*
X120898934Y-69274160D02*
X120994172Y-69226541D01*
X120994172Y-69226541D02*
X121137029Y-69226541D01*
X121137029Y-69226541D02*
X121232267Y-69178922D01*
X121232267Y-69178922D02*
X121279886Y-69083684D01*
X121279886Y-69083684D02*
X121279886Y-69036065D01*
X121279886Y-69036065D02*
X121232267Y-68940827D01*
X121232267Y-68940827D02*
X121137029Y-68893208D01*
X121137029Y-68893208D02*
X120994172Y-68893208D01*
X120994172Y-68893208D02*
X120898934Y-68940827D01*
X120279886Y-69559875D02*
X120375124Y-69512256D01*
X120375124Y-69512256D02*
X120422743Y-69464636D01*
X120422743Y-69464636D02*
X120470362Y-69369398D01*
X120470362Y-69369398D02*
X120470362Y-69083684D01*
X120470362Y-69083684D02*
X120422743Y-68988446D01*
X120422743Y-68988446D02*
X120375124Y-68940827D01*
X120375124Y-68940827D02*
X120279886Y-68893208D01*
X120279886Y-68893208D02*
X120137029Y-68893208D01*
X120137029Y-68893208D02*
X120041791Y-68940827D01*
X120041791Y-68940827D02*
X119994172Y-68988446D01*
X119994172Y-68988446D02*
X119946553Y-69083684D01*
X119946553Y-69083684D02*
X119946553Y-69369398D01*
X119946553Y-69369398D02*
X119994172Y-69464636D01*
X119994172Y-69464636D02*
X120041791Y-69512256D01*
X120041791Y-69512256D02*
X120137029Y-69559875D01*
X120137029Y-69559875D02*
X120279886Y-69559875D01*
X119375124Y-69559875D02*
X119470362Y-69512256D01*
X119470362Y-69512256D02*
X119517981Y-69417017D01*
X119517981Y-69417017D02*
X119517981Y-68559875D01*
X118565600Y-69559875D02*
X118565600Y-68559875D01*
X118565600Y-69512256D02*
X118660838Y-69559875D01*
X118660838Y-69559875D02*
X118851314Y-69559875D01*
X118851314Y-69559875D02*
X118946552Y-69512256D01*
X118946552Y-69512256D02*
X118994171Y-69464636D01*
X118994171Y-69464636D02*
X119041790Y-69369398D01*
X119041790Y-69369398D02*
X119041790Y-69083684D01*
X119041790Y-69083684D02*
X118994171Y-68988446D01*
X118994171Y-68988446D02*
X118946552Y-68940827D01*
X118946552Y-68940827D02*
X118851314Y-68893208D01*
X118851314Y-68893208D02*
X118660838Y-68893208D01*
X118660838Y-68893208D02*
X118565600Y-68940827D01*
X117708457Y-69512256D02*
X117803695Y-69559875D01*
X117803695Y-69559875D02*
X117994171Y-69559875D01*
X117994171Y-69559875D02*
X118089409Y-69512256D01*
X118089409Y-69512256D02*
X118137028Y-69417017D01*
X118137028Y-69417017D02*
X118137028Y-69036065D01*
X118137028Y-69036065D02*
X118089409Y-68940827D01*
X118089409Y-68940827D02*
X117994171Y-68893208D01*
X117994171Y-68893208D02*
X117803695Y-68893208D01*
X117803695Y-68893208D02*
X117708457Y-68940827D01*
X117708457Y-68940827D02*
X117660838Y-69036065D01*
X117660838Y-69036065D02*
X117660838Y-69131303D01*
X117660838Y-69131303D02*
X118137028Y-69226541D01*
X117232266Y-69559875D02*
X117232266Y-68893208D01*
X117232266Y-69083684D02*
X117184647Y-68988446D01*
X117184647Y-68988446D02*
X117137028Y-68940827D01*
X117137028Y-68940827D02*
X117041790Y-68893208D01*
X117041790Y-68893208D02*
X116946552Y-68893208D01*
X115851313Y-69559875D02*
X115851313Y-68893208D01*
X115851313Y-69083684D02*
X115803694Y-68988446D01*
X115803694Y-68988446D02*
X115756075Y-68940827D01*
X115756075Y-68940827D02*
X115660837Y-68893208D01*
X115660837Y-68893208D02*
X115565599Y-68893208D01*
X115232265Y-69559875D02*
X115232265Y-68893208D01*
X115232265Y-68559875D02*
X115279884Y-68607494D01*
X115279884Y-68607494D02*
X115232265Y-68655113D01*
X115232265Y-68655113D02*
X115184646Y-68607494D01*
X115184646Y-68607494D02*
X115232265Y-68559875D01*
X115232265Y-68559875D02*
X115232265Y-68655113D01*
X114327504Y-68893208D02*
X114327504Y-69702732D01*
X114327504Y-69702732D02*
X114375123Y-69797970D01*
X114375123Y-69797970D02*
X114422742Y-69845589D01*
X114422742Y-69845589D02*
X114517980Y-69893208D01*
X114517980Y-69893208D02*
X114660837Y-69893208D01*
X114660837Y-69893208D02*
X114756075Y-69845589D01*
X114327504Y-69512256D02*
X114422742Y-69559875D01*
X114422742Y-69559875D02*
X114613218Y-69559875D01*
X114613218Y-69559875D02*
X114708456Y-69512256D01*
X114708456Y-69512256D02*
X114756075Y-69464636D01*
X114756075Y-69464636D02*
X114803694Y-69369398D01*
X114803694Y-69369398D02*
X114803694Y-69083684D01*
X114803694Y-69083684D02*
X114756075Y-68988446D01*
X114756075Y-68988446D02*
X114708456Y-68940827D01*
X114708456Y-68940827D02*
X114613218Y-68893208D01*
X114613218Y-68893208D02*
X114422742Y-68893208D01*
X114422742Y-68893208D02*
X114327504Y-68940827D01*
X113851313Y-69559875D02*
X113851313Y-68559875D01*
X113422742Y-69559875D02*
X113422742Y-69036065D01*
X113422742Y-69036065D02*
X113470361Y-68940827D01*
X113470361Y-68940827D02*
X113565599Y-68893208D01*
X113565599Y-68893208D02*
X113708456Y-68893208D01*
X113708456Y-68893208D02*
X113803694Y-68940827D01*
X113803694Y-68940827D02*
X113851313Y-68988446D01*
X113089408Y-68893208D02*
X112708456Y-68893208D01*
X112946551Y-68559875D02*
X112946551Y-69417017D01*
X112946551Y-69417017D02*
X112898932Y-69512256D01*
X112898932Y-69512256D02*
X112803694Y-69559875D01*
X112803694Y-69559875D02*
X112708456Y-69559875D01*
X111660836Y-69512256D02*
X111565598Y-69559875D01*
X111565598Y-69559875D02*
X111375122Y-69559875D01*
X111375122Y-69559875D02*
X111279884Y-69512256D01*
X111279884Y-69512256D02*
X111232265Y-69417017D01*
X111232265Y-69417017D02*
X111232265Y-69369398D01*
X111232265Y-69369398D02*
X111279884Y-69274160D01*
X111279884Y-69274160D02*
X111375122Y-69226541D01*
X111375122Y-69226541D02*
X111517979Y-69226541D01*
X111517979Y-69226541D02*
X111613217Y-69178922D01*
X111613217Y-69178922D02*
X111660836Y-69083684D01*
X111660836Y-69083684D02*
X111660836Y-69036065D01*
X111660836Y-69036065D02*
X111613217Y-68940827D01*
X111613217Y-68940827D02*
X111517979Y-68893208D01*
X111517979Y-68893208D02*
X111375122Y-68893208D01*
X111375122Y-68893208D02*
X111279884Y-68940827D01*
X110803693Y-69559875D02*
X110803693Y-68893208D01*
X110803693Y-68559875D02*
X110851312Y-68607494D01*
X110851312Y-68607494D02*
X110803693Y-68655113D01*
X110803693Y-68655113D02*
X110756074Y-68607494D01*
X110756074Y-68607494D02*
X110803693Y-68559875D01*
X110803693Y-68559875D02*
X110803693Y-68655113D01*
X109898932Y-69559875D02*
X109898932Y-68559875D01*
X109898932Y-69512256D02*
X109994170Y-69559875D01*
X109994170Y-69559875D02*
X110184646Y-69559875D01*
X110184646Y-69559875D02*
X110279884Y-69512256D01*
X110279884Y-69512256D02*
X110327503Y-69464636D01*
X110327503Y-69464636D02*
X110375122Y-69369398D01*
X110375122Y-69369398D02*
X110375122Y-69083684D01*
X110375122Y-69083684D02*
X110327503Y-68988446D01*
X110327503Y-68988446D02*
X110279884Y-68940827D01*
X110279884Y-68940827D02*
X110184646Y-68893208D01*
X110184646Y-68893208D02*
X109994170Y-68893208D01*
X109994170Y-68893208D02*
X109898932Y-68940827D01*
X109041789Y-69512256D02*
X109137027Y-69559875D01*
X109137027Y-69559875D02*
X109327503Y-69559875D01*
X109327503Y-69559875D02*
X109422741Y-69512256D01*
X109422741Y-69512256D02*
X109470360Y-69417017D01*
X109470360Y-69417017D02*
X109470360Y-69036065D01*
X109470360Y-69036065D02*
X109422741Y-68940827D01*
X109422741Y-68940827D02*
X109327503Y-68893208D01*
X109327503Y-68893208D02*
X109137027Y-68893208D01*
X109137027Y-68893208D02*
X109041789Y-68940827D01*
X109041789Y-68940827D02*
X108994170Y-69036065D01*
X108994170Y-69036065D02*
X108994170Y-69131303D01*
X108994170Y-69131303D02*
X109470360Y-69226541D01*
X108517979Y-69512256D02*
X108517979Y-69559875D01*
X108517979Y-69559875D02*
X108565598Y-69655113D01*
X108565598Y-69655113D02*
X108613217Y-69702732D01*
X106898932Y-69559875D02*
X106898932Y-69036065D01*
X106898932Y-69036065D02*
X106946551Y-68940827D01*
X106946551Y-68940827D02*
X107041789Y-68893208D01*
X107041789Y-68893208D02*
X107232265Y-68893208D01*
X107232265Y-68893208D02*
X107327503Y-68940827D01*
X106898932Y-69512256D02*
X106994170Y-69559875D01*
X106994170Y-69559875D02*
X107232265Y-69559875D01*
X107232265Y-69559875D02*
X107327503Y-69512256D01*
X107327503Y-69512256D02*
X107375122Y-69417017D01*
X107375122Y-69417017D02*
X107375122Y-69321779D01*
X107375122Y-69321779D02*
X107327503Y-69226541D01*
X107327503Y-69226541D02*
X107232265Y-69178922D01*
X107232265Y-69178922D02*
X106994170Y-69178922D01*
X106994170Y-69178922D02*
X106898932Y-69131303D01*
X106422741Y-68893208D02*
X106422741Y-69559875D01*
X106422741Y-68988446D02*
X106375122Y-68940827D01*
X106375122Y-68940827D02*
X106279884Y-68893208D01*
X106279884Y-68893208D02*
X106137027Y-68893208D01*
X106137027Y-68893208D02*
X106041789Y-68940827D01*
X106041789Y-68940827D02*
X105994170Y-69036065D01*
X105994170Y-69036065D02*
X105994170Y-69559875D01*
X105089408Y-69559875D02*
X105089408Y-68559875D01*
X105089408Y-69512256D02*
X105184646Y-69559875D01*
X105184646Y-69559875D02*
X105375122Y-69559875D01*
X105375122Y-69559875D02*
X105470360Y-69512256D01*
X105470360Y-69512256D02*
X105517979Y-69464636D01*
X105517979Y-69464636D02*
X105565598Y-69369398D01*
X105565598Y-69369398D02*
X105565598Y-69083684D01*
X105565598Y-69083684D02*
X105517979Y-68988446D01*
X105517979Y-68988446D02*
X105470360Y-68940827D01*
X105470360Y-68940827D02*
X105375122Y-68893208D01*
X105375122Y-68893208D02*
X105184646Y-68893208D01*
X105184646Y-68893208D02*
X105089408Y-68940827D01*
X103851312Y-69559875D02*
X103851312Y-68893208D01*
X103851312Y-69083684D02*
X103803693Y-68988446D01*
X103803693Y-68988446D02*
X103756074Y-68940827D01*
X103756074Y-68940827D02*
X103660836Y-68893208D01*
X103660836Y-68893208D02*
X103565598Y-68893208D01*
X102851312Y-69512256D02*
X102946550Y-69559875D01*
X102946550Y-69559875D02*
X103137026Y-69559875D01*
X103137026Y-69559875D02*
X103232264Y-69512256D01*
X103232264Y-69512256D02*
X103279883Y-69417017D01*
X103279883Y-69417017D02*
X103279883Y-69036065D01*
X103279883Y-69036065D02*
X103232264Y-68940827D01*
X103232264Y-68940827D02*
X103137026Y-68893208D01*
X103137026Y-68893208D02*
X102946550Y-68893208D01*
X102946550Y-68893208D02*
X102851312Y-68940827D01*
X102851312Y-68940827D02*
X102803693Y-69036065D01*
X102803693Y-69036065D02*
X102803693Y-69131303D01*
X102803693Y-69131303D02*
X103279883Y-69226541D01*
X102375121Y-69559875D02*
X102375121Y-68893208D01*
X102375121Y-68988446D02*
X102327502Y-68940827D01*
X102327502Y-68940827D02*
X102232264Y-68893208D01*
X102232264Y-68893208D02*
X102089407Y-68893208D01*
X102089407Y-68893208D02*
X101994169Y-68940827D01*
X101994169Y-68940827D02*
X101946550Y-69036065D01*
X101946550Y-69036065D02*
X101946550Y-69559875D01*
X101946550Y-69036065D02*
X101898931Y-68940827D01*
X101898931Y-68940827D02*
X101803693Y-68893208D01*
X101803693Y-68893208D02*
X101660836Y-68893208D01*
X101660836Y-68893208D02*
X101565597Y-68940827D01*
X101565597Y-68940827D02*
X101517978Y-69036065D01*
X101517978Y-69036065D02*
X101517978Y-69559875D01*
X100898931Y-69559875D02*
X100994169Y-69512256D01*
X100994169Y-69512256D02*
X101041788Y-69464636D01*
X101041788Y-69464636D02*
X101089407Y-69369398D01*
X101089407Y-69369398D02*
X101089407Y-69083684D01*
X101089407Y-69083684D02*
X101041788Y-68988446D01*
X101041788Y-68988446D02*
X100994169Y-68940827D01*
X100994169Y-68940827D02*
X100898931Y-68893208D01*
X100898931Y-68893208D02*
X100756074Y-68893208D01*
X100756074Y-68893208D02*
X100660836Y-68940827D01*
X100660836Y-68940827D02*
X100613217Y-68988446D01*
X100613217Y-68988446D02*
X100565598Y-69083684D01*
X100565598Y-69083684D02*
X100565598Y-69369398D01*
X100565598Y-69369398D02*
X100613217Y-69464636D01*
X100613217Y-69464636D02*
X100660836Y-69512256D01*
X100660836Y-69512256D02*
X100756074Y-69559875D01*
X100756074Y-69559875D02*
X100898931Y-69559875D01*
X100232264Y-68893208D02*
X99994169Y-69559875D01*
X99994169Y-69559875D02*
X99756074Y-68893208D01*
X98994169Y-69512256D02*
X99089407Y-69559875D01*
X99089407Y-69559875D02*
X99279883Y-69559875D01*
X99279883Y-69559875D02*
X99375121Y-69512256D01*
X99375121Y-69512256D02*
X99422740Y-69417017D01*
X99422740Y-69417017D02*
X99422740Y-69036065D01*
X99422740Y-69036065D02*
X99375121Y-68940827D01*
X99375121Y-68940827D02*
X99279883Y-68893208D01*
X99279883Y-68893208D02*
X99089407Y-68893208D01*
X99089407Y-68893208D02*
X98994169Y-68940827D01*
X98994169Y-68940827D02*
X98946550Y-69036065D01*
X98946550Y-69036065D02*
X98946550Y-69131303D01*
X98946550Y-69131303D02*
X99422740Y-69226541D01*
X97756073Y-68559875D02*
X97756073Y-69369398D01*
X97756073Y-69369398D02*
X97708454Y-69464636D01*
X97708454Y-69464636D02*
X97660835Y-69512256D01*
X97660835Y-69512256D02*
X97565597Y-69559875D01*
X97565597Y-69559875D02*
X97375121Y-69559875D01*
X97375121Y-69559875D02*
X97279883Y-69512256D01*
X97279883Y-69512256D02*
X97232264Y-69464636D01*
X97232264Y-69464636D02*
X97184645Y-69369398D01*
X97184645Y-69369398D02*
X97184645Y-68559875D01*
X96184645Y-69559875D02*
X96756073Y-69559875D01*
X96470359Y-69559875D02*
X96470359Y-68559875D01*
X96470359Y-68559875D02*
X96565597Y-68702732D01*
X96565597Y-68702732D02*
X96660835Y-68797970D01*
X96660835Y-68797970D02*
X96756073Y-68845589D01*
X131756077Y-70503152D02*
X131375125Y-70503152D01*
X131613220Y-70169819D02*
X131613220Y-71026961D01*
X131613220Y-71026961D02*
X131565601Y-71122200D01*
X131565601Y-71122200D02*
X131470363Y-71169819D01*
X131470363Y-71169819D02*
X131375125Y-71169819D01*
X130898934Y-71169819D02*
X130994172Y-71122200D01*
X130994172Y-71122200D02*
X131041791Y-71074580D01*
X131041791Y-71074580D02*
X131089410Y-70979342D01*
X131089410Y-70979342D02*
X131089410Y-70693628D01*
X131089410Y-70693628D02*
X131041791Y-70598390D01*
X131041791Y-70598390D02*
X130994172Y-70550771D01*
X130994172Y-70550771D02*
X130898934Y-70503152D01*
X130898934Y-70503152D02*
X130756077Y-70503152D01*
X130756077Y-70503152D02*
X130660839Y-70550771D01*
X130660839Y-70550771D02*
X130613220Y-70598390D01*
X130613220Y-70598390D02*
X130565601Y-70693628D01*
X130565601Y-70693628D02*
X130565601Y-70979342D01*
X130565601Y-70979342D02*
X130613220Y-71074580D01*
X130613220Y-71074580D02*
X130660839Y-71122200D01*
X130660839Y-71122200D02*
X130756077Y-71169819D01*
X130756077Y-71169819D02*
X130898934Y-71169819D01*
X128946553Y-71122200D02*
X129041791Y-71169819D01*
X129041791Y-71169819D02*
X129232267Y-71169819D01*
X129232267Y-71169819D02*
X129327505Y-71122200D01*
X129327505Y-71122200D02*
X129375124Y-71074580D01*
X129375124Y-71074580D02*
X129422743Y-70979342D01*
X129422743Y-70979342D02*
X129422743Y-70693628D01*
X129422743Y-70693628D02*
X129375124Y-70598390D01*
X129375124Y-70598390D02*
X129327505Y-70550771D01*
X129327505Y-70550771D02*
X129232267Y-70503152D01*
X129232267Y-70503152D02*
X129041791Y-70503152D01*
X129041791Y-70503152D02*
X128946553Y-70550771D01*
X128517981Y-71169819D02*
X128517981Y-70169819D01*
X128089410Y-71169819D02*
X128089410Y-70646009D01*
X128089410Y-70646009D02*
X128137029Y-70550771D01*
X128137029Y-70550771D02*
X128232267Y-70503152D01*
X128232267Y-70503152D02*
X128375124Y-70503152D01*
X128375124Y-70503152D02*
X128470362Y-70550771D01*
X128470362Y-70550771D02*
X128517981Y-70598390D01*
X127184648Y-71169819D02*
X127184648Y-70646009D01*
X127184648Y-70646009D02*
X127232267Y-70550771D01*
X127232267Y-70550771D02*
X127327505Y-70503152D01*
X127327505Y-70503152D02*
X127517981Y-70503152D01*
X127517981Y-70503152D02*
X127613219Y-70550771D01*
X127184648Y-71122200D02*
X127279886Y-71169819D01*
X127279886Y-71169819D02*
X127517981Y-71169819D01*
X127517981Y-71169819D02*
X127613219Y-71122200D01*
X127613219Y-71122200D02*
X127660838Y-71026961D01*
X127660838Y-71026961D02*
X127660838Y-70931723D01*
X127660838Y-70931723D02*
X127613219Y-70836485D01*
X127613219Y-70836485D02*
X127517981Y-70788866D01*
X127517981Y-70788866D02*
X127279886Y-70788866D01*
X127279886Y-70788866D02*
X127184648Y-70741247D01*
X126708457Y-70503152D02*
X126708457Y-71169819D01*
X126708457Y-70598390D02*
X126660838Y-70550771D01*
X126660838Y-70550771D02*
X126565600Y-70503152D01*
X126565600Y-70503152D02*
X126422743Y-70503152D01*
X126422743Y-70503152D02*
X126327505Y-70550771D01*
X126327505Y-70550771D02*
X126279886Y-70646009D01*
X126279886Y-70646009D02*
X126279886Y-71169819D01*
X125375124Y-70503152D02*
X125375124Y-71312676D01*
X125375124Y-71312676D02*
X125422743Y-71407914D01*
X125422743Y-71407914D02*
X125470362Y-71455533D01*
X125470362Y-71455533D02*
X125565600Y-71503152D01*
X125565600Y-71503152D02*
X125708457Y-71503152D01*
X125708457Y-71503152D02*
X125803695Y-71455533D01*
X125375124Y-71122200D02*
X125470362Y-71169819D01*
X125470362Y-71169819D02*
X125660838Y-71169819D01*
X125660838Y-71169819D02*
X125756076Y-71122200D01*
X125756076Y-71122200D02*
X125803695Y-71074580D01*
X125803695Y-71074580D02*
X125851314Y-70979342D01*
X125851314Y-70979342D02*
X125851314Y-70693628D01*
X125851314Y-70693628D02*
X125803695Y-70598390D01*
X125803695Y-70598390D02*
X125756076Y-70550771D01*
X125756076Y-70550771D02*
X125660838Y-70503152D01*
X125660838Y-70503152D02*
X125470362Y-70503152D01*
X125470362Y-70503152D02*
X125375124Y-70550771D01*
X124517981Y-71122200D02*
X124613219Y-71169819D01*
X124613219Y-71169819D02*
X124803695Y-71169819D01*
X124803695Y-71169819D02*
X124898933Y-71122200D01*
X124898933Y-71122200D02*
X124946552Y-71026961D01*
X124946552Y-71026961D02*
X124946552Y-70646009D01*
X124946552Y-70646009D02*
X124898933Y-70550771D01*
X124898933Y-70550771D02*
X124803695Y-70503152D01*
X124803695Y-70503152D02*
X124613219Y-70503152D01*
X124613219Y-70503152D02*
X124517981Y-70550771D01*
X124517981Y-70550771D02*
X124470362Y-70646009D01*
X124470362Y-70646009D02*
X124470362Y-70741247D01*
X124470362Y-70741247D02*
X124946552Y-70836485D01*
X122994171Y-70169819D02*
X122994171Y-70884104D01*
X122994171Y-70884104D02*
X123041790Y-71026961D01*
X123041790Y-71026961D02*
X123137028Y-71122200D01*
X123137028Y-71122200D02*
X123279885Y-71169819D01*
X123279885Y-71169819D02*
X123375123Y-71169819D01*
X122375123Y-70598390D02*
X122470361Y-70550771D01*
X122470361Y-70550771D02*
X122517980Y-70503152D01*
X122517980Y-70503152D02*
X122565599Y-70407914D01*
X122565599Y-70407914D02*
X122565599Y-70360295D01*
X122565599Y-70360295D02*
X122517980Y-70265057D01*
X122517980Y-70265057D02*
X122470361Y-70217438D01*
X122470361Y-70217438D02*
X122375123Y-70169819D01*
X122375123Y-70169819D02*
X122184647Y-70169819D01*
X122184647Y-70169819D02*
X122089409Y-70217438D01*
X122089409Y-70217438D02*
X122041790Y-70265057D01*
X122041790Y-70265057D02*
X121994171Y-70360295D01*
X121994171Y-70360295D02*
X121994171Y-70407914D01*
X121994171Y-70407914D02*
X122041790Y-70503152D01*
X122041790Y-70503152D02*
X122089409Y-70550771D01*
X122089409Y-70550771D02*
X122184647Y-70598390D01*
X122184647Y-70598390D02*
X122375123Y-70598390D01*
X122375123Y-70598390D02*
X122470361Y-70646009D01*
X122470361Y-70646009D02*
X122517980Y-70693628D01*
X122517980Y-70693628D02*
X122565599Y-70788866D01*
X122565599Y-70788866D02*
X122565599Y-70979342D01*
X122565599Y-70979342D02*
X122517980Y-71074580D01*
X122517980Y-71074580D02*
X122470361Y-71122200D01*
X122470361Y-71122200D02*
X122375123Y-71169819D01*
X122375123Y-71169819D02*
X122184647Y-71169819D01*
X122184647Y-71169819D02*
X122089409Y-71122200D01*
X122089409Y-71122200D02*
X122041790Y-71074580D01*
X122041790Y-71074580D02*
X121994171Y-70979342D01*
X121994171Y-70979342D02*
X121994171Y-70788866D01*
X121994171Y-70788866D02*
X122041790Y-70693628D01*
X122041790Y-70693628D02*
X122089409Y-70646009D01*
X122089409Y-70646009D02*
X122184647Y-70598390D01*
X120946551Y-70503152D02*
X120565599Y-70503152D01*
X120803694Y-70169819D02*
X120803694Y-71026961D01*
X120803694Y-71026961D02*
X120756075Y-71122200D01*
X120756075Y-71122200D02*
X120660837Y-71169819D01*
X120660837Y-71169819D02*
X120565599Y-71169819D01*
X120089408Y-71169819D02*
X120184646Y-71122200D01*
X120184646Y-71122200D02*
X120232265Y-71074580D01*
X120232265Y-71074580D02*
X120279884Y-70979342D01*
X120279884Y-70979342D02*
X120279884Y-70693628D01*
X120279884Y-70693628D02*
X120232265Y-70598390D01*
X120232265Y-70598390D02*
X120184646Y-70550771D01*
X120184646Y-70550771D02*
X120089408Y-70503152D01*
X120089408Y-70503152D02*
X119946551Y-70503152D01*
X119946551Y-70503152D02*
X119851313Y-70550771D01*
X119851313Y-70550771D02*
X119803694Y-70598390D01*
X119803694Y-70598390D02*
X119756075Y-70693628D01*
X119756075Y-70693628D02*
X119756075Y-70979342D01*
X119756075Y-70979342D02*
X119803694Y-71074580D01*
X119803694Y-71074580D02*
X119851313Y-71122200D01*
X119851313Y-71122200D02*
X119946551Y-71169819D01*
X119946551Y-71169819D02*
X120089408Y-71169819D01*
X118708455Y-70169819D02*
X118137027Y-70169819D01*
X118422741Y-71169819D02*
X118422741Y-70169819D01*
X117946550Y-70169819D02*
X117375122Y-70169819D01*
X117660836Y-71169819D02*
X117660836Y-70169819D01*
X116565598Y-71169819D02*
X117041788Y-71169819D01*
X117041788Y-71169819D02*
X117041788Y-70169819D01*
X115613216Y-70503152D02*
X115232264Y-70503152D01*
X115470359Y-71169819D02*
X115470359Y-70312676D01*
X115470359Y-70312676D02*
X115422740Y-70217438D01*
X115422740Y-70217438D02*
X115327502Y-70169819D01*
X115327502Y-70169819D02*
X115232264Y-70169819D01*
X114898930Y-71169819D02*
X114898930Y-70503152D01*
X114898930Y-70693628D02*
X114851311Y-70598390D01*
X114851311Y-70598390D02*
X114803692Y-70550771D01*
X114803692Y-70550771D02*
X114708454Y-70503152D01*
X114708454Y-70503152D02*
X114613216Y-70503152D01*
X114137025Y-71169819D02*
X114232263Y-71122200D01*
X114232263Y-71122200D02*
X114279882Y-71074580D01*
X114279882Y-71074580D02*
X114327501Y-70979342D01*
X114327501Y-70979342D02*
X114327501Y-70693628D01*
X114327501Y-70693628D02*
X114279882Y-70598390D01*
X114279882Y-70598390D02*
X114232263Y-70550771D01*
X114232263Y-70550771D02*
X114137025Y-70503152D01*
X114137025Y-70503152D02*
X113994168Y-70503152D01*
X113994168Y-70503152D02*
X113898930Y-70550771D01*
X113898930Y-70550771D02*
X113851311Y-70598390D01*
X113851311Y-70598390D02*
X113803692Y-70693628D01*
X113803692Y-70693628D02*
X113803692Y-70979342D01*
X113803692Y-70979342D02*
X113851311Y-71074580D01*
X113851311Y-71074580D02*
X113898930Y-71122200D01*
X113898930Y-71122200D02*
X113994168Y-71169819D01*
X113994168Y-71169819D02*
X114137025Y-71169819D01*
X113375120Y-71169819D02*
X113375120Y-70503152D01*
X113375120Y-70598390D02*
X113327501Y-70550771D01*
X113327501Y-70550771D02*
X113232263Y-70503152D01*
X113232263Y-70503152D02*
X113089406Y-70503152D01*
X113089406Y-70503152D02*
X112994168Y-70550771D01*
X112994168Y-70550771D02*
X112946549Y-70646009D01*
X112946549Y-70646009D02*
X112946549Y-71169819D01*
X112946549Y-70646009D02*
X112898930Y-70550771D01*
X112898930Y-70550771D02*
X112803692Y-70503152D01*
X112803692Y-70503152D02*
X112660835Y-70503152D01*
X112660835Y-70503152D02*
X112565596Y-70550771D01*
X112565596Y-70550771D02*
X112517977Y-70646009D01*
X112517977Y-70646009D02*
X112517977Y-71169819D01*
X110708454Y-71169819D02*
X111041787Y-70693628D01*
X111279882Y-71169819D02*
X111279882Y-70169819D01*
X111279882Y-70169819D02*
X110898930Y-70169819D01*
X110898930Y-70169819D02*
X110803692Y-70217438D01*
X110803692Y-70217438D02*
X110756073Y-70265057D01*
X110756073Y-70265057D02*
X110708454Y-70360295D01*
X110708454Y-70360295D02*
X110708454Y-70503152D01*
X110708454Y-70503152D02*
X110756073Y-70598390D01*
X110756073Y-70598390D02*
X110803692Y-70646009D01*
X110803692Y-70646009D02*
X110898930Y-70693628D01*
X110898930Y-70693628D02*
X111279882Y-70693628D01*
X110327501Y-71122200D02*
X110184644Y-71169819D01*
X110184644Y-71169819D02*
X109946549Y-71169819D01*
X109946549Y-71169819D02*
X109851311Y-71122200D01*
X109851311Y-71122200D02*
X109803692Y-71074580D01*
X109803692Y-71074580D02*
X109756073Y-70979342D01*
X109756073Y-70979342D02*
X109756073Y-70884104D01*
X109756073Y-70884104D02*
X109803692Y-70788866D01*
X109803692Y-70788866D02*
X109851311Y-70741247D01*
X109851311Y-70741247D02*
X109946549Y-70693628D01*
X109946549Y-70693628D02*
X110137025Y-70646009D01*
X110137025Y-70646009D02*
X110232263Y-70598390D01*
X110232263Y-70598390D02*
X110279882Y-70550771D01*
X110279882Y-70550771D02*
X110327501Y-70455533D01*
X110327501Y-70455533D02*
X110327501Y-70360295D01*
X110327501Y-70360295D02*
X110279882Y-70265057D01*
X110279882Y-70265057D02*
X110232263Y-70217438D01*
X110232263Y-70217438D02*
X110137025Y-70169819D01*
X110137025Y-70169819D02*
X109898930Y-70169819D01*
X109898930Y-70169819D02*
X109756073Y-70217438D01*
X109375120Y-70265057D02*
X109327501Y-70217438D01*
X109327501Y-70217438D02*
X109232263Y-70169819D01*
X109232263Y-70169819D02*
X108994168Y-70169819D01*
X108994168Y-70169819D02*
X108898930Y-70217438D01*
X108898930Y-70217438D02*
X108851311Y-70265057D01*
X108851311Y-70265057D02*
X108803692Y-70360295D01*
X108803692Y-70360295D02*
X108803692Y-70455533D01*
X108803692Y-70455533D02*
X108851311Y-70598390D01*
X108851311Y-70598390D02*
X109422739Y-71169819D01*
X109422739Y-71169819D02*
X108803692Y-71169819D01*
X108470358Y-70169819D02*
X107851311Y-70169819D01*
X107851311Y-70169819D02*
X108184644Y-70550771D01*
X108184644Y-70550771D02*
X108041787Y-70550771D01*
X108041787Y-70550771D02*
X107946549Y-70598390D01*
X107946549Y-70598390D02*
X107898930Y-70646009D01*
X107898930Y-70646009D02*
X107851311Y-70741247D01*
X107851311Y-70741247D02*
X107851311Y-70979342D01*
X107851311Y-70979342D02*
X107898930Y-71074580D01*
X107898930Y-71074580D02*
X107946549Y-71122200D01*
X107946549Y-71122200D02*
X108041787Y-71169819D01*
X108041787Y-71169819D02*
X108327501Y-71169819D01*
X108327501Y-71169819D02*
X108422739Y-71122200D01*
X108422739Y-71122200D02*
X108470358Y-71074580D01*
X107470358Y-70265057D02*
X107422739Y-70217438D01*
X107422739Y-70217438D02*
X107327501Y-70169819D01*
X107327501Y-70169819D02*
X107089406Y-70169819D01*
X107089406Y-70169819D02*
X106994168Y-70217438D01*
X106994168Y-70217438D02*
X106946549Y-70265057D01*
X106946549Y-70265057D02*
X106898930Y-70360295D01*
X106898930Y-70360295D02*
X106898930Y-70455533D01*
X106898930Y-70455533D02*
X106946549Y-70598390D01*
X106946549Y-70598390D02*
X107517977Y-71169819D01*
X107517977Y-71169819D02*
X106898930Y-71169819D01*
X89811904Y-97806819D02*
X89240476Y-97806819D01*
X89526190Y-98806819D02*
X89526190Y-97806819D01*
X88907142Y-98806819D02*
X88907142Y-97806819D01*
X88907142Y-97806819D02*
X88526190Y-97806819D01*
X88526190Y-97806819D02*
X88430952Y-97854438D01*
X88430952Y-97854438D02*
X88383333Y-97902057D01*
X88383333Y-97902057D02*
X88335714Y-97997295D01*
X88335714Y-97997295D02*
X88335714Y-98140152D01*
X88335714Y-98140152D02*
X88383333Y-98235390D01*
X88383333Y-98235390D02*
X88430952Y-98283009D01*
X88430952Y-98283009D02*
X88526190Y-98330628D01*
X88526190Y-98330628D02*
X88907142Y-98330628D01*
X87430952Y-97806819D02*
X87907142Y-97806819D01*
X87907142Y-97806819D02*
X87954761Y-98283009D01*
X87954761Y-98283009D02*
X87907142Y-98235390D01*
X87907142Y-98235390D02*
X87811904Y-98187771D01*
X87811904Y-98187771D02*
X87573809Y-98187771D01*
X87573809Y-98187771D02*
X87478571Y-98235390D01*
X87478571Y-98235390D02*
X87430952Y-98283009D01*
X87430952Y-98283009D02*
X87383333Y-98378247D01*
X87383333Y-98378247D02*
X87383333Y-98616342D01*
X87383333Y-98616342D02*
X87430952Y-98711580D01*
X87430952Y-98711580D02*
X87478571Y-98759200D01*
X87478571Y-98759200D02*
X87573809Y-98806819D01*
X87573809Y-98806819D02*
X87811904Y-98806819D01*
X87811904Y-98806819D02*
X87907142Y-98759200D01*
X87907142Y-98759200D02*
X87954761Y-98711580D01*
X99811904Y-97806819D02*
X99240476Y-97806819D01*
X99526190Y-98806819D02*
X99526190Y-97806819D01*
X98907142Y-98806819D02*
X98907142Y-97806819D01*
X98907142Y-97806819D02*
X98526190Y-97806819D01*
X98526190Y-97806819D02*
X98430952Y-97854438D01*
X98430952Y-97854438D02*
X98383333Y-97902057D01*
X98383333Y-97902057D02*
X98335714Y-97997295D01*
X98335714Y-97997295D02*
X98335714Y-98140152D01*
X98335714Y-98140152D02*
X98383333Y-98235390D01*
X98383333Y-98235390D02*
X98430952Y-98283009D01*
X98430952Y-98283009D02*
X98526190Y-98330628D01*
X98526190Y-98330628D02*
X98907142Y-98330628D01*
X97478571Y-98140152D02*
X97478571Y-98806819D01*
X97716666Y-97759200D02*
X97954761Y-98473485D01*
X97954761Y-98473485D02*
X97335714Y-98473485D01*
X83142857Y-63259580D02*
X83190476Y-63307200D01*
X83190476Y-63307200D02*
X83333333Y-63354819D01*
X83333333Y-63354819D02*
X83428571Y-63354819D01*
X83428571Y-63354819D02*
X83571428Y-63307200D01*
X83571428Y-63307200D02*
X83666666Y-63211961D01*
X83666666Y-63211961D02*
X83714285Y-63116723D01*
X83714285Y-63116723D02*
X83761904Y-62926247D01*
X83761904Y-62926247D02*
X83761904Y-62783390D01*
X83761904Y-62783390D02*
X83714285Y-62592914D01*
X83714285Y-62592914D02*
X83666666Y-62497676D01*
X83666666Y-62497676D02*
X83571428Y-62402438D01*
X83571428Y-62402438D02*
X83428571Y-62354819D01*
X83428571Y-62354819D02*
X83333333Y-62354819D01*
X83333333Y-62354819D02*
X83190476Y-62402438D01*
X83190476Y-62402438D02*
X83142857Y-62450057D01*
X82190476Y-63354819D02*
X82761904Y-63354819D01*
X82476190Y-63354819D02*
X82476190Y-62354819D01*
X82476190Y-62354819D02*
X82571428Y-62497676D01*
X82571428Y-62497676D02*
X82666666Y-62592914D01*
X82666666Y-62592914D02*
X82761904Y-62640533D01*
X81238095Y-63354819D02*
X81809523Y-63354819D01*
X81523809Y-63354819D02*
X81523809Y-62354819D01*
X81523809Y-62354819D02*
X81619047Y-62497676D01*
X81619047Y-62497676D02*
X81714285Y-62592914D01*
X81714285Y-62592914D02*
X81809523Y-62640533D01*
X83142857Y-64769580D02*
X83190476Y-64817200D01*
X83190476Y-64817200D02*
X83333333Y-64864819D01*
X83333333Y-64864819D02*
X83428571Y-64864819D01*
X83428571Y-64864819D02*
X83571428Y-64817200D01*
X83571428Y-64817200D02*
X83666666Y-64721961D01*
X83666666Y-64721961D02*
X83714285Y-64626723D01*
X83714285Y-64626723D02*
X83761904Y-64436247D01*
X83761904Y-64436247D02*
X83761904Y-64293390D01*
X83761904Y-64293390D02*
X83714285Y-64102914D01*
X83714285Y-64102914D02*
X83666666Y-64007676D01*
X83666666Y-64007676D02*
X83571428Y-63912438D01*
X83571428Y-63912438D02*
X83428571Y-63864819D01*
X83428571Y-63864819D02*
X83333333Y-63864819D01*
X83333333Y-63864819D02*
X83190476Y-63912438D01*
X83190476Y-63912438D02*
X83142857Y-63960057D01*
X82190476Y-64864819D02*
X82761904Y-64864819D01*
X82476190Y-64864819D02*
X82476190Y-63864819D01*
X82476190Y-63864819D02*
X82571428Y-64007676D01*
X82571428Y-64007676D02*
X82666666Y-64102914D01*
X82666666Y-64102914D02*
X82761904Y-64150533D01*
X81571428Y-63864819D02*
X81476190Y-63864819D01*
X81476190Y-63864819D02*
X81380952Y-63912438D01*
X81380952Y-63912438D02*
X81333333Y-63960057D01*
X81333333Y-63960057D02*
X81285714Y-64055295D01*
X81285714Y-64055295D02*
X81238095Y-64245771D01*
X81238095Y-64245771D02*
X81238095Y-64483866D01*
X81238095Y-64483866D02*
X81285714Y-64674342D01*
X81285714Y-64674342D02*
X81333333Y-64769580D01*
X81333333Y-64769580D02*
X81380952Y-64817200D01*
X81380952Y-64817200D02*
X81476190Y-64864819D01*
X81476190Y-64864819D02*
X81571428Y-64864819D01*
X81571428Y-64864819D02*
X81666666Y-64817200D01*
X81666666Y-64817200D02*
X81714285Y-64769580D01*
X81714285Y-64769580D02*
X81761904Y-64674342D01*
X81761904Y-64674342D02*
X81809523Y-64483866D01*
X81809523Y-64483866D02*
X81809523Y-64245771D01*
X81809523Y-64245771D02*
X81761904Y-64055295D01*
X81761904Y-64055295D02*
X81714285Y-63960057D01*
X81714285Y-63960057D02*
X81666666Y-63912438D01*
X81666666Y-63912438D02*
X81571428Y-63864819D01*
X60342857Y-70459580D02*
X60390476Y-70507200D01*
X60390476Y-70507200D02*
X60533333Y-70554819D01*
X60533333Y-70554819D02*
X60628571Y-70554819D01*
X60628571Y-70554819D02*
X60771428Y-70507200D01*
X60771428Y-70507200D02*
X60866666Y-70411961D01*
X60866666Y-70411961D02*
X60914285Y-70316723D01*
X60914285Y-70316723D02*
X60961904Y-70126247D01*
X60961904Y-70126247D02*
X60961904Y-69983390D01*
X60961904Y-69983390D02*
X60914285Y-69792914D01*
X60914285Y-69792914D02*
X60866666Y-69697676D01*
X60866666Y-69697676D02*
X60771428Y-69602438D01*
X60771428Y-69602438D02*
X60628571Y-69554819D01*
X60628571Y-69554819D02*
X60533333Y-69554819D01*
X60533333Y-69554819D02*
X60390476Y-69602438D01*
X60390476Y-69602438D02*
X60342857Y-69650057D01*
X59438095Y-69554819D02*
X59914285Y-69554819D01*
X59914285Y-69554819D02*
X59961904Y-70031009D01*
X59961904Y-70031009D02*
X59914285Y-69983390D01*
X59914285Y-69983390D02*
X59819047Y-69935771D01*
X59819047Y-69935771D02*
X59580952Y-69935771D01*
X59580952Y-69935771D02*
X59485714Y-69983390D01*
X59485714Y-69983390D02*
X59438095Y-70031009D01*
X59438095Y-70031009D02*
X59390476Y-70126247D01*
X59390476Y-70126247D02*
X59390476Y-70364342D01*
X59390476Y-70364342D02*
X59438095Y-70459580D01*
X59438095Y-70459580D02*
X59485714Y-70507200D01*
X59485714Y-70507200D02*
X59580952Y-70554819D01*
X59580952Y-70554819D02*
X59819047Y-70554819D01*
X59819047Y-70554819D02*
X59914285Y-70507200D01*
X59914285Y-70507200D02*
X59961904Y-70459580D01*
X58533333Y-69888152D02*
X58533333Y-70554819D01*
X58771428Y-69507200D02*
X59009523Y-70221485D01*
X59009523Y-70221485D02*
X58390476Y-70221485D01*
X62789580Y-64957142D02*
X62837200Y-64909523D01*
X62837200Y-64909523D02*
X62884819Y-64766666D01*
X62884819Y-64766666D02*
X62884819Y-64671428D01*
X62884819Y-64671428D02*
X62837200Y-64528571D01*
X62837200Y-64528571D02*
X62741961Y-64433333D01*
X62741961Y-64433333D02*
X62646723Y-64385714D01*
X62646723Y-64385714D02*
X62456247Y-64338095D01*
X62456247Y-64338095D02*
X62313390Y-64338095D01*
X62313390Y-64338095D02*
X62122914Y-64385714D01*
X62122914Y-64385714D02*
X62027676Y-64433333D01*
X62027676Y-64433333D02*
X61932438Y-64528571D01*
X61932438Y-64528571D02*
X61884819Y-64671428D01*
X61884819Y-64671428D02*
X61884819Y-64766666D01*
X61884819Y-64766666D02*
X61932438Y-64909523D01*
X61932438Y-64909523D02*
X61980057Y-64957142D01*
X61884819Y-65861904D02*
X61884819Y-65385714D01*
X61884819Y-65385714D02*
X62361009Y-65338095D01*
X62361009Y-65338095D02*
X62313390Y-65385714D01*
X62313390Y-65385714D02*
X62265771Y-65480952D01*
X62265771Y-65480952D02*
X62265771Y-65719047D01*
X62265771Y-65719047D02*
X62313390Y-65814285D01*
X62313390Y-65814285D02*
X62361009Y-65861904D01*
X62361009Y-65861904D02*
X62456247Y-65909523D01*
X62456247Y-65909523D02*
X62694342Y-65909523D01*
X62694342Y-65909523D02*
X62789580Y-65861904D01*
X62789580Y-65861904D02*
X62837200Y-65814285D01*
X62837200Y-65814285D02*
X62884819Y-65719047D01*
X62884819Y-65719047D02*
X62884819Y-65480952D01*
X62884819Y-65480952D02*
X62837200Y-65385714D01*
X62837200Y-65385714D02*
X62789580Y-65338095D01*
X61884819Y-66814285D02*
X61884819Y-66338095D01*
X61884819Y-66338095D02*
X62361009Y-66290476D01*
X62361009Y-66290476D02*
X62313390Y-66338095D01*
X62313390Y-66338095D02*
X62265771Y-66433333D01*
X62265771Y-66433333D02*
X62265771Y-66671428D01*
X62265771Y-66671428D02*
X62313390Y-66766666D01*
X62313390Y-66766666D02*
X62361009Y-66814285D01*
X62361009Y-66814285D02*
X62456247Y-66861904D01*
X62456247Y-66861904D02*
X62694342Y-66861904D01*
X62694342Y-66861904D02*
X62789580Y-66814285D01*
X62789580Y-66814285D02*
X62837200Y-66766666D01*
X62837200Y-66766666D02*
X62884819Y-66671428D01*
X62884819Y-66671428D02*
X62884819Y-66433333D01*
X62884819Y-66433333D02*
X62837200Y-66338095D01*
X62837200Y-66338095D02*
X62789580Y-66290476D01*
X94261904Y-62906819D02*
X93690476Y-62906819D01*
X93976190Y-63906819D02*
X93976190Y-62906819D01*
X93357142Y-63906819D02*
X93357142Y-62906819D01*
X93357142Y-62906819D02*
X92976190Y-62906819D01*
X92976190Y-62906819D02*
X92880952Y-62954438D01*
X92880952Y-62954438D02*
X92833333Y-63002057D01*
X92833333Y-63002057D02*
X92785714Y-63097295D01*
X92785714Y-63097295D02*
X92785714Y-63240152D01*
X92785714Y-63240152D02*
X92833333Y-63335390D01*
X92833333Y-63335390D02*
X92880952Y-63383009D01*
X92880952Y-63383009D02*
X92976190Y-63430628D01*
X92976190Y-63430628D02*
X93357142Y-63430628D01*
X92452380Y-62906819D02*
X91785714Y-62906819D01*
X91785714Y-62906819D02*
X92214285Y-63906819D01*
X90142857Y-68189580D02*
X90190476Y-68237200D01*
X90190476Y-68237200D02*
X90333333Y-68284819D01*
X90333333Y-68284819D02*
X90428571Y-68284819D01*
X90428571Y-68284819D02*
X90571428Y-68237200D01*
X90571428Y-68237200D02*
X90666666Y-68141961D01*
X90666666Y-68141961D02*
X90714285Y-68046723D01*
X90714285Y-68046723D02*
X90761904Y-67856247D01*
X90761904Y-67856247D02*
X90761904Y-67713390D01*
X90761904Y-67713390D02*
X90714285Y-67522914D01*
X90714285Y-67522914D02*
X90666666Y-67427676D01*
X90666666Y-67427676D02*
X90571428Y-67332438D01*
X90571428Y-67332438D02*
X90428571Y-67284819D01*
X90428571Y-67284819D02*
X90333333Y-67284819D01*
X90333333Y-67284819D02*
X90190476Y-67332438D01*
X90190476Y-67332438D02*
X90142857Y-67380057D01*
X89190476Y-68284819D02*
X89761904Y-68284819D01*
X89476190Y-68284819D02*
X89476190Y-67284819D01*
X89476190Y-67284819D02*
X89571428Y-67427676D01*
X89571428Y-67427676D02*
X89666666Y-67522914D01*
X89666666Y-67522914D02*
X89761904Y-67570533D01*
X88285714Y-67284819D02*
X88761904Y-67284819D01*
X88761904Y-67284819D02*
X88809523Y-67761009D01*
X88809523Y-67761009D02*
X88761904Y-67713390D01*
X88761904Y-67713390D02*
X88666666Y-67665771D01*
X88666666Y-67665771D02*
X88428571Y-67665771D01*
X88428571Y-67665771D02*
X88333333Y-67713390D01*
X88333333Y-67713390D02*
X88285714Y-67761009D01*
X88285714Y-67761009D02*
X88238095Y-67856247D01*
X88238095Y-67856247D02*
X88238095Y-68094342D01*
X88238095Y-68094342D02*
X88285714Y-68189580D01*
X88285714Y-68189580D02*
X88333333Y-68237200D01*
X88333333Y-68237200D02*
X88428571Y-68284819D01*
X88428571Y-68284819D02*
X88666666Y-68284819D01*
X88666666Y-68284819D02*
X88761904Y-68237200D01*
X88761904Y-68237200D02*
X88809523Y-68189580D01*
X83379580Y-72057142D02*
X83427200Y-72009523D01*
X83427200Y-72009523D02*
X83474819Y-71866666D01*
X83474819Y-71866666D02*
X83474819Y-71771428D01*
X83474819Y-71771428D02*
X83427200Y-71628571D01*
X83427200Y-71628571D02*
X83331961Y-71533333D01*
X83331961Y-71533333D02*
X83236723Y-71485714D01*
X83236723Y-71485714D02*
X83046247Y-71438095D01*
X83046247Y-71438095D02*
X82903390Y-71438095D01*
X82903390Y-71438095D02*
X82712914Y-71485714D01*
X82712914Y-71485714D02*
X82617676Y-71533333D01*
X82617676Y-71533333D02*
X82522438Y-71628571D01*
X82522438Y-71628571D02*
X82474819Y-71771428D01*
X82474819Y-71771428D02*
X82474819Y-71866666D01*
X82474819Y-71866666D02*
X82522438Y-72009523D01*
X82522438Y-72009523D02*
X82570057Y-72057142D01*
X82474819Y-72961904D02*
X82474819Y-72485714D01*
X82474819Y-72485714D02*
X82951009Y-72438095D01*
X82951009Y-72438095D02*
X82903390Y-72485714D01*
X82903390Y-72485714D02*
X82855771Y-72580952D01*
X82855771Y-72580952D02*
X82855771Y-72819047D01*
X82855771Y-72819047D02*
X82903390Y-72914285D01*
X82903390Y-72914285D02*
X82951009Y-72961904D01*
X82951009Y-72961904D02*
X83046247Y-73009523D01*
X83046247Y-73009523D02*
X83284342Y-73009523D01*
X83284342Y-73009523D02*
X83379580Y-72961904D01*
X83379580Y-72961904D02*
X83427200Y-72914285D01*
X83427200Y-72914285D02*
X83474819Y-72819047D01*
X83474819Y-72819047D02*
X83474819Y-72580952D01*
X83474819Y-72580952D02*
X83427200Y-72485714D01*
X83427200Y-72485714D02*
X83379580Y-72438095D01*
X83474819Y-73485714D02*
X83474819Y-73676190D01*
X83474819Y-73676190D02*
X83427200Y-73771428D01*
X83427200Y-73771428D02*
X83379580Y-73819047D01*
X83379580Y-73819047D02*
X83236723Y-73914285D01*
X83236723Y-73914285D02*
X83046247Y-73961904D01*
X83046247Y-73961904D02*
X82665295Y-73961904D01*
X82665295Y-73961904D02*
X82570057Y-73914285D01*
X82570057Y-73914285D02*
X82522438Y-73866666D01*
X82522438Y-73866666D02*
X82474819Y-73771428D01*
X82474819Y-73771428D02*
X82474819Y-73580952D01*
X82474819Y-73580952D02*
X82522438Y-73485714D01*
X82522438Y-73485714D02*
X82570057Y-73438095D01*
X82570057Y-73438095D02*
X82665295Y-73390476D01*
X82665295Y-73390476D02*
X82903390Y-73390476D01*
X82903390Y-73390476D02*
X82998628Y-73438095D01*
X82998628Y-73438095D02*
X83046247Y-73485714D01*
X83046247Y-73485714D02*
X83093866Y-73580952D01*
X83093866Y-73580952D02*
X83093866Y-73771428D01*
X83093866Y-73771428D02*
X83046247Y-73866666D01*
X83046247Y-73866666D02*
X82998628Y-73914285D01*
X82998628Y-73914285D02*
X82903390Y-73961904D01*
X62759580Y-112332142D02*
X62807200Y-112284523D01*
X62807200Y-112284523D02*
X62854819Y-112141666D01*
X62854819Y-112141666D02*
X62854819Y-112046428D01*
X62854819Y-112046428D02*
X62807200Y-111903571D01*
X62807200Y-111903571D02*
X62711961Y-111808333D01*
X62711961Y-111808333D02*
X62616723Y-111760714D01*
X62616723Y-111760714D02*
X62426247Y-111713095D01*
X62426247Y-111713095D02*
X62283390Y-111713095D01*
X62283390Y-111713095D02*
X62092914Y-111760714D01*
X62092914Y-111760714D02*
X61997676Y-111808333D01*
X61997676Y-111808333D02*
X61902438Y-111903571D01*
X61902438Y-111903571D02*
X61854819Y-112046428D01*
X61854819Y-112046428D02*
X61854819Y-112141666D01*
X61854819Y-112141666D02*
X61902438Y-112284523D01*
X61902438Y-112284523D02*
X61950057Y-112332142D01*
X61854819Y-112665476D02*
X61854819Y-113284523D01*
X61854819Y-113284523D02*
X62235771Y-112951190D01*
X62235771Y-112951190D02*
X62235771Y-113094047D01*
X62235771Y-113094047D02*
X62283390Y-113189285D01*
X62283390Y-113189285D02*
X62331009Y-113236904D01*
X62331009Y-113236904D02*
X62426247Y-113284523D01*
X62426247Y-113284523D02*
X62664342Y-113284523D01*
X62664342Y-113284523D02*
X62759580Y-113236904D01*
X62759580Y-113236904D02*
X62807200Y-113189285D01*
X62807200Y-113189285D02*
X62854819Y-113094047D01*
X62854819Y-113094047D02*
X62854819Y-112808333D01*
X62854819Y-112808333D02*
X62807200Y-112713095D01*
X62807200Y-112713095D02*
X62759580Y-112665476D01*
X61854819Y-113617857D02*
X61854819Y-114236904D01*
X61854819Y-114236904D02*
X62235771Y-113903571D01*
X62235771Y-113903571D02*
X62235771Y-114046428D01*
X62235771Y-114046428D02*
X62283390Y-114141666D01*
X62283390Y-114141666D02*
X62331009Y-114189285D01*
X62331009Y-114189285D02*
X62426247Y-114236904D01*
X62426247Y-114236904D02*
X62664342Y-114236904D01*
X62664342Y-114236904D02*
X62759580Y-114189285D01*
X62759580Y-114189285D02*
X62807200Y-114141666D01*
X62807200Y-114141666D02*
X62854819Y-114046428D01*
X62854819Y-114046428D02*
X62854819Y-113760714D01*
X62854819Y-113760714D02*
X62807200Y-113665476D01*
X62807200Y-113665476D02*
X62759580Y-113617857D01*
X84811904Y-104954819D02*
X84240476Y-104954819D01*
X84526190Y-105954819D02*
X84526190Y-104954819D01*
X83907142Y-105954819D02*
X83907142Y-104954819D01*
X83907142Y-104954819D02*
X83526190Y-104954819D01*
X83526190Y-104954819D02*
X83430952Y-105002438D01*
X83430952Y-105002438D02*
X83383333Y-105050057D01*
X83383333Y-105050057D02*
X83335714Y-105145295D01*
X83335714Y-105145295D02*
X83335714Y-105288152D01*
X83335714Y-105288152D02*
X83383333Y-105383390D01*
X83383333Y-105383390D02*
X83430952Y-105431009D01*
X83430952Y-105431009D02*
X83526190Y-105478628D01*
X83526190Y-105478628D02*
X83907142Y-105478628D01*
X82383333Y-105954819D02*
X82954761Y-105954819D01*
X82669047Y-105954819D02*
X82669047Y-104954819D01*
X82669047Y-104954819D02*
X82764285Y-105097676D01*
X82764285Y-105097676D02*
X82859523Y-105192914D01*
X82859523Y-105192914D02*
X82954761Y-105240533D01*
X104111904Y-96156819D02*
X103540476Y-96156819D01*
X103826190Y-97156819D02*
X103826190Y-96156819D01*
X103207142Y-97156819D02*
X103207142Y-96156819D01*
X103207142Y-96156819D02*
X102826190Y-96156819D01*
X102826190Y-96156819D02*
X102730952Y-96204438D01*
X102730952Y-96204438D02*
X102683333Y-96252057D01*
X102683333Y-96252057D02*
X102635714Y-96347295D01*
X102635714Y-96347295D02*
X102635714Y-96490152D01*
X102635714Y-96490152D02*
X102683333Y-96585390D01*
X102683333Y-96585390D02*
X102730952Y-96633009D01*
X102730952Y-96633009D02*
X102826190Y-96680628D01*
X102826190Y-96680628D02*
X103207142Y-96680628D01*
X102302380Y-96156819D02*
X101683333Y-96156819D01*
X101683333Y-96156819D02*
X102016666Y-96537771D01*
X102016666Y-96537771D02*
X101873809Y-96537771D01*
X101873809Y-96537771D02*
X101778571Y-96585390D01*
X101778571Y-96585390D02*
X101730952Y-96633009D01*
X101730952Y-96633009D02*
X101683333Y-96728247D01*
X101683333Y-96728247D02*
X101683333Y-96966342D01*
X101683333Y-96966342D02*
X101730952Y-97061580D01*
X101730952Y-97061580D02*
X101778571Y-97109200D01*
X101778571Y-97109200D02*
X101873809Y-97156819D01*
X101873809Y-97156819D02*
X102159523Y-97156819D01*
X102159523Y-97156819D02*
X102254761Y-97109200D01*
X102254761Y-97109200D02*
X102302380Y-97061580D01*
X61259580Y-112357142D02*
X61307200Y-112309523D01*
X61307200Y-112309523D02*
X61354819Y-112166666D01*
X61354819Y-112166666D02*
X61354819Y-112071428D01*
X61354819Y-112071428D02*
X61307200Y-111928571D01*
X61307200Y-111928571D02*
X61211961Y-111833333D01*
X61211961Y-111833333D02*
X61116723Y-111785714D01*
X61116723Y-111785714D02*
X60926247Y-111738095D01*
X60926247Y-111738095D02*
X60783390Y-111738095D01*
X60783390Y-111738095D02*
X60592914Y-111785714D01*
X60592914Y-111785714D02*
X60497676Y-111833333D01*
X60497676Y-111833333D02*
X60402438Y-111928571D01*
X60402438Y-111928571D02*
X60354819Y-112071428D01*
X60354819Y-112071428D02*
X60354819Y-112166666D01*
X60354819Y-112166666D02*
X60402438Y-112309523D01*
X60402438Y-112309523D02*
X60450057Y-112357142D01*
X60688152Y-113214285D02*
X61354819Y-113214285D01*
X60307200Y-112976190D02*
X61021485Y-112738095D01*
X61021485Y-112738095D02*
X61021485Y-113357142D01*
X60354819Y-113928571D02*
X60354819Y-114023809D01*
X60354819Y-114023809D02*
X60402438Y-114119047D01*
X60402438Y-114119047D02*
X60450057Y-114166666D01*
X60450057Y-114166666D02*
X60545295Y-114214285D01*
X60545295Y-114214285D02*
X60735771Y-114261904D01*
X60735771Y-114261904D02*
X60973866Y-114261904D01*
X60973866Y-114261904D02*
X61164342Y-114214285D01*
X61164342Y-114214285D02*
X61259580Y-114166666D01*
X61259580Y-114166666D02*
X61307200Y-114119047D01*
X61307200Y-114119047D02*
X61354819Y-114023809D01*
X61354819Y-114023809D02*
X61354819Y-113928571D01*
X61354819Y-113928571D02*
X61307200Y-113833333D01*
X61307200Y-113833333D02*
X61259580Y-113785714D01*
X61259580Y-113785714D02*
X61164342Y-113738095D01*
X61164342Y-113738095D02*
X60973866Y-113690476D01*
X60973866Y-113690476D02*
X60735771Y-113690476D01*
X60735771Y-113690476D02*
X60545295Y-113738095D01*
X60545295Y-113738095D02*
X60450057Y-113785714D01*
X60450057Y-113785714D02*
X60402438Y-113833333D01*
X60402438Y-113833333D02*
X60354819Y-113928571D01*
X83361904Y-97806819D02*
X82790476Y-97806819D01*
X83076190Y-98806819D02*
X83076190Y-97806819D01*
X82457142Y-98806819D02*
X82457142Y-97806819D01*
X82457142Y-97806819D02*
X82076190Y-97806819D01*
X82076190Y-97806819D02*
X81980952Y-97854438D01*
X81980952Y-97854438D02*
X81933333Y-97902057D01*
X81933333Y-97902057D02*
X81885714Y-97997295D01*
X81885714Y-97997295D02*
X81885714Y-98140152D01*
X81885714Y-98140152D02*
X81933333Y-98235390D01*
X81933333Y-98235390D02*
X81980952Y-98283009D01*
X81980952Y-98283009D02*
X82076190Y-98330628D01*
X82076190Y-98330628D02*
X82457142Y-98330628D01*
X81504761Y-97902057D02*
X81457142Y-97854438D01*
X81457142Y-97854438D02*
X81361904Y-97806819D01*
X81361904Y-97806819D02*
X81123809Y-97806819D01*
X81123809Y-97806819D02*
X81028571Y-97854438D01*
X81028571Y-97854438D02*
X80980952Y-97902057D01*
X80980952Y-97902057D02*
X80933333Y-97997295D01*
X80933333Y-97997295D02*
X80933333Y-98092533D01*
X80933333Y-98092533D02*
X80980952Y-98235390D01*
X80980952Y-98235390D02*
X81552380Y-98806819D01*
X81552380Y-98806819D02*
X80933333Y-98806819D01*
X97311904Y-104954819D02*
X96740476Y-104954819D01*
X97026190Y-105954819D02*
X97026190Y-104954819D01*
X96407142Y-105954819D02*
X96407142Y-104954819D01*
X96407142Y-104954819D02*
X96026190Y-104954819D01*
X96026190Y-104954819D02*
X95930952Y-105002438D01*
X95930952Y-105002438D02*
X95883333Y-105050057D01*
X95883333Y-105050057D02*
X95835714Y-105145295D01*
X95835714Y-105145295D02*
X95835714Y-105288152D01*
X95835714Y-105288152D02*
X95883333Y-105383390D01*
X95883333Y-105383390D02*
X95930952Y-105431009D01*
X95930952Y-105431009D02*
X96026190Y-105478628D01*
X96026190Y-105478628D02*
X96407142Y-105478628D01*
X94978571Y-104954819D02*
X95169047Y-104954819D01*
X95169047Y-104954819D02*
X95264285Y-105002438D01*
X95264285Y-105002438D02*
X95311904Y-105050057D01*
X95311904Y-105050057D02*
X95407142Y-105192914D01*
X95407142Y-105192914D02*
X95454761Y-105383390D01*
X95454761Y-105383390D02*
X95454761Y-105764342D01*
X95454761Y-105764342D02*
X95407142Y-105859580D01*
X95407142Y-105859580D02*
X95359523Y-105907200D01*
X95359523Y-105907200D02*
X95264285Y-105954819D01*
X95264285Y-105954819D02*
X95073809Y-105954819D01*
X95073809Y-105954819D02*
X94978571Y-105907200D01*
X94978571Y-105907200D02*
X94930952Y-105859580D01*
X94930952Y-105859580D02*
X94883333Y-105764342D01*
X94883333Y-105764342D02*
X94883333Y-105526247D01*
X94883333Y-105526247D02*
X94930952Y-105431009D01*
X94930952Y-105431009D02*
X94978571Y-105383390D01*
X94978571Y-105383390D02*
X95073809Y-105335771D01*
X95073809Y-105335771D02*
X95264285Y-105335771D01*
X95264285Y-105335771D02*
X95359523Y-105383390D01*
X95359523Y-105383390D02*
X95407142Y-105431009D01*
X95407142Y-105431009D02*
X95454761Y-105526247D01*
X85654819Y-77675491D02*
X86369104Y-77675491D01*
X86369104Y-77675491D02*
X86511961Y-77627872D01*
X86511961Y-77627872D02*
X86607200Y-77532634D01*
X86607200Y-77532634D02*
X86654819Y-77389777D01*
X86654819Y-77389777D02*
X86654819Y-77294539D01*
X86654819Y-78675491D02*
X86654819Y-78104063D01*
X86654819Y-78389777D02*
X85654819Y-78389777D01*
X85654819Y-78389777D02*
X85797676Y-78294539D01*
X85797676Y-78294539D02*
X85892914Y-78199301D01*
X85892914Y-78199301D02*
X85940533Y-78104063D01*
X85654819Y-79294539D02*
X85654819Y-79389777D01*
X85654819Y-79389777D02*
X85702438Y-79485015D01*
X85702438Y-79485015D02*
X85750057Y-79532634D01*
X85750057Y-79532634D02*
X85845295Y-79580253D01*
X85845295Y-79580253D02*
X86035771Y-79627872D01*
X86035771Y-79627872D02*
X86273866Y-79627872D01*
X86273866Y-79627872D02*
X86464342Y-79580253D01*
X86464342Y-79580253D02*
X86559580Y-79532634D01*
X86559580Y-79532634D02*
X86607200Y-79485015D01*
X86607200Y-79485015D02*
X86654819Y-79389777D01*
X86654819Y-79389777D02*
X86654819Y-79294539D01*
X86654819Y-79294539D02*
X86607200Y-79199301D01*
X86607200Y-79199301D02*
X86559580Y-79151682D01*
X86559580Y-79151682D02*
X86464342Y-79104063D01*
X86464342Y-79104063D02*
X86273866Y-79056444D01*
X86273866Y-79056444D02*
X86035771Y-79056444D01*
X86035771Y-79056444D02*
X85845295Y-79104063D01*
X85845295Y-79104063D02*
X85750057Y-79151682D01*
X85750057Y-79151682D02*
X85702438Y-79199301D01*
X85702438Y-79199301D02*
X85654819Y-79294539D01*
D11*
%TO.C,TP5*%
X87350000Y-99150000D02*
X87350000Y-101550000D01*
X87350000Y-101550000D02*
X89750000Y-101550000D01*
X89750000Y-99150000D02*
X87350000Y-99150000D01*
X89750000Y-101550000D02*
X89750000Y-99150000D01*
%TO.C,JP4*%
X114550000Y-65937292D02*
X114550000Y-66537292D01*
X115200000Y-67237292D02*
X118000000Y-67237292D01*
X117800000Y-67437292D02*
X117500000Y-67737292D01*
X117800000Y-67437292D02*
X118100000Y-67737292D01*
X118000000Y-65237292D02*
X115200000Y-65237292D01*
X118100000Y-67737292D02*
X117500000Y-67737292D01*
X118650000Y-66537292D02*
X118650000Y-65937292D01*
X114550000Y-65937292D02*
G75*
G02*
X115250000Y-65237292I700000J0D01*
G01*
X115250000Y-67237292D02*
G75*
G02*
X114550000Y-66537292I0J700000D01*
G01*
X117950000Y-65237292D02*
G75*
G02*
X118650000Y-65937292I1J-699999D01*
G01*
X118650000Y-66537292D02*
G75*
G02*
X117950000Y-67237292I-699999J-1D01*
G01*
%TO.C,JP3*%
X114550000Y-56794792D02*
X114550000Y-57394792D01*
X115200000Y-58094792D02*
X118000000Y-58094792D01*
X117800000Y-58294792D02*
X117500000Y-58594792D01*
X117800000Y-58294792D02*
X118100000Y-58594792D01*
X118000000Y-56094792D02*
X115200000Y-56094792D01*
X118100000Y-58594792D02*
X117500000Y-58594792D01*
X118650000Y-57394792D02*
X118650000Y-56794792D01*
X114550000Y-56794792D02*
G75*
G02*
X115250000Y-56094792I700000J0D01*
G01*
X115250000Y-58094792D02*
G75*
G02*
X114550000Y-57394792I0J700000D01*
G01*
X117950000Y-56094792D02*
G75*
G02*
X118650000Y-56794792I1J-699999D01*
G01*
X118650000Y-57394792D02*
G75*
G02*
X117950000Y-58094792I-699999J-1D01*
G01*
%TO.C,TP4*%
X97350000Y-99150000D02*
X97350000Y-101550000D01*
X97350000Y-101550000D02*
X99750000Y-101550000D01*
X99750000Y-99150000D02*
X97350000Y-99150000D01*
X99750000Y-101550000D02*
X99750000Y-99150000D01*
%TO.C,C11*%
X85384420Y-62380000D02*
X85665580Y-62380000D01*
X85384420Y-63400000D02*
X85665580Y-63400000D01*
%TO.C,C10*%
X85384420Y-63890000D02*
X85665580Y-63890000D01*
X85384420Y-64910000D02*
X85665580Y-64910000D01*
%TO.C,JP5*%
X111750000Y-117300000D02*
X111750000Y-117900000D01*
X112300000Y-116100000D02*
X112900000Y-116100000D01*
X112400000Y-118600000D02*
X115200000Y-118600000D01*
X112600000Y-116400000D02*
X112300000Y-116100000D01*
X112600000Y-116400000D02*
X112900000Y-116100000D01*
X115200000Y-116600000D02*
X112400000Y-116600000D01*
X115850000Y-117900000D02*
X115850000Y-117300000D01*
X111750000Y-117300000D02*
G75*
G02*
X112450000Y-116600000I699999J1D01*
G01*
X112450000Y-118600000D02*
G75*
G02*
X111750000Y-117900000I-1J699999D01*
G01*
X115150000Y-116600000D02*
G75*
G02*
X115850000Y-117300000I0J-700000D01*
G01*
X115850000Y-117900000D02*
G75*
G02*
X115150000Y-118600000I-700000J0D01*
G01*
%TO.C,C54*%
X59840580Y-68090000D02*
X59559420Y-68090000D01*
X59840580Y-69110000D02*
X59559420Y-69110000D01*
%TO.C,C55*%
X60490000Y-65740580D02*
X60490000Y-65459420D01*
X61510000Y-65740580D02*
X61510000Y-65459420D01*
%TO.C,TP7*%
X91800000Y-64250000D02*
X91800000Y-66650000D01*
X91800000Y-66650000D02*
X94200000Y-66650000D01*
X94200000Y-64250000D02*
X91800000Y-64250000D01*
X94200000Y-66650000D02*
X94200000Y-64250000D01*
%TO.C,JP1*%
X114550000Y-59794792D02*
X114550000Y-60394792D01*
X115200000Y-61094792D02*
X118000000Y-61094792D01*
X117800000Y-61294792D02*
X117500000Y-61594792D01*
X117800000Y-61294792D02*
X118100000Y-61594792D01*
X118000000Y-59094792D02*
X115200000Y-59094792D01*
X118100000Y-61594792D02*
X117500000Y-61594792D01*
X118650000Y-60394792D02*
X118650000Y-59794792D01*
X114550000Y-59794792D02*
G75*
G02*
X115250000Y-59094792I700000J0D01*
G01*
X115250000Y-61094792D02*
G75*
G02*
X114550000Y-60394792I0J700000D01*
G01*
X117950000Y-59094792D02*
G75*
G02*
X118650000Y-59794792I1J-699999D01*
G01*
X118650000Y-60394792D02*
G75*
G02*
X117950000Y-61094792I-699999J-1D01*
G01*
%TO.C,C15*%
X89359420Y-65890000D02*
X89640580Y-65890000D01*
X89359420Y-66910000D02*
X89640580Y-66910000D01*
%TO.C,C59*%
X83940000Y-72559420D02*
X83940000Y-72840580D01*
X84960000Y-72559420D02*
X84960000Y-72840580D01*
%TO.C,JP2*%
X114550000Y-62794792D02*
X114550000Y-63394792D01*
X115200000Y-64094792D02*
X118000000Y-64094792D01*
X117800000Y-64294792D02*
X117500000Y-64594792D01*
X117800000Y-64294792D02*
X118100000Y-64594792D01*
X118000000Y-62094792D02*
X115200000Y-62094792D01*
X118100000Y-64594792D02*
X117500000Y-64594792D01*
X118650000Y-63394792D02*
X118650000Y-62794792D01*
X114550000Y-62794792D02*
G75*
G02*
X115250000Y-62094792I700000J0D01*
G01*
X115250000Y-64094792D02*
G75*
G02*
X114550000Y-63394792I0J700000D01*
G01*
X117950000Y-62094792D02*
G75*
G02*
X118650000Y-62794792I1J-699999D01*
G01*
X118650000Y-63394792D02*
G75*
G02*
X117950000Y-64094792I-699999J-1D01*
G01*
%TO.C,C33*%
X61890000Y-109965580D02*
X61890000Y-109684420D01*
X62910000Y-109965580D02*
X62910000Y-109684420D01*
%TO.C,TP1*%
X82350000Y-102150000D02*
X82350000Y-104550000D01*
X82350000Y-104550000D02*
X84750000Y-104550000D01*
X84750000Y-102150000D02*
X82350000Y-102150000D01*
X84750000Y-104550000D02*
X84750000Y-102150000D01*
%TO.C,TP3*%
X101650000Y-97500000D02*
X101650000Y-99900000D01*
X101650000Y-99900000D02*
X104050000Y-99900000D01*
X104050000Y-97500000D02*
X101650000Y-97500000D01*
X104050000Y-99900000D02*
X104050000Y-97500000D01*
%TO.C,C40*%
X60390000Y-109990580D02*
X60390000Y-109709420D01*
X61410000Y-109990580D02*
X61410000Y-109709420D01*
%TO.C,TP2*%
X80900000Y-99150000D02*
X80900000Y-101550000D01*
X80900000Y-101550000D02*
X83300000Y-101550000D01*
X83300000Y-99150000D02*
X80900000Y-99150000D01*
X83300000Y-101550000D02*
X83300000Y-99150000D01*
%TO.C,TP6*%
X94850000Y-102150000D02*
X94850000Y-104550000D01*
X94850000Y-104550000D02*
X97250000Y-104550000D01*
X97250000Y-102150000D02*
X94850000Y-102150000D01*
X97250000Y-104550000D02*
X97250000Y-102150000D01*
%TO.C,JP6*%
X111925000Y-38175000D02*
X111925000Y-40175000D01*
X111925000Y-40175000D02*
X114725000Y-40175000D01*
X114725000Y-38175000D02*
X111925000Y-38175000D01*
X114725000Y-40175000D02*
X114725000Y-38175000D01*
D12*
%TO.C,J10*%
X87350000Y-70250009D02*
X89279960Y-70250009D01*
X87350000Y-72779961D02*
X87350000Y-70250009D01*
X87350000Y-79749991D02*
X87350000Y-77220039D01*
X89279960Y-79749991D02*
X87350000Y-79749991D01*
X91220039Y-70250009D02*
X92650000Y-70250009D01*
X92650000Y-70250009D02*
X92650000Y-79749991D01*
X92650000Y-79749991D02*
X91220039Y-79749991D01*
%TD*%
M02*
