%TF.GenerationSoftware,KiCad,Pcbnew,9.0.0-1.fc41*%
%TF.CreationDate,2025-03-05T15:22:44-08:00*%
%TF.ProjectId,hw_alpha,68775f61-6c70-4686-912e-6b696361645f,rev?*%
%TF.SameCoordinates,Original*%
%TF.FileFunction,Soldermask,Bot*%
%TF.FilePolarity,Negative*%
%FSLAX46Y46*%
G04 Gerber Fmt 4.6, Leading zero omitted, Abs format (unit mm)*
G04 Created by KiCad (PCBNEW 9.0.0-1.fc41) date 2025-03-05 15:22:44*
%MOMM*%
%LPD*%
G01*
G04 APERTURE LIST*
G04 Aperture macros list*
%AMRoundRect*
0 Rectangle with rounded corners*
0 $1 Rounding radius*
0 $2 $3 $4 $5 $6 $7 $8 $9 X,Y pos of 4 corners*
0 Add a 4 corners polygon primitive as box body*
4,1,4,$2,$3,$4,$5,$6,$7,$8,$9,$2,$3,0*
0 Add four circle primitives for the rounded corners*
1,1,$1+$1,$2,$3*
1,1,$1+$1,$4,$5*
1,1,$1+$1,$6,$7*
1,1,$1+$1,$8,$9*
0 Add four rect primitives between the rounded corners*
20,1,$1+$1,$2,$3,$4,$5,0*
20,1,$1+$1,$4,$5,$6,$7,0*
20,1,$1+$1,$6,$7,$8,$9,0*
20,1,$1+$1,$8,$9,$2,$3,0*%
%AMFreePoly0*
4,1,23,0.550000,-0.750000,0.000000,-0.750000,0.000000,-0.745722,-0.065263,-0.745722,-0.191342,-0.711940,-0.304381,-0.646677,-0.396677,-0.554381,-0.461940,-0.441342,-0.495722,-0.315263,-0.495722,-0.250000,-0.500000,-0.250000,-0.500000,0.250000,-0.495722,0.250000,-0.495722,0.315263,-0.461940,0.441342,-0.396677,0.554381,-0.304381,0.646677,-0.191342,0.711940,-0.065263,0.745722,0.000000,0.745722,
0.000000,0.750000,0.550000,0.750000,0.550000,-0.750000,0.550000,-0.750000,$1*%
%AMFreePoly1*
4,1,23,0.000000,0.745722,0.065263,0.745722,0.191342,0.711940,0.304381,0.646677,0.396677,0.554381,0.461940,0.441342,0.495722,0.315263,0.495722,0.250000,0.500000,0.250000,0.500000,-0.250000,0.495722,-0.250000,0.495722,-0.315263,0.461940,-0.441342,0.396677,-0.554381,0.304381,-0.646677,0.191342,-0.711940,0.065263,-0.745722,0.000000,-0.745722,0.000000,-0.750000,-0.550000,-0.750000,
-0.550000,0.750000,0.000000,0.750000,0.000000,0.745722,0.000000,0.745722,$1*%
%AMFreePoly2*
4,1,6,1.000000,0.000000,0.500000,-0.750000,-0.500000,-0.750000,-0.500000,0.750000,0.500000,0.750000,1.000000,0.000000,1.000000,0.000000,$1*%
%AMFreePoly3*
4,1,6,0.500000,-0.750000,-0.650000,-0.750000,-0.150000,0.000000,-0.650000,0.750000,0.500000,0.750000,0.500000,-0.750000,0.500000,-0.750000,$1*%
G04 Aperture macros list end*
%ADD10C,0.000000*%
%ADD11R,1.700000X1.700000*%
%ADD12O,1.700000X1.700000*%
%ADD13C,3.250000*%
%ADD14R,1.478000X1.478000*%
%ADD15C,1.478000*%
%ADD16C,1.650000*%
%ADD17C,2.475000*%
%ADD18C,0.900000*%
%ADD19C,8.600000*%
%ADD20C,2.250000*%
%ADD21C,1.100000*%
%ADD22C,1.600000*%
%ADD23C,0.650000*%
%ADD24O,2.100000X1.000000*%
%ADD25O,1.800000X1.000000*%
%ADD26C,0.630000*%
%ADD27C,4.000000*%
%ADD28R,1.600000X1.600000*%
%ADD29R,2.000000X2.000000*%
%ADD30FreePoly0,180.000000*%
%ADD31R,1.000000X1.500000*%
%ADD32FreePoly1,180.000000*%
%ADD33RoundRect,0.225000X-0.225000X-0.250000X0.225000X-0.250000X0.225000X0.250000X-0.225000X0.250000X0*%
%ADD34FreePoly0,0.000000*%
%ADD35FreePoly1,0.000000*%
%ADD36RoundRect,0.225000X0.225000X0.250000X-0.225000X0.250000X-0.225000X-0.250000X0.225000X-0.250000X0*%
%ADD37RoundRect,0.225000X0.250000X-0.225000X0.250000X0.225000X-0.250000X0.225000X-0.250000X-0.225000X0*%
%ADD38RoundRect,0.225000X-0.250000X0.225000X-0.250000X-0.225000X0.250000X-0.225000X0.250000X0.225000X0*%
%ADD39FreePoly2,0.000000*%
%ADD40FreePoly3,0.000000*%
%ADD41R,1.000000X0.300000*%
%ADD42R,1.300000X2.000000*%
G04 APERTURE END LIST*
%TO.C,JP4*%
G36*
X117350000Y-65487292D02*
G01*
X115850000Y-65487292D01*
X115850000Y-66987292D01*
X117350000Y-66987292D01*
X117350000Y-65487292D01*
G37*
%TO.C,JP3*%
G36*
X117350000Y-56344792D02*
G01*
X115850000Y-56344792D01*
X115850000Y-57844792D01*
X117350000Y-57844792D01*
X117350000Y-56344792D01*
G37*
%TO.C,JP5*%
G36*
X113050000Y-118350000D02*
G01*
X114550000Y-118350000D01*
X114550000Y-116850000D01*
X113050000Y-116850000D01*
X113050000Y-118350000D01*
G37*
%TO.C,JP1*%
G36*
X117350000Y-59344792D02*
G01*
X115850000Y-59344792D01*
X115850000Y-60844792D01*
X117350000Y-60844792D01*
X117350000Y-59344792D01*
G37*
%TO.C,JP2*%
G36*
X117350000Y-62344792D02*
G01*
X115850000Y-62344792D01*
X115850000Y-63844792D01*
X117350000Y-63844792D01*
X117350000Y-62344792D01*
G37*
%TO.C,JP6*%
G36*
X112100000Y-39925000D02*
G01*
X114550000Y-39925000D01*
X114550000Y-38425000D01*
X112100000Y-38425000D01*
X112100000Y-39925000D01*
G37*
D10*
%TO.C,G\u002A\u002A\u002A*%
G36*
X61263586Y-90151297D02*
G01*
X61253817Y-90161067D01*
X61244047Y-90151297D01*
X61253817Y-90141528D01*
X61263586Y-90151297D01*
G37*
G36*
X55051393Y-89244319D02*
G01*
X55079663Y-89262297D01*
X55078524Y-89274314D01*
X55051508Y-89281836D01*
X55027692Y-89278018D01*
X55011278Y-89262297D01*
X55014180Y-89253683D01*
X55039433Y-89242759D01*
X55051393Y-89244319D01*
G37*
G36*
X55181666Y-92490004D02*
G01*
X55181208Y-92521279D01*
X55165548Y-92568106D01*
X55164767Y-92569551D01*
X55145071Y-92595310D01*
X55134841Y-92589912D01*
X55136003Y-92560327D01*
X55150481Y-92513526D01*
X55158594Y-92494959D01*
X55172753Y-92475354D01*
X55181666Y-92490004D01*
G37*
G36*
X55141404Y-88762065D02*
G01*
X55124570Y-88777608D01*
X55085097Y-88799992D01*
X55037731Y-88821673D01*
X55002468Y-88831389D01*
X54991740Y-88821685D01*
X55000538Y-88812388D01*
X55034194Y-88794053D01*
X55078968Y-88775062D01*
X55119627Y-88761691D01*
X55140940Y-88760215D01*
X55141404Y-88762065D01*
G37*
G36*
X55854187Y-88208239D02*
G01*
X55823353Y-88243765D01*
X55808595Y-88258865D01*
X55771050Y-88291785D01*
X55747056Y-88304913D01*
X55742666Y-88303462D01*
X55747630Y-88286502D01*
X55771503Y-88257862D01*
X55805652Y-88226877D01*
X55841444Y-88202878D01*
X55856639Y-88197001D01*
X55854187Y-88208239D01*
G37*
G36*
X57250853Y-89052389D02*
G01*
X57286080Y-89092169D01*
X57293964Y-89147668D01*
X57291670Y-89156613D01*
X57265264Y-89197998D01*
X57221120Y-89237203D01*
X57189876Y-89257586D01*
X57149386Y-89277371D01*
X57116538Y-89277194D01*
X57076186Y-89259372D01*
X57043081Y-89237952D01*
X57007861Y-89189907D01*
X57010784Y-89135067D01*
X57052159Y-89075794D01*
X57076585Y-89055744D01*
X57136556Y-89031338D01*
X57197829Y-89031166D01*
X57250853Y-89052389D01*
G37*
G36*
X56177602Y-92859776D02*
G01*
X56184604Y-92877162D01*
X56193087Y-92914073D01*
X56183814Y-92948847D01*
X56153928Y-92998177D01*
X56142234Y-93014628D01*
X56092228Y-93070663D01*
X56041150Y-93112064D01*
X56030157Y-93118734D01*
X55992059Y-93141251D01*
X55974869Y-93150378D01*
X55980937Y-93138928D01*
X56003702Y-93103084D01*
X56038015Y-93051321D01*
X56065559Y-93007041D01*
X56103487Y-92935058D01*
X56127970Y-92874605D01*
X56151215Y-92797020D01*
X56177602Y-92859776D01*
G37*
G36*
X56886970Y-89008910D02*
G01*
X56886568Y-89012982D01*
X56869811Y-89027836D01*
X56853044Y-89040317D01*
X56820981Y-89077438D01*
X56781888Y-89130582D01*
X56764388Y-89156615D01*
X56730696Y-89216712D01*
X56714769Y-89272060D01*
X56710503Y-89340620D01*
X56709726Y-89390181D01*
X56706184Y-89423523D01*
X56697496Y-89428178D01*
X56681195Y-89409986D01*
X56680801Y-89409463D01*
X56657259Y-89360579D01*
X56658389Y-89304111D01*
X56685578Y-89233795D01*
X56740212Y-89143366D01*
X56761474Y-89112567D01*
X56810897Y-89048526D01*
X56850723Y-89007671D01*
X56877300Y-88993350D01*
X56886970Y-89008910D01*
G37*
G36*
X55200092Y-88852049D02*
G01*
X55251394Y-88862375D01*
X55304511Y-88885498D01*
X55346138Y-88914258D01*
X55362970Y-88941494D01*
X55363466Y-88947423D01*
X55377062Y-88989177D01*
X55403458Y-89039887D01*
X55424083Y-89082321D01*
X55429945Y-89152203D01*
X55397264Y-89218336D01*
X55394937Y-89220800D01*
X55359882Y-89236387D01*
X55307824Y-89242759D01*
X55276739Y-89241806D01*
X55253859Y-89234978D01*
X55261370Y-89219313D01*
X55284499Y-89181522D01*
X55271726Y-89155023D01*
X55225313Y-89145067D01*
X55191241Y-89140021D01*
X55131810Y-89108427D01*
X55087368Y-89057499D01*
X55069894Y-88998528D01*
X55079823Y-88958598D01*
X55111744Y-88908305D01*
X55154544Y-88868302D01*
X55196633Y-88851990D01*
X55200092Y-88852049D01*
G37*
G36*
X61435118Y-90827528D02*
G01*
X61446473Y-90877539D01*
X61476551Y-91046271D01*
X61501438Y-91242144D01*
X61520311Y-91456431D01*
X61532347Y-91680401D01*
X61536723Y-91905326D01*
X61536647Y-92011192D01*
X61535300Y-92107746D01*
X61531444Y-92183339D01*
X61523871Y-92247764D01*
X61511372Y-92310811D01*
X61492737Y-92382273D01*
X61466757Y-92471942D01*
X61437310Y-92568835D01*
X61406029Y-92666145D01*
X61377893Y-92748366D01*
X61356634Y-92804238D01*
X61341010Y-92839766D01*
X61321911Y-92879125D01*
X61312743Y-92892161D01*
X61312195Y-92886586D01*
X61313379Y-92850542D01*
X61317271Y-92788949D01*
X61323342Y-92710836D01*
X61337160Y-92540387D01*
X61357714Y-92254864D01*
X61372838Y-91990882D01*
X61383028Y-91737453D01*
X61388779Y-91483588D01*
X61390586Y-91218297D01*
X61390586Y-90644066D01*
X61435118Y-90827528D01*
G37*
G36*
X57389073Y-89106493D02*
G01*
X57422867Y-89129528D01*
X57450173Y-89179106D01*
X57466632Y-89244460D01*
X57467881Y-89314824D01*
X57466169Y-89327924D01*
X57430999Y-89436088D01*
X57360126Y-89528507D01*
X57253648Y-89605085D01*
X57111663Y-89665726D01*
X57087895Y-89672692D01*
X56991287Y-89684375D01*
X56903615Y-89670253D01*
X56836204Y-89631724D01*
X56833448Y-89629111D01*
X56802161Y-89595306D01*
X56789278Y-89573490D01*
X56789618Y-89572475D01*
X56811939Y-89563643D01*
X56862268Y-89554060D01*
X56930932Y-89545629D01*
X57024686Y-89530124D01*
X57129075Y-89499920D01*
X57224542Y-89460106D01*
X57301078Y-89414923D01*
X57348671Y-89368614D01*
X57364007Y-89337857D01*
X57371790Y-89287384D01*
X57366508Y-89213446D01*
X57363429Y-89187324D01*
X57360326Y-89136396D01*
X57366499Y-89112155D01*
X57383294Y-89105990D01*
X57389073Y-89106493D01*
G37*
G36*
X58162489Y-91414865D02*
G01*
X58170274Y-91424494D01*
X58201501Y-91481775D01*
X58236631Y-91571107D01*
X58273602Y-91687431D01*
X58296784Y-91763075D01*
X58331709Y-91866206D01*
X58366501Y-91958704D01*
X58396254Y-92026990D01*
X58415649Y-92063455D01*
X58459631Y-92139581D01*
X58518269Y-92236672D01*
X58587243Y-92347964D01*
X58662234Y-92466695D01*
X58738922Y-92586100D01*
X58812989Y-92699416D01*
X58880115Y-92799879D01*
X58935980Y-92880727D01*
X58976266Y-92935197D01*
X59045970Y-93022788D01*
X58958104Y-92954735D01*
X58935572Y-92937025D01*
X58773935Y-92790415D01*
X58638328Y-92626950D01*
X58519709Y-92435926D01*
X58477166Y-92359273D01*
X58417629Y-92256141D01*
X58360055Y-92160373D01*
X58312508Y-92085605D01*
X58276460Y-92030656D01*
X58218163Y-91939698D01*
X58154807Y-91839082D01*
X58094923Y-91742271D01*
X57968585Y-91535705D01*
X58042257Y-91450166D01*
X58115930Y-91364626D01*
X58162489Y-91414865D01*
G37*
G36*
X55935091Y-85896368D02*
G01*
X56018162Y-85908346D01*
X56102219Y-85940723D01*
X56194758Y-85997112D01*
X56303273Y-86081129D01*
X56425737Y-86183044D01*
X56361158Y-86199779D01*
X56313240Y-86221243D01*
X56286650Y-86254482D01*
X56278216Y-86276259D01*
X56261678Y-86292451D01*
X56255455Y-86288956D01*
X56227707Y-86262363D01*
X56185074Y-86215316D01*
X56133887Y-86154640D01*
X56054844Y-86062552D01*
X55989684Y-85999482D01*
X55935852Y-85966244D01*
X55888706Y-85961100D01*
X55843604Y-85982314D01*
X55795907Y-86028148D01*
X55744345Y-86103251D01*
X55707245Y-86210747D01*
X55695233Y-86343316D01*
X55694283Y-86389045D01*
X55689645Y-86478038D01*
X55682465Y-86564141D01*
X55674420Y-86620889D01*
X55664254Y-86660356D01*
X55654697Y-86669584D01*
X55642410Y-86647013D01*
X55622070Y-86597262D01*
X55598972Y-86532414D01*
X55596703Y-86525533D01*
X55564086Y-86382093D01*
X55561011Y-86249950D01*
X55585500Y-86133032D01*
X55635576Y-86035262D01*
X55709262Y-85960566D01*
X55804580Y-85912870D01*
X55919551Y-85896099D01*
X55935091Y-85896368D01*
G37*
G36*
X55495679Y-91987640D02*
G01*
X55491078Y-92031519D01*
X55473966Y-92110676D01*
X55466523Y-92140015D01*
X55445024Y-92195496D01*
X55410480Y-92240778D01*
X55352678Y-92291048D01*
X55286128Y-92341551D01*
X55224021Y-92379160D01*
X55162333Y-92401118D01*
X55087917Y-92411925D01*
X54987629Y-92416086D01*
X54955278Y-92416972D01*
X54882067Y-92420945D01*
X54828239Y-92426683D01*
X54803641Y-92433267D01*
X54779906Y-92444086D01*
X54726783Y-92442535D01*
X54659993Y-92425373D01*
X54589937Y-92397020D01*
X54527019Y-92361897D01*
X54481639Y-92324424D01*
X54464201Y-92289022D01*
X54465194Y-92285311D01*
X54489383Y-92274393D01*
X54537073Y-92271330D01*
X54596407Y-92275451D01*
X54655525Y-92286081D01*
X54702570Y-92302548D01*
X54718662Y-92310123D01*
X54764094Y-92322829D01*
X54823550Y-92325840D01*
X54909181Y-92320192D01*
X54989069Y-92310196D01*
X55054176Y-92293697D01*
X55118727Y-92265279D01*
X55198761Y-92219356D01*
X55209425Y-92212766D01*
X55289331Y-92157283D01*
X55364846Y-92095824D01*
X55420900Y-92040520D01*
X55460448Y-91996602D01*
X55486043Y-91976761D01*
X55495679Y-91987640D01*
G37*
G36*
X57927641Y-86025090D02*
G01*
X57903533Y-86062422D01*
X57828280Y-86177251D01*
X57767518Y-86266442D01*
X57716828Y-86336137D01*
X57671792Y-86392476D01*
X57627991Y-86441603D01*
X57546379Y-86537086D01*
X57460809Y-86656845D01*
X57390949Y-86776367D01*
X57344395Y-86883811D01*
X57311038Y-86984241D01*
X57284498Y-86880538D01*
X57273440Y-86842982D01*
X57246384Y-86773109D01*
X57218226Y-86721036D01*
X57202545Y-86700513D01*
X57133278Y-86633434D01*
X57055015Y-86585943D01*
X56977314Y-86562764D01*
X56909736Y-86568620D01*
X56895126Y-86572774D01*
X56863971Y-86570368D01*
X56824876Y-86548957D01*
X56768114Y-86504108D01*
X56757961Y-86495528D01*
X56711118Y-86454107D01*
X56689530Y-86427672D01*
X56688727Y-86408023D01*
X56704236Y-86386960D01*
X56716227Y-86375075D01*
X56742869Y-86359279D01*
X56779336Y-86353789D01*
X56832494Y-86358947D01*
X56909210Y-86375097D01*
X57016350Y-86402583D01*
X57022509Y-86404225D01*
X57130301Y-86431788D01*
X57213258Y-86449895D01*
X57283204Y-86460810D01*
X57351964Y-86466793D01*
X57361222Y-86471013D01*
X57387201Y-86501286D01*
X57414288Y-86550817D01*
X57451233Y-86633337D01*
X57473047Y-86575963D01*
X57479375Y-86557923D01*
X57498052Y-86494347D01*
X57514987Y-86424740D01*
X57534499Y-86359428D01*
X57593024Y-86247141D01*
X57675250Y-86147226D01*
X57773175Y-86068583D01*
X57878795Y-86020114D01*
X57901186Y-86014219D01*
X57928769Y-86011768D01*
X57927641Y-86025090D01*
G37*
G36*
X55930405Y-86177976D02*
G01*
X55976524Y-86213961D01*
X56032697Y-86264768D01*
X56107593Y-86336459D01*
X56171858Y-86396778D01*
X56216498Y-86435888D01*
X56246075Y-86456960D01*
X56265152Y-86463165D01*
X56278289Y-86457674D01*
X56290050Y-86443658D01*
X56298067Y-86433624D01*
X56314138Y-86423186D01*
X56331480Y-86431494D01*
X56353575Y-86462861D01*
X56383904Y-86521601D01*
X56425948Y-86612028D01*
X56458651Y-86684676D01*
X56476798Y-86729735D01*
X56480801Y-86752062D01*
X56471788Y-86758087D01*
X56450884Y-86754237D01*
X56428779Y-86750698D01*
X56353780Y-86758256D01*
X56279206Y-86787849D01*
X56223552Y-86833067D01*
X56196483Y-86884543D01*
X56183586Y-86950778D01*
X56183537Y-86956473D01*
X56177623Y-86997863D01*
X56162937Y-87004919D01*
X56158943Y-87002837D01*
X56116373Y-87000135D01*
X56063729Y-87016260D01*
X56018875Y-87046107D01*
X56011399Y-87054581D01*
X55990071Y-87109463D01*
X55997364Y-87171456D01*
X56032163Y-87225478D01*
X56057659Y-87244636D01*
X56116041Y-87277673D01*
X56183586Y-87307694D01*
X56226977Y-87325120D01*
X56301124Y-87357853D01*
X56359432Y-87387019D01*
X56427817Y-87425197D01*
X56300817Y-87414745D01*
X56245678Y-87411626D01*
X56173992Y-87415656D01*
X56124970Y-87432498D01*
X56086620Y-87450676D01*
X56057872Y-87456646D01*
X56039495Y-87440109D01*
X56009060Y-87395100D01*
X55972450Y-87330389D01*
X55934237Y-87254611D01*
X55898994Y-87176400D01*
X55871296Y-87104388D01*
X55847156Y-87011517D01*
X55833348Y-86850388D01*
X55833872Y-86822305D01*
X55837422Y-86734409D01*
X55843562Y-86633093D01*
X55851607Y-86525847D01*
X55860871Y-86420162D01*
X55870666Y-86323529D01*
X55880305Y-86243437D01*
X55889103Y-86187379D01*
X55896372Y-86162844D01*
X55901551Y-86162204D01*
X55930405Y-86177976D01*
G37*
G36*
X55757651Y-92358083D02*
G01*
X55732473Y-92440363D01*
X55694105Y-92531764D01*
X55645687Y-92622913D01*
X55643015Y-92627435D01*
X55594863Y-92721489D01*
X55550586Y-92829312D01*
X55514151Y-92939032D01*
X55489526Y-93038775D01*
X55480679Y-93116670D01*
X55481043Y-93131714D01*
X55488146Y-93210319D01*
X55501327Y-93286837D01*
X55507767Y-93317528D01*
X55521365Y-93391757D01*
X55536640Y-93483607D01*
X55551346Y-93579914D01*
X55560246Y-93640909D01*
X55573356Y-93729758D01*
X55584350Y-93803116D01*
X55591502Y-93849390D01*
X55588785Y-93931877D01*
X55553970Y-94011519D01*
X55491528Y-94070997D01*
X55444195Y-94093294D01*
X55357477Y-94104768D01*
X55274251Y-94082256D01*
X55201976Y-94028470D01*
X55148112Y-93946122D01*
X55137711Y-93916994D01*
X55119506Y-93844729D01*
X55102574Y-93754224D01*
X55089556Y-93658451D01*
X55083054Y-93601785D01*
X55070601Y-93506264D01*
X55058019Y-93423024D01*
X55047230Y-93365374D01*
X55034576Y-93288799D01*
X55026847Y-93184014D01*
X55026819Y-93160220D01*
X55216693Y-93160220D01*
X55217499Y-93235051D01*
X55221129Y-93358233D01*
X55226994Y-93477921D01*
X55234337Y-93576326D01*
X55242480Y-93650817D01*
X55253730Y-93717471D01*
X55267372Y-93756915D01*
X55285108Y-93775838D01*
X55305620Y-93782752D01*
X55350653Y-93770040D01*
X55353014Y-93768253D01*
X55367882Y-93750996D01*
X55373882Y-93723423D01*
X55371623Y-93676161D01*
X55361715Y-93599836D01*
X55355093Y-93547130D01*
X55345197Y-93447017D01*
X55336350Y-93334390D01*
X55329896Y-93225070D01*
X55319173Y-92996842D01*
X55389918Y-92853666D01*
X55397691Y-92837631D01*
X55429701Y-92764413D01*
X55452179Y-92701254D01*
X55460663Y-92660347D01*
X55469281Y-92626013D01*
X55500223Y-92566494D01*
X55548586Y-92496977D01*
X55553131Y-92491090D01*
X55595311Y-92432833D01*
X55625174Y-92385177D01*
X55636509Y-92357946D01*
X55636296Y-92351089D01*
X55625863Y-92326490D01*
X55598056Y-92329551D01*
X55550549Y-92361237D01*
X55481013Y-92422514D01*
X55451297Y-92450758D01*
X55400741Y-92503429D01*
X55368244Y-92549886D01*
X55345651Y-92603438D01*
X55324803Y-92677394D01*
X55324017Y-92680446D01*
X55300839Y-92758382D01*
X55275155Y-92827364D01*
X55252379Y-92872779D01*
X55239625Y-92895131D01*
X55227999Y-92930839D01*
X55220965Y-92981589D01*
X55217527Y-93055383D01*
X55216693Y-93160220D01*
X55026819Y-93160220D01*
X55026719Y-93076103D01*
X55034137Y-92978895D01*
X55049046Y-92906220D01*
X55053103Y-92894604D01*
X55077258Y-92832916D01*
X55110820Y-92753915D01*
X55147825Y-92671759D01*
X55163342Y-92639218D01*
X55202699Y-92566752D01*
X55247307Y-92502996D01*
X55305551Y-92436867D01*
X55385819Y-92357282D01*
X55448094Y-92300222D01*
X55514916Y-92244441D01*
X55570070Y-92204120D01*
X55605662Y-92185429D01*
X55606216Y-92185292D01*
X55670969Y-92187039D01*
X55728240Y-92218273D01*
X55763468Y-92271090D01*
X55766503Y-92294299D01*
X55757670Y-92357946D01*
X55757651Y-92358083D01*
G37*
G36*
X60957668Y-87521500D02*
G01*
X60959326Y-87528614D01*
X60988061Y-87645396D01*
X61011225Y-87726095D01*
X61028552Y-87769886D01*
X61039776Y-87775946D01*
X61040819Y-87773534D01*
X61046333Y-87739589D01*
X61051862Y-87674152D01*
X61057033Y-87583569D01*
X61061471Y-87474181D01*
X61064800Y-87352333D01*
X61067129Y-87244100D01*
X61069923Y-87137098D01*
X61073199Y-87059351D01*
X61077681Y-87005366D01*
X61084094Y-86969648D01*
X61093160Y-86946703D01*
X61105606Y-86931037D01*
X61122154Y-86917156D01*
X61173171Y-86887998D01*
X61238081Y-86882704D01*
X61297715Y-86913378D01*
X61349096Y-86978255D01*
X61389244Y-87075568D01*
X61396681Y-87101353D01*
X61418750Y-87189943D01*
X61437438Y-87288121D01*
X61453843Y-87403256D01*
X61469061Y-87542718D01*
X61484186Y-87713874D01*
X61491108Y-87803682D01*
X61497007Y-87902861D01*
X61497885Y-87968317D01*
X61493578Y-88003045D01*
X61483918Y-88010040D01*
X61468740Y-87992297D01*
X61467967Y-87991209D01*
X61439816Y-87978142D01*
X61392097Y-87972759D01*
X61387739Y-87972814D01*
X61330839Y-87985763D01*
X61277922Y-88024323D01*
X61224771Y-88092659D01*
X61167171Y-88194935D01*
X61157661Y-88212907D01*
X61109257Y-88293313D01*
X61048715Y-88382449D01*
X60986883Y-88464114D01*
X60935312Y-88525158D01*
X60875072Y-88585679D01*
X60813962Y-88630977D01*
X60739680Y-88671365D01*
X60718806Y-88681718D01*
X60623757Y-88736575D01*
X60562431Y-88789548D01*
X60530832Y-88845028D01*
X60524967Y-88907408D01*
X60525926Y-88916998D01*
X60542936Y-88971723D01*
X60583763Y-89007302D01*
X60597273Y-89014462D01*
X60620985Y-89022292D01*
X60648425Y-89020584D01*
X60687274Y-89007112D01*
X60745213Y-88979650D01*
X60829922Y-88935972D01*
X61023212Y-88835103D01*
X61050591Y-88897277D01*
X61053438Y-88903420D01*
X61080317Y-88943188D01*
X61107009Y-88959451D01*
X61122802Y-88946806D01*
X61154431Y-88901508D01*
X61198550Y-88826380D01*
X61253430Y-88724640D01*
X61317344Y-88599508D01*
X61388564Y-88454201D01*
X61465362Y-88291938D01*
X61483108Y-88253599D01*
X61510175Y-88190799D01*
X61526446Y-88139314D01*
X61534297Y-88086550D01*
X61536105Y-88019917D01*
X61534244Y-87926821D01*
X61533361Y-87877154D01*
X61536330Y-87777927D01*
X61548628Y-87709934D01*
X61572678Y-87667900D01*
X61610906Y-87646549D01*
X61665734Y-87640605D01*
X61722507Y-87651650D01*
X61768741Y-87691079D01*
X61800061Y-87762013D01*
X61818501Y-87867469D01*
X61820145Y-87883113D01*
X61829904Y-87949867D01*
X61846349Y-87998633D01*
X61876494Y-88044583D01*
X61927357Y-88102891D01*
X61955710Y-88135206D01*
X62059152Y-88284841D01*
X62125810Y-88443256D01*
X62127140Y-88450789D01*
X62154932Y-88608139D01*
X62145770Y-88777175D01*
X62133029Y-88854894D01*
X62116065Y-88962057D01*
X62101594Y-89057143D01*
X62087911Y-89143845D01*
X62069208Y-89238043D01*
X62050132Y-89301386D01*
X62029118Y-89338673D01*
X62004602Y-89354706D01*
X61983243Y-89364242D01*
X61966970Y-89386754D01*
X61968460Y-89399684D01*
X61980658Y-89451263D01*
X62003736Y-89531374D01*
X62035989Y-89634481D01*
X62075711Y-89755044D01*
X62121196Y-89887528D01*
X62149768Y-89972060D01*
X62193061Y-90120345D01*
X62218495Y-90245655D01*
X62227328Y-90355166D01*
X62220818Y-90456058D01*
X62219838Y-90462852D01*
X62199672Y-90564423D01*
X62168253Y-90684172D01*
X62129946Y-90807910D01*
X62089121Y-90921448D01*
X62050143Y-91010596D01*
X62041406Y-91028068D01*
X62022716Y-91070448D01*
X62011697Y-91110952D01*
X62007114Y-91159794D01*
X62007729Y-91227189D01*
X62012309Y-91323351D01*
X62018244Y-91401918D01*
X62032217Y-91529118D01*
X62050778Y-91662255D01*
X62071533Y-91782759D01*
X62084412Y-91851788D01*
X62104875Y-91977645D01*
X62123129Y-92114603D01*
X62123773Y-92120534D01*
X62139976Y-92269653D01*
X62156222Y-92449785D01*
X62172670Y-92661990D01*
X62175871Y-92703910D01*
X62191166Y-92857963D01*
X62211751Y-92991627D01*
X62240320Y-93119918D01*
X62279567Y-93257852D01*
X62313770Y-93386127D01*
X62335800Y-93536652D01*
X62331535Y-93671727D01*
X62301271Y-93798749D01*
X62296226Y-93813297D01*
X62273903Y-93873806D01*
X62249817Y-93930314D01*
X62220117Y-93990213D01*
X62180954Y-94060891D01*
X62128480Y-94149738D01*
X62058845Y-94264143D01*
X62008984Y-94344269D01*
X61935899Y-94454692D01*
X61872665Y-94537815D01*
X61814411Y-94598403D01*
X61756263Y-94641223D01*
X61693349Y-94671041D01*
X61620798Y-94692621D01*
X61565846Y-94702657D01*
X61497229Y-94703901D01*
X61423769Y-94690407D01*
X61338720Y-94660191D01*
X61235334Y-94611272D01*
X61106863Y-94541669D01*
X61059590Y-94517254D01*
X60949118Y-94469493D01*
X60819499Y-94421924D01*
X60683347Y-94378713D01*
X60553277Y-94344028D01*
X60441903Y-94322035D01*
X60439333Y-94321666D01*
X60340214Y-94312721D01*
X60223464Y-94309876D01*
X60109497Y-94313648D01*
X59986052Y-94318179D01*
X59884198Y-94310398D01*
X59801330Y-94287053D01*
X59727848Y-94245383D01*
X59654150Y-94182625D01*
X59636327Y-94165183D01*
X59591604Y-94116144D01*
X59572418Y-94081820D01*
X59574412Y-94055256D01*
X59577023Y-94047480D01*
X59585245Y-94002076D01*
X59590969Y-93949723D01*
X59696177Y-93949723D01*
X59700969Y-93993596D01*
X59733352Y-94066038D01*
X59797810Y-94117403D01*
X59869516Y-94142527D01*
X59948092Y-94139720D01*
X60038326Y-94105355D01*
X60039457Y-94104782D01*
X60113160Y-94062158D01*
X60205177Y-94001417D01*
X60304780Y-93930220D01*
X60401242Y-93856230D01*
X60483836Y-93787110D01*
X60513803Y-93762414D01*
X60584531Y-93710660D01*
X60669806Y-93653638D01*
X60757238Y-93599836D01*
X60810370Y-93568194D01*
X60896054Y-93515093D01*
X60971383Y-93466063D01*
X61024524Y-93428682D01*
X61108119Y-93364991D01*
X61095105Y-93418913D01*
X61081775Y-93466746D01*
X61054975Y-93549791D01*
X61021521Y-93645443D01*
X60985946Y-93741212D01*
X60952784Y-93824609D01*
X60926571Y-93883143D01*
X60919276Y-93897046D01*
X60880215Y-93962044D01*
X60840839Y-94016527D01*
X60816171Y-94053043D01*
X60793189Y-94132953D01*
X60805191Y-94213615D01*
X60851775Y-94285185D01*
X60881621Y-94310213D01*
X60958083Y-94341086D01*
X61042780Y-94335437D01*
X61131463Y-94293146D01*
X61174485Y-94254817D01*
X61231486Y-94175522D01*
X61289298Y-94062182D01*
X61348725Y-93913164D01*
X61410574Y-93726836D01*
X61435355Y-93646647D01*
X61474814Y-93520785D01*
X61508109Y-93418219D01*
X61538451Y-93329720D01*
X61569053Y-93246059D01*
X61603125Y-93158006D01*
X61643879Y-93056333D01*
X61683062Y-92954387D01*
X61748878Y-92761838D01*
X61812780Y-92549661D01*
X61871022Y-92329836D01*
X61873447Y-92319094D01*
X61884277Y-92235116D01*
X61889500Y-92120534D01*
X61889492Y-91982191D01*
X61884624Y-91826926D01*
X61875270Y-91661582D01*
X61861803Y-91492999D01*
X61844597Y-91328017D01*
X61824023Y-91173479D01*
X61800457Y-91036225D01*
X61800356Y-91035714D01*
X61763488Y-90881997D01*
X61710038Y-90704767D01*
X61643486Y-90513999D01*
X61567311Y-90319671D01*
X61484992Y-90131759D01*
X61477432Y-90115496D01*
X61421808Y-89997868D01*
X61378035Y-89911482D01*
X61342794Y-89852225D01*
X61312768Y-89815983D01*
X61284639Y-89798643D01*
X61255090Y-89796091D01*
X61220802Y-89804215D01*
X61208796Y-89808310D01*
X61183453Y-89820871D01*
X61190317Y-89826918D01*
X61215958Y-89840771D01*
X61224509Y-89884801D01*
X61224873Y-89903256D01*
X61228393Y-89966399D01*
X61234443Y-90036224D01*
X61244378Y-90131759D01*
X61212330Y-90063374D01*
X61186852Y-90002774D01*
X61142025Y-89832455D01*
X61127049Y-89639729D01*
X61126897Y-89606526D01*
X61124858Y-89538778D01*
X61118931Y-89498619D01*
X61107197Y-89477644D01*
X61087740Y-89467451D01*
X61047531Y-89459388D01*
X61003483Y-89469176D01*
X60968249Y-89506302D01*
X60938552Y-89574675D01*
X60911119Y-89678203D01*
X60901910Y-89740449D01*
X60899629Y-89859493D01*
X60910963Y-89996207D01*
X60934822Y-90139504D01*
X60970116Y-90278297D01*
X60983509Y-90325589D01*
X61011300Y-90457731D01*
X61030669Y-90611369D01*
X61041928Y-90790731D01*
X61045390Y-91000048D01*
X61041366Y-91243549D01*
X61040014Y-91288487D01*
X61036117Y-91403337D01*
X61031560Y-91513366D01*
X61025982Y-91624040D01*
X61019018Y-91740825D01*
X61010306Y-91869190D01*
X60999482Y-92014601D01*
X60986183Y-92182525D01*
X60970045Y-92378429D01*
X60950706Y-92607780D01*
X60945761Y-92661430D01*
X60926307Y-92807053D01*
X60898407Y-92922040D01*
X60858743Y-93012631D01*
X60804003Y-93085072D01*
X60730872Y-93145605D01*
X60636033Y-93200474D01*
X60574636Y-93233574D01*
X60493978Y-93281060D01*
X60412049Y-93332594D01*
X60337702Y-93382408D01*
X60279788Y-93424736D01*
X60247159Y-93453812D01*
X60228573Y-93471771D01*
X60180151Y-93510986D01*
X60113107Y-93561261D01*
X60035736Y-93616689D01*
X59956331Y-93671362D01*
X59883185Y-93719371D01*
X59824592Y-93754811D01*
X59755483Y-93804030D01*
X59709255Y-93869891D01*
X59696177Y-93949723D01*
X59590969Y-93949723D01*
X59592797Y-93933001D01*
X59598318Y-93851847D01*
X59595410Y-93672413D01*
X59564715Y-93452091D01*
X59507251Y-93234407D01*
X59425864Y-93032876D01*
X59396856Y-92976041D01*
X59348552Y-92889737D01*
X59302378Y-92815914D01*
X59265297Y-92766145D01*
X59232824Y-92727233D01*
X59181018Y-92660955D01*
X59120778Y-92580879D01*
X59059549Y-92496750D01*
X58920532Y-92302204D01*
X58979098Y-92277578D01*
X59013265Y-92256014D01*
X59059034Y-92197917D01*
X59066597Y-92176893D01*
X59682587Y-92176893D01*
X59692475Y-92406164D01*
X59721070Y-92668633D01*
X59768408Y-92964836D01*
X59769599Y-92971416D01*
X59788202Y-93075055D01*
X59805359Y-93172082D01*
X59819210Y-93251888D01*
X59827893Y-93303864D01*
X59851157Y-93379114D01*
X59893063Y-93445567D01*
X59899158Y-93452001D01*
X59966249Y-93498563D01*
X60039584Y-93513772D01*
X60108666Y-93495211D01*
X60147793Y-93466488D01*
X60182736Y-93417800D01*
X60201766Y-93351095D01*
X60205445Y-93261725D01*
X60194334Y-93145040D01*
X60168997Y-92996394D01*
X60132817Y-92801355D01*
X60101012Y-92601716D01*
X60080482Y-92426603D01*
X60071086Y-92269104D01*
X60072684Y-92122309D01*
X60085132Y-91979308D01*
X60108291Y-91833191D01*
X60142018Y-91677046D01*
X60182092Y-91512131D01*
X60260623Y-91208116D01*
X60336764Y-90939252D01*
X60409992Y-90707426D01*
X60437793Y-90616655D01*
X60480372Y-90444963D01*
X60518809Y-90251036D01*
X60551527Y-90045251D01*
X60576947Y-89837983D01*
X60593492Y-89639606D01*
X60599585Y-89460496D01*
X60599592Y-89455909D01*
X60598386Y-89391021D01*
X61420561Y-89391021D01*
X61424028Y-89437804D01*
X61430711Y-89455909D01*
X61435430Y-89468693D01*
X61456597Y-89494386D01*
X61502492Y-89528131D01*
X61552589Y-89534372D01*
X61594970Y-89505326D01*
X61627014Y-89443000D01*
X61646097Y-89349398D01*
X61649013Y-89328478D01*
X61671874Y-89234031D01*
X61713540Y-89109999D01*
X61773013Y-88959451D01*
X61793756Y-88909314D01*
X61854712Y-88753021D01*
X61897019Y-88626595D01*
X61921297Y-88526897D01*
X61928166Y-88450789D01*
X61918248Y-88395132D01*
X61892163Y-88356787D01*
X61891472Y-88356165D01*
X61832824Y-88324202D01*
X61774362Y-88326079D01*
X61723466Y-88357299D01*
X61687517Y-88413365D01*
X61673894Y-88489781D01*
X61673697Y-88498241D01*
X61665312Y-88554626D01*
X61643470Y-88631553D01*
X61606659Y-88733738D01*
X61553367Y-88865896D01*
X61524969Y-88934608D01*
X61485105Y-89035512D01*
X61457617Y-89114290D01*
X61439963Y-89179543D01*
X61429602Y-89239874D01*
X61423994Y-89303886D01*
X61423197Y-89317646D01*
X61420561Y-89391021D01*
X60598386Y-89391021D01*
X60598293Y-89386039D01*
X60591939Y-89331114D01*
X60577099Y-89278829D01*
X60550340Y-89216882D01*
X60508232Y-89132971D01*
X60486839Y-89092613D01*
X60436809Y-89008102D01*
X60392861Y-88947534D01*
X60358130Y-88914885D01*
X60335751Y-88914136D01*
X60335491Y-88914609D01*
X60331265Y-88938939D01*
X60324497Y-88993785D01*
X60316064Y-89071543D01*
X60306844Y-89164605D01*
X60285299Y-89373159D01*
X60257508Y-89603225D01*
X60226831Y-89823051D01*
X60194092Y-90027839D01*
X60160122Y-90212794D01*
X60125746Y-90373117D01*
X60091792Y-90504012D01*
X60059089Y-90600682D01*
X60049591Y-90624722D01*
X60012648Y-90728489D01*
X59970202Y-90860201D01*
X59924430Y-91011944D01*
X59877508Y-91175806D01*
X59831611Y-91343876D01*
X59788914Y-91508241D01*
X59751594Y-91660990D01*
X59721827Y-91794210D01*
X59701788Y-91899990D01*
X59691375Y-91980282D01*
X59682587Y-92176893D01*
X59066597Y-92176893D01*
X59085645Y-92123946D01*
X59086613Y-92047949D01*
X59078640Y-92003355D01*
X59064971Y-91914694D01*
X59051661Y-91816188D01*
X59040211Y-91719936D01*
X59032122Y-91638039D01*
X59028895Y-91582596D01*
X59029626Y-91560577D01*
X59045717Y-91502663D01*
X59088907Y-91445827D01*
X59165608Y-91360259D01*
X59265741Y-91233790D01*
X59353387Y-91106449D01*
X59419444Y-90990766D01*
X59455343Y-90910448D01*
X59492995Y-90798342D01*
X59519554Y-90675665D01*
X59535301Y-90537860D01*
X59540513Y-90380366D01*
X59535471Y-90198624D01*
X59520452Y-89988075D01*
X59495737Y-89744161D01*
X59494483Y-89732966D01*
X59478951Y-89587172D01*
X59464205Y-89436740D01*
X59451227Y-89292526D01*
X59440998Y-89165390D01*
X59434498Y-89066188D01*
X59434430Y-89064916D01*
X59427065Y-88950464D01*
X59417955Y-88871187D01*
X59405402Y-88823222D01*
X59387710Y-88802703D01*
X59363181Y-88805766D01*
X59330117Y-88828546D01*
X59321651Y-88836324D01*
X59297478Y-88871015D01*
X59279159Y-88922146D01*
X59266351Y-88993459D01*
X59258709Y-89088696D01*
X59255891Y-89211600D01*
X59257552Y-89365912D01*
X59263348Y-89555374D01*
X59270183Y-89747382D01*
X59276554Y-89970169D01*
X59279031Y-90161131D01*
X59276681Y-90324361D01*
X59268576Y-90463953D01*
X59253784Y-90583999D01*
X59231378Y-90688593D01*
X59200425Y-90781827D01*
X59159997Y-90867794D01*
X59109164Y-90950587D01*
X59046994Y-91034300D01*
X58972560Y-91123026D01*
X58884929Y-91220856D01*
X58856734Y-91252346D01*
X58782836Y-91345049D01*
X58735909Y-91428584D01*
X58712532Y-91513739D01*
X58709280Y-91611303D01*
X58722732Y-91732062D01*
X58723990Y-91740531D01*
X58734485Y-91831104D01*
X58740250Y-91919196D01*
X58740063Y-91986842D01*
X58733355Y-92083464D01*
X58633965Y-91937996D01*
X58602756Y-91890164D01*
X58545061Y-91794454D01*
X58485391Y-91688380D01*
X58432607Y-91587374D01*
X58418048Y-91558323D01*
X58364528Y-91457694D01*
X58320136Y-91387660D01*
X58280884Y-91343493D01*
X58242780Y-91320462D01*
X58201833Y-91313836D01*
X58194308Y-91313807D01*
X58173013Y-91311264D01*
X58170415Y-91299606D01*
X58188609Y-91271853D01*
X58229689Y-91221028D01*
X58276974Y-91162528D01*
X58321895Y-91102929D01*
X58361726Y-91043355D01*
X58401942Y-90974981D01*
X58448018Y-90888980D01*
X58505428Y-90776528D01*
X58549278Y-90685083D01*
X58610574Y-90540656D01*
X58663689Y-90395612D01*
X58706533Y-90256946D01*
X58737019Y-90131651D01*
X58753057Y-90026721D01*
X58752557Y-89949149D01*
X58749627Y-89929092D01*
X58740356Y-89852400D01*
X58734721Y-89785626D01*
X58734242Y-89778885D01*
X58721742Y-89720886D01*
X58699629Y-89678164D01*
X58684436Y-89657312D01*
X58665107Y-89613940D01*
X58649513Y-89552799D01*
X58637287Y-89470342D01*
X58628063Y-89363023D01*
X58621474Y-89227295D01*
X58617154Y-89059614D01*
X58614736Y-88856432D01*
X58614630Y-88841622D01*
X58613399Y-88683288D01*
X58611986Y-88558856D01*
X58610006Y-88463548D01*
X58607073Y-88392586D01*
X58602801Y-88341192D01*
X58596805Y-88304588D01*
X58588698Y-88277997D01*
X58578095Y-88256641D01*
X58564609Y-88235741D01*
X58518432Y-88167454D01*
X58474159Y-88221529D01*
X58469360Y-88227888D01*
X58440966Y-88278329D01*
X58409363Y-88350359D01*
X58380542Y-88430598D01*
X58371146Y-88460644D01*
X58357134Y-88510341D01*
X58346806Y-88558738D01*
X58339581Y-88612564D01*
X58334883Y-88678549D01*
X58332132Y-88763423D01*
X58330887Y-88862850D01*
X58330749Y-88873914D01*
X58330158Y-89016752D01*
X58332052Y-89211176D01*
X58339779Y-89407272D01*
X58353155Y-89575324D01*
X58371888Y-89712638D01*
X58395685Y-89816519D01*
X58424254Y-89884275D01*
X58456697Y-89918485D01*
X58514364Y-89954105D01*
X58577151Y-89976698D01*
X58628862Y-89978783D01*
X58649331Y-89975034D01*
X58664970Y-89978384D01*
X58661843Y-89993910D01*
X58643558Y-90043717D01*
X58611748Y-90117287D01*
X58569662Y-90207977D01*
X58520552Y-90309144D01*
X58467668Y-90414144D01*
X58414260Y-90516335D01*
X58399251Y-90543799D01*
X58363580Y-90609072D01*
X58318877Y-90685712D01*
X58299087Y-90717787D01*
X58214293Y-90848201D01*
X58208919Y-90856466D01*
X58117069Y-90983619D01*
X58016345Y-91108248D01*
X57899555Y-91239359D01*
X57759506Y-91385954D01*
X57694589Y-91451133D01*
X57632630Y-91509071D01*
X57585136Y-91546364D01*
X57545828Y-91567819D01*
X57508431Y-91578242D01*
X57471369Y-91588972D01*
X57404196Y-91620487D01*
X57338901Y-91662431D01*
X57322509Y-91674884D01*
X57306268Y-91687433D01*
X57204980Y-91765697D01*
X57092033Y-91855424D01*
X56992701Y-91936802D01*
X56916016Y-92002567D01*
X56901473Y-92014794D01*
X56880633Y-92032315D01*
X56837118Y-92063669D01*
X56810867Y-92075836D01*
X56804894Y-92076453D01*
X56763704Y-92090327D01*
X56704668Y-92117727D01*
X56639753Y-92152362D01*
X56580929Y-92187939D01*
X56540163Y-92218166D01*
X56513933Y-92251752D01*
X56496201Y-92317455D01*
X56493425Y-92337211D01*
X56471385Y-92395916D01*
X56432666Y-92469262D01*
X56383666Y-92547421D01*
X56330784Y-92620566D01*
X56280419Y-92678871D01*
X56238971Y-92712506D01*
X56237180Y-92713444D01*
X56199267Y-92739826D01*
X56183586Y-92763440D01*
X56182789Y-92770898D01*
X56172435Y-92774582D01*
X56172215Y-92774328D01*
X56171421Y-92750003D01*
X56179291Y-92699068D01*
X56194197Y-92632193D01*
X56202979Y-92592763D01*
X56217411Y-92488259D01*
X56218456Y-92396600D01*
X56208054Y-92335945D01*
X56174334Y-92231453D01*
X56124219Y-92120569D01*
X56063899Y-92016427D01*
X55999564Y-91932158D01*
X55999534Y-91932126D01*
X55958666Y-91883003D01*
X55943448Y-91849219D01*
X55949520Y-91821096D01*
X55962627Y-91779852D01*
X55968663Y-91723925D01*
X55968636Y-91720002D01*
X55964967Y-91688692D01*
X55951506Y-91658809D01*
X55923093Y-91623868D01*
X55874568Y-91577384D01*
X55800772Y-91512871D01*
X55785537Y-91496072D01*
X55774536Y-91478278D01*
X56320884Y-91478278D01*
X56322154Y-91528653D01*
X56329193Y-91597386D01*
X56341631Y-91676593D01*
X56344468Y-91691291D01*
X56369090Y-91788439D01*
X56401906Y-91884238D01*
X56438187Y-91966268D01*
X56473200Y-92022105D01*
X56491812Y-92040415D01*
X56533258Y-92054623D01*
X56571699Y-92030190D01*
X56576424Y-92014794D01*
X56571015Y-91980991D01*
X56552151Y-91926077D01*
X56518251Y-91845564D01*
X56467732Y-91734959D01*
X56444830Y-91686106D01*
X56402816Y-91597611D01*
X56367788Y-91525302D01*
X56342880Y-91475610D01*
X56331226Y-91454963D01*
X56325755Y-91454149D01*
X56320884Y-91478278D01*
X55774536Y-91478278D01*
X55753538Y-91444315D01*
X55725888Y-91381144D01*
X55715944Y-91353645D01*
X55684632Y-91272733D01*
X55654433Y-91200967D01*
X55627518Y-91111752D01*
X55625142Y-91086590D01*
X55999243Y-91086590D01*
X56002303Y-91089908D01*
X56033547Y-91090859D01*
X56076160Y-91110502D01*
X56091049Y-91118975D01*
X56150072Y-91142669D01*
X56217223Y-91160269D01*
X56231697Y-91163202D01*
X56299102Y-91185911D01*
X56356283Y-91225525D01*
X56410872Y-91288733D01*
X56470499Y-91382220D01*
X56523767Y-91468530D01*
X56588199Y-91563211D01*
X56653357Y-91650597D01*
X56714069Y-91724111D01*
X56765167Y-91777178D01*
X56801480Y-91803222D01*
X56835439Y-91815366D01*
X56854050Y-91820293D01*
X56859209Y-91818332D01*
X56886970Y-91808276D01*
X56916208Y-91794221D01*
X56955371Y-91749416D01*
X56962494Y-91687433D01*
X56937649Y-91611704D01*
X56880910Y-91525665D01*
X56855192Y-91492858D01*
X56798965Y-91417661D01*
X56736011Y-91330285D01*
X56675743Y-91243664D01*
X56675607Y-91243465D01*
X56612183Y-91154329D01*
X56559952Y-91091642D01*
X56511485Y-91047522D01*
X56459351Y-91014087D01*
X56452794Y-91010596D01*
X56342429Y-90972126D01*
X56229657Y-90966825D01*
X56123304Y-90993898D01*
X56032195Y-91052552D01*
X56020523Y-91063563D01*
X55999243Y-91086590D01*
X55625142Y-91086590D01*
X55616970Y-91000070D01*
X55616312Y-90966200D01*
X55600759Y-90856838D01*
X55560805Y-90766182D01*
X55491499Y-90681667D01*
X55451455Y-90645307D01*
X55402885Y-90617890D01*
X55348674Y-90610451D01*
X55295539Y-90616685D01*
X55217241Y-90633402D01*
X55125885Y-90657286D01*
X55033279Y-90685023D01*
X54951227Y-90713300D01*
X54891535Y-90738801D01*
X54866091Y-90750677D01*
X54836043Y-90753087D01*
X54808497Y-90730303D01*
X54789311Y-90702230D01*
X54776817Y-90661865D01*
X54776817Y-90661652D01*
X54792934Y-90598171D01*
X54839245Y-90517457D01*
X54913083Y-90423391D01*
X55011782Y-90319855D01*
X55018023Y-90313777D01*
X56331828Y-90313777D01*
X56332593Y-90391700D01*
X56362584Y-90476948D01*
X56418729Y-90559396D01*
X56434178Y-90574829D01*
X56484700Y-90617482D01*
X56556956Y-90673078D01*
X56643726Y-90736145D01*
X56737792Y-90801212D01*
X56793937Y-90838757D01*
X56880377Y-90895342D01*
X56953794Y-90941920D01*
X57007787Y-90974460D01*
X57035953Y-90988932D01*
X57055429Y-90993019D01*
X57111997Y-90982514D01*
X57155539Y-90942943D01*
X57176151Y-90881868D01*
X57177441Y-90848201D01*
X57171715Y-90820213D01*
X57154145Y-90794820D01*
X57119955Y-90768334D01*
X57064371Y-90737070D01*
X56982615Y-90697340D01*
X56869913Y-90645457D01*
X56780444Y-90604074D01*
X56667695Y-90548859D01*
X56583654Y-90502055D01*
X56523605Y-90460196D01*
X56482831Y-90419816D01*
X56456618Y-90377446D01*
X56440248Y-90329621D01*
X56419356Y-90271480D01*
X56392408Y-90241735D01*
X56364222Y-90248521D01*
X56337905Y-90292951D01*
X56331828Y-90313777D01*
X55018023Y-90313777D01*
X55035823Y-90296441D01*
X55097960Y-90233483D01*
X55141439Y-90181666D01*
X55173942Y-90129229D01*
X55203154Y-90064411D01*
X55236756Y-89975451D01*
X55257687Y-89914645D01*
X55283060Y-89823512D01*
X55739680Y-89823512D01*
X55740476Y-89896717D01*
X55744647Y-89945153D01*
X55752690Y-89975337D01*
X55765100Y-89993789D01*
X55780200Y-90007460D01*
X55813470Y-90023795D01*
X55845949Y-90015150D01*
X55881005Y-89978529D01*
X55922004Y-89910936D01*
X55953156Y-89848044D01*
X56543424Y-89848044D01*
X56561088Y-89859582D01*
X56586091Y-89864841D01*
X56635359Y-89861704D01*
X56650387Y-89858611D01*
X56710065Y-89865488D01*
X56767628Y-89906141D01*
X56826941Y-89983017D01*
X56841561Y-90005307D01*
X56909825Y-90093623D01*
X56984073Y-90158522D01*
X57075335Y-90208015D01*
X57194641Y-90250115D01*
X57204819Y-90253170D01*
X57311937Y-90285639D01*
X57428597Y-90321432D01*
X57531292Y-90353342D01*
X57696922Y-90405297D01*
X57691320Y-90502990D01*
X57690593Y-90556458D01*
X57700610Y-90606153D01*
X57726721Y-90644643D01*
X57774345Y-90677702D01*
X57840232Y-90685478D01*
X57877369Y-90683646D01*
X57958736Y-90676190D01*
X58014626Y-90662779D01*
X58055036Y-90640203D01*
X58089964Y-90605250D01*
X58141672Y-90543799D01*
X58127687Y-90152163D01*
X58122216Y-90026650D01*
X58114411Y-89892236D01*
X58105291Y-89767164D01*
X58095583Y-89661344D01*
X58086016Y-89584682D01*
X58074631Y-89502129D01*
X58061695Y-89388703D01*
X58049737Y-89265506D01*
X58040351Y-89147780D01*
X58038700Y-89124364D01*
X58031229Y-89030171D01*
X58023763Y-88952422D01*
X58017088Y-88898640D01*
X58011990Y-88876342D01*
X57992733Y-88873834D01*
X57964943Y-88900732D01*
X57935443Y-88953428D01*
X57908677Y-89025507D01*
X57908168Y-89027210D01*
X57897788Y-89067793D01*
X57890013Y-89114069D01*
X57884591Y-89171599D01*
X57881268Y-89245944D01*
X57879792Y-89342666D01*
X57879815Y-89366786D01*
X57879910Y-89467327D01*
X57881367Y-89625488D01*
X57882191Y-89720918D01*
X57882415Y-89858748D01*
X57881523Y-89985217D01*
X57879609Y-90093398D01*
X57876770Y-90176363D01*
X57873101Y-90227186D01*
X57865973Y-90278905D01*
X57857312Y-90314338D01*
X57845641Y-90322681D01*
X57827339Y-90310533D01*
X57824525Y-90308140D01*
X57768383Y-90276653D01*
X57674332Y-90243208D01*
X57542006Y-90207694D01*
X57371037Y-90169996D01*
X57268883Y-90147856D01*
X57159464Y-90118513D01*
X57076527Y-90086542D01*
X57012931Y-90048319D01*
X56961536Y-90000219D01*
X56915201Y-89938617D01*
X56910636Y-89931833D01*
X56836347Y-89845632D01*
X56757214Y-89798088D01*
X56672774Y-89789034D01*
X56582568Y-89818302D01*
X56556093Y-89833159D01*
X56543424Y-89848044D01*
X55953156Y-89848044D01*
X55972311Y-89809374D01*
X55989425Y-89775069D01*
X56040880Y-89684082D01*
X56102715Y-89585979D01*
X56165067Y-89496759D01*
X56202554Y-89444709D01*
X56273647Y-89333949D01*
X56274520Y-89332317D01*
X56459221Y-89332317D01*
X56460433Y-89431943D01*
X56462627Y-89471959D01*
X56468702Y-89534307D01*
X56480419Y-89575586D01*
X56502312Y-89608042D01*
X56538915Y-89643918D01*
X56569768Y-89667868D01*
X56650951Y-89712856D01*
X56748480Y-89751894D01*
X56847459Y-89779458D01*
X56932990Y-89790027D01*
X56965167Y-89793954D01*
X57030132Y-89811700D01*
X57098949Y-89838873D01*
X57144481Y-89857793D01*
X57212798Y-89879167D01*
X57265026Y-89887455D01*
X57280111Y-89886573D01*
X57337442Y-89872228D01*
X57393716Y-89845593D01*
X57436556Y-89813532D01*
X57453586Y-89782906D01*
X57462885Y-89758493D01*
X57491240Y-89712539D01*
X57532002Y-89657377D01*
X57600612Y-89560185D01*
X57651270Y-89456491D01*
X57668509Y-89366786D01*
X57661200Y-89314450D01*
X57627370Y-89230237D01*
X57573570Y-89151024D01*
X57508206Y-89091257D01*
X57447682Y-89038512D01*
X57400961Y-88965474D01*
X57397596Y-88957570D01*
X57359840Y-88894295D01*
X57313167Y-88842148D01*
X57302836Y-88833651D01*
X57275423Y-88815044D01*
X57243850Y-88803259D01*
X57199390Y-88796757D01*
X57133314Y-88793999D01*
X57036894Y-88793447D01*
X56922791Y-88795574D01*
X56835906Y-88805052D01*
X56769252Y-88826506D01*
X56713370Y-88864559D01*
X56658801Y-88923838D01*
X56596085Y-89008966D01*
X56540398Y-89092085D01*
X56495312Y-89174521D01*
X56469550Y-89250554D01*
X56459221Y-89332317D01*
X56274520Y-89332317D01*
X56329088Y-89230264D01*
X56365251Y-89140858D01*
X56378507Y-89072934D01*
X56378671Y-89070466D01*
X56393662Y-89033088D01*
X56428160Y-88979336D01*
X56475351Y-88919970D01*
X56526805Y-88853986D01*
X56573607Y-88780583D01*
X56603212Y-88718564D01*
X56620093Y-88661850D01*
X56639314Y-88578684D01*
X56649091Y-88525500D01*
X57238663Y-88525500D01*
X57238663Y-88738619D01*
X57299344Y-88795304D01*
X57314271Y-88808696D01*
X57354677Y-88839632D01*
X57380844Y-88851990D01*
X57401629Y-88859035D01*
X57436986Y-88883957D01*
X57454080Y-88898668D01*
X57472649Y-88904829D01*
X57485151Y-88882460D01*
X57487693Y-88862850D01*
X57482285Y-88811054D01*
X57467028Y-88747916D01*
X57454768Y-88705090D01*
X57432211Y-88615494D01*
X57413675Y-88529605D01*
X57402036Y-88480768D01*
X57373796Y-88396003D01*
X57341536Y-88326054D01*
X57320051Y-88289715D01*
X57298163Y-88260401D01*
X57282360Y-88257468D01*
X57274963Y-88265492D01*
X57265224Y-88276057D01*
X57259494Y-88286245D01*
X57247658Y-88333320D01*
X57240846Y-88411838D01*
X57238663Y-88525500D01*
X56649091Y-88525500D01*
X56655903Y-88488443D01*
X56668597Y-88400149D01*
X56676131Y-88322824D01*
X56677241Y-88265492D01*
X56670662Y-88237175D01*
X56663133Y-88232275D01*
X56635662Y-88240699D01*
X56603890Y-88279089D01*
X56571873Y-88341540D01*
X56543667Y-88422143D01*
X56507246Y-88536456D01*
X56446147Y-88684639D01*
X56379000Y-88803143D01*
X56374837Y-88809334D01*
X56338133Y-88869289D01*
X56294493Y-88947192D01*
X56252481Y-89027836D01*
X56241612Y-89049010D01*
X56200719Y-89121519D01*
X56153218Y-89197914D01*
X56103560Y-89271961D01*
X56056197Y-89337427D01*
X56015580Y-89388081D01*
X55986161Y-89417689D01*
X55972390Y-89420018D01*
X55971105Y-89380147D01*
X55983244Y-89314706D01*
X56005934Y-89236344D01*
X56035851Y-89156460D01*
X56069672Y-89086451D01*
X56131900Y-88975502D01*
X56178204Y-88889955D01*
X56211079Y-88824200D01*
X56233777Y-88771283D01*
X56249552Y-88724249D01*
X56261660Y-88676143D01*
X56272019Y-88635744D01*
X56296781Y-88561330D01*
X56322748Y-88503682D01*
X56346120Y-88451262D01*
X56343748Y-88414791D01*
X56310851Y-88402605D01*
X56284450Y-88413316D01*
X56242572Y-88456957D01*
X56195223Y-88530030D01*
X56145703Y-88628031D01*
X56114767Y-88687060D01*
X56059436Y-88773456D01*
X56001472Y-88848047D01*
X55999845Y-88849881D01*
X55917776Y-88951899D01*
X55868113Y-89035817D01*
X55851432Y-89100672D01*
X55846161Y-89129458D01*
X55824645Y-89174911D01*
X55819599Y-89182735D01*
X55790447Y-89255643D01*
X55767771Y-89366068D01*
X55751715Y-89513099D01*
X55742422Y-89695828D01*
X55741764Y-89719017D01*
X55739680Y-89823512D01*
X55283060Y-89823512D01*
X55290529Y-89796687D01*
X55308774Y-89693913D01*
X55311457Y-89612908D01*
X55297612Y-89560259D01*
X55285194Y-89550976D01*
X55235795Y-89539762D01*
X55155510Y-89535836D01*
X55097071Y-89534142D01*
X55051254Y-89527460D01*
X55040586Y-89516297D01*
X55062620Y-89503194D01*
X55106298Y-89496759D01*
X55135887Y-89491509D01*
X55194153Y-89468828D01*
X55256568Y-89434306D01*
X55297129Y-89408645D01*
X55361820Y-89369566D01*
X55411817Y-89341498D01*
X55418120Y-89337952D01*
X55466394Y-89296158D01*
X55504398Y-89241715D01*
X55515233Y-89219358D01*
X55524600Y-89195079D01*
X55528824Y-89168475D01*
X55527543Y-89132320D01*
X55520397Y-89079387D01*
X55507027Y-89002451D01*
X55487071Y-88894286D01*
X55480775Y-88873346D01*
X55441802Y-88816588D01*
X55380737Y-88769452D01*
X55309837Y-88742435D01*
X55241923Y-88729694D01*
X55292277Y-88679341D01*
X55342630Y-88628987D01*
X55397822Y-88681864D01*
X55453014Y-88734742D01*
X55520338Y-88664694D01*
X55533929Y-88651277D01*
X55589818Y-88602226D01*
X55661776Y-88544692D01*
X55737685Y-88488498D01*
X55761777Y-88470904D01*
X55838845Y-88408260D01*
X55908107Y-88343455D01*
X55956954Y-88288017D01*
X56030467Y-88208246D01*
X56119547Y-88146721D01*
X56176810Y-88115996D01*
X56219299Y-88085783D01*
X56228725Y-88063752D01*
X56207293Y-88047406D01*
X56198707Y-88043920D01*
X56186176Y-88035499D01*
X56211311Y-88032747D01*
X56212838Y-88032655D01*
X56222339Y-88024196D01*
X56210247Y-87999877D01*
X56174129Y-87956214D01*
X56111555Y-87889720D01*
X56079444Y-87855481D01*
X56016396Y-87782200D01*
X55963687Y-87713314D01*
X55930257Y-87660143D01*
X55919725Y-87638826D01*
X55903577Y-87602744D01*
X55903930Y-87594114D01*
X55922070Y-87614205D01*
X55959285Y-87664288D01*
X56016861Y-87745633D01*
X56110905Y-87879969D01*
X56217143Y-87869004D01*
X56245695Y-87865329D01*
X56336301Y-87841577D01*
X56400551Y-87804032D01*
X56432445Y-87755846D01*
X56437547Y-87739616D01*
X56447806Y-87726828D01*
X56469471Y-87718667D01*
X56509455Y-87713758D01*
X56574676Y-87710725D01*
X56672047Y-87708194D01*
X56690277Y-87707740D01*
X56814005Y-87702843D01*
X56905795Y-87694841D01*
X56971946Y-87682622D01*
X57018759Y-87665075D01*
X57052531Y-87641091D01*
X57088538Y-87615384D01*
X57110755Y-87619597D01*
X57112426Y-87622048D01*
X57147225Y-87640556D01*
X57198846Y-87640279D01*
X57252505Y-87623433D01*
X57293415Y-87592233D01*
X57331465Y-87543860D01*
X57375511Y-87665502D01*
X57395352Y-87718200D01*
X57443334Y-87831078D01*
X57491651Y-87926851D01*
X57536665Y-87998682D01*
X57574734Y-88039734D01*
X57613669Y-88059001D01*
X57669925Y-88070451D01*
X57692003Y-88067306D01*
X57751127Y-88042625D01*
X57815385Y-88001103D01*
X57871555Y-87952010D01*
X57906414Y-87904619D01*
X57915588Y-87873970D01*
X57908985Y-87811051D01*
X57874240Y-87754938D01*
X57818308Y-87714653D01*
X57748139Y-87699220D01*
X57747021Y-87699174D01*
X57721109Y-87679680D01*
X57691249Y-87630530D01*
X57660371Y-87560103D01*
X57631402Y-87476774D01*
X57607269Y-87388920D01*
X57590902Y-87304917D01*
X57585227Y-87233141D01*
X57591914Y-87144233D01*
X57623377Y-87016722D01*
X57682769Y-86887020D01*
X57772509Y-86750193D01*
X57895016Y-86601306D01*
X57896360Y-86599797D01*
X57957366Y-86526110D01*
X58016324Y-86446515D01*
X58060646Y-86377983D01*
X58090535Y-86329408D01*
X58120544Y-86288595D01*
X58139153Y-86272913D01*
X58147286Y-86275223D01*
X58174906Y-86303428D01*
X58205380Y-86355744D01*
X58233437Y-86422089D01*
X58253812Y-86492379D01*
X58254978Y-86497983D01*
X58266544Y-86567818D01*
X58277762Y-86656903D01*
X58286354Y-86747391D01*
X58287021Y-86756470D01*
X58289843Y-86852097D01*
X58282872Y-86943134D01*
X58264170Y-87037274D01*
X58231802Y-87142211D01*
X58183833Y-87265640D01*
X58118327Y-87415254D01*
X58089177Y-87480287D01*
X58033748Y-87610484D01*
X57995347Y-87712978D01*
X57972578Y-87792279D01*
X57964044Y-87852897D01*
X57968346Y-87899341D01*
X57978598Y-87926889D01*
X58013298Y-87962361D01*
X58058400Y-87967367D01*
X58105076Y-87942463D01*
X58144493Y-87888209D01*
X58153720Y-87869858D01*
X58182488Y-87815427D01*
X58224004Y-87738669D01*
X58274226Y-87647035D01*
X58329111Y-87547971D01*
X58396875Y-87423722D01*
X58462265Y-87294172D01*
X58510191Y-87182937D01*
X58543102Y-87082273D01*
X58563448Y-86984436D01*
X58573676Y-86881679D01*
X58576235Y-86766259D01*
X58576195Y-86735268D01*
X58577573Y-86644792D01*
X58581799Y-86586661D01*
X58589467Y-86555629D01*
X58601172Y-86546451D01*
X58617920Y-86551957D01*
X58658375Y-86581134D01*
X58707039Y-86627136D01*
X58755023Y-86680530D01*
X58793442Y-86731881D01*
X58813408Y-86771756D01*
X58815299Y-86790694D01*
X58808846Y-86854871D01*
X58789082Y-86952263D01*
X58756412Y-87080670D01*
X58752321Y-87095741D01*
X58725288Y-87197688D01*
X58701389Y-87291613D01*
X58683086Y-87367645D01*
X58672838Y-87415913D01*
X58672047Y-87420354D01*
X58654843Y-87495902D01*
X58633124Y-87568909D01*
X58620098Y-87612101D01*
X58618254Y-87654576D01*
X58634686Y-87697332D01*
X58681093Y-87764247D01*
X58736956Y-87801819D01*
X58795458Y-87803316D01*
X58852536Y-87767431D01*
X58881190Y-87734604D01*
X58895781Y-87695056D01*
X58891668Y-87638970D01*
X58889978Y-87566770D01*
X58916368Y-87488934D01*
X58931332Y-87457129D01*
X58959820Y-87382602D01*
X58989052Y-87286249D01*
X59020654Y-87162455D01*
X59056250Y-87005605D01*
X59066071Y-86960749D01*
X59088400Y-86860375D01*
X59109583Y-86767026D01*
X59126100Y-86696296D01*
X59138319Y-86644495D01*
X59149229Y-86596051D01*
X59153432Y-86574181D01*
X59156513Y-86570509D01*
X59182289Y-86565990D01*
X59210638Y-86573902D01*
X59242890Y-86616296D01*
X59261858Y-86695138D01*
X59267471Y-86810220D01*
X59267439Y-86823077D01*
X59270343Y-86904757D01*
X59277642Y-86975611D01*
X59287966Y-87021531D01*
X59302661Y-87075491D01*
X59309740Y-87140395D01*
X59313444Y-87173295D01*
X59337171Y-87226019D01*
X59387894Y-87288913D01*
X59420678Y-87327918D01*
X59453386Y-87377015D01*
X59466047Y-87411204D01*
X59465206Y-87426278D01*
X59449126Y-87498109D01*
X59416049Y-87588806D01*
X59370493Y-87688247D01*
X59316975Y-87786309D01*
X59260014Y-87872869D01*
X59229556Y-87915392D01*
X59180006Y-87996233D01*
X59157190Y-88058852D01*
X59159610Y-88108881D01*
X59185768Y-88151951D01*
X59206000Y-88168379D01*
X59240560Y-88180212D01*
X59295912Y-88186092D01*
X59381153Y-88187682D01*
X59450798Y-88188577D01*
X59507022Y-88192781D01*
X59535990Y-88201455D01*
X59544201Y-88215718D01*
X59549955Y-88249738D01*
X59565458Y-88298756D01*
X59586714Y-88353759D01*
X59600761Y-88327573D01*
X59848072Y-88327573D01*
X59849293Y-88372600D01*
X59867693Y-88424598D01*
X59874130Y-88440003D01*
X59887874Y-88488574D01*
X59886642Y-88518998D01*
X59886005Y-88547775D01*
X59904429Y-88589080D01*
X59934762Y-88620936D01*
X59993188Y-88637067D01*
X60005441Y-88636009D01*
X60035749Y-88625511D01*
X60075578Y-88600996D01*
X60129467Y-88559070D01*
X60201952Y-88496339D01*
X60297570Y-88409410D01*
X60326931Y-88382203D01*
X60497138Y-88216827D01*
X60635205Y-88067401D01*
X60742948Y-87931431D01*
X60822187Y-87806422D01*
X60874739Y-87689879D01*
X60902421Y-87579307D01*
X60905501Y-87514109D01*
X60888577Y-87426485D01*
X60850726Y-87353195D01*
X60796941Y-87300422D01*
X60732218Y-87274349D01*
X60661553Y-87281158D01*
X60646137Y-87287593D01*
X60593056Y-87331427D01*
X60566372Y-87392404D01*
X60572126Y-87458544D01*
X60579706Y-87486395D01*
X60578298Y-87522497D01*
X60562326Y-87570220D01*
X60529184Y-87640605D01*
X60484651Y-87720280D01*
X60379091Y-87860949D01*
X60241574Y-87993743D01*
X60068542Y-88122383D01*
X59982701Y-88181326D01*
X59911255Y-88237234D01*
X59867552Y-88284217D01*
X59848072Y-88327573D01*
X59600761Y-88327573D01*
X59623397Y-88285374D01*
X59667030Y-88201851D01*
X59707650Y-88114614D01*
X59734597Y-88039059D01*
X59751972Y-87963204D01*
X59763880Y-87875067D01*
X59765098Y-87863766D01*
X59775069Y-87782575D01*
X59787292Y-87722236D01*
X59806499Y-87669326D01*
X59837422Y-87610424D01*
X59884794Y-87532106D01*
X59908350Y-87489275D01*
X59946015Y-87404449D01*
X59974460Y-87321136D01*
X60006840Y-87202846D01*
X60057689Y-87289841D01*
X60090621Y-87349652D01*
X60132045Y-87430256D01*
X60171313Y-87511238D01*
X60234087Y-87645640D01*
X60264041Y-87589392D01*
X60275814Y-87559365D01*
X60295630Y-87495357D01*
X60320180Y-87406925D01*
X60347433Y-87301418D01*
X60375361Y-87186185D01*
X60390173Y-87124315D01*
X60421808Y-87001237D01*
X60450210Y-86903252D01*
X60474039Y-86834795D01*
X60491953Y-86800300D01*
X60520496Y-86777454D01*
X60583401Y-86760642D01*
X60652054Y-86773525D01*
X60714845Y-86815320D01*
X60727370Y-86829729D01*
X60767860Y-86898552D01*
X60811737Y-87003894D01*
X60858399Y-87144002D01*
X60907244Y-87317122D01*
X60955844Y-87514109D01*
X60957668Y-87521500D01*
G37*
%TD*%
D11*
%TO.C,J13*%
X118785000Y-36975000D03*
D12*
X121325000Y-36975000D03*
%TD*%
D13*
%TO.C,J1*%
X47000000Y-40000000D03*
X47000000Y-51430000D03*
D14*
X53350000Y-51430000D03*
D15*
X55890000Y-50160000D03*
X53350000Y-48890000D03*
X55890000Y-47620000D03*
X53350000Y-46350000D03*
X55890000Y-42540000D03*
X53350000Y-41270000D03*
X55890000Y-40000000D03*
X58430000Y-41270000D03*
D16*
X60720000Y-40250000D03*
X60720000Y-48640000D03*
X60720000Y-42790000D03*
X60720000Y-51180000D03*
D17*
X50050000Y-37970000D03*
X50050000Y-53460000D03*
%TD*%
D18*
%TO.C,H2*%
X41775000Y-120000000D03*
X42719581Y-117719581D03*
X42719581Y-122280419D03*
X45000000Y-116775000D03*
D19*
X45000000Y-120000000D03*
D18*
X45000000Y-123225000D03*
X47280419Y-117719581D03*
X47280419Y-122280419D03*
X48225000Y-120000000D03*
%TD*%
D20*
%TO.C,J9*%
X45100000Y-108600000D03*
X42560000Y-111140000D03*
X47640000Y-111140000D03*
X42560000Y-106060000D03*
X47640000Y-106060000D03*
%TD*%
D18*
%TO.C,H1*%
X41775000Y-30000000D03*
X42719581Y-27719581D03*
X42719581Y-32280419D03*
X45000000Y-26775000D03*
D19*
X45000000Y-30000000D03*
D18*
X45000000Y-33225000D03*
X47280419Y-27719581D03*
X47280419Y-32280419D03*
X48225000Y-30000000D03*
%TD*%
D21*
%TO.C,J2*%
X80150000Y-101299840D03*
D22*
X101150000Y-101299840D03*
%TD*%
D18*
%TO.C,H4*%
X131775000Y-120000000D03*
X132719581Y-117719581D03*
X132719581Y-122280419D03*
X135000000Y-116775000D03*
D19*
X135000000Y-120000000D03*
D18*
X135000000Y-123225000D03*
X137280419Y-117719581D03*
X137280419Y-122280419D03*
X138225000Y-120000000D03*
%TD*%
D23*
%TO.C,J7*%
X46180000Y-63110000D03*
X46180000Y-68890000D03*
D24*
X46680000Y-61680000D03*
D25*
X42500000Y-61680000D03*
D24*
X46680000Y-70320000D03*
D25*
X42500000Y-70320000D03*
%TD*%
D11*
%TO.C,J3*%
X118785000Y-33275000D03*
D12*
X121325000Y-33275000D03*
%TD*%
D26*
%TO.C,FL1*%
X59545000Y-107405000D03*
X58425000Y-107405000D03*
X59545000Y-109795000D03*
X58425000Y-109795000D03*
%TD*%
D11*
%TO.C,J12*%
X112060000Y-85500000D03*
D12*
X114600000Y-85500000D03*
X117140000Y-85500000D03*
%TD*%
D18*
%TO.C,H3*%
X131775000Y-30000000D03*
X132719581Y-27719581D03*
X132719581Y-32280419D03*
X135000000Y-26775000D03*
D19*
X135000000Y-30000000D03*
D18*
X135000000Y-33225000D03*
X137280419Y-27719581D03*
X137280419Y-32280419D03*
X138225000Y-30000000D03*
%TD*%
D27*
%TO.C,J8*%
X128394669Y-63294792D03*
X128394669Y-38294792D03*
D28*
X126974669Y-56334792D03*
D22*
X126974669Y-53564792D03*
X126974669Y-50794792D03*
X126974669Y-48024792D03*
X126974669Y-45254792D03*
X129814669Y-54949792D03*
X129814669Y-52179792D03*
X129814669Y-49409792D03*
X129814669Y-46639792D03*
%TD*%
D29*
%TO.C,TP5*%
X88550000Y-100350000D03*
%TD*%
D30*
%TO.C,JP4*%
X117900000Y-66237292D03*
D31*
X116600000Y-66237292D03*
D32*
X115300000Y-66237292D03*
%TD*%
D30*
%TO.C,JP3*%
X117900000Y-57094792D03*
D31*
X116600000Y-57094792D03*
D32*
X115300000Y-57094792D03*
%TD*%
D29*
%TO.C,TP4*%
X98550000Y-100350000D03*
%TD*%
D33*
%TO.C,C11*%
X84750000Y-62890000D03*
X86300000Y-62890000D03*
%TD*%
%TO.C,C10*%
X84750000Y-64400000D03*
X86300000Y-64400000D03*
%TD*%
D34*
%TO.C,JP5*%
X112500000Y-117600000D03*
D31*
X113800000Y-117600000D03*
D35*
X115100000Y-117600000D03*
%TD*%
D36*
%TO.C,C54*%
X60475000Y-68600000D03*
X58925000Y-68600000D03*
%TD*%
D37*
%TO.C,C55*%
X61000000Y-66375000D03*
X61000000Y-64825000D03*
%TD*%
D29*
%TO.C,TP7*%
X93000000Y-65450000D03*
%TD*%
D30*
%TO.C,JP1*%
X117900000Y-60094792D03*
D31*
X116600000Y-60094792D03*
D32*
X115300000Y-60094792D03*
%TD*%
D33*
%TO.C,C15*%
X88725000Y-66400000D03*
X90275000Y-66400000D03*
%TD*%
D38*
%TO.C,C59*%
X84450000Y-71925000D03*
X84450000Y-73475000D03*
%TD*%
D30*
%TO.C,JP2*%
X117900000Y-63094792D03*
D31*
X116600000Y-63094792D03*
D32*
X115300000Y-63094792D03*
%TD*%
D37*
%TO.C,C33*%
X62400000Y-110600000D03*
X62400000Y-109050000D03*
%TD*%
D29*
%TO.C,TP1*%
X83550000Y-103350000D03*
%TD*%
%TO.C,TP3*%
X102850000Y-98700000D03*
%TD*%
D37*
%TO.C,C40*%
X60900000Y-110625000D03*
X60900000Y-109075000D03*
%TD*%
D29*
%TO.C,TP2*%
X82100000Y-100350000D03*
%TD*%
%TO.C,TP6*%
X96050000Y-103350000D03*
%TD*%
D39*
%TO.C,JP6*%
X112600000Y-39175000D03*
D40*
X114050000Y-39175000D03*
%TD*%
D41*
%TO.C,J10*%
X87550000Y-73250001D03*
X87550000Y-73750000D03*
X87550000Y-74249999D03*
X87550000Y-74750000D03*
X87550000Y-75250000D03*
X87550000Y-75750001D03*
X87550000Y-76250000D03*
X87550000Y-76749999D03*
D42*
X90249999Y-70950003D03*
X90249999Y-79049997D03*
%TD*%
M02*
